<?xml version="1.0" encoding="utf-8"?>
<!-- Generator: Adobe Illustrator 21.0.2, SVG Export Plug-In . SVG Version: 6.00 Build 0)  -->
<svg version="1.1" id="Calque_1" xmlns="http://www.w3.org/2000/svg" xmlns:xlink="http://www.w3.org/1999/xlink" x="0px" y="0px"
	 viewBox="0 0 757.9 77.4" style="enable-background:new 0 0 757.9 77.4;" xml:space="preserve">
<style type="text/css">
	.st0{fill:#FFFFFF;}
</style>
<title>Fichier 3</title>
<g id="Calque_2">
	<g id="Calque_1-2">
		<polygon class="st0" points="14.4,0 0,32.8 0,77.4 34.1,0 		"/>
		<polygon class="st0" points="397.4,0 363.3,77.4 383,77.4 417.1,0 		"/>
		<polygon class="st0" points="437.4,0 403.3,77.4 423,77.4 457.1,0 		"/>
		<polygon class="st0" points="477.4,0 443.3,77.4 463,77.4 497.1,0 		"/>
		<polygon class="st0" points="517.4,0 483.3,77.4 503,77.4 537.1,0 		"/>
		<polygon class="st0" points="557.4,0 523.3,77.4 543,77.4 577.1,0 		"/>
		<polygon class="st0" points="597.4,0 563.3,77.4 583,77.4 617.1,0 		"/>
		<polygon class="st0" points="637.4,0 603.3,77.4 623,77.4 657.1,0 		"/>
		<polygon class="st0" points="677.4,0 643.3,77.4 663,77.4 697.1,0 		"/>
		<polygon class="st0" points="717.4,0 683.3,77.4 703,77.4 737.1,0 		"/>
		<polygon class="st0" points="757.9,0 757.4,0 723.3,77.4 743,77.4 757.9,43.7 		"/>
	</g>
</g>
</svg>
