<svg xmlns="http://www.w3.org/2000/svg" viewBox="0 0 757.9 77.4"><defs><style>.cls-1{fill:#fff;}</style></defs><title>Fichier 1</title><g id="Calque_2" data-name="Calque 2"><g id="Calque_1-2" data-name="Calque 1"><g id="Calque_2-2" data-name="Calque 2"><g id="Calque_1-2-2" data-name="Calque 1-2"><polygon class="cls-1" points="14.4 0 0 32.8 0 77.4 34.1 0 14.4 0"/><polygon class="cls-1" points="511.4 0 477.3 77.4 497 77.4 531.1 0 511.4 0"/><polygon class="cls-1" points="552.4 0 518.3 77.4 538 77.4 572.1 0 552.4 0"/><polygon class="cls-1" points="593.4 0 559.3 77.4 579 77.4 613.1 0 593.4 0"/><polygon class="cls-1" points="634.4 0 600.3 77.4 620 77.4 654.1 0 634.4 0"/><polygon class="cls-1" points="675.4 0 641.3 77.4 661 77.4 695.1 0 675.4 0"/><polygon class="cls-1" points="716.4 0 682.3 77.4 702 77.4 736.1 0 716.4 0"/><polygon class="cls-1" points="263.4 0 229.3 77.4 249 77.4 283.1 0 263.4 0"/><polygon class="cls-1" points="305.4 0 271.3 77.4 291 77.4 325.1 0 305.4 0"/><polygon class="cls-1" points="347.4 0 313.3 77.4 333 77.4 367.1 0 347.4 0"/><polygon class="cls-1" points="388.4 0 354.3 77.4 374 77.4 408.1 0 388.4 0"/><polygon class="cls-1" points="429.4 0 395.3 77.4 415 77.4 449.1 0 429.4 0"/><polygon class="cls-1" points="470.4 0 436.3 77.4 456 77.4 490.1 0 470.4 0"/><polygon class="cls-1" points="54.4 0 20.3 77.4 40 77.4 74.1 0 54.4 0"/><polygon class="cls-1" points="95.4 0 61.3 77.4 81 77.4 115.1 0 95.4 0"/><polygon class="cls-1" points="138.4 0 104.3 77.4 124 77.4 158.1 0 138.4 0"/><polygon class="cls-1" points="178.4 0 144.3 77.4 164 77.4 198.1 0 178.4 0"/><polygon class="cls-1" points="221.4 0 187.3 77.4 207 77.4 241.1 0 221.4 0"/><polygon class="cls-1" points="757.9 0 757.4 0 723.3 77.4 743 77.4 757.9 43.7 757.9 0"/></g></g></g></g></svg>