<?xml version="1.0" encoding="utf-8"?>
<!-- Generator: Adobe Illustrator 21.0.2, SVG Export Plug-In . SVG Version: 6.00 Build 0)  -->
<svg version="1.1" id="Calque_1" xmlns="http://www.w3.org/2000/svg" xmlns:xlink="http://www.w3.org/1999/xlink" x="0px" y="0px"
	 viewBox="0 0 229.1 318.5" style="enable-background:new 0 0 229.1 318.5;" xml:space="preserve">
<style type="text/css">
	.st0{fill:#FFFFFF;}
	.st1{fill:#DF2127;}
	.st2{fill:none;}
</style>
<title>Fichier 3</title>
<g id="Calque_2">
	<g id="Calque_2-2">
		<polygon class="st0" points="0.5,0.5 0.5,228.6 114.6,317.9 228.6,228.6 228.6,0.5 		"/>
		<path class="st1" d="M73.6,135l0.5,0.5l0.3-0.3l0.5,0.1l-0.6,0.6v0.7l0.8,0.3c0.1-0.9,0.3-1.4,0.5-1.4c0.5,0.1,0.7,0.5,0.6,1.1
			l-0.6,2.7h-0.5v-0.1l0.4-1c-0.2-0.7-0.5-1-0.8-1.1l-1.1,4.6v2l0.8-0.5h0.3v0.5l-0.3,0.3l0.3,0.3l-0.1,0.3l-0.5,2.5v0.6h0.3
			c0.2-2.1,1.1-4,2.5-5.6l0.3,0.3l0.1-1.1h0.5l0.3,2l-0.9,4.2l0.1,0.9l-0.4,0.9l-0.1,1.2l0.1,1l-1.1,5h0.1l0.3,0.4l-4.1,19.1
			l-0.6,5.8c0,1-0.7,1.8-1.6,2c-0.2,0-0.6,0.7-1,2.1l-0.3-0.3l-0.6-0.1c-0.1,0.7-1,1.1-2.6,1.2h-0.5c-3.1-0.3-5.8-7.4-8.3-21.1
			c-0.4-0.1-0.7,0.3-0.9,1.1h-0.5l0.1-1.2h-0.3l-0.3,2.4h0.3l0.1-0.6h0.4v0.3l-0.4,1.1l-1.1-0.4c-0.8,3-1.4,4.5-1.6,4.5l0.1,0.9
			h-0.3l0.1,1.5h0.1l0.6-3.8l0.5,0.1v1h0.3v-0.5H54l-0.3,3l-0.3,1.1h-0.5l0.1-1.5h-0.3l-0.4,0.7l0.3,0.3l-0.4,1.6h-0.5l0.1-1.2h-0.3
			v0.5l-0.3-0.1l-0.3-0.3h-0.3c-0.2,2.1-0.7,3.1-1.4,3.1l0.3,0.3l-0.1,1l-0.5,1.4l-1-0.4l-0.8,0.1v-0.7h-0.3
			c-0.1,1.1-0.3,1.6-0.8,1.6h-0.5l-0.8-0.5l-0.3-0.1l-0.8,0.5c-4.1-0.4-7.1-6.9-8.8-19.5c-1.1-4.5-2.4-12.7-3.9-24.4l-1.1-1.3
			l0.1-0.4c0.5-0.9,1.5-1.3,2.5-1h0.5l1.9,0.7l1-0.3c1.8,1.3,2.7,2.6,2.6,3.7c1,4.7,1.7,9.5,2,14.3c0.2,0.1,0.3,0.7,0.5,1.7l1.2-0.1
			v0.3c-0.2,3.3,0.3,6.6,1.5,9.7l0.6-0.1v0.3l0.6,3.5H46l0.1-1.2l0.5,0.1v0.7h0.3l1.5-8.2h-0.5l2.2-10.5l-0.3-0.3l0.1-0.1
			c0.1-1.1,0.5-2.2,1.2-3.1l-0.2-1.5c0.9-0.9,2.2-1.3,3.4-1.2l-0.3-0.3l0.1-0.7h0.3l0.9,0.6l0.8-0.3c1.1,0.2,1.6,0.7,1.5,1.4
			l0.5,0.1l0.1-0.5l0.8,0.1c0.2,0,0.6,0.7,1,2c0.5,0.1,0.7,0.9,0.5,2.5c0.3,0.1,0.6,0.8,0.8,2l0.3,0.1l0.3-0.3l0.3,2.2l-0.3,0.9
			l0.3,1.5l-0.3,0.3l0.5,0.5l-0.1,1.5l-0.5-0.1l0.1-1.6h-0.5l-0.1,1.2l0.1,3.6l-0.4,1l0.3,0.3l-0.5,0.4l0.1,3.2H61v-0.5l0.3,0.1
			c0.8,0,1.4,2.2,1.7,6.7l0.3,0.3v0.3h0.3l0.1-1.7c0.2-1.2,0-2.5-0.6-3.6l0.4-1c-0.6-0.1-0.8-0.8-0.8-2.2l0.3-0.3v-0.3l-0.1-1
			l0.5,0.1c0.2,0,0.6,1.7,1,5h0.3v-0.3l0.6-4.1h0.5v0.3c-0.1,1.7-0.4,3.4-1,5l0.1,1.4c0.5,0,1-1.4,1.4-4.1h0.3l-0.3-0.3l1.5-7.2
			v-1.4l0.9-2.4l-0.3-0.3V154c0.2-1,0.5-1.5,0.8-1.5l-0.1-1.6v-0.5c0.1-1.3,0.4-2.6,1-3.8l-0.1-1.6l1.5-5.7c-0.4,0-0.6-0.3-0.6-1
			c0.7-1.9,1.5-2.8,2.2-2.7l0.1,0.3L73.6,135z M34.4,153.5l-0.1,1c0,1.2,0.2,1.9,0.5,2l0.1-0.3l-0.3-2.7L34.4,153.5z M35.4,158.2
			l-0.1,1.7l0.3-0.3h0.3l-0.1,0.5h0.3l0.1-0.3l-0.4-1.7H35.4z M36.4,163.2c0.6,7.5,2.2,12.9,4.7,16.2l1.6,0.7v-0.3l0.4-0.7
			c-1.4-0.7-3.5-6.2-6.2-16.5L36.4,163.2z M38.5,143.9l-0.3,0.3v0.3l0.6,1v0.5l-0.3,0.3c0.6,1.3,0.9,2.6,1,4h0.3v-0.7l-0.1-2.9
			c-0.5-0.1-0.8-0.9-0.8-2.4l-0.3-0.3L38.5,143.9z M42,160.8l-0.1,0.5h0.3l0.1-0.5H42z M42.8,165.8l-0.1,0.3l0.4,4l-0.3,0.1
			c0.8,0.1,1.2,0.9,1,2.4H44l0.3-2l-0.6-1l0.3-0.3c-0.5-1.1-0.8-2.3-0.9-3.5L42.8,165.8z M47.6,160.9h0.5l-0.6,2.9v0.2H47v-0.3
			L47.6,160.9z M48.5,159.6l-0.1,0.9h0.3l0.1-0.9H48.5z M48.8,158.1l-0.1,1.2H49l0.1-1.2H48.8z M49.7,154.4l-0.4,1.9h0.4l0.1-0.5
			h0.3l-0.3-0.3V155l0.3-0.1l0.1-0.3l-0.3-0.3L49.7,154.4z M53.8,153l-0.5,1.5l0.1,1.4l-0.1,1.5l-0.3,0.1l0.3,0.4l-0.1,0.3l-0.6,1.9
			v2.5h0.3c0.2-1.7,0.5-2.6,1-2.6l-0.3-0.3v-0.3l0.8-2.1L54,153H53.8z M52.7,168.5l-0.1,0.5h0.3l0.1-0.5H52.7z M54.8,161.2l-0.3,1.1
			l-0.1,1.7h0.3v-1h0.5l-0.3,2l0.3,0.1l0.4-1.2l-0.3-2.7L54.8,161.2z M59.1,145.9l-0.1,0.7l0.3,0.1l0.1-0.7L59.1,145.9z M60.7,165.9
			l-0.1,0.5h0.3l0.1-0.5H60.7z M61,153l-0.1,1.2h0.3l0.1-1.2H61z M60.9,172v0.3h0.5V172H60.9z M61.4,167.2l-0.1,1
			c0,0.6,0.2,1.3,0.6,1.7l-0.4,0.3v0.3c0.5,1.3,0.8,2.8,0.9,4.2l-0.4,0.9l0.4,1l0.8-0.1v-0.5c0-2.6-0.3-5.1-1.1-7.5l-0.1-1.1
			L61.4,167.2z M61.3,172.5v0.3l0.3,0.7h0.3v-0.3l-0.3-0.6L61.3,172.5z M62,160.6l0.5,0.1l0.3,1.5v0.3h-0.3
			c-0.4-0.2-0.6-0.8-0.5-1.6V160.6z M62.3,177.7l-0.1,0.7h0.5v-0.3L62.3,177.7z M64.4,171.9l-0.4,2.8l0.5,0.1l0.1-3L64.4,171.9z
			 M69.2,174.5l-0.1,1.2h0.3l0.1-1.1L69.2,174.5z M70.7,168.8l-0.4,4h0.3v-0.5h0.3l0.1-3.4L70.7,168.8z M71,146.2v0.7h0.3v-0.7H71z
			 M71.2,163.8l-0.1,1h0.3l0.1-1H71.2z M72.2,158.7l-0.8,2.6l-0.3,2.2h0.3l1-4.1v-0.7H72.2z M72.3,140.3l-1,4.7v0.7l0.3,0.1l1.5-5.2
			l-0.3-0.4L72.3,140.3z M73.6,138.2l-0.1,0.5l0.3,0.1l0.1-0.5L73.6,138.2z M75.1,157.5l-0.1,0.7l0.3,0.1l0.1-0.7L75.1,157.5z"/>
		<path class="st1" d="M87.7,150.2h0.7c1,0.1,1.8,0.8,2,1.8l-0.6,1.9l0.4,2.8l-0.1,1.1l0.3,0.5l-0.6,6.1l0.2,0.9l-0.2,0.2l-0.1,0.2
			l0.2,1.8l-0.1,1.5l0.1,1l-0.2,0.2l0.2,2.4l-0.5,3.8h-0.3l-0.1-1.1c-0.3,0-0.5,0.3-0.5,1h-0.3v-0.6l0-2.5h-0.2l-0.7,2.4l0.3,2.8
			l-0.2,0.2v0.2l0.2,1.5l-0.3,0.3v0.3h0.2l1.1-0.6l0.2,0.2v-0.7h0.3l0.1,1l-0.4,0.1v0.5c-0.2,1.3-0.6,1.9-1.4,1.9H87
			c0-0.3-0.2-0.6-0.4-0.8l0.5-1c-0.5-0.3-1-0.7-1.2-1.3l-0.2-4.3l0.2-0.9v-3.8l-0.1-0.6l0.1-0.2l-0.1-1.1v-0.6h0.3v0.3h0.2l-0.1-1.5
			v-0.5l0.2-0.7l-0.3-0.1l0.4-1.4v-3.5l-0.2-0.2h-0.2l0.2-2.4l0.1-2.2l0.2-1.4l-0.2-0.2v-0.2c0.1-0.5,0.3-1,0.7-1.5l0.2-2.2
			L87.7,150.2z M86.1,168.7v0.6h0.2v-0.6H86.1z M87.7,158.7l-0.2,0.2l0.2,0.2l-0.1,2.2h0.2l0.2-0.7l-0.2-0.2l0.1-0.2l0.2-1V159
			L87.7,158.7z M87.8,170.3l-0.1,1.4h0.2l0.1-1.4H87.8z M87.8,161.6v0.6H88v-0.6H87.8z M87.9,162.4v0.5H88v-0.5H87.9z M88.3,169.9
			l-0.1,1.3h0.2l0.2-0.5l-0.2-0.8H88.3z M88.2,171.7v0.6l0.2,0.1v-0.6L88.2,171.7z M88.4,172.6v0.3h0.2v-0.3H88.4z M88.7,167.3
			l-0.2,2.3l0.2,0.1h0.2l0.1-2.4H88.7z M89.1,170.7L89,171h0.2L89.1,170.7L89.1,170.7z M89,171.3v0.3h0.2v-0.3H89z M89.1,173.5v1.1
			h0.1l0.1-1.1H89.1z M91.3,152.8h0.2c0.3,0.1,0.5,1.8,0.5,5.3c-0.2,0-0.4,0.2-0.4,0.5c-0.1,0.6,0.3,1.3,0.8,1.6c-0.2,3-0.5,6-1.1,9
			l0.2,0.7l-0.2,0.5c0.2,0.1,0.3,0.9,0.3,2.6l-0.2,3.6l0.2,0.2v0.2l-0.2,0.6v0.3l0.2,0.6l-0.4,1.7h-0.2v-1.4l-0.2-2.7l0.2-0.2v-0.2
			c-0.4-1.5-0.6-3.1-0.7-4.6l0.2-0.2v-0.2l-0.2-0.5l0.2-1.8l0.1-1.1l-0.3-0.5v-0.6l0.2-1.5l-0.2-0.2l0.2-0.7l0.3-8.1l0.2-1.4
			l-0.1-0.5C90.9,153.2,91.1,152.8,91.3,152.8L91.3,152.8z"/>
		<path class="st1" d="M104.1,139.7c3.5,0,5.6,0.6,6.2,1.9c0.7,0.3,1,0.6,1,1.1c-0.1,1.8-0.3,2.6-0.6,2.6l-0.6-0.5l-0.1,1.7l0.1,0.2
			l-0.3,4.1v0.4h-0.3v-0.9l-0.2-1.4l0.3-1.4c-0.2,0-0.3-0.5-0.3-1.4h-0.1l-0.7,7.1l0.2,0.9l-0.2,0.2l0.5,3.4h-0.1l0.1,0.2v2.6h-0.3
			v-1.2h-0.2v0.9l0.2,6l-0.2,0.2l0.2,1.2v3.1c0,1.2,0.2,1.8,0.5,1.8h0.1l0.3-0.4l-0.1-1.7h0.3l0.2,1.9h0.1v-0.9h0.4
			c0,0.8,0.1,1.1,0.3,1.1l0.8,1l-0.2,0.2v0.5c0.6,0.1,1.1,0.4,1.4,0.9l1.5,0.2l0.1-0.2h0.2l1,0.2v0.5l-2,0.3h-0.2l-1.3-0.5l-0.5,0.5
			L111,176h-0.5v0.3h0.7v0.2l-0.2,0.2v0.2l0.2,0.3l-1.1,0.4v0.7h0.7c-0.1,0.5-0.5,0.7-1.3,0.7v1h0.1l1.4-0.3l2.9,0.5l0.1-0.2
			l0.9,0.2h0.6l0.7-0.2l0.6,0.2h0.5v0.5h-0.1l-1.4,0.2c-3.1-0.3-4.6-0.5-4.6-0.7l-0.2,0.2h-1.2l-1.1,0.3v0.2c0.7,0,1.4,0.3,2,0.7
			h0.9v0.5h-1.8v-0.5h-0.9v0.2c0.4,0,0.8,0.3,1.1,1h0.3v0.4h-1.1l-1.9,0.2l-0.6-0.2l-0.7,0.5c-0.5,0-1-0.7-1.4-2.1V181l0.1-0.2v-0.3
			c-1-0.9-1.5-2.2-1.5-3.6l0.2-1.6l-0.2-1.4l0.2-4.3l-0.2-5.2l0.4-13.2l0.3-1.4v-3.1l0.2-0.3l-0.2-0.2l0.2-1.6v-1.4l-0.4-0.5
			l-0.1,1.7H103C103,141.3,103.4,139.7,104.1,139.7z M103.6,177.6v0.5l0.4,0.5h0.3l0.2-1.2h-0.4L103.6,177.6z M104.1,145.6l0.2,0.7
			h0.2v-0.7H104.1z M105,144l-0.2,1.2v0.9l0.3,0.5l0.2-2.3l-0.2-0.3H105z M105.3,154.4l0.1,0.8l-0.3,7.7l0.3,2.1v2.9
			c0,0.6-0.1,1.1-0.4,1.6l0.1,3.1l1-0.2l-0.2-0.2l0.2-1.2V165l-0.2-2.1l0.2-1.6v-1h0.3l-0.1-1.1v-1.9l-0.4-0.5v0.5h-0.3l0.2-0.2
			l-0.2-0.3c0-3.3,0.3-6.6,0.8-9.9C106.1,146.7,105.8,149.2,105.3,154.4L105.3,154.4z M105.4,145.2l0.2,0.2h0.2v-0.7L105.4,145.2z
			 M105.4,146.1v0.5h0.2v-0.5H105.4z M106.3,145.4v0.7h0.1l0.2-1.2L106.3,145.4z M106.9,144.9l-0.1,1.9v0.2h0.1l0.3-1.4l-0.1-0.7
			H106.9z M107.7,157.9v1h0.1L107.7,157.9L107.7,157.9z M107.8,160.8v1.4h0.2v-1.4H107.8z M108.7,161.3h0.3l0.2,0.7l-0.2,0.2
			l0.5,3.6h0.3v0.3l-0.3,2.1l0.1,1.8h-0.3L108.7,161.3z M110.3,144.3v0.4h0.2v-0.4H110.3z M117.9,175.4l0.2,0.3v0.2l-1.5,0.5
			l-0.2-0.2V176L117.9,175.4z M120,173.6c2.3,0,4.5,0.4,6.8,0.9v0.2c-0.1,0.3-0.9,0.8-2.6,1.7c-0.7,1.9-2.6,3.2-4.6,3.1h-0.7
			c0-0.3-0.2-0.5-0.7-0.5v-0.4l1.7-0.5v-0.2h-0.3v-0.5h0.3c0-0.3-0.3-0.6-1-0.9v-0.2c0-0.3,0.3-0.5,1-0.5v-0.3h-1.3V175h1l0.6,0.2
			l0.5-0.2v-0.3l-0.7-0.2L120,173.6z"/>
		<path class="st1" d="M135.1,126.3h1.2c2.8,0,4.4,0.9,5,2.6c0.3,0,0.6,0.4,0.9,1.3v0.3l-0.2,0.7h0.2c5.3,0,9.6,1.2,12.8,3.6
			l1.3,2.5h0.2c0-0.6,0.1-0.9,0.2-0.9c0.5,1.2,1.1,2.4,1.8,3.5l0.2,2.3c0,0.7-0.2,1.3-0.6,1.8v0.8l-0.2,3h-0.5v0.7h0.5l0.2-1.1h0.3
			c-0.2,3.4-0.5,5.1-1,5.1v-0.2l0.2-1.6l-0.2-0.7h-0.1c0,1-0.7,3-2.1,5.9h0.6v0.2c-3.1,7.2-4.8,11-5.4,11.2l-0.2-0.1l-2.6,4.6v0.2
			h0.2c0-0.7,0.5-1.3,1.4-1.8l0.6-0.6l0.7,0.2l4.4-10.1c0.9,0,1.3-0.3,1.3-0.8l1.5-5.6h0.4v1.1c-0.4,0.3-0.8,1.9-1.1,4.7l-2.7,6.5
			h-0.5v-0.2l1.7-4.9c-0.2,0-1,1.8-2.3,5.5l-3,5.6c-4.1,5.4-6.5,8.1-7.1,8.1l0.5-0.6h-0.2l-2,1.7h-0.1l0.7-1.1h-0.2
			c0,0.3-1.1,1.2-3.4,2.7c0,1.1-0.2,1.6-0.7,1.7c-0.2,0-0.3-0.2-0.3-0.7c-1.4,1.2-2.5,2.6-3.3,4.2l-2.8,2.1l-0.6,0.2v-0.2
			c1.8-3.3,2.6-5.6,2.6-6.8c-0.7-8.4-1-14.9-1-19.7l0.6-0.6v-1.8l0.2-13.4c0.4-0.5,0.6-1.9,0.6-4.1l-0.3-0.5v-2.6h0.2
			c0.2,0,0.3,0.2,0.3,0.6l-0.2,1.6l0.5-0.3c0.1-4.9,0.4-7.4,1-7.4l0.3,0.3h0.2l0.5-1.8v-0.2l-0.5-0.3l-0.6,0.2l-0.2-0.2
			c-0.5,2.1-0.8,4.2-1,6.3v0.8h-0.3v-0.2C133.9,130.7,134.5,126.3,135.1,126.3z M134.4,167.6v2.6h0.1v-2.6H134.4z M134.6,170.6v3.5
			h0.2l0.3-1.1v-0.3l-0.2-2.1H134.6z M134.8,175.3v1.6h0.2v-1.6H134.8z M135,177.6v0.3l0.1,2.6h0.2c0-0.3,0.2-0.5,0.4-0.6
			c0.1,0,0.1,0,0.2,0l0.6-1.3c-0.9-0.3-1.4-0.7-1.4-1.1L135,177.6z M135.5,158.6l-0.1,3c0.2,0,0.3,0.6,0.3,1.8h0.2v-2.1l-0.1-2.7
			L135.5,158.6z M135.9,164.2v0.6h0.1L135.9,164.2L135.9,164.2z M137.3,133.9l-0.2,1.4v4.2l-0.3,4l0.2,0.7l-0.2,0.6l0.2,0.2
			l-0.9,9.2c0.4,0.9,0.7,1.4,0.9,1.4v-5l0.1-6.4h0.3v1.1l0.2-0.2h0.5v1.3h0.2c0.1-1.6,0.6-3.2,1.5-4.6l-0.1-2.1h-0.2
			c0,0.7-0.3,1-0.8,1v1.6l-0.3,0.3l-0.2-0.6l0.2-0.2v-0.1l-0.2-0.2v-0.2l0.5-2.9l-0.2-0.2v-0.1l0.2-1.3V136l-0.9,0.6l-0.2-0.1
			l0.5-2.5l-0.2-0.1L137.3,133.9z M136.3,171.9v1.1h0.2v-1.1L136.3,171.9z M136.8,166.4v0.6h0.2v-0.7L136.8,166.4z M137.1,163.6v2.2
			h0.2v-2.2H137.1z M138.7,166.8l-0.1,1.4l0.1,1c-0.5,0-1,0.4-1.4,1.3h-0.2l1,6h0.2v-1.3l-0.2-1.1l0.2-0.7l-0.2-0.2V173l0.2-0.5
			l-0.2-1.5l0.2-1h0.3v0.6l-0.1,0.7l0.1,0.6v3.1h0.2v-8.1L138.7,166.8z M137.3,167.4v1.5h0.1v-1.5H137.3z M137.3,169v0.7h0.1V169
			L137.3,169z M138.1,138.7h0.2l-0.3,1.3h-0.5v-0.9L138.1,138.7z M138.7,138.7l0.2,1.4h0.2l0.3-1.6v-0.3h-0.2L138.7,138.7z
			 M141.8,137.3l0.2,2.5v0.7l-0.2,0.8l0.2,0.2v0.2l-0.3,1.7l0.1,2.3v0.6l-0.1,2.3l0.1,0.1v0.2c-0.4,1.1-0.6,2.3-0.7,3.4l0.2,0.2
			l-0.2,1.4v2.1h-0.5v-1.5c0-3.4,0.3-6.8,0.7-10.1c-0.3,0-0.5,0.2-0.5,0.6l-0.2,1.1h-0.2l0.2,0.2v0.8h-0.5v-3.2h-0.1
			c0,0.4-0.2,0.6-0.5,0.6l-0.3-0.1v-0.2l0.3-0.8c-0.3,0-0.6,0.8-0.6,2.4c0.2,0,0.4,0.6,0.6,1.9l-0.2,0.2l0.6,0.5l-0.1,1.4
			c0.5,2.7,0.7,5.4,0.7,8.1v1.4l-0.2,1.3c0.4,1.1,0.5,2.3,0.5,3.5v0.2l0.2-0.2h0.2v-0.3h-0.2l0.2-4.1v-2.4h0.3v7.3l0.2,0.8l-0.2,0.8
			l0.2,5h-0.2c-0.2,0-0.3-0.2-0.3-0.6l0.2-0.8l-0.2-0.7l0.2-0.1l-0.2-4.4h-0.2l-0.2,4l0.2,1.6l-0.2,2.5h-0.5v-2.1H140l-0.4,2.7
			l0.2,1.5h0.2c7.6-10,11.5-20.6,11.5-31.6l-0.1-0.7c0-3.6-1-5.9-2.9-7c-1.8-0.8-3.7-1.1-5.7-1h-0.1
			C142.3,134.4,142,135.4,141.8,137.3L141.8,137.3z M139.8,137.3v0.1h0.2l0.1-0.8C139.9,136.6,139.8,136.8,139.8,137.3L139.8,137.3z
			 M140.2,142.6v0.8h0.2v-0.8H140.2z M140.4,142.1v0.3h0.2v-0.3H140.4z M140.6,141.3v0.6h0.2v-0.6H140.6z M140.8,175.5v0.3l0.2-0.2
			h0.2l-0.5,1.9h0.6c0.9-1.4,1.9-2.7,3-3.9l0.2,0.2v0.2l-0.6,0.6c0,0.3,0.2,0.5,0.6,0.5l-1.4,1.9h0.2l1.8-2.6H145l-0.2,0.2v-0.2
			l2.4-2.6v-0.2l-0.2,0.2h-0.1l-0.2-0.6l1-2.4v-0.5h-0.2c-0.1,0.9-0.6,1.7-1.4,2.2l-0.2-0.1h-0.2l0.2-0.2v-0.6l-0.2,0.2h-0.3v-0.2
			l0.6-1.6h-0.2c-0.4,0.2-1,1.3-1.9,3.4L140.8,175.5z M149.1,171.5l-0.3,1c0.2,0,0.3-0.3,0.6-1H149.1z M151.3,161.6l-0.7,1.5v0.1
			h0.2l0.6-1.4v-0.2L151.3,161.6z M153.6,146.9c-0.6,1-1,2-1.3,3.1l-1.1,6.3h0.2c0.6,0,1.1-1.4,1.6-4.2h0.2l-0.2-1.6
			c0.6-1,0.9-2.2,0.8-3.4v-0.2L153.6,146.9z M152.8,158.7l-0.2,0.7v0.1h0.2l0.2-0.6v-0.2L152.8,158.7z M153.4,154.5v0.7h0.2v-0.7
			H153.4z M153.6,134.2v0.2l1,1v-0.2c-0.2,0-0.5-0.3-0.7-0.8l-0.1-0.2L153.6,134.2z M153.8,152.9v0.5h0.1v-0.5H153.8z M154.8,149.3
			l-0.6,2.1v1h0.2l0.8-2.1v-0.6L154.8,149.3z M154.9,148.1v0.6h0.2v-0.6H154.9z M155.1,141.5v0.3h0.2v-0.3H155.1z M155.9,144.9v0.6
			h0.5v-0.6H155.9z M155.9,146.9v0.6h0.2c0-0.6,0.2-1.2,0.6-1.7h-0.2C156.1,145.9,156,146.2,155.9,146.9L155.9,146.9z M156.5,147.1
			c0,0.5-0.2,1.1-0.6,1.5l0.2,0.6h0.2l0.3-0.5v-1.6L156.5,147.1z M156.4,149.5v1l0.2-0.8v-0.2L156.4,149.5z M156.4,151v0.7h0.1V151
			L156.4,151z M157.4,148.9v1h0.2v-1H157.4z M157.6,139.8v1.7h0.2v-1.7H157.6z M159.1,150l0.2,0.7c-0.1,1.1-0.3,1.6-0.6,1.6h-0.3
			V152C158.7,150.7,158.9,150,159.1,150z M159.1,145.2h0.5v0.7l0.2,0.8c-0.2,1.2-0.4,1.8-0.7,1.8h-0.1l0.1-1.5l-0.1-0.2v-0.1
			l0.1-0.8V145.2z"/>
		<path class="st1" d="M35.3,145.3c0.6,1.4,1,2.9,1.2,4.4c0.2,1.3,5,1.4,5,0.1c0.1-0.9,0-1.8-0.3-2.7c-0.3-0.9-0.5-1.8-0.5-2.7
			l-4.9,0.2c0.4,1,0.7,2.1,0.8,3.2c0.2,1.3,5,1.3,5,0.1V146l-5-0.1c0,0.9,0,1.7,0,2.5c-0.1,1.2,4.9,1.4,5,0.1c0-0.9,0.1-1.7,0-2.5
			c0-1.3-5-1.3-5-0.1v1.9l5,0.1c-0.2-1.3-0.5-2.5-1-3.7c-0.4-1-5-1-4.9,0.2c0,0.9,0.2,1.8,0.5,2.6c0.3,0.9,0.4,1.8,0.3,2.8l5,0.1
			c-0.3-1.7-0.7-3.3-1.4-4.8C39.6,143.7,34.7,144,35.3,145.3L35.3,145.3z"/>
		<path class="st1" d="M32.1,154c0,1.7,0.7,3.5,1.2,5.1c0.6,2,5.4,0.7,4.8-1.3l-0.6-2.1c-0.3-0.7-0.4-1.4-0.5-2.1
			c0-1.2-1.2-1.5-2.2-1.4S32.1,152.9,32.1,154L32.1,154z"/>
		<path class="st1" d="M33.6,151.4c0.1,1.9,0.7,3.7,1.7,5.3c0.1,0.2,1,1.9,1.3,1.3c0.1-0.3-0.2-0.9-0.3-1.1
			c-0.2-0.6-0.5-1.2-0.8-1.8c0.2,0.3,0.3,0.7,0.5,1c0,0.1,0.1,0.3,0,0.1s-0.1-0.4-0.1-0.6c-0.1-1-0.5-2-1.1-2.9
			c-0.2-0.5-0.5-0.9-0.9-1.3C33.9,151.4,33.6,151.1,33.6,151.4L33.6,151.4z"/>
		<path class="st1" d="M34.4,156.3c-0.1,1,0,2.1,0.3,3.1c0.3,1.1,1,2,2,2.6c0.8,0.4,1.6,0.4,1.7-0.6v-0.2c0-0.5-0.2-1.1-0.5-1.5
			c-0.3-0.6-0.8-1-1.3-1.4c-0.8-0.5-1.8-0.6-2,0.5v0.2l3.8,2c-0.3-0.7-0.3-1.4-0.2-2.2c-0.1-1.2-0.8-2.3-1.8-2.9
			C35.6,155.4,34.5,155.2,34.4,156.3L34.4,156.3z"/>
		<path class="st1" d="M34.5,157.7v0.9c0.2,1.1,0.8,2,1.7,2.6c0.2,0.2,2,1.4,2,0.5v-0.9c-0.2-1.1-0.8-2-1.7-2.6
			C36.3,158,34.5,156.7,34.5,157.7z"/>
		<path class="st1" d="M33.6,159.8c0.1,0.5,0.3,1,0.5,1.5c0.6,1.1,1.9,1.6,3,1.1c0.9-0.3,2.3-1.5,1.7-2.7c-0.2-0.5-0.4-1-0.5-1.5
			c-0.2-0.5-0.6-0.9-1.1-1.1c-0.6-0.2-1.3-0.2-1.9,0C34.1,157.4,33.4,158.6,33.6,159.8z"/>
		<path class="st1" d="M33.7,144.1c-0.2,2.7,0.6,5.3,2.2,7.4c0.7,1.2,2.2,1.6,3.4,0.9c1.2-0.7,1.6-2.2,0.9-3.4
			c-1.1-1.4-1.7-3.1-1.5-4.9C38.9,140.9,33.9,140.9,33.7,144.1z"/>
		<path class="st1" d="M34.5,144.2c0.2,2.8,0.9,5.6,2.1,8.1c0.7,1.2,2.2,1.6,3.4,0.9c1.2-0.7,1.6-2.2,0.9-3.4
			c-0.8-1.8-1.3-3.6-1.4-5.6C39.3,141,34.3,140.9,34.5,144.2z"/>
		<path class="st1" d="M35,144.6c1,2.6,1.9,5.4,2.5,8.1c0.7,3.1,5.5,1.8,4.8-1.3c-0.6-2.8-1.4-5.5-2.5-8.1c-0.4-1.3-1.8-2.1-3.1-1.8
			C35.4,141.9,34.6,143.3,35,144.6z"/>
		<path class="st2" d="M108.2,81.2L108.2,81.2z M73.9,38.8c-0.7,0.3-1.6,0.3-2.3,0.1c-1.5-0.2-2.9-0.7-4.3-1.4
			c-0.5-0.3-1-0.5-1.1-1.2c0-0.1,0-0.3,0-0.4h0.2v-0.1c0.1,0,0.3,0,0.4,0c0.8,0.3,1.6,0.7,2.5,0.9c1.5,0.4,3.1,0.7,4.7,1
			c0.3,0.1,0.8,0,0.8,0.6C74.4,38.6,74.2,38.7,73.9,38.8z M79.2,39.2L79.2,39.2z M83.8,76.9c-0.4-0.8-0.7-1.7-0.9-2.6
			c-0.1-0.4,0.6-0.6,0.6-0.2c0.2,0.9,0.4,1.7,0.8,2.5C84.6,76.9,83.9,77.2,83.8,76.9z M85.8,77c-0.6-1.2-1-2.4-1.2-3.7
			c-0.1-0.4,0.6-0.6,0.6-0.2c0.2,1.2,0.6,2.5,1.2,3.6C86.6,77,86,77.3,85.8,77L85.8,77z M87.4,75.7c-0.4-0.6-0.8-1.3-1-2
			c-0.2-0.4,0.5-0.7,0.6-0.4c0.2,0.7,0.6,1.4,1,2C88.2,75.6,87.6,76,87.4,75.7L87.4,75.7z M85.2,71.6c0.7-0.4,1.4-0.8,2-1.3
			c0.1-0.1,0.2-0.1,0.3-0.2l-0.2,0.1C86.7,70.7,86,71.2,85.2,71.6L85.2,71.6z M112.4,41.9c0.1,0,0.1-0.1,0.2-0.1
			c0.8-0.2,1.7-0.5,2.5-0.9c0.8-0.4,1.7-0.9,2.4-1.4c1.8-1.1,3.5-2.2,5.3-3.3h0.1l0,0c0.3-0.1,0.6-0.2,0.9-0.2
			c-0.5,1.6-1.6,3-3.2,3.8c-1,0.6-2,1.2-2.9,1.8c-0.4,0.2-0.8,0.4-1.2,0.6c-1.2,0.6-2.4,1-3.6,1.3c-0.4,0.1-0.9-0.1-1-0.6
			c0,0,0,0,0-0.1c-0.1-0.4,0-0.8,0.4-0.9C112.4,41.9,112.4,41.9,112.4,41.9L112.4,41.9z M86.9,51.8c1-0.2,1.4,0,1.4,0.5
			c0,0.1-0.1,0.2-0.2,0.2l0,0c0,0.2-0.2,0.4-0.4,0.5c-0.6,0.1-1-0.3-1-1.1L86.9,51.8C86.9,51.9,86.9,51.8,86.9,51.8z M89.5,51.2
			c-0.4,0.1-0.8-0.1-1-0.5c0-0.1,0-0.2,0-0.4c1-0.2,1.4,0,1.4,0.5C89.9,51,89.7,51.2,89.5,51.2L89.5,51.2z M118.6,28.9
			c-0.3,0.1-0.6,0.2-0.9,0.3c-1.1,0.3-2.2,0.5-3.3,0.8c-0.6,0.2-1.1,0.4-1.7,0.6s-1.4,0.4-2,0.6l-0.3,0.1c-0.3,0.2-0.7,0.4-1,0.5
			h-0.1h-0.1c-0.7,0.3-1.3,0.6-2,0.9L107,33c-0.3,0.2-0.7,0.4-1,0.6h-0.1h-0.1c-0.3,0.1-0.7,0.3-1,0.3c0.1-0.5,0.5-0.9,1-1.2
			l0.2-0.1c1.3-0.5,2.5-1.1,3.8-1.7s2.7-1.1,4.1-1.5s2.9-0.7,4.4-1c0.2,0,0.3,0,0.5,0v0.2l-0.2,0L118.6,28.9z M104.9,39.3l-0.3,1.1
			l-0.9-0.9l0,0l0,0h0.1c-0.4,0-0.8,0.1-1.2,0.1c-0.1,0-0.2,0.2-0.2,0.3s0,0.2,0,0.2c0,0.5-0.1,0.5-0.6,0.5c0,0.1,0,0.3,0,0.4
			c0,0.4-0.2,0.6-0.8,0.8c-0.6,0.3-1.3,0.5-1.9,0.5c-0.3,0-0.7,0.3-1.1,0.5c-0.4-0.2-0.8-0.5-1.2-0.8c0,0,0-0.1,0-0.2s0-0.2,0-0.2
			c0.2-0.1,0.2-0.1,0.3-0.3c0,0,0-0.1,0-0.1c0-0.1,0-0.2,0-0.3c0-0.2,0.1-0.4,0.3-0.4v0.1l0,0l-0.1,0.5c0.3-0.2,0.4-0.5,0.5-0.8
			c0-0.2-0.1-0.5-0.3-0.6h0.1l-0.1-0.1l0.9-0.1c0.2-0.1,0.4-0.2,0.7-0.3c1.1-0.4,2.3-0.7,3.5-0.8c0.1,0,0.2-0.1,0.3-0.1
			c0.3,0,0.7-0.3,0.9,0.2c0,0.1,0.3,0.2,0.4,0.1C104.6,38.7,104.8,39.1,104.9,39.3L104.9,39.3L104.9,39.3z M118.5,23.6L118.5,23.6z
			 M117.6,22.9L117.6,22.9h-0.3H117.6C117.5,22.7,117.5,22.7,117.6,22.9z M115.4,26c1.1-0.4,2.2-0.6,3.3-0.9c0.3-0.1,1,0.4,0.6,0.5
			s-1.2,0.2-1.7,0.4s-1.2,0.4-1.8,0.6c-0.9,0.3-1.8,0.7-2.8,1c-1.2,0.5-2.4,1-3.6,1.5s-2.6,1.2-3.9,1.8c-0.5,0.3-1,0.6-1.5,0.9
			c-0.4,0.4-1.1,0.3-1.4-0.1c0,0,0,0,0-0.1c0.1-0.1,0.2-0.2,0.4-0.3c2.3-1.1,4.5-2.2,6.9-3.2C111.6,27.3,113.5,26.7,115.4,26z
			 M100.8,21.2c0.3-0.5,0.8-0.9,1.4-1.2l-0.1,0.3h0.1l1.4-0.8c-0.2,0.6-0.8,0.9-1.4,0.8l0,0l-0.1,0.5l-0.3-0.2
			c-0.2,0.3-0.5,0.6-0.7,0.9c0,0-0.2,0-0.3,0S100.7,21.3,100.8,21.2L100.8,21.2z M100.2,21.5c0,0.1,0,0.2,0,0.3
			C100.2,21.7,100.2,21.6,100.2,21.5z M100.3,21.8l-0.1,0l0,0L100.3,21.8z M96.4,28.8c3.2-3.4,7-6.2,11.1-8.4
			c0.6-0.3,1.3,0.3,0.6,0.7c-3.9,2.1-7.5,4.8-10.6,8.1C97.1,29.5,95.8,29.4,96.4,28.8L96.4,28.8z M80.8,43L80.8,43L80.8,43L80.8,43z
			 M79.6,49c0-0.1,0.1-0.2,0.2-0.3l0.5-0.4c0.2,0.1,0.4,0.2,0.5,0.4c0.2,0.2,0.3,0.4,0.5,0.6c0.2,0.2,0.6,0.3,0.8,0.6
			c0.5,0.5,0.7,0.6,1.3,0.1c1.1-0.8,2.1-1.7,3.2-2.5c0.4-0.3,0.8-0.5,1.3-0.6c0.2,0,0.4,0.3,0.6,0.4c0.1,0.1,0.2,0.3,0.2,0.5
			c0,0.5-0.5,0.6-0.8,0.8c-0.9,0.7-1.8,1.3-2.6,2c-0.2,0.2-0.5,0.4-0.7,0.7c-0.2,0.1-0.5,0.1-0.6,0.3c-0.3,0.4-0.7,0.3-0.9,0.2
			c-0.4-0.2-0.8-0.5-1.2-0.8c-0.5-0.3-0.9-0.7-1.4-1c-0.3-0.2-0.6-0.4-0.9-0.6h-0.1L79.6,49z M78.2,50.8l0.1-0.1
			c0.1,0.1,0.3,0.3,0.4,0.3c0.6,0.1,0.7,0.5,0.8,0.9c0.1,0.3,0,0.4-0.2,0.5c-0.1,0.1-0.3,0.1-0.4,0c-0.3-0.1-0.6-0.3-1-0.5
			c0.3-0.3-0.4-0.6,0-1L78.2,50.8L78.2,50.8z M76.1,49.8c0.1,0,0.1,0.1,0.2,0.2c0-0.3,0-0.4,0.2-0.4s0.2-0.1,0.6,0v0.1
			c0.6,0,0.8,0.1,0.8,0.5c0,0.1-0.3,0.3-0.4,0.4c-0.4,0.1-0.8-0.1-0.9-0.5c0,0,0,0,0,0h-0.3l0,0C76.3,49.9,76.2,49.8,76.1,49.8
			L76.1,49.8z M76.8,52.9c-0.2,0.2-0.9,0-1-0.3c-0.3-0.5-0.2-1.1,0.2-1.5l0.1,0.1l0.1-0.1c0.3,0.3,0.5,0.6,0.8,0.9s0.3,0.6,0,0.8
			C76.9,52.8,76.8,52.9,76.8,52.9L76.8,52.9z M77.2,57.7c0-0.1-0.1-0.2-0.1-0.2c-0.2-0.5-0.3-1-0.3-1.5l0,0c0,0,0-0.1,0-0.2
			c0-0.3,0.1-0.5,0.1-0.8c0,0,0.5-0.2,1-0.3c0.2-0.1,0.4-0.1,0.6-0.2c0.2,0,0.8-0.2,1.7-0.4c0.8-0.3,1.7-0.4,2.6-0.5h0.1l0,0
			c1,0.2,1.8,0.5,2.5,0.7c0.3,0.1,0.7,0.2,1,0.3l0.2,0.1l0.2,0.1l0.1,0l0.2,0.1L87,55v0.2l-0.1,0.3l-0.1,0.3L86.8,56
			c-0.1,0.2-0.2,0.5-0.3,0.7c-0.3,0.6-0.6,1.1-1,1.6c-1.2,1.4-0.4-3.9-0.4-3.9l0.3,0.1v-0.1c-0.2,0-0.3,0-0.5,0
			c-0.1,0.1-0.2,0.4-0.3,0.2c-0.1-0.1-0.2-0.3-0.4-0.3c0,0,0.2,0.3-0.1,0.3c-0.2,0-0.4-0.1-0.6-0.2c-0.1,0.1-0.3,0.3-0.4,0.2
			c-0.2-0.1-0.3-0.2-0.3-0.3c0,0,0-0.1-0.3,0.1s-0.4,0-0.7-0.1s0,0.3-0.3,0.3c-0.2,0-0.4-0.1-0.6-0.3c0,0.1,0,0.3-0.1,0.3
			c0,0,0,0,0,0c-0.3,0-0.5-0.3-0.7-0.2s0.1,0.3-0.3,0.3c-0.2,0-0.4-0.1-0.5-0.3c0,0,0.1,0.1-0.3,0.2v0.1c-0.6,0.8,0,3.8,0,3.8L79,59
			C78.3,58.8,77.6,58.3,77.2,57.7L77.2,57.7z M80.1,69.3h-0.2h0C79.9,69.3,79.9,69.2,80.1,69.3L80.1,69.3z M79.5,77.6
			c-0.2-1.2-0.3-2.5-0.2-3.8c0-0.3,0.7-0.5,0.6-0.1c-0.1,1.2,0,2.5,0.2,3.7C80.2,77.6,79.6,77.9,79.5,77.6L79.5,77.6z M78.9,71.8
			c-0.4,0-0.8-0.2-0.9-0.6c0-0.2,0.1-0.3,0.3-0.4l0,0c0,0,0.1-0.1,0.1-0.1c0.3,0,0.6,0,0.8,0.1c0.7,0,1.3,0,2,0
			c0.9-0.1,1.8-0.3,2.7-0.5c0.5-0.1,0.9-0.2,1.3-0.4c0.8-0.3,1.5-0.7,2.2-1.1l0.2-0.1c0.1-0.1,0.3-0.1,0.4,0c0,0,0,0,0,0
			c0.1,0.1,0.1,0.3,0.1,0.5c-0.4,0.6-0.9,1.1-1.6,1.3l-0.5,0.2c-1.2,0.4-2.4,0.7-3.6,0.8c-0.7,0.1-1.3,0.2-1.8,0.3
			C79.8,71.9,79.4,71.8,78.9,71.8L78.9,71.8z M81.9,77.8c-0.1-1.2-1.2-2.4-0.4-3.5c0.1-0.2,0.8-0.3,0.5,0.1
			c-0.6,0.9,0.4,2.3,0.5,3.2C82.6,77.9,82,78.1,81.9,77.8L81.9,77.8z"/>
		<path class="st2" d="M96,109c-0.2,0.4-0.5,0.7-0.7,1.1c-0.2,0.3-0.5,0.7-0.8,1c1.7,0.1,3.3,0.1,5,0.3c-1-1-2.1-1.9-3.3-2.7L96,109
			z"/>
		<path class="st2" d="M86.2,107.8l0.1,0.1l0.1,0.1c-0.1,0.5-0.1,1.1-0.2,1.6s-0.2,1-0.3,1.5c1.1,0,2.1,0,3.2,0
			C88.3,110.3,87.3,109.1,86.2,107.8L86.2,107.8z"/>
		<path class="st2" d="M73.4,53.1h-0.1c-2.4,0.2-4.8,0.4-7.2,0.5h-0.3c-1.6,0.1-3.3,0.2-4.9,0.3c0,0.2,0,0.5,0,0.7
			C65.1,54,69.2,53.5,73.4,53.1L73.4,53.1z"/>
		<path class="st2" d="M105.8,129.6l0.2,0.1v-0.1L105.8,129.6L105.8,129.6z"/>
		<path class="st2" d="M68.1,52.5c1.8-0.1,3.5-0.3,5.3-0.4h0.2l0.1-0.4c-0.2,0.1-0.4,0.1-0.5,0.2c-4.1,0-8.2-0.1-12.2-0.3
			c0,0.5,0,0.9,0,1.4c2.1-0.1,4.1-0.2,6.2-0.4L68.1,52.5z"/>
		<path class="st2" d="M109.9,88c0.1,0-0.2,0.2-0.5,0.3l-3.4,5.5l0,0c0,0-3.2,4.8-6.1,9l0.1,0.3v-0.1c1,2.7,1.7,5.6,1.9,8.5
			c0.1,1.1,0.1,2.3,0.1,3.4c-0.1,3.1-0.6,6.2-1.6,9.2c0.2,0.2,0.2,0.4-0.2,0.6c-1.3,0.5-2.5,1-3.8,1.6c-0.8,0.4-2.4,0.9-1.7,2.4
			c0.6,0.7,2.3,0.7,3,0.7c1,0,1.6-0.5,2.6-0.3c0.3,0.1,0.5,0.2,0.7,0.3l0.5,0.3c1,0.7,1.9,0.2,2.8-1.4c-0.3-0.6,0.8-0.9,1.2-0.5
			c0.7,0.8,1.5,1.3,2.5,1.6c0.4,0.1,1.9,0.5,2.3,0.3c0.6-0.4,0.5-1.1,0.1-1.8c-0.5-0.6-1-1.2-1.6-1.8c-0.7-0.7-1.3-1.4-1.8-2.2
			c-0.6-0.9-0.9-1.8-1.1-2.8c-0.3-2.1-0.3-4.1,0-6.2c0.3-2.7,0.8-5.4,1.6-8c1.5-4.7,3.4-9.4,5.5-13.9c1.9-4.3,3.3-9,1.6-13.5
			l-0.8,1.2c-0.9,1.5-1.8,3.1-2.8,4.6c-0.5,0.7-0.9,1.5-1.4,2.2l-0.1,0.2L109.9,88z"/>
		<path class="st2" d="M97.8,106.2l-0.2,0.3l-0.8,1.2c1.3,0.9,2.5,1.9,3.7,3c-0.3-2.2-0.7-4.4-1.4-6.5L97.8,106.2z"/>
		<path class="st2" d="M71.4,127.6c2.2,1.4,3.7,0,5.8,0.3c0.3,0,0.6,0.1,0.9,0.3c1.8,0.7,1.1,0.7,3.7,0c0.5-0.2,1-0.3,1.5-0.2
			c0.2,0,0.4,0.2,0.6,0.3c4.3,0.4,2.9-1.4,2.1-2.9c-1.6-3-3.4-6.1-2.8-9.6c0.1-0.3,0.1-0.7,0.2-1c0.3-1.4,0.9-2.8,1.2-4.3
			c0.3-1.3,0.5-2.7,0.5-4.1c-3-3.8-5.6-7.8-8-12L77,94.1c-2,5.7-1.4,11.6-1,17.5c0.1,1.2,0.1,2.4,0.2,3.7c0,0.3,0,0.5,0,0.8
			c0,2.4,0.4,6.8-1.4,8.7c-0.4,0.4-0.9,0.7-1.5,0.9c-0.5,0.1-1.1,0-1.6,0.1c-1,0.3-1.2,0.7-0.9,1.2
			C70.9,127.2,71.2,127.4,71.4,127.6z"/>
		<path class="st2" d="M152.6,104.2c0.2,0.3,1.1,1.3,1.4,1.5c0.8,0.6,1.6,1.3,2.4,1.8c0.6,0.4,1.3,0.8,2,1.1c1.3,0.4,2.7,0.3,4-0.2
			c0.9-0.2,1.8-0.5,2.6-0.9c1.2-0.7,2.2-1.7,2.8-3c1.1-2,2.4-3.8,2.8-6.1c0.2-1,0.6-2,0.7-3c0.3-1.9,0.5-3.8,0.7-5.7
			c0.2-2-0.3-4-1.4-5.7c-0.2-0.4-0.5-0.7-0.8-1l-0.1,0.1c0,0.1,0,0.3,0,0.4c0.2,0.9,0.5,1.7,0.6,2.6c0.2,1.1,0.4,2.2,0.4,3.3
			c0,1.2-0.1,2.3-0.4,3.4c-0.3,1.6-1,3.2-2,4.6c-0.8,1-0.7,0.9-2.4,3c-1,1.2-2.4,2.1-4,2.4c-3.9,0.8-9.8-4.1-10.3-4.4
			c-0.7-0.5-1.5-1-2.2-1.4c-0.2-0.1-1-0.4-1.1-0.5l-0.1,0.1c0.1,0.2,2.3,5.8,2.3,6.2C151.4,103.1,152,103.7,152.6,104.2z M150.3,100
			L150.3,100L150.3,100L150.3,100z"/>
		<path class="st1" d="M104.5,128.4l1.2-0.5C105.3,127.5,104.1,127.9,104.5,128.4z"/>
		<path class="st1" d="M105.9,129.5c0.2-0.6,0.1-1.2-0.2-1.7l-1.2,0.5C104.9,128.8,105.4,129.2,105.9,129.5z"/>
		<path class="st1" d="M100.5,110.7c-1.2-1.1-2.4-2.1-3.7-3l-0.6,1c1.2,0.8,2.3,1.7,3.3,2.7l1.1,0.1
			C100.6,111.2,100.6,110.9,100.5,110.7z"/>
		<path class="st1" d="M100.6,111.4h0.7l-0.6-0.6v-0.1l-0.1-0.1C100.6,110.9,100.6,111.2,100.6,111.4z"/>
		<path class="st1" d="M113.9,105c-0.6,0-1.3,0.9-0.5,0.9c1.1,0,2.1,0.2,3.1,0.4c0.3-0.2,0.8-0.3,1,0c0.1,0.1,0.1,0.2,0.2,0.3
			c5.2,1.3,9.2,4.6,12.5,8.9c-0.4-1.1-0.8-2.3-1.2-3.5C125.1,107.7,119.6,105.2,113.9,105z"/>
		<path class="st1" d="M134.2,118.8c0.1,0.2,0.3,0.4,0.4,0.7h0.1L134.2,118.8z"/>
		<path class="st1" d="M133.3,117.5l0.4,0.5c-0.8-1.1-1.5-2.2-2.3-3.3l0.1,0.4c0.1,0.4-0.8,0.7-1.2,0.5c0.5,0.7,0.9,1.3,1.4,2
			c0.3,0.5,0.6,0.9,0.9,1.4h0.1c-0.3-0.5-0.6-0.9-1-1.4C130.9,116.5,132.8,116.9,133.3,117.5z"/>
		<path class="st1" d="M116.5,106.2c0.4,0.1,0.8,0.2,1.2,0.3c-0.1-0.1-0.1-0.2-0.2-0.3C117.4,106,116.8,106,116.5,106.2z"/>
		<path class="st1" d="M130.3,115.5c0,0.1,0.1,0.1,0.1,0.2L130.3,115.5L130.3,115.5z"/>
		<path class="st1" d="M131.4,114.8c-1.9-5.2-2.7-10.8-2.4-16.3c0-0.6-1.3-0.3-1.3,0.2c-0.3,4.5,0.2,9,1.4,13.3
			c0.8,0.8,1.5,1.7,2.1,2.6L131.4,114.8z"/>
		<path class="st1" d="M131.6,115.1l-0.1-0.4l-0.2-0.3c-0.7-0.9-1.4-1.8-2.1-2.6c0.3,1.2,0.7,2.4,1.2,3.5l0.1,0.2
			C130.8,115.8,131.7,115.5,131.6,115.1z"/>
		<path class="st1" d="M99.1,104.2c0.7,2.1,1.2,4.3,1.4,6.5l0.1,0.1c-0.3-2.2-0.7-4.3-1.4-6.4l0.9-1.3l-0.1-0.3L99.1,104.2z"/>
		<path class="st1" d="M105.8,128.1c0.7,0.8,1.5,1.3,2.5,1.6c0.4,0.1,1.9,0.5,2.3,0.3c0.7-0.5,0.4-1.3,0-2c0.4,0.6,0.5,1.3-0.1,1.8
			c-0.4,0.3-1.9-0.1-2.3-0.3c-1-0.3-1.8-0.9-2.5-1.6c0.3,0.5,0.4,1.1,0.2,1.7l0.2,0.1C106.2,129.1,106.1,128.5,105.8,128.1z"/>
		<path class="st1" d="M114.7,79.7c1.6,4.5,0.3,9.2-1.6,13.5c-2.1,4.5-4,9.1-5.5,13.9c-0.8,2.6-1.3,5.3-1.6,8
			c-0.2,2.1-0.2,4.1,0.1,6.2c0.1,1,0.5,2,1.1,2.8c-0.5-0.8-0.8-1.7-0.9-2.6c-0.3-2.1-0.3-4.1-0.1-6.2c0.1-1.1,0.3-2.2,0.5-3.2
			c0.3-1.6,0.7-3.2,1.2-4.7c1.5-4.7,3.4-9.4,5.5-13.9c1.9-4.3,3.3-9,1.6-13.5l0.8-1.4l-0.1-0.3L114.7,79.7z"/>
		<path class="st1" d="M104.5,128.4c-0.9,1.6-1.9,2-2.8,1.4l-0.5-0.3c-0.2-0.1-0.5-0.2-0.7-0.3c-0.9-0.2-1.6,0.2-2.6,0.3
			c-0.7,0-2.4,0-3-0.7l0,0c0.5,0.9,2.3,0.9,3.1,0.8c1,0,1.6-0.5,2.6-0.3c0.3,0.1,0.5,0.2,0.7,0.3l0.5,0.3c1,0.7,1.9,0.2,2.8-1.4
			c0.4,0.4,0.8,0.7,1.2,1v-0.1C105.3,129.2,104.9,128.8,104.5,128.4z"/>
		<path class="st1" d="M76.1,93.1c0-0.1,0.1-0.1,0.1-0.1l-0.1-0.2c-0.1,0-0.1,0.1-0.2,0.2c-2.6,6.1-1.9,12.6-1.5,19h0.1
			C74.2,105.5,73.6,99.1,76.1,93.1z"/>
		<path class="st1" d="M86.2,107.7l-0.9-1.2l-0.2-0.3c0,1.4-0.2,2.7-0.5,4.1c-0.3,1.4-0.8,2.8-1.2,4.3c-0.1,0.3-0.2,0.7-0.2,1
			c-0.6,3.5,1.2,6.6,2.8,9.6c0.8,1.5,2.2,3.4-2.1,2.9c-0.2,0-0.3-0.3-0.6-0.3c-0.5,0-1,0-1.5,0.2c-2.6,0.7-1.9,0.7-3.7,0
			c-0.3-0.1-0.6-0.2-0.9-0.3c-2.1-0.2-3.6,1.2-5.8-0.3c-0.3-0.2-0.6-0.4-0.8-0.7c0.2,0.4,0.5,0.7,0.9,0.9c2.2,1.4,3.7,0,5.8,0.3
			c0.3,0,0.6,0.1,0.9,0.3c1.8,0.7,1.1,0.7,3.7,0c0.5-0.2,1-0.3,1.5-0.2c0.2,0,0.4,0.3,0.6,0.3c4.3,0.4,2.9-1.4,2.1-2.9
			c-1.6-3-3.4-6.1-2.8-9.6c0.1-0.3,0.1-0.7,0.2-1c0.3-1.3,0.8-2.5,1.1-3.8c0-0.2,0.1-0.3,0.1-0.5c0.3-1.3,0.5-2.7,0.5-4.1l0.2,0.3
			L86.2,107.7L86.2,107.7L86.2,107.7z"/>
		<polygon class="st1" points="69.8,88.6 69.8,88.5 69.8,88.5 		"/>
		<path class="st1" d="M79.4,52c0.1,0.1,0,0.3-0.1,0.4c0.2,0,0.3-0.2,0.2-0.5c-0.1-0.4-0.2-0.8-0.8-0.9c-0.1,0-0.3-0.2-0.4-0.3
			l-0.1,0.1c0.1,0.1,0.2,0.3,0.4,0.3C79.1,51.1,79.3,51.6,79.4,52z"/>
		<path class="st1" d="M79.2,39.2L79.2,39.2z"/>
		<path class="st1" d="M76,48.1L75.4,49l-0.1,0.4l0.9-1.3l-0.2-0.1L75.9,48L76,48.1z"/>
		<path class="st1" d="M101.8,96.3l0.1-0.2h-0.1L101.8,96.3z"/>
		<path class="st1" d="M76.9,49.5h0.1v-0.1c-0.4-0.1-0.6-0.1-0.6,0C76.6,49.5,76.8,49.5,76.9,49.5L76.9,49.5z"/>
		<path class="st1" d="M74.2,53.7l0.1-0.2l0,0l0,0L74.2,53.7z"/>
		<path class="st1" d="M120.7,39.8c-1,0.6-2,1.2-2.9,1.8c-0.3,0.2-0.7,0.4-1,0.5c0.4-0.2,0.8-0.4,1.2-0.6c1-0.6,2-1.1,2.9-1.8
			c1.5-0.8,2.7-2.1,3.2-3.8c-0.3,0-0.6,0.1-0.9,0.2l0,0c0.3-0.1,0.5-0.1,0.8-0.2C123.4,37.7,122.2,39,120.7,39.8z"/>
		<path class="st1" d="M115,41l0.1-0.1c-0.8,0.3-1.6,0.6-2.5,0.9c-0.1,0-0.2,0.1-0.2,0.1h0.1C113.4,41.7,114.2,41.4,115,41z"/>
		<path class="st1" d="M102.5,31.5c0.3,0.4,0.9,0.5,1.4,0.2c0,0,0,0,0.1,0c0.5-0.3,1-0.6,1.5-0.9c1.3-0.6,2.6-1.2,3.9-1.8
			c1.2-0.5,2.4-1,3.6-1.5c0.9-0.4,1.8-0.7,2.8-1c0.6-0.2,1.2-0.4,1.8-0.6s1.2-0.2,1.7-0.4s-0.3-0.6-0.6-0.5
			c-1.1,0.3-2.2,0.5-3.3,0.9c-1.9,0.6-3.8,1.3-5.7,2c-2.3,1-4.6,2.1-6.9,3.2C102.7,31.3,102.6,31.4,102.5,31.5z"/>
		<path class="st1" d="M104.1,38.8c-0.1,0-0.4,0-0.4-0.1c-0.2-0.5-0.6-0.2-0.9-0.2c-0.1,0-0.2,0-0.3,0.1c-1.2,0.1-2.4,0.4-3.5,0.8
			c-0.3,0.1-0.6,0.2-0.7,0.3l-0.9,0.1l0.1,0.1l0.8-0.1c0.2-0.1,0.4-0.2,0.7-0.3c1.1-0.4,2.3-0.7,3.5-0.8c0.1,0,0.2-0.1,0.3-0.1
			c0.3,0,0.7-0.3,0.9,0.2C103.7,38.8,104,38.9,104.1,38.8c0.4,0,0.6,0.3,0.7,0.5v0C104.7,39,104.6,38.7,104.1,38.8z"/>
		<path class="st1" d="M102.3,40c0-0.1,0-0.1,0-0.2l0,0C102.3,39.9,102.3,40,102.3,40z"/>
		<path class="st1" d="M101.8,41c0-0.1,0-0.3,0-0.4l0,0C101.8,40.7,101.8,40.9,101.8,41z"/>
		<path class="st1" d="M103.8,39.4L103.8,39.4L103.8,39.4l0.1-0.1L103.8,39.4z"/>
		<path class="st1" d="M97,41.3c0,0.1-0.1,0.2-0.3,0.3c0,0,0,0.1,0,0.2c0-0.1,0-0.1,0-0.1C97,41.6,97,41.5,97,41.3z"/>
		<path class="st1" d="M97.3,40.6L97.3,40.6c-0.2,0-0.3,0.2-0.3,0.4C97,40.8,97.1,40.7,97.3,40.6z"/>
		<path class="st1" d="M97.7,40.3c-0.1,0.3-0.2,0.6-0.5,0.8v0.1C97.5,41,97.6,40.7,97.7,40.3z"/>
		<path class="st1" d="M81.1,70.8c0.9-0.1,1.8-0.3,2.7-0.5c0.5-0.1,1-0.3,1.5-0.4c-0.4,0.2-0.9,0.3-1.3,0.4
			c-0.9,0.2-1.8,0.4-2.7,0.5c-0.7,0-1.3,0-2,0c-0.3,0-0.6-0.1-0.8-0.1c0,0-0.1,0-0.1,0.1c0.3,0,0.5,0.1,0.8,0.1
			C79.8,70.9,80.5,70.9,81.1,70.8z"/>
		<path class="st1" d="M87.9,68.8c0.1,0.1,0.1,0.3,0.1,0.5c-0.4,0.6-0.9,1.1-1.6,1.3L86,70.8l0.5-0.2c0.7-0.3,1.2-0.7,1.6-1.3
			c0.1-0.2,0-0.4-0.1-0.5c-0.1-0.1-0.3-0.2-0.4-0.1c0,0,0,0,0,0C87.7,68.7,87.8,68.7,87.9,68.8z"/>
		<path class="st1" d="M73.8,37.7c-1.6-0.3-3.1-0.6-4.7-1c-0.8-0.2-1.7-0.6-2.5-0.9c-0.1,0-0.3,0-0.4,0v0.1c0.1,0,0.2,0,0.2,0
			c0.8,0.3,1.6,0.7,2.5,0.9c1.5,0.4,3.1,0.7,4.7,1c0.3,0.1,0.8,0,0.8,0.6c-0.2,0.2-0.4,0.4-0.6,0.5c0.3-0.1,0.5-0.3,0.7-0.5
			C74.7,37.7,74.2,37.8,73.8,37.7z"/>
		<path class="st1" d="M118.7,28.6c-0.2,0-0.3,0-0.5,0c-1.5,0.3-3,0.6-4.4,1s-2.8,0.9-4.1,1.5s-2.5,1.1-3.8,1.7l-0.2,0.1h0.1
			c1.3-0.5,2.5-1.1,3.8-1.7s2.7-1.1,4.1-1.5s2.9-0.7,4.4-1c0.2,0,0.3,0,0.5,0v0.2l0.2,0L118.7,28.6z"/>
		<path class="st1" d="M109.4,31.9c0.3-0.2,0.7-0.4,1-0.5C110,31.5,109.7,31.7,109.4,31.9L109.4,31.9z"/>
		<path class="st1" d="M106,33.5c0.3-0.2,0.7-0.4,1-0.6C106.6,33.1,106.3,33.4,106,33.5L106,33.5z"/>
		<path class="st1" d="M76.9,52c-0.2-0.3-0.5-0.6-0.8-0.9l-0.1,0.1c0.3,0.3,0.5,0.6,0.7,0.9s0.3,0.5,0,0.8c0,0,0.1,0,0.1,0
			C77.3,52.5,77.1,52.2,76.9,52z"/>
		<path class="st1" d="M89.6,53.7c0.1,0,0.1,0,0.2-0.1L89.6,53.7L89.6,53.7z"/>
		<path class="st1" d="M89.4,52.6v0.1h0.2l-0.1-0.2c-0.1-0.3-0.7-0.6-0.8-0.4C89,52.2,89.3,52.4,89.4,52.6z"/>
		<path class="st1" d="M88.2,52.5c0.1-0.1,0.1-0.1,0.2-0.2c0-0.5-0.4-0.7-1.4-0.5c0,0,0,0,0,0.1C87.8,51.7,88.1,51.9,88.2,52.5z"/>
		<path class="st1" d="M80.1,40c-0.4-0.2-0.9-0.3-1.4-0.4l0.4-0.3c-0.6-0.1-1.3-0.2-1.9-0.2c0.6,0,1.3,0.1,1.9,0.2h0.1l0,0l0,0
			c-0.8-0.4-1.7-0.6-2.6-0.7c-0.1,0-0.1-0.1-0.2-0.1c-0.2,0-0.5-0.3-0.7,0.2c-0.1,0.1-0.2,0.1-0.3,0.1c-0.3-0.1-0.4,0.2-0.6,0.4
			l0.2,1l0.7-0.8l-0.2-0.1c0.3,0,0.7,0.1,1,0.1c0.1,0,0.2,0.2,0.2,0.3c0,0.6,0,0.6,0.4,0.6c-0.1,0.7,0,0.9,0.5,1.1s0.9,0.6,1.4,0.5
			c0.1,0,0.3,0.1,0.4,0.2l0.9-1.3C80.1,40.6,80,40.3,80.1,40z M78.3,41.1c-0.1,0.1-0.2,0.1-0.3,0.1c0,0-0.2-0.2-0.2-0.3
			c0.1-0.1,0.2-0.2,0.3-0.2c0,0,0.1-0.1,0.2-0.1c0.1,0,0.2,0.1,0.5,0.3L78.3,41.1z"/>
		<path class="st1" d="M80.7,41.7C80.7,41.6,80.7,41.6,80.7,41.7l-0.1,0.1L80.7,41.7z"/>
		<path class="st1" d="M80.3,40.4l0.1,0.3l0.1-0.2C80.5,40.5,80.4,40.4,80.3,40.4z"/>
		<path class="st1" d="M79.2,39.3L79.2,39.3L79.2,39.3L79.2,39.3z"/>
		<path class="st1" d="M78,40.7L78,40.7c0.1,0,0.2,0.1,0.5,0.3l-0.3,0.1l0.4-0.2c-0.2-0.1-0.3-0.3-0.5-0.3
			C78.1,40.6,78,40.7,78,40.7z"/>
		<path class="st1" d="M88.5,50.4c-0.1,0.4,0.2,0.8,0.6,0.9c0.1,0,0.3,0,0.4,0c0.2,0,0.4-0.2,0.4-0.4C89.9,50.3,89.5,50.2,88.5,50.4
			z"/>
		<path class="st1" d="M76.8,49.9L76.8,49.9l-0.2,0.1c0.1,0.4,0.5,0.6,0.9,0.5c0,0,0,0,0,0c0.2,0,0.4-0.2,0.4-0.4
			c0-0.4-0.3-0.6-0.8-0.5L77,49.9L76.8,49.9z"/>
		<path class="st1" d="M76.8,49.9h0.1l0.1-0.3h-0.1L76.8,49.9z"/>
		<path class="st1" d="M85.8,81c0.1,0.7-0.1,1.5,0,2.2c1.5,8.4,4.8,16.3,9.6,23.3l0.7-1.1c0-0.1,0-0.2-0.1-0.2
			C90.8,98,87.3,89.7,85.8,81z"/>
		<path class="st1" d="M90,103.2c-0.8-2.4-1.7-4.9-2.5-7.3s-1.5-4.7-2.1-7c-0.3-1-0.5-2.1-0.7-3.2c-0.1-0.5-0.3-2.9-0.4-1.7
			c0.2,3.3,0.8,6.5,1.8,9.7c0.9,3.2,2,6.4,3.1,9.5c0.7,2.6,1.7,5.2,2.8,7.7h0.6l0.3-0.6c0,0,0-0.1,0-0.1
			C91.5,108.2,90.8,105.6,90,103.2z"/>
		<path class="st1" d="M84.2,83.9c0-0.3,0-0.7,0-1C84.2,83.2,84.2,83.5,84.2,83.9z"/>
		<path class="st1" d="M84.2,82.9c0-0.2,0-0.4,0-0.7C84.2,82.4,84.2,82.6,84.2,82.9z"/>
		<path class="st1" d="M84.2,84.3c0-0.1,0-0.2,0-0.3s0-0.1,0-0.1C84.2,84,84.2,84.2,84.2,84.3z"/>
		<path class="st1" d="M89.4,107.6c-1.6-3.8-3.4-7.6-4.8-11.4c-1.6-4.3-2.3-8.9-2.1-13.6c0-0.5,0-1,0-1.5c0-0.1,0-0.8,0-0.4
			c-0.2,3.9,0,7.9,0.5,11.8c0.8,5,3,9.7,5.1,14.3l1.3,1.7C89.5,108.2,89.5,107.9,89.4,107.6z"/>
		<path class="st1" d="M73.9,54l-0.1,0.2v-0.7h-0.4v0.3c-0.4,2.1,0.6,3.5,1.5,5.3c1.3,2.9,2.3,6,3,9.1c0,0.1,0.1,0.1,0.2,0.2
			c-0.4-0.7-0.5-1.6-0.1-2.3c0-0.3,0-0.5,0-0.7c0-0.4-0.1-0.8-0.1-1.3c-0.4-1.5-1-2.9-1.6-4.3c-0.7-1.3-1.3-2.6-1.8-3.9l-0.3,0.4
			c-0.1-0.4-0.2-0.8-0.3-1.1s0-0.4,0.4-0.6c0,0,0-0.1,0-0.1c0-0.3,0-0.5,0.1-0.8L73.9,54L73.9,54z"/>
		<path class="st1" d="M80.4,40.7l-0.1,0.1l0.1,0.2L80.4,40.7z"/>
		<path class="st1" d="M75.3,49.4l-0.1,0.1h-0.1l-0.1,0.1l-0.2-0.1c0.1-0.3,0.1-0.8,0.5-0.9h0.1c0.1-0.1,0.2-0.3,0.3-0.5l0.1,0
			l0.1-0.1l0,0c1-1.5,2-2.8,3.2-4.1c0.5-0.7,1-1.4,1.5-2c-0.3,0.2-0.6,0.5-0.8,0.7c-0.2-0.1-0.3-0.2-0.4-0.3
			c-0.4,0.6-0.8,1.2-1.3,1.7c-1.3,1.4-2.4,2.9-3.3,4.5c-0.2,0.4-0.4,0.9-0.6,1.4h0.9L75.3,49.4z"/>
		<path class="st1" d="M73.7,51.7l-0.1,0.4c0.6,0.1,0.4,0.8-0.2,1v0.1l0.9-0.1c0.1-0.8,0.3-1.6,0.6-2.4h-0.9
			c-0.1,0.2-0.1,0.5-0.2,0.7H74C74.4,51.4,74,51.6,73.7,51.7z"/>
		<path class="st1" d="M80.6,40.9c0,0.2,0,0.4,0.2,0.4c0,0.1,0,0.1,0,0.2c0.3-0.5,0.7-1,1-1.5v0v0c0.5-0.7,1-1.3,1.6-1.9
			c2.3-2.3,4.8-4.4,7.5-6.2c0.6-0.4-0.3-0.6-0.6-0.4c-2.7,1.8-5.1,3.8-7.4,6.1c-0.8,0.9-1.6,1.8-2.3,2.8
			C80.6,40.6,80.6,40.8,80.6,40.9z"/>
		<path class="st1" d="M75.9,48L75.9,48l0.1-0.1l0,0L75.9,48z"/>
		<path class="st1" d="M75.1,49.4L75.1,49.4l0.2-0.1l0.1-0.4L75.1,49.4z"/>
		<path class="st1" d="M75.5,48.5L75.5,48.5L75.5,48.5L75.5,48.5z"/>
		<path class="st1" d="M74.1,53.5L74.1,53.5L73.9,54v0.1l0.3-0.5v-0.2L74.1,53.5z"/>
		<path class="st1" d="M80.6,41.7l0.1-0.2c0-0.1,0-0.1,0-0.2c-0.2-0.1-0.2-0.2-0.2-0.4c0-0.1,0-0.2,0-0.4l-0.1,0.2V41l-0.1-0.2
			l-0.9,1.3c0.1,0.1,0.3,0.2,0.4,0.3C80.1,42.2,80.3,42,80.6,41.7z"/>
		<path class="st1" d="M148.9,108.6L148.9,108.6L148.9,108.6z"/>
		<path class="st1" d="M148.8,114.5c0-0.2,0.1-0.3,0.1-0.5c0-0.4,0-0.8,0-1.2c0-0.8,0.1-1.7,0.1-2.5c0-0.4,0-0.8-0.1-1.2
			C148.8,110.5,148.8,112.4,148.8,114.5z"/>
		<path class="st1" d="M75.9,52.5c-0.2-0.4-0.2-1,0.2-1.3L76,51.1c-0.4,0.4-0.5,1-0.3,1.5c0.2,0.3,0.8,0.5,1,0.3l0,0
			C76.4,52.9,76.1,52.7,75.9,52.5z"/>
		<path class="st1" d="M76.8,52c-0.2-0.3-0.4-0.6-0.7-0.9c-0.3,0.4-0.4,0.9-0.2,1.3c0.2,0.3,0.6,0.4,0.9,0.3
			C77.1,52.6,77,52.3,76.8,52z"/>
		<path class="st1" d="M71.7,38.9c-1.5-0.2-2.9-0.7-4.3-1.4c-0.5-0.3-1-0.5-1.1-1.2c0-0.1,0-0.2,0-0.3h-0.2c0,0.1,0,0.3,0,0.4
			c0.1,0.6,0.6,0.9,1.1,1.2c1.3,0.7,2.8,1.2,4.3,1.4c0.8,0.2,1.6,0.2,2.3-0.1C73.2,39.1,72.4,39.1,71.7,38.9z"/>
		<path class="st1" d="M73.7,37.8c-1.6-0.3-3.1-0.6-4.7-1c-0.8-0.2-1.7-0.6-2.5-0.9c-0.1,0-0.2,0-0.2,0c0,0.1,0,0.2,0,0.3
			c0.1,0.6,0.6,0.9,1.1,1.2c1.3,0.7,2.8,1.1,4.3,1.4c0.7,0.2,1.5,0.2,2.2,0c0.2-0.1,0.4-0.3,0.6-0.5C74.5,37.8,74,37.9,73.7,37.8z"
			/>
		<path class="st1" d="M113.1,43.4c1.2-0.3,2.5-0.7,3.6-1.3c-1.1,0.5-2.3,0.9-3.5,1.2c-0.4,0.1-0.9-0.1-1-0.6c0,0,0,0,0-0.1
			c-0.1-0.3,0-0.7,0.3-0.8c-0.4,0.1-0.6,0.5-0.5,0.9c0,0,0,0,0,0C112.1,43.2,112.6,43.5,113.1,43.4C113,43.4,113.1,43.4,113.1,43.4z
			"/>
		<path class="st1" d="M117.8,39.4c1.8-1.1,3.5-2.2,5.2-3.3h-0.1c-1.8,1.1-3.5,2.2-5.3,3.3c-0.8,0.5-1.6,1-2.4,1.4l0,0
			C116.1,40.4,116.9,40,117.8,39.4z"/>
		<path class="st1" d="M112.2,42.7c0.1,0.5,0.5,0.7,1,0.6c0,0,0,0,0.1,0c1.2-0.3,2.4-0.7,3.5-1.2c0.3-0.2,0.7-0.3,1-0.5
			c1-0.6,2-1.1,2.9-1.8c1.5-0.8,2.7-2.2,3.2-3.8c-0.3,0-0.5,0.1-0.8,0.2c-1.8,1.1-3.5,2.2-5.2,3.3c-0.8,0.5-1.7,1-2.6,1.4l0,0
			L115,41c-0.8,0.3-1.6,0.6-2.5,0.9h-0.1C112.2,42,112.1,42.4,112.2,42.7z"/>
		<path class="st1" d="M76.5,49.8L76.5,49.8c-0.1-0.1-0.1-0.2-0.1-0.3c-0.2,0-0.2,0.1-0.2,0.4L76.5,49.8
			C76.5,49.9,76.5,49.8,76.5,49.8z"/>
		<path class="st1" d="M76.4,49.8L76.4,49.8c0.1-0.1,0.1-0.2,0.1-0.2l0.4,0l0,0c-0.2,0-0.3-0.1-0.5-0.1
			C76.4,49.6,76.4,49.7,76.4,49.8z"/>
		<path class="st1" d="M76.8,49.9h-0.3c0,0,0,0.1,0,0.1L76.8,49.9L76.8,49.9z"/>
		<path class="st1" d="M76.9,49.5l-0.4,0c0,0.1,0,0.2,0,0.2h0.3L76.9,49.5z"/>
		<path class="st1" d="M105.7,32.8c-0.5,0.2-0.9,0.6-1,1.2c0.3-0.1,0.7-0.2,1-0.3h0.1c-0.3,0.1-0.6,0.2-1,0.3
			C104.9,33.5,105.3,33.1,105.7,32.8z"/>
		<path class="st1" d="M114.5,29.9c-0.6,0.2-1.1,0.4-1.7,0.6s-1.4,0.4-2,0.6c-0.2,0.1-0.3,0.1-0.5,0.2l0.3-0.1
			c0.7-0.3,1.3-0.4,2-0.6s1.1-0.5,1.7-0.6c1.1-0.3,2.2-0.5,3.3-0.8c0.3-0.1,0.6-0.2,0.9-0.3l0,0c-0.3,0.1-0.5,0.2-0.8,0.3
			C116.7,29.4,115.6,29.6,114.5,29.9z"/>
		<path class="st1" d="M107,33l0.3-0.1c0.7-0.3,1.4-0.6,2-0.9h0.1c-0.6,0.3-1.3,0.6-2,0.8C107.2,32.9,107.1,32.9,107,33z"/>
		<path class="st1" d="M118.1,28.6c-1.5,0.3-3,0.6-4.4,1s-2.8,0.9-4.1,1.5s-2.5,1.1-3.8,1.7h-0.1c-0.4,0.2-0.7,0.6-0.8,1.1
			c0.4-0.1,0.7-0.2,1-0.3s0.7-0.4,1.1-0.6c0.1-0.1,0.3-0.1,0.4-0.2c0.7-0.2,1.3-0.5,2-0.8c0.4-0.2,0.7-0.4,1.1-0.6
			c0.2-0.1,0.3-0.1,0.5-0.2c0.7-0.3,1.3-0.4,2-0.6s1.1-0.5,1.7-0.6c1.1-0.3,2.2-0.5,3.3-0.8c0.3-0.1,0.5-0.2,0.8-0.3v-0.2
			C118.5,28.6,118.3,28.6,118.1,28.6z"/>
		<path class="st1" d="M77.9,51.9c0.4,0.2,0.7,0.4,1,0.5c0.1,0.1,0.3,0.1,0.4,0c-0.1,0-0.2,0-0.3,0c-0.3-0.1-0.6-0.3-1-0.5
			c0.3-0.3-0.4-0.6,0-1l0.2-0.1l0,0l-0.3,0.2C77.4,51.3,78.2,51.6,77.9,51.9z"/>
		<path class="st1" d="M78,51.9c0.4,0.2,0.7,0.4,1,0.5c0.1,0,0.2,0,0.3,0c0.1-0.1,0.1-0.3,0.1-0.4c-0.1-0.4-0.2-0.8-0.8-0.9
			c-0.1,0-0.3-0.2-0.4-0.3L78,50.9C77.6,51.3,78.4,51.5,78,51.9z"/>
		<path class="st1" d="M80.5,40.4l0.1-0.1c-0.1-0.2-0.3-0.3-0.5-0.4c0,0,0,0.1,0,0.1C80.3,40.1,80.4,40.2,80.5,40.4z"/>
		<path class="st1" d="M79.1,39.3c-0.6-0.1-1.3-0.2-1.9-0.2C77.8,39.1,78.4,39.2,79.1,39.3l-0.4,0.3c0.5,0.1,1,0.2,1.4,0.4
			c0,0,0-0.1,0-0.1c-0.4-0.1-0.9-0.2-1.3-0.3L79.1,39.3L79.1,39.3L79.1,39.3z"/>
		<path class="st1" d="M102.5,39.4c-0.1,0-0.2,0.2-0.2,0.3v0.1C102.3,39.7,102.5,39.5,102.5,39.4c0.4,0,0.8,0,1.2-0.1l0.2-0.1
			C103.5,39.3,103,39.4,102.5,39.4z"/>
		<path class="st1" d="M101.7,40.5L101.7,40.5c0.6,0.1,0.6,0.1,0.6-0.4C102.3,40.4,102.3,40.4,101.7,40.5z"/>
		<path class="st1" d="M101,41.7c-0.6,0.3-1.3,0.5-1.9,0.5c-0.3,0-0.7,0.3-1.1,0.5c-0.4-0.2-0.8-0.5-1.2-0.8c0,0,0-0.1,0-0.1
			s0,0.2,0,0.2c0.4,0.3,0.9,0.6,1.2,0.8c0.4-0.2,0.8-0.5,1.1-0.5C99.7,42.3,100.4,42.1,101,41.7c0.6-0.1,0.8-0.3,0.8-0.7
			C101.8,41.3,101.6,41.5,101,41.7z"/>
		<path class="st1" d="M97.2,41.2l0.1-0.5l0,0L97.2,41.2L97.2,41.2z"/>
		<path class="st1" d="M97,41c0,0.1,0,0.1,0,0.2c0,0,0,0.1,0,0.1c0-0.1,0-0.1,0-0.2C97,41.1,97,41,97,41z"/>
		<path class="st1" d="M97.3,39.7c0.2,0.1,0.3,0.4,0.3,0.6C97.7,40.1,97.6,39.9,97.3,39.7L97.3,39.7z"/>
		<path class="st1" d="M103.7,39.5L103.7,39.5l0.9,0.9l0.3-1.1l0,0l-0.3,1L103.7,39.5z"/>
		<path class="st1" d="M104.1,38.9c-0.1,0-0.4,0-0.4-0.1c-0.2-0.5-0.6-0.2-0.9-0.2c-0.1,0-0.2,0-0.3,0.1c-1.2,0.1-2.4,0.4-3.5,0.8
			c-0.3,0.1-0.6,0.2-0.7,0.3l-0.8,0.1c0.2,0.2,0.3,0.4,0.3,0.6c0,0.4-0.2,0.7-0.5,0.9v-0.1l0,0l0.1-0.6c-0.2,0-0.3,0.2-0.3,0.4
			c0,0,0,0.1,0,0.2c0,0.1,0,0.1,0,0.2c0,0.2,0,0.3-0.3,0.3c0,0,0,0.1,0,0.1s0,0.1,0,0.1c0.4,0.3,0.9,0.6,1.2,0.8
			c0.4-0.2,0.8-0.5,1.1-0.5c0.7,0,1.3-0.2,1.9-0.5c0.6-0.2,0.8-0.4,0.8-0.8c0-0.1,0-0.3-0.1-0.4l0,0v-0.1c0.5,0,0.6,0,0.6-0.4
			c0-0.1,0-0.1,0-0.2l0,0v-0.1c0-0.1,0.1-0.3,0.2-0.3c0.5-0.1,1-0.1,1.4-0.1l-0.2,0.1h0.2l-0.2,0.1l0.8,0.8l0.3-1
			C104.7,39.1,104.6,38.7,104.1,38.9z"/>
		<path class="st1" d="M87.8,53c0.2-0.1,0.4-0.3,0.4-0.5l0,0c-0.1,0.1-0.2,0.1-0.3,0.1c-0.4,0.1-0.8-0.1-1-0.5c0-0.1,0-0.2,0-0.3
			h-0.2C86.8,52.7,87.1,53.1,87.8,53z"/>
		<path class="st1" d="M87.9,52.6c0.1,0,0.2-0.1,0.3-0.1c0-0.6-0.4-0.8-1.2-0.7c0,0.4,0.3,0.8,0.7,0.8
			C87.7,52.7,87.8,52.7,87.9,52.6z"/>
		<path class="st1" d="M86,70.8c-1.1,0.4-2.3,0.6-3.5,0.8c-0.7,0.1-1.3,0.2-1.8,0.3c-0.7-0.1-1.1-0.1-1.6-0.1
			c-0.4,0-0.8-0.2-0.9-0.6c0-0.1,0.1-0.3,0.2-0.3l0,0c-0.2,0.1-0.3,0.2-0.3,0.4c0.1,0.4,0.5,0.6,0.9,0.6c0.5,0,0.9,0.1,1.6,0.1
			c0.5-0.1,1.2-0.2,1.8-0.3C83.6,71.5,84.8,71.2,86,70.8z"/>
		<path class="st1" d="M87.6,70c-0.1,0-0.2,0.1-0.3,0.2c-0.6,0.5-1.3,0.9-2,1.3c0.8-0.4,1.5-0.8,2.2-1.4L87.6,70z"/>
		<path class="st1" d="M79,71.7c0.5,0,0.9,0.1,1.6,0.1c0.5-0.1,1.2-0.2,1.8-0.3c1.2-0.1,2.4-0.4,3.5-0.8l0.3-0.2
			c0.7-0.3,1.2-0.7,1.6-1.3c0.1-0.2,0-0.4-0.1-0.5c-0.1-0.1-0.2-0.1-0.3-0.1l-0.2,0.1c-0.7,0.5-1.4,0.8-2.2,1.1
			c-0.5,0.2-1,0.3-1.5,0.4c-0.9,0.2-1.8,0.4-2.7,0.5c-0.7,0-1.3,0-2,0c-0.3,0-0.6-0.1-0.8-0.1c-0.1,0.1-0.2,0.2-0.2,0.3
			C78.3,71.5,78.6,71.7,79,71.7z"/>
		<path class="st1" d="M89,53.6h-0.3c0.1,0.1,0.2,0.2,0.3,0.2c0.2,0,0.4,0,0.5-0.1c-0.1,0-0.2,0-0.4,0L89,53.6z"/>
		<path class="st1" d="M88.8,52.2L88.8,52.2c-0.1,0-0.1,0-0.2,0.1c-0.1,0.2-0.2,0.5-0.2,0.7l0.2-0.1C88.6,52.6,88.7,52.4,88.8,52.2z
			"/>
		<path class="st1" d="M89,53.6l0.2,0.2c0.1,0,0.2,0,0.4,0l0.1-0.1L89,53.6z"/>
		<path class="st1" d="M88.6,52.8c0.1-0.1,0.3-0.1,0.4-0.1h0.4v-0.1c-0.1-0.3-0.3-0.4-0.6-0.5l0,0C88.7,52.3,88.6,52.6,88.6,52.8z"
			/>
		<path class="st1" d="M109.5,88.3L109.5,88.3c-0.4,0.6-0.7,1.1-1.1,1.7c-0.8,1.3-1.5,2.6-2.3,3.9l0,0L109.5,88.3z"/>
		<path class="st1" d="M109.9,87.6l-0.2,0.2l0,0L109.9,87.6z"/>
		<path class="st1" d="M114.7,79.7l-0.6,0.9l-0.1,0.2L114.7,79.7L114.7,79.7z"/>
		<path class="st1" d="M117.1,75.7l-1.6,2.5l0,0L117.1,75.7z"/>
		<path class="st1" d="M115.6,78.3L115.6,78.3l-0.9,1.4l0,0L115.6,78.3z"/>
		<path class="st1" d="M80.8,43L80.8,43L80.8,43L80.8,43z"/>
		<path class="st1" d="M108.2,81.2L108.2,81.2L108.2,81.2z"/>
		<path class="st1" d="M76.3,49.9L76.3,49.9c0-0.1-0.1-0.1-0.2-0.2C76.2,49.8,76.3,49.8,76.3,49.9z"/>
		<path class="st1" d="M76.9,94.1l0.1,0.2c2.4,4.2,5,8.2,8,12c0-0.1,0-0.3,0-0.4c-1.5-2.4-3-4.7-4.6-7c-1.2-1.8-2.4-3.6-3.6-5.3
			l-0.1,0.3L76.9,94.1L76.9,94.1z"/>
		<path class="st1" d="M75.3,91.2L75.3,91.2l-0.1,0.2c0.3,0.4,0.6,0.8,0.9,1.3l0.2-0.1L75.3,91.2z"/>
		<path class="st1" d="M76.3,92.9c0.2,0.3,0.3,0.6,0.5,0.9l0.1-0.3l-0.6-0.9l-0.2,0.1L76.3,92.9L76.3,92.9z"/>
		<path class="st1" d="M85.3,106.5h0.2l-0.4-0.7c0,0.1,0,0.3,0,0.4L85.3,106.5z"/>
		<path class="st1" d="M88.4,110c-0.7-0.8-1.4-1.6-2.2-2.4c0,0,0,0.1,0,0.1c1.1,1.3,2,2.4,2.8,3.2h0.3C89,110.7,88.7,110.4,88.4,110
			z"/>
		<path class="st1" d="M86.2,107.7L86.2,107.7C86.2,107.8,86.2,107.7,86.2,107.7l0-0.2C86.1,107.6,86.2,107.6,86.2,107.7z"/>
		<path class="st1" d="M97.8,106.1c-0.1,0.1-0.1,0.3-0.2,0.4l0.2-0.3L97.8,106.1z"/>
		<path class="st1" d="M95.9,108.4l-0.8,1.5l0.2,0.1c0.2-0.3,0.5-0.7,0.7-1.1l0.1-0.4L95.9,108.4z"/>
		<path class="st1" d="M96.1,108.4h-0.2v0.1l0.2,0.1L96.1,108.4z"/>
		<path class="st1" d="M114,80.8l-4.2,6.8c0.5-0.7,0.9-1.4,1.4-2.2C112.2,83.9,113.1,82.3,114,80.8z"/>
		<path class="st1" d="M74.1,94.5L74.1,94.5L74.1,94.5z"/>
		<path class="st1" d="M148.8,121.4c0.2,0,0.4,0.1,0.6,0.2c-0.4-2.4-0.6-4.8-0.7-7.2C148.7,116.8,148.7,119.1,148.8,121.4z"/>
		<path class="st1" d="M73.7,55.2c0.1,0.4,0.2,0.8,0.3,1.1l0.3-0.4c-0.1-0.4-0.2-0.9-0.2-1.3C73.7,54.8,73.6,54.9,73.7,55.2z"/>
		<path class="st1" d="M75.8,48.3L75.8,48.3c-0.1,0.3-0.2,0.5-0.3,0.7l0.6-0.9L75.9,48l-0.1,0.1L75.8,48.3z"/>
		<path class="st1" d="M75.4,48.5c-0.5,0.2-0.4,0.6-0.5,0.9l0.2,0.1l0.1-0.1l-0.1-0.1C75.1,49.1,75.1,48.7,75.4,48.5z"/>
		<path class="st1" d="M75.8,48.3l0.1-0.1l0.1-0.1l-0.1,0c-0.1,0.2-0.2,0.4-0.3,0.5h0.1C75.7,48.4,75.7,48.4,75.8,48.3z"/>
		<path class="st1" d="M75.9,48L75.9,48l-0.1,0.1L75.9,48z"/>
		<path class="st1" d="M75.7,48.4L75.7,48.4c0,0-0.1,0-0.1,0h-0.1l0,0h-0.1c-0.3,0.2-0.3,0.6-0.4,0.9l0.1,0.1l0.3-0.4
			C75.5,48.8,75.6,48.6,75.7,48.4z"/>
		<path class="st1" d="M73.9,54v-0.5h-0.2v0.7L73.9,54z"/>
		<path class="st1" d="M73.9,54l0.3-0.4l-0.1-0.1h-0.2L73.9,54z"/>
		<path class="st1" d="M93.4,25.4c-0.2-0.5,0.2-1.1,0.9-1.5l0,0c-0.9,0.5-1.3,1.3-1.1,1.7L93.4,25.4z"/>
		<path class="st1" d="M93.4,25.4l0.9-1.5C93.6,24.3,93.2,25,93.4,25.4z"/>
		<path class="st1" d="M79.6,48.9l0.2-0.3C79.7,48.7,79.7,48.8,79.6,48.9z"/>
		<path class="st1" d="M77.9,40.9c0-0.1,0.1-0.1,0.1-0.2c-0.1,0-0.2,0.1-0.3,0.3c0,0,0.1,0.3,0.2,0.3c0.1,0,0.2-0.1,0.3-0.1L78,41.2
			C78,41.2,77.9,40.9,77.9,40.9z"/>
		<path class="st1" d="M78.1,40.7L78.1,40.7c-0.1,0-0.1,0.1-0.2,0.2c0,0,0.1,0.3,0.2,0.3l0.2-0.1l0.3-0.1
			C78.3,40.8,78.2,40.7,78.1,40.7z"/>
		<path class="st1" d="M150.3,100L150.3,100L150.3,100L150.3,100z"/>
		<path class="st1" d="M169.1,82.2c-0.1-0.1-0.2-0.3-0.3-0.4c-0.9-1.7-2-3.3-3.4-4.7c-1.3-1.4-2.2-3-2.9-4.8c-0.4-1-0.6-2.1-0.7-3.3
			l-0.1-0.4c0,1.3,0.2,2.5,0.7,3.7c0.6,1.8,1.6,3.4,2.9,4.8c1.4,1.4,2.5,3,3.4,4.7c0.1,0.2,0.2,0.3,0.3,0.4L169.1,82.2L169.1,82.2z"
			/>
		<path class="st1" d="M114.3,34.7l0.8,1.3c0-0.1,0-0.2,0-0.4l-0.5-0.8C114.5,34.8,114.4,34.8,114.3,34.7z"/>
		<path class="st1" d="M114.6,34.8l0.5,0.8C115.1,35.3,114.9,35,114.6,34.8z"/>
		<path class="st1" d="M80.3,49.9c0.5,0.3,0.9,0.7,1.4,1c0.4,0.3,0.8,0.5,1.2,0.8c0.3,0.1,0.7,0.3,0.9-0.2c0.1-0.1,0.3-0.2,0.6-0.3
			c0.2-0.2,0.4-0.5,0.7-0.7c0.9-0.7,1.7-1.4,2.6-2c0.3-0.2,0.8-0.3,0.8-0.8c0-0.2,0-0.4-0.2-0.5c-0.2-0.2-0.4-0.5-0.6-0.4
			c-0.5,0.1-0.9,0.3-1.3,0.6c-1.1,0.8-2.1,1.7-3.2,2.5c-0.6,0.5-0.8,0.4-1.3-0.1c-0.2-0.2-0.5-0.3-0.8-0.6c-0.2-0.2-0.4-0.4-0.5-0.6
			c-0.2-0.1-0.3-0.3-0.5-0.4l-0.5,0.4L79.6,49c-0.1,0.1-0.1,0.3-0.2,0.5C79.7,49.5,80,49.7,80.3,49.9z"/>
		<path class="st1" d="M79.6,48.9l-0.3,0.4h0.1C79.5,49.2,79.6,49,79.6,48.9z"/>
		<path class="st1" d="M96,109l0.2-0.3l-0.1-0.1L96,109z"/>
		<path class="st1" d="M89.4,109.8c-0.4-1-0.9-2-1.3-3l-1.7-2.2c0,1,0,2-0.1,3c0.8,0.8,1.4,1.7,2.2,2.4c0.3,0.3,0.6,0.6,0.9,0.9h0.2
			h1.9c-0.5-0.6-1.2-1.5-2-2.5C89.3,108.9,89.3,109.3,89.4,109.8z"/>
		<path class="st1" d="M95.1,109.9l0.8-1.5l-0.2-0.1c-0.5-0.4,0.7-0.9,1-0.7l0.1,0.1l0.8-1.2c0.1-0.1,0.1-0.3,0.2-0.4v0.1l1.3-2
			c-0.1-0.4-0.3-0.9-0.5-1.3c-0.2-0.5,1.1-0.9,1.3-0.3l0.1,0.2c2.8-4.3,6.1-9,6.1-9c0.8-1.3,1.5-2.6,2.3-3.9
			c0.3-0.6,0.7-1.1,1.1-1.7c-0.3,0.1-0.6,0.2-0.7,0.1l-1.2-0.7l-0.8,1.3c-0.2,0.3-3.2,5-3.3,4.8c0,0.1-0.6,1-1.5,2.4h0.2l0.4-0.4
			l0,0c0,0,0-0.1,0-0.1s0,0.1,0,0.1l0,0l-0.4,0.4h0.1c0,0.1,0.1,0.2,0,0.3c-0.1,0.3-0.3,0.6-0.5,0.9c0,0.1-0.2,0-0.3,0.1l0.5-0.8
			c0-0.1,0-0.2,0-0.3l-5.7,9.1c0.1,0.6-0.4,1.6-0.1,2l-0.6-0.9l-2.5,4c0,0.2,0,0.4,0,0.6h1.5c0.3-0.3,0.6-0.7,0.8-1L95.1,109.9z
			 M102.7,95.7L102.7,95.7z"/>
		<path class="st1" d="M60.9,50.9c0.1-1.3,0.4-2.6,0.8-3.9c0.3-1.3,0.7-2.6,1.2-3.9c0.7-2,1.5-4,2.4-5.9c0.7-1.8,1.6-3.4,2.8-4.8
			c0.2-0.2,0.4-0.4,0.6-0.6c0.4,0.6,0.8,1.1,1.3,1.6c1.6,1.5,3.6,2.7,5.7,3.4c0.3,0.1,0.6,0.2,0.9,0.2c0.4,0,0.9-0.1,1.2-0.3
			c0.2-0.2,0.3-0.7,0.3-1c-1-0.1-1.8-0.2-2.6-0.4c-1.5-0.5-2.9-1.2-4.2-2.2c-0.6-0.4-1.1-0.8-1.6-1.3c-0.2-0.1-0.3-0.2-0.5-0.3
			c1.1-1.6,3.6-3.4,5.9-4.8c-0.7-0.4-1.3-1.2,0-0.7l0.7,0.3c1.1-0.6,2-1.1,2.7-1.5c2.2-1,4.4-1.7,6.7-2.1c0,0,0.6,1.3,1.4,1.5
			c0.7,0.3,1.5,0.6,2.2,1c0.8,0.3,1.7,0.6,2.5,0.9c0.2,0.1,0.3,0.1,0.5,0.2c0.6,0.4,0.8,1.1,1.5,1.8c0.6-0.1,3.8-3.9,3.9-4
			c0.4-0.5,0.8-0.9,1.2-1.3l0,0c0.3-0.4,0.7-0.8,1.1-1.2c1.7-1.1,3.6-1.8,5.6-2.3c0.2,0,0.4-0.1,0.5-0.1c1.7-0.3,3.5-0.2,5.2,0.2
			l2.9,0.8c3.1,1.3,5.8,3.4,7.8,6.1c0.8,1,1.5,2.1,2.1,3.2c0.1,0.2,0.4,0.5-0.2,0.6l0.5,1.5c-0.8,0.7-1.7,1.4-2.6,2.1
			c-1.3,0.9-2.7,1.7-4.1,2.5c-0.3,0.2-0.7,0.4-1.1,0.5c-0.5,0.2-0.2,0.6-0.5,1c-0.1-0.8-0.2-1.5-0.3-2.2c-0.2-0.7-1-1.2-1.7-1
			c0,0-0.1,0-0.1,0c-0.6,0.3-1.3,0.5-1.9,0.8c-0.3,0.2-0.6,0.5-0.8,0.9c-0.6,0.9-1.2,1.8-1.8,2.7c-0.1,0.1-0.3,0.2-0.4,0.3l-0.1,1.6
			h0.2l0.3-0.7c1.1,0.3,1.3-0.6,1.8-1.2c0.6-0.8,1.2-1.6,1.8-2.4c0.3-0.3,0.7-0.5,1.1-0.7c0.2,0.4,0.3,0.8,0.5,1.2
			c0.2,0.6,0.1,1.3-0.3,1.7c-0.1,0.1-0.1,0.3,0,0.4c0.1,0.2,0.3,0.2,0.6,0.3c0.6-0.1,1.2-0.5,1.3-1.1c0-0.1,0.1-0.3,0.2-0.5
			c0.5,1,1.1,0.5,1.6,0.2c1.6-0.8,3.1-1.8,4.5-3c0.8-0.6,1.5-1.2,2.3-1.8c0.1-0.1,0.2-0.2,0.4-0.2l0.3,1l0,0
			c0.1,0.2,0.2,0.4,0.2,0.6s0,0.2,0,0.2c0.6,1.2,0.9,2.5,0.9,3.8c0.2,1.8,0.3,3.7,0.5,5.5c0.2,3.1-0.1,6.2-1,9.2
			c-0.8,2.9-1.8,5.8-3,8.5c-0.6,1.3-1.2,2.5-1.8,3.7l-1.4,2.6l1.3,0.2c0.9,0.1,0.2,1-0.4,0.9l-1.3-0.2l-1.2,2.3l1.6,0.3
			c0.3,0.1-0.8,0.5-1.1,0.5l-0.8-0.1c-0.5,0.8-1,1.7-1.5,2.5c-0.2,0.3-0.3,0.7-0.5,1.1s-0.3,0.5-0.5,0.8c-0.6,1.1-1.3,2.2-1.9,3.3
			c-0.4,0.6-0.9,1.2-1.3,1.8c-0.3,0.4-0.5,1-0.8,1.4c-0.5,0.8-1.1,1.6-1.6,2.4c-0.2,0.3-0.2,0.7-0.4,0.9l-0.7,1
			c0.5,0.4,1.1,0.7,1.6,1l0.2-0.2l4.1-6.7l0.1-0.2l0.6-0.9c-0.1-0.4-0.3-0.8-0.5-1.2c-0.2-0.5,1-0.8,1.3-0.3l0.1,0.1l1.6-2.5
			c0.4-0.6,0.7-1.2,1.1-1.8c0.4-0.6,0.8-1.2,1.1-1.8c0.2-0.5,0.8-0.9,0.8-1.6c0-0.4,0.4-0.7,0.7-1.1c0.8-1.1,1.4-2.3,1.9-3.6
			c0-0.1,0.2-0.1,0.2-0.2s0.2-0.4,0.3-0.6c0,0,0.1-0.1,0.1-0.1l0.1,0.6l0.2-0.9c0.1,0.2,0.2,0.4,0.3,0.6c0.3,1.7,0.9,3.3,1.7,4.9
			c0.4,0.8,0.8,1.7,1.3,2.6c0.8,1.5,1.6,3,2.6,4.5c1.2,1.8,2.2,3.7,3.1,5.6c0.6,1.2,1.1,2.3,1.7,3.4c0.5,0.9,1.1,1.8,1.7,2.8
			c0.5,0.8,1,1.6,1.6,2.4c2.4,2.5,5,4.8,7.7,7.1c0.4,0.2,0.8,0.4,1.2,0.6v-0.1c-1.1-0.9-7.7-7.5-8.4-8.3c-0.1-0.1-0.3-0.5-0.4-0.6
			c-1.8-2.6-3.4-5.4-4.8-8.3c0.2,0.1,0.3,0.2,0.5,0.3c0.5,0.4,1,0.9,1.4,1.4c0.8,0.8,1.6,1.6,2.4,2.5c0.5,0.5,2.3,2.1,2.6,2.4
			c0.7,0.7,1.3,1.4,2,2.2c0.9,1,1.8,2,2.6,3.2c1,1.7,1.9,3.4,2.8,5.1c0.7,1.3,1.2,2.7,1.4,4.1c0.1,0.8,0.1,1.6,0.2,2.4
			s0.1,1.5,0.1,2.2c0,0.3,0,0.7,0,1.2l0,0c0,0.2,0,0.3,0,0.5c0.1,0.4,0.2,0.8,0.1,1.2c0,0.8-0.1,1.7-0.1,2.5c0,0.4,0,0.8,0,1.2
			c0,0.2-0.1,0.3-0.1,0.5c0,2.4,0.2,4.8,0.7,7.2c0.4,0.2,0.7,0.6,0.9,1c0.1-1.1,0.2-2.2,0.3-2.3s0.1-2.4,0.2-2.5
			c0.2-0.3,0.2-12.4,0.2-12.5l0.3-0.3c0.8,0.9,1.6,1.7,2.6,2.4c0.8,0.5,1.6,1,2.4,1.6c1.5,1,3.3,1.5,5.1,1.3
			c1.7-0.1,3.3-0.6,4.8-1.4c1.4-0.7,6.5-3.8,8.1-17.5c0.6-3.2-0.3-6.6-2.5-9c-0.7-0.8-4.4-6.3-5.2-7.3c-1.2-1.7-2.2-3.6-2.9-5.6
			c-0.4-1.3-0.6-2.6-0.6-4c0-0.7-0.2-1.5,0.8-1.8c0.1,0,0.1-0.2,0.2-0.2l1.2-1c0.1,0,1.6-3.2,1.6-4.3c0-0.1,0.1-0.2,0.2-0.3
			l-0.1-0.2c0.5-0.2,0.8-0.7,0.6-1.2l-0.5,0.1l-0.3,0.8c-0.3-0.9-1.3-1.4-2.3-1c-0.2,0.1-0.4,0.2-0.6,0.3l-2.2,1.9l-0.2-0.1
			c0.1-0.2,0.1-0.4,0.2-0.5c0.7-1,1.5-1.8,2.5-2.5c0.1,0,0.2-0.1,0.3,0c0.3,0.3,0.4,0,0.5-0.1c0.8-0.7,0.7-0.5,1.1,0.2
			c0,0,0.1,0.1,0.1,0.1c0.2,0,0.5,0,0.7-0.1c0.2-0.1,0.5-0.3,0.4-0.4c-0.2-0.5-0.4-0.9-0.6-1.3c-0.6,0.2-0.1-0.3-0.3-0.4
			c-0.6,0-1.2,0.1-1.8,0.3c-1,0.5-1.9,1.1-2.8,1.8c-0.6,0.5-1.1,1-1.5,1.7c-0.7,1-1,2.3-0.8,3.5c0.1,1.2,0.7,4,0.8,4.3
			c0.1,0.2,0.1,0.4,0,0.6c-0.4,1.1-0.6,2.3-0.5,3.5c0.2,1.4,0.5,2.8,1,4.2c0.8,2,1.9,3.8,3.3,5.3c1.7,1.9,3,4,4,6.4
			c0.5,1.3,0.8,2.7,0.9,4.1c0,1.2-0.1,2.4-0.4,3.6c-1.5,7.6-6.1,8.7-7.3,8.6c-0.9-0.1-1.8-0.2-2.7-0.5c-1.6-0.5-3-1.2-4.3-2.2
			c-0.6-0.5-1.9-1.3-2.5-1.7l-0.1-0.1c-1-0.8-2.2-1.5-3.4-1.9c-0.4-0.1-0.7-0.1-1.1,0c-0.1-0.1-0.3-0.2-0.4-0.3
			c-1-1.6-2.1-3.1-3.4-4.4c-0.7-0.7-1.3-1.4-2-2.1c-0.4-0.4-0.8-0.8-1.1-1.2c-1.2-1.1-6.6-6.5-7.5-7.6c-0.7-0.9-5.7-7.1-7.1-13.2
			c-0.2-1.2-1.2-4.4-1-4.8c3.1-4.7,3.4-13.6,3.5-14c0-0.6,0-1.3,0-1.9c0-0.3-0.1-1.5-0.2-1.8c-0.1-1.1-0.3-2.2-0.4-3.2
			c-0.1-2-0.5-4-1.1-5.9c-0.5-1.4-0.8-2.9-1.4-4.3c-0.5-1.3-1.2-2.6-2-3.8c-0.8-1.1-1.8-2.2-2.8-3.2c-0.8-0.9-1.7-1.7-2.6-2.4
			c-2.2-1.7-4.8-2.2-7.3-3.1c-0.8-0.2-1.6-0.4-2.5-0.4c-2.6,0-5.2,0.5-7.6,1.5c-1.6,0.7-3.1,1.7-4.4,2.8c-0.5,0.5-1.1,0.9-1.6,1.4
			c0,0-1.4,1.4-2,2c-0.6-0.9-1.4-1.7-2.3-2.4c-1.4-0.7-3-1.1-4.5-1.3c-3.4-0.2-6.8,0.5-9.9,2.1c-0.7,0.4-1.4,0.8-2,1.2
			c-1.7,1.1-3.2,2.3-4.8,3.7c-1.9,2.3-3.6,4.7-5.2,7.2c-0.4,1-0.9,2-1.3,3c-0.5,1.3-1,2.6-1.5,4c-0.3,0.9-0.5,1.9-0.8,2.8
			c-0.5,1.2-0.8,2.4-1.1,3.7c-0.1,0.7-0.1,1.3-0.1,2l1.7,0.1C60.9,51,60.9,51,60.9,50.9z M115.1,35.6c0,0.1,0,0.2,0,0.4l-0.8-1.3
			c0.1,0,0.2,0,0.2,0.1l-0.1-0.2c0.5,0.1,0.8,0.5,0.8,1.3L115.1,35.6z M165.2,57.7C165.2,57.7,165.2,57.8,165.2,57.7
			c-0.1,0.9-0.5,1.6-1,2.2l-0.1,0.2C164,59.2,164.4,58.3,165.2,57.7L165.2,57.7z M168.9,82.3c-0.1-0.1-0.2-0.3-0.3-0.4
			c-0.9-1.7-2-3.3-3.4-4.7c-1.3-1.4-2.2-3-2.9-4.8c-0.5-1.2-0.7-2.5-0.7-3.7l0.1,0.4c0-0.2,0-0.3,0-0.5c0.2,0.5,0.4,1.1,0.6,1.6
			c0.7,2,1.7,3.9,2.9,5.6c1.2,1.8,2.5,3.6,3.7,5.4c0.1,0.3,0.2,0.7,0.3,1l-0.1,0.1l0,0l0,0L168.9,82.3z M148.5,96.3
			c0.2,0.1,1,0.4,1.1,0.5c0.8,0.4,1.5,0.9,2.2,1.4c0.4,0.3,6.3,5.2,10.3,4.4c1.6-0.3,3-1.2,4-2.4c1.6-2,1.6-2,2.4-3
			c1-1.4,1.7-2.9,2-4.6c0.3-1.1,0.4-2.3,0.4-3.4c0-1.1-0.2-2.2-0.4-3.3c-0.2-0.9-0.4-1.7-0.6-2.6c0-0.1,0-0.3,0-0.4l0.1-0.1
			c0.3,0.3,0.5,0.7,0.8,1c1.1,1.7,1.6,3.7,1.4,5.7c-0.2,1.9-0.4,3.8-0.7,5.7c-0.2,1-0.5,2-0.7,3c-0.5,2.3-1.7,4.1-2.8,6.1
			c-0.6,1.3-1.6,2.3-2.8,3c-0.8,0.4-1.7,0.7-2.6,0.9c-1.3,0.5-2.7,0.5-4,0.2c-0.7-0.3-1.4-0.6-2-1.1c-0.8-0.6-1.6-1.2-2.4-1.8
			c-0.2-0.2-1.1-1.2-1.4-1.5c-0.6-0.6-1.2-1.1-1.8-1.6C150.8,102.2,148.6,96.6,148.5,96.3L148.5,96.3z M94.3,23.9L94.3,23.9l0.2-0.1
			l-1.1,1.7c0,0,0-0.1,0-0.1l-0.1,0.2C93,25.1,93.5,24.3,94.3,23.9z M85.8,22.5c1.6,0.7,3.5,0.7,4.8,2l-0.1,0.2l-0.1,0l-0.1,0.1
			c-0.4-0.3-0.7-0.5-1.1-0.7c-0.4-0.2-0.8-0.2-1.3-0.3c-0.8-0.2-1.6-0.6-2.3-1.2l0.5,0.2C86,22.7,85.9,22.6,85.8,22.5z"/>
		<path class="st1" d="M164.2,59.9c0-0.8,0.3-1.6,1-2.1c0,0,0,0,0-0.1c-0.8,0.5-1.2,1.4-1.2,2.4L164.2,59.9z"/>
		<path class="st1" d="M73.3,86.5c-3.2-4.4-6-9.1-8.3-14l-0.8,0.1c-0.9,0.1-0.6-0.9,0.1-1l0.3-0.1L64.3,71l-0.9,0.3
			c-0.3,0.1-0.5,0.1-0.6,0l0,0.1c1.9,6.4,6.3,12.2,9.5,16.2l0,0C72.7,87.2,73,86.9,73.3,86.5z"/>
		<path class="st1" d="M63.3,70.8l0.9-0.3c-0.8-2.8-3.1-13.9-3.1-14s0-0.5,0-0.7s0-0.5,0-0.8l-1.6,0.2c0,0.7,0.1,1.4,0.1,1.7
			c0,0.8,0.6,7,0.7,7.4c0.1,0.4,2.1,5.6,2.6,6.8C62.8,71.1,63,70.9,63.3,70.8z"/>
		<path class="st1" d="M60.9,51.6l-1.7-0.1c0,0.2,0,0.4,0,0.5s0,0.6,0.1,1l1.6,0C60.9,52.5,60.9,52.1,60.9,51.6z"/>
		<path class="st1" d="M61,54h-1.7c0,0.3,0,0.6,0.1,0.9l1.6-0.2C61,54.4,61,54.2,61,54z"/>
		<path class="st1" d="M75.3,91.2l1,1.4c0.4-0.2,1.1-0.2,1,0s-0.2,0.6-0.3,0.9c1.2,1.8,2.4,3.5,3.6,5.3c1.5,2.3,3,4.7,4.6,7
			c0-0.7,0-1.3,0-2c0-0.2,0.2-0.3,0.4-0.4l-0.8-1c-1.5-2.2-3-4.5-4.6-6.7c-0.9-1.2-3.4-4.5-6.3-8.5l-0.2,0.3
			c-0.3,0.2-0.7,0.3-1.1,0.3c0.8,1,1.6,2,2.2,2.8l0,0c0.2,0.3,0.4,0.5,0.7,0.8L75.3,91.2L75.3,91.2z"/>
		<path class="st1" d="M99.9,102.6c-0.2-0.6-1.5-0.2-1.3,0.3s0.3,0.8,0.5,1.3l0.9-1.4L99.9,102.6z"/>
		<path class="st1" d="M115.5,78.2c-0.3-0.5-1.5-0.1-1.3,0.3c0.2,0.4,0.3,0.8,0.5,1.2L115.5,78.2L115.5,78.2z"/>
		<path class="st1" d="M95.7,108.3l0.2,0.1v-0.1H96v0.1l0.1,0.1l0.6-1l-0.1-0.1C96.3,107.4,95.2,107.9,95.7,108.3z"/>
		<path class="st1" d="M76.3,92.6l0.6,0.9c0.1-0.3,0.2-0.6,0.3-0.9S76.7,92.4,76.3,92.6z"/>
		<path class="st1" d="M85.3,106.5l0.9,1.2c0,0,0-0.1,0-0.2l0.1,0.1c0.1-1,0.1-2,0.1-3l-0.9-1.1c-0.2,0.1-0.4,0.2-0.4,0.4
			c0,0.7,0,1.3,0,2l0.4,0.7L85.3,106.5z"/>
		<path class="st1" d="M93.4,25.5l1.1-1.7l-0.2,0.1l-0.9,1.5C93.4,25.5,93.4,25.5,93.4,25.5z"/>
		<path class="st1" d="M101.9,96.6l-0.5,0.8c0.1,0,0.3,0,0.3-0.1c0.2-0.3,0.4-0.6,0.5-0.9c0-0.1,0-0.2,0-0.3h-0.1l-0.1,0.1l0,0
			l0.1-0.1H102l-0.1,0.2C101.8,96.4,101.8,96.5,101.9,96.6z"/>
		<path class="st1" d="M114.5,34.7l0.1,0.2c0.3,0.2,0.5,0.5,0.5,0.8l0.2,0.3C115.3,35.1,115,34.7,114.5,34.7z"/>
		<path class="st1" d="M96.1,107.4c-0.3-0.4,0.2-1.4,0.1-2l-0.7,1.1L96.1,107.4z"/>
		<path class="st1" d="M93,111c0-0.2,0-0.4,0-0.6l-0.3,0.6L93,111z"/>
		<path class="st1" d="M89.4,108.5l-1.3-1.7c0.4,1,0.9,2,1.3,3C89.3,109.4,89.3,108.9,89.4,108.5z"/>
		<path class="st1" d="M102.5,95.6c0,0,0,0.1,0,0.1l0,0C102.5,95.7,102.5,95.6,102.5,95.6z"/>
		<path class="st1" d="M102.5,95.7l-0.4,0.4l0,0L102.5,95.7z"/>
		<path class="st1" d="M102.1,96.2L102.1,96.2L102.1,96.2L102.1,96.2L102.1,96.2z"/>
		<path class="st1" d="M79.9,73.7c0-0.3-0.6-0.2-0.6,0.1c-0.1,1.3,0,2.5,0.2,3.8c0.1,0.3,0.7,0,0.7-0.2C80,76.1,79.9,74.9,79.9,73.7
			z"/>
		<path class="st1" d="M82.6,77.6c-0.1-0.9-1.1-2.3-0.5-3.2c0.3-0.4-0.4-0.3-0.5-0.1c-0.8,1.1,0.2,2.3,0.4,3.5
			C82,78.1,82.6,77.9,82.6,77.6z"/>
		<path class="st1" d="M83.6,74c-0.1-0.4-0.7-0.1-0.6,0.2c0.2,0.9,0.5,1.8,0.9,2.6c0.1,0.3,0.8,0,0.6-0.4C84,75.7,83.7,74.9,83.6,74
			z"/>
		<path class="st1" d="M85.2,73.1c-0.1-0.4-0.7-0.1-0.6,0.2c0.2,1.3,0.6,2.5,1.2,3.7c0.2,0.3,0.8,0,0.6-0.4
			C85.8,75.5,85.4,74.3,85.2,73.1z"/>
		<path class="st1" d="M87,73.3c-0.1-0.3-0.7,0-0.6,0.4c0.2,0.7,0.6,1.4,1,2c0.2,0.3,0.8-0.1,0.6-0.4C87.6,74.7,87.2,74.1,87,73.3z"
			/>
		<path class="st1" d="M79.8,69.3L79.8,69.3h0.3L80,69.2C79.9,69.2,79.9,69.2,79.8,69.3z"/>
		<path class="st1" d="M83.5,53.7c-0.2,0.1-0.5,0-0.7-0.2l0,0C83,53.7,83.3,53.8,83.5,53.7z"/>
		<path class="st1" d="M83.5,54.2C83.5,54.2,83.5,54.2,83.5,54.2C83.5,54.3,83.6,54.2,83.5,54.2z"/>
		<path class="st1" d="M78.9,58.5c0,0-0.6-3,0-3.8v-0.1c0.4-0.1,0.3-0.2,0.3-0.2c0.1,0.2,0.3,0.3,0.5,0.3c0.4,0,0.1-0.3,0.3-0.3
			s0.4,0.3,0.7,0.2c0.1,0,0.2-0.1,0.2-0.3c0,0,0,0,0,0c0.1,0.2,0.4,0.3,0.6,0.3c0.3,0,0.1-0.4,0.3-0.3s0.3,0.4,0.7,0.1
			s0.3-0.1,0.3-0.1c0.1,0.1,0.2,0.3,0.3,0.3c0.2,0.1,0.4-0.1,0.4-0.2s0,0,0-0.1s0,0,0,0.1c0.2,0.1,0.4,0.2,0.6,0.2
			c0.2,0,0.1-0.3,0.1-0.3c0.2,0.1,0.3,0.2,0.4,0.3c0.1,0.2,0.2-0.1,0.3-0.2c0.2,0,0.3,0,0.5,0v0.1L85,54.4c0,0-0.8,5.3,0.4,3.9
			c0.4-0.5,0.7-1,1-1.6c0.1-0.3,0.2-0.5,0.3-0.7l0.1-0.2l0.1-0.3l0.1-0.3l0-0.1v-0.1l-0.2-0.1l-0.1,0l-0.2-0.1l-0.2-0.1
			c-0.3-0.1-0.6-0.2-1-0.3c-0.7-0.2-1.6-0.4-2.5-0.7c0.2,0.2,0.4,0.2,0.7,0.2c-0.2,0.1-0.5,0-0.7-0.2h-0.1c-0.9,0-1.7,0.2-2.6,0.5
			c-0.9,0.2-1.6,0.3-1.7,0.4c-0.2,0-0.4,0.1-0.6,0.2c-0.5,0.2-1,0.3-1,0.3c-0.1,0.3-0.1,0.5-0.1,0.8c0,0,0,0.1,0,0.2l0,0
			c0,0.5,0.1,1.1,0.3,1.5c0,0.1,0.1,0.2,0.1,0.2c0.4,0.7,1.1,1.2,1.8,1.3L78.9,58.5z"/>
		<path class="st1" d="M78.1,68.6v-0.2H78L78.1,68.6z"/>
		<path class="st1" d="M78,68.4L78,68.4c-0.1-0.7-0.1-1.6-0.1-2.3C77.5,66.9,77.6,67.7,78,68.4z"/>
		<path class="st1" d="M84.8,68.4c0.5,0.1,1-0.1,1.4-0.4c1.5-1.5-0.4-4.5-0.4-4.5s-0.1-0.3,0,0.9s-0.5,3.2-0.6,2.9
			c-0.3,0.2-0.8,0.2-1.1,0c-0.2-0.1-0.3,0.5-0.4,0.4c-0.3-0.1-0.6-0.1-0.9,0l-0.3-0.1c-0.3-0.1-0.2,0.1-0.3,0.4s-0.2-0.2-0.4-0.5
			s-0.5,0.3-0.5,0.3c-0.3-0.2-0.5-0.4-0.7-0.6c-0.3-0.4-0.5-0.8-0.8-1.2c-0.4-0.7-0.7-1.3-0.7-1.3l0,0c0,0.9,0.1,1.9,0.2,2.8v0.2
			c0.1,0.4,0.4,0.7,0.7,1c0.3,0.2,0.6,0.2,0.9,0c0,0,0-0.1,0-0.1h0.2v-0.1l0.3-0.1L84.8,68.4z"/>
		<path class="st1" d="M97.4,29.1c3.1-3.3,6.7-6,10.6-8.1c0.8-0.4,0.1-1-0.6-0.7c-4.1,2.2-7.9,5.1-11.1,8.4
			C95.8,29.4,97.1,29.5,97.4,29.1z"/>
		<path class="st1" d="M83.2,31.5c0.3,0.3,2.4,1,1.6,0.3c-2.7-2.4-5.7-4.4-9-5.8l-0.6,0.4l0.2,0.1C78.3,27.7,80.9,29.4,83.2,31.5z"
			/>
		<path class="st1" d="M75.1,25.7c-1.3-0.5-0.7,0.3,0,0.7l0.6-0.4L75.1,25.7z"/>
		<path class="st1" d="M89.9,50.4c5.3,0.1,10.6-0.3,15.7-1.4c0.6-0.1,1.2-0.8,0.2-0.6c-4.9,1-10,1.4-15,1.3h-0.7
			C89.7,49.9,89.2,50.4,89.9,50.4z"/>
		<path class="st1" d="M90.3,52.5c-0.2,0-0.4,0.1-0.6,0.2c3,0.2,6,0.3,9,0.4c3.8-0.1,7.6-0.5,11.4-0.9c0.6-0.1,1-0.8,0.2-0.7
			C103.6,52.4,96.9,52.7,90.3,52.5z"/>
		<path class="st1" d="M90.2,49.8h0.7h-0.4C90.3,49.8,90.2,49.8,90.2,49.8z"/>
		<path class="st1" d="M75.2,49.7h-0.9c-0.1,0.3-0.2,0.7-0.3,1h0.9C75,50.3,75.1,50,75.2,49.7z"/>
		<path class="st1" d="M73.7,51.7l0.1-0.3c-4.3,0-8.6-0.1-12.8-0.3c0,0.2,0,0.4,0,0.5c4.1,0.2,8.2,0.3,12.2,0.3
			C73.3,51.8,73.5,51.8,73.7,51.7z"/>
		<path class="st1" d="M59.2,51l-1.9-0.1c-0.3,0-1.5,0.5-0.8,0.5l2.8,0.1C59.2,51.4,59.2,51.2,59.2,51z"/>
		<path class="st1" d="M74,51.4h-0.2l-0.1,0.3C74,51.6,74.4,51.4,74,51.4z"/>
		<path class="st1" d="M60.9,51.1L59.2,51c0,0.2,0,0.4,0,0.5l1.7,0.1C60.9,51.4,60.9,51.3,60.9,51.1z"/>
		<path class="st1" d="M73.6,52.1c-0.1,0.3-0.1,0.7-0.2,1C74,52.9,74.2,52.2,73.6,52.1z"/>
		<path class="st1" d="M60.9,53l-1.6,0.1l0.1,1L61,54C60.9,53.6,60.9,53.3,60.9,53z"/>
		<path class="st1" d="M73.4,53.2c-4.1,0.4-8.3,0.9-12.4,1.5v0.4c4.1-0.6,8.2-1.1,12.3-1.5L73.4,53.2z"/>
		<path class="st1" d="M74.3,53.5h0.4c0.3,0,1.4-0.6,0.6-0.5l-1,0.1C74.3,53.2,74.3,53.4,74.3,53.5L74.3,53.5z"/>
		<path class="st1" d="M55.4,55.5c-0.5,0.1-1.2,0.6-0.3,0.5c1.4-0.2,2.8-0.4,4.3-0.6v-0.4L55.4,55.5z"/>
		<path class="st1" d="M74.2,53.5L74.2,53.5L74.2,53.5z"/>
		<path class="st1" d="M73.3,53.6h0.4v-0.3h0.1l0,0v-0.1H74l0.3,0.3c0-0.1,0-0.3,0.1-0.4l-0.9,0.1L73.3,53.6z"/>
		<path class="st1" d="M74.2,53.5L74.2,53.5L74,53.2h-0.1v0.1l0.2,0.3L74.2,53.5z"/>
		<path class="st1" d="M73.8,53.3L73.8,53.3h-0.1v0.3h0.2L73.8,53.3z"/>
		<path class="st1" d="M74.1,53.5l-0.2-0.3v0.3L74.1,53.5z"/>
		<path class="st1" d="M61,54.7l-1.6,0.2v0.4l1.6-0.2V54.7z"/>
		<path class="st1" d="M89.9,53.3c0,0.1,0,0.3-0.1,0.3c6,0.7,12,1.2,18.1,1.6c0.5,0,1.4-0.7,0.5-0.8c-3.1-0.2-6.3-0.4-9.4-0.7
			C96,53.8,92.9,53.6,89.9,53.3z"/>
		<path class="st1" d="M88.5,53.2c0-0.1,0-0.2,0-0.2c-0.3,0.2-0.5,0.6,0.1,0.6h0.2C88.7,53.4,88.6,53.3,88.5,53.2z"/>
		<path class="st1" d="M89.7,52.8L89.7,52.8L89.7,52.8z"/>
		<path class="st1" d="M89.8,53.2h-0.2c0.1,0.1,0.1,0.2,0,0.3h0.1C89.8,53.5,89.9,53.4,89.8,53.2z"/>
		<path class="st1" d="M89.5,52.9l0.1-0.1l0,0h-0.2L89.5,52.9z"/>
		<path class="st1" d="M88.6,53.1c0-0.1,0-0.2,0-0.3l-0.2,0.1c0,0.1,0,0.2,0,0.2c0.1,0.1,0.2,0.3,0.3,0.4H89
			C88.8,53.4,88.7,53.3,88.6,53.1z"/>
		<path class="st1" d="M89.5,52.9l-0.1-0.2H89c-0.2,0-0.3,0-0.4,0.1c0,0.1,0,0.2,0,0.3c0.1,0.2,0.2,0.3,0.4,0.5h0.6
			c0.1-0.1,0.1-0.2,0-0.3C89.4,53.2,89.4,53.1,89.5,52.9z"/>
		<path class="st1" d="M89.6,52.8c0,0.1,0.1,0.2,0.1,0.3c0,0.1,0.1,0.1,0.1,0.2c3.1,0.1,6.1,0.1,9.2-0.1
			C95.9,53.1,92.8,53,89.6,52.8L89.6,52.8z"/>
		<path class="st1" d="M89.6,53.2L89.6,53.2l0.2,0.1c0-0.1,0-0.1-0.1-0.2c-0.1-0.1-0.1-0.2-0.1-0.3l-0.1,0.1
			C89.5,53,89.6,53.1,89.6,53.2z"/>
		<path class="st1" d="M89.5,52.9c-0.1,0.2-0.1,0.3,0.2,0.3v-0.1C89.6,53.1,89.5,53,89.5,52.9z"/>
		<path class="st1" d="M97,63.5c7,2.6,14.3,4.4,21.7,5.4l0.5-0.9c-7.3-0.9-14.5-2.7-21.5-5.3C97.2,62.4,96.2,63.2,97,63.5z"/>
		<path class="st1" d="M120,69c0.6,0.1,1.3-0.8,0.4-0.9l-1.3-0.2l-0.5,0.9L120,69z"/>
		<path class="st1" d="M96.2,65.4c6.5,3.6,13.8,5,21,6.2l0.2-0.3l0.2-0.3c-7-1.2-13.9-2.6-20.1-6C97.1,64.8,96,65.3,96.2,65.4z"/>
		<path class="st1" d="M117.2,71.6l0.8,0.1c0.3,0,1.4-0.4,1.1-0.5l-1.6-0.3l-0.2,0.3L117.2,71.6z"/>
		<path class="st1" d="M76.8,81.1c-1.1,1.9-2.3,3.7-3.6,5.4l0.5,0.7c1.6-2,3-4.1,4.3-6.3C78.2,80.7,77,80.8,76.8,81.1z"/>
		<path class="st1" d="M72.5,87.8l-0.1-0.1C72.3,87.7,72.4,87.8,72.5,87.8z"/>
		<path class="st1" d="M73.5,87.5l0.2-0.3l-0.5-0.7c-0.3,0.4-0.6,0.8-0.9,1.1l0,0l0.1,0.1C72.9,87.8,73.2,87.7,73.5,87.5z"/>
		<path class="st1" d="M109.9,88l-0.2-0.1l-0.3,0.4C109.8,88.1,110,88,109.9,88z"/>
		<path class="st1" d="M96.5,77c-0.2-0.2-1.4,0.3-1.2,0.4c3.7,3.9,7.8,7.3,12.3,10.2l0.6-0.9C103.9,84,100,80.7,96.5,77z"/>
		<path class="st1" d="M109.5,88.3l0.3-0.4l0,0L109.5,88.3L109.5,88.3z"/>
		<path class="st1" d="M108.7,88.4c0.1,0.1,0.4,0,0.7-0.1l0.3-0.4c-0.6-0.3-1.1-0.7-1.6-1l-0.6,0.9L108.7,88.4z"/>
		<path class="st1" d="M62.8,71.3v-0.1C62.8,71.2,62.8,71.3,62.8,71.3z"/>
		<path class="st1" d="M74.6,66.9c0.3-0.3-0.9-0.2-1.2,0.1c-1.2,1.2-3.5,1.7-5,2.2s-2.8,1-4.2,1.4c0.1,0.2,0.1,0.3,0.2,0.5l0,0
			c1.9-0.6,3.8-1.2,5.6-1.9C71.5,68.5,73.3,68.1,74.6,66.9z"/>
		<path class="st1" d="M63.4,71.3l0.9-0.3l0,0c0-0.1-0.1-0.3-0.2-0.5l-0.9,0.3c-0.3,0.1-0.5,0.3-0.5,0.4v0.1
			C62.9,71.4,63.1,71.4,63.4,71.3z"/>
		<path class="st1" d="M74.9,67.8c-3.2,1.9-6.7,3.2-10.3,3.8c0.1,0.3,0.2,0.6,0.4,0.9c3.7-0.6,7.3-1.9,10.5-3.9
			C76.2,68.2,75.5,67.4,74.9,67.8z"/>
		<path class="st1" d="M64.3,71.6c-0.7,0.1-1,1.1-0.1,1l0.8-0.1c-0.1-0.3-0.3-0.6-0.4-0.9L64.3,71.6z"/>
		<path class="st1" d="M133.7,118l0.5,0.7C134,118.5,133.9,118.3,133.7,118z"/>
		<path class="st1" d="M150.1,124.4c0-0.1-0.1-0.3-0.1-0.4l-1-0.4c-0.1-0.6-0.1-1.3-0.1-2.2c-0.2,0-0.4,0.1-0.4,0.3l-0.8,6.1
			l1.9,1.1c0.3-2.1,0.5-4.1,0.8-6.2c0,0,0-0.1,0-0.1c-0.1,0.5-0.1,1-0.2,1.4L150.1,124.4z"/>
		<path class="st1" d="M134.6,119.4l-1.8-0.4c0.3,0.4,0.5,0.9,0.7,1.3l2,0.9C135.2,120.6,134.9,120,134.6,119.4z"/>
		<path class="st1" d="M133.7,118l-0.4-0.5c-0.5-0.7-2.4-1.1-1.5,0.1c0.4,0.4,0.7,0.9,1,1.4l1.8,0.4c-0.1-0.2-0.3-0.4-0.4-0.7
			L133.7,118z"/>
		<path class="st1" d="M149,123.6l1,0.4c-0.2-0.8-0.4-1.6-0.5-2.3c-0.2-0.1-0.4-0.2-0.6-0.2C148.9,122.3,148.9,123.1,149,123.6z"/>
		<path class="st1" d="M149.5,121.7c0.1,0.8,0.3,1.6,0.5,2.3l0.2,0.1c0-0.4,0.1-0.9,0.2-1.4C150.2,122.2,149.9,121.9,149.5,121.7z"
			/>
		<path class="st1" d="M150.2,124.1L150,124c0,0.1,0.1,0.3,0.1,0.4L150.2,124.1z"/>
		<path class="st1" d="M96.6,126.4c1.2-0.6,2.5-1.1,3.8-1.6c0.4-0.2,0.4-0.4,0.2-0.6c1-3,1.5-6.1,1.6-9.2c0-1.1,0-2.3-0.1-3.4
			c-0.2-2.9-0.9-5.8-1.9-8.5v0.1c1.3,3.7,2,7.7,1.9,11.6c-0.1,3.1-0.6,6.2-1.6,9.2c0.2,0.2,0.2,0.4-0.2,0.6c-1.3,0.5-2.5,1-3.8,1.6
			c-0.8,0.4-2.5,0.9-1.7,2.4c0,0.1,0.1,0.1,0.1,0.2C94.2,127.3,95.8,126.8,96.6,126.4z"/>
		<path class="st1" d="M91.4,111c0.3,0.4,0.6,0.7,0.7,0.8c0.1-0.1,0.1-0.2,0.2-0.3c-0.1-0.2-0.2-0.3-0.3-0.5L91.4,111z"/>
		<path class="st1" d="M110.5,128c-0.5-0.7-1.1-1.4-1.8-2c-0.6-0.6-1.2-1.3-1.7-2c0.5,0.8,1.1,1.5,1.8,2.2
			C109.5,126.7,110.1,127.3,110.5,128z"/>
		<path class="st1" d="M71.6,125.7c0.5-0.1,1.1,0,1.6-0.1c0.6-0.1,1.1-0.4,1.5-0.9c1.7-1.9,1.4-6.3,1.4-8.7c0-0.3,0-0.5,0-0.8
			c0-1.2-0.1-2.4-0.2-3.7c-0.3-5.9-0.9-11.9,1-17.5l-0.1-0.3c-2.4,6.9-1,14.1-0.9,21.2c0,0.3,0,0.5,0,0.8c0,2.4,0.4,6.8-1.4,8.7
			c-0.4,0.4-0.9,0.7-1.5,0.9c-0.5,0.1-1.1,0-1.6,0.1c-1.1,0.3-1.2,0.8-0.8,1.4C70.4,126.4,70.6,126,71.6,125.7z"/>
		<path class="st1" d="M100.3,124.3l0.1-0.3c-0.2-0.2-0.5-0.2-0.8-0.1l-0.5,0.2l0,0C98.9,124.8,100.2,124.8,100.3,124.3z"/>
		<path class="st1" d="M99.5,111.4c0.2,0.2,0.5,0.5,0.7,0.7c0.1,0.1,0.3,0.1,0.5,0.1c0-0.2,0-0.5-0.1-0.7L99.5,111.4z"/>
		<path class="st1" d="M101.4,111.5c-0.2-0.3-0.5-0.5-0.7-0.7v0.1l0.6,0.6h-0.7c0,0.2,0.1,0.5,0.1,0.7
			C101.1,112.1,101.7,111.8,101.4,111.5z"/>
		<path class="st1" d="M100.4,124c1-3,1.5-6.1,1.6-9.2c0.1-4-0.6-7.9-1.9-11.6l-0.9,1.3c0.7,2.1,1.2,4.2,1.4,6.4
			c0.3,0.2,0.5,0.5,0.7,0.7s-0.3,0.6-0.7,0.6c0.1,0.8,0.1,1.7,0.1,2.5c0,3.2-0.6,6.4-1.6,9.4l0.5-0.2
			C99.9,123.8,100.2,123.8,100.4,124z"/>
		<path class="st1" d="M113.3,93.4c-2.1,4.5-4,9.1-5.5,13.9c-0.4,1.5-0.8,3.1-1.2,4.7c-0.2,1.1-0.4,2.1-0.5,3.2
			c-0.2,2.1-0.2,4.1,0.1,6.2c0.1,0.9,0.4,1.8,0.9,2.6c0.5,0.7,1,1.4,1.7,2c0.7,0.6,1.3,1.3,1.8,2c0.5,0.7,0.7,1.5,0,2
			c-0.4,0.3-1.9-0.1-2.3-0.3c-1-0.3-1.8-0.9-2.5-1.6c0.3,0.5,0.4,1,0.2,1.6c1.1,0.7,2.3,1,3.6,1c1.6,0,2.8-0.7,2.3-2.6
			c-0.6-2.4-3.5-3.5-4.3-5.9c-0.6-2.3-0.8-4.7-0.4-7.1c0.1-0.9,0.3-1.9,0.4-2.7c1.1-6.5,3.8-12.5,6.4-18.5c2.2-4.9,4-10.3,1.7-15.5
			l-0.8,1.4C116.5,84.4,115.1,89.1,113.3,93.4z"/>
		<path class="st1" d="M101.8,130l-0.5-0.3c-0.2-0.1-0.5-0.2-0.7-0.3c-0.9-0.2-1.6,0.2-2.6,0.3c-0.8,0-2.6,0-3.1-0.8l0,0
			c0-0.1-0.1-0.1-0.1-0.2c-0.8-1.5,0.8-2,1.7-2.4c1.2-0.6,2.5-1.1,3.8-1.6c0.4-0.2,0.4-0.4,0.2-0.6l-0.1,0.3
			c-0.2,0.5-1.5,0.6-1.2-0.1l0,0c-1.8,0.7-5.1,1.6-5.8,3.3c-0.8,2.1,2,2.8,3.4,2.9c0.7,0,1.3-0.2,1.9-0.2c1.5-0.1,1.7,0.4,2.8,0.8
			c0.8,0.3,1.7,0.4,2.6,0.2c0.8-0.2,1.4-0.8,1.7-1.5c-0.4-0.3-0.8-0.6-1.2-1C103.7,130.2,102.8,130.7,101.8,130z"/>
		<path class="st1" d="M74.6,115.2c0,1.4,0,2.9-0.1,4.3c-0.1,1.5,0,4.6-1.7,5.3c-1,0.4-3.4-0.3-3.9,1.3c-0.6,2,3.2,2.8,4.5,2.8
			c1.4-0.2,2.7-0.2,4.1,0c1,0.4,2,0.5,3,0.3c0.6-0.1,1.4-0.8,2-0.7c0.9,0,1.6,0.8,2.6,0.7c1.4-0.1,3.3-0.9,3-2.6s-2-3.7-2.7-5.3
			c-0.9-1.9-1.3-4.1-0.9-6.3c0-0.2,0.1-0.3,0.1-0.4c0.4-1.8,1.1-3.5,1.4-5.3c0.1-0.5,0.2-1,0.2-1.6l-0.8-1l-0.2-0.3
			c0,1.4-0.2,2.7-0.5,4.1c0,0.2-0.1,0.3-0.1,0.5c-0.3,1.3-0.8,2.5-1.1,3.8c-0.1,0.3-0.2,0.7-0.2,1c-0.6,3.5,1.2,6.6,2.8,9.6
			c0.8,1.5,2.2,3.4-2.1,2.9c-0.2,0-0.3-0.3-0.6-0.3c-0.5,0-1,0-1.5,0.2c-2.6,0.7-1.9,0.7-3.7,0c-0.3-0.1-0.6-0.2-0.9-0.3
			c-2.1-0.2-3.6,1.2-5.8-0.3c-0.4-0.2-0.7-0.5-0.9-0.9c-0.4-0.5-0.3-1.1,0.8-1.4c0.5-0.1,1.1,0,1.6-0.1c0.6-0.1,1.1-0.4,1.5-0.9
			c1.7-1.9,1.4-6.3,1.4-8.7c0-0.3,0-0.5,0-0.8c-0.2-7.1-1.5-14.4,0.9-21.2c-0.2-0.3-0.4-0.7-0.5-0.9c-0.1,0-0.1,0.1-0.1,0.1
			c-2.5,6-1.9,12.4-1.5,18.7h-0.1c0,0.6,0.1,1.2,0.1,1.9S74.6,114.7,74.6,115.2z"/>
		<path class="st1" d="M92.3,111.5l0.3-0.5H92C92.1,111.2,92.2,111.4,92.3,111.5z"/>
		<path class="st1" d="M92.9,112.6c0-0.1-0.1-0.1-0.1-0.2l0,0L92.9,112.6z"/>
		<path class="st1" d="M76.9,94.1l-0.1-0.2l0,0L76.9,94.1L76.9,94.1z"/>
		<path class="st1" d="M76.3,92.9L76.3,92.9c0.2,0.3,0.3,0.6,0.5,0.9l0,0C76.6,93.5,76.5,93.2,76.3,92.9z"/>
		<path class="st1" d="M89.4,111H89c0.3,0.3,0.5,0.5,0.7,0.7c0.4,0.3,0.8,0.6,1.2,0.8l-0.3-0.3L89.4,111z"/>
		<path class="st1" d="M92.1,111.8c-0.1-0.1-0.4-0.4-0.7-0.8h-1.9h-0.2l1.3,1.2l0.3,0.3c0.6,0.3,1.3,0.3,1.9,0
			c-0.2-0.3-0.4-0.6-0.6-0.9C92.2,111.7,92.2,111.7,92.1,111.8z"/>
		<path class="st1" d="M92.9,112.4c0.6-0.3,1.2-0.8,1.6-1.3L93,111C92.9,111.5,92.8,111.9,92.9,112.4z"/>
		<path class="st1" d="M93,111h-0.4l-0.3,0.5c0.2,0.3,0.4,0.6,0.6,0.9l0,0C92.8,111.9,92.9,111.5,93,111z"/>
		<path class="st1" d="M109.3,172.5c0,0-1,3.3,3.4,2.9s6.7,0.6,7,0s1.8,1.3,0,2.5s-1.9,2.7-4.3,2.7s-7-1.6-8.8-1
			S109.3,172.5,109.3,172.5z"/>
		<path class="st1" d="M38.4,160.4l0.9,2c0.6,1.1,1.7,1.8,2.9,1.9c0.8,0.1,2.1-0.3,1.7-1.5l-0.9-2c-0.6-1.1-1.7-1.8-2.9-1.9
			C39.2,158.9,37.9,159.3,38.4,160.4L38.4,160.4z"/>
		<path class="st1" d="M39.2,165.2c0,1.5,0.9,2.7,1.4,4c0.5,1.4,1.1,2.8,1.7,4.1c0.4,0.8,1.4,1.8,2.5,1.5s1.1-1.6,0.8-2.4
			c-0.4-1.1-1.1-1.9-1.6-2.9c-0.4-1.2-1.1-2.3-2-3.2c-1-0.9-2.4-0.6-2.6,0.8c-0.2,1.9,0.9,3.5,1.8,5c0.5,0.8,1.6,2,2.7,1.4
			s0.8-2.2,0.3-3c-0.3-0.4-0.5-0.8-0.7-1.2l-0.2-0.4c-0.3-0.6-0.3-0.6-0.1,0.2l-2.6,0.8c-0.3-0.2-0.2-0.4,0,0.1
			c0.1,0.4,0.2,0.8,0.4,1.1c0.4,0.5,0.7,1.1,1,1.7l3.2-1c-0.4-0.9-0.8-1.9-1.2-2.9c-0.3-0.8-1.2-2-1.2-2.8
			C42.8,163.6,39,161.9,39.2,165.2L39.2,165.2z"/>
		<path class="st1" d="M46.9,153.9l-0.2,0.3l4.8,1.3c-0.1-0.2-0.1-0.3,0-0.5c0.1-0.8-4.8-1.8-4.9-1.2c-0.2,0.9-0.5,1.8-0.7,2.7
			c-0.1,0.9-0.2,1.9-0.1,2.9c0.1,1.1,4.9,1.4,4.9,1.2c-0.1-1-0.1-1.9,0.1-2.9c0.2-0.9,0.5-1.8,0.7-2.7l-4.9-1.2
			c-0.1,0.2-0.1,0.3,0,0.5c0.1,0.6,1.6,0.9,2,1c0.6,0.2,2.2,0.7,2.8,0.3c0.3-0.2,0.3-0.2,0.4-0.6C52,154.5,47.2,153.2,46.9,153.9
			L46.9,153.9z"/>
		<path class="st1" d="M50.1,161c0-0.1,0-0.2,0-0.3c0,0.2,0,0.2,0,0.1c0.1-0.2,0.1-0.4,0.2-0.5c0.1-0.5,0.1-1.1-0.2-1.5
			c-0.3-0.6-0.8-1.1-1.3-1.4c-0.9-0.5-2.1-0.7-2.7,0.4c-0.3,0.5-0.4,1.1-0.4,1.7c0.1,1.3,1,2.3,2.2,2.7
			C48.8,162.4,50.1,162.2,50.1,161L50.1,161z"/>
		<path class="st1" d="M50.3,160.1c0.1-0.3,0.2-0.5,0.3-0.8l0.3-0.9l0.7-1.8c0.6-1.6-3.6-4.1-4.1-2.9l-0.9,2.4
			c-0.4,0.7-0.5,1.5-0.5,2.3c0.2,1,1.7,2,2.6,2.3S50.4,161.2,50.3,160.1L50.3,160.1z"/>
		<path class="st1" d="M134,135.2l-3.3,15.4c-0.7,3.1,4.1,4.5,4.8,1.3l3.3-15.4C139.5,133.4,134.7,132,134,135.2L134,135.2z"/>
		<path class="st1" d="M136,139.1l-1.1,11.2c-0.3,3.2,4.7,3.2,5,0l1.1-11.2C141.3,135.9,136.3,136,136,139.1z"/>
		<path class="st1" d="M134.1,139.6c-1.7,4.4-1.3,10-1.6,14.7c-0.2,3.2,4.8,3.2,5,0c0.3-4.2-0.1-9.3,1.4-13.3
			C140.1,137.9,135.3,136.6,134.1,139.6L134.1,139.6z"/>
		<path class="st1" d="M133.3,140.3c0.2,5.3-0.3,10.7-1.5,15.9c-0.7,3.1,4.1,4.5,4.8,1.3c1.3-5.6,1.8-11.4,1.7-17.2
			C138.2,137.1,133.2,137.1,133.3,140.3L133.3,140.3z"/>
		<path class="st1" d="M134.2,135.6v7.4c0,3.2,5,3.2,5,0v-7.4C139.2,132.4,134.2,132.4,134.2,135.6z"/>
		<path class="st1" d="M135.3,135.3l0.3,6.6c0.1,2.7,3.2,3.2,4.7,1.3c1.5-2,1.9-4.6,1.1-6.9c-0.4-1.3-1.8-2.1-3.2-1.7
			c-0.6,0.2-1.1,0.6-1.4,1.1l-1,1.6l4.6,1.9c0.5-2.6-0.2-5.8-2.5-7.4c-2.8-2-5.8,1.1-5.2,4c0.6,3.1,5.5,1.8,4.8-1.3l-0.1-0.4v1.3
			l-0.8,0.7h-1.4c-0.4-0.4-0.5-0.4-0.2,0c0.1,0.2,0.2,0.4,0.3,0.6c0.1,0.4,0.2,0.8,0.1,1.2c-0.3,1.3,0.5,2.7,1.8,3
			c1.1,0.3,2.2-0.2,2.7-1.1l1-1.6l-4.6-0.6c0.4,1.1,0.1,2.2-0.6,3.1l4.7,1.3l-0.3-6.6C140.1,132.1,135.1,132.1,135.3,135.3
			L135.3,135.3z"/>
		<path class="st1" d="M132.4,168.4c0,2.6,0.3,5.2,0.9,7.6c0.7,2.8,4.7,2.1,4.9-0.7c0.1-1.4,0.1-2.9,0.1-4.3c-0.1-3.2-5.1-3.2-5,0
			c0,1.4,0,2.9-0.1,4.3l4.9-0.7c-0.5-2.1-0.8-4.2-0.8-6.3C137.4,165.2,132.4,165.2,132.4,168.4L132.4,168.4z"/>
		<path class="st1" d="M134.6,170.8l0.3,0.1l-1.1-0.6l0.2,0.2l-0.6-1.1c0.2,0.9,0.2,1.9,0,2.8l-0.2,3.7l4.9-0.7
			c-0.4-1.9-1-3.7-1.7-5.5c-0.4-1.3-1.8-2.1-3.1-1.7c-1,0.3-1.7,1.3-1.8,2.3l-0.1,1h5v-0.9c0.1-3.2-4.9-3.2-5,0v0.9
			c0,1.4,1.1,2.5,2.5,2.5c1.4,0,2.5-1.1,2.5-2.5l0.1-1l-4.9,0.7c0.7,1.8,1.3,3.6,1.7,5.5c0.6,2.9,4.8,2,4.9-0.7c0.1-2,0.3-4,0.3-5.9
			c0.1-1.8-0.6-3.4-2.5-3.9C132.8,165.1,131.5,169.9,134.6,170.8L134.6,170.8z"/>
		<path class="st1" d="M135.1,169.4c0.3,1.7,0.4,3.4,0.3,5.2h5v-1.4c0-3.2-5-3.2-5,0v1.4c0,3.2,4.8,3.2,5,0c0.1-2.2,0-4.4-0.4-6.5
			c-0.4-1.3-1.7-2.1-3.1-1.8C135.5,166.7,134.8,168.1,135.1,169.4L135.1,169.4z"/>
		<path class="st1" d="M135.3,169.3c0.2,2.7,0.1,5.4-0.5,8.1l4.9,0.7c0.2-4.1-0.1-8.3-0.8-12.4c-0.5-3-4.6-1.9-4.9,0.7l-0.4,3.5
			c-0.4,3.2,4.6,3.2,5,0l0.4-3.5l-4.9,0.7c0.6,3.6,0.8,7.3,0.6,11c-0.1,2.8,4.4,3.4,4.9,0.7c0.6-3.1,0.9-6.3,0.6-9.4
			C140.1,166.1,135.1,166.1,135.3,169.3L135.3,169.3z"/>
		<path class="st1" d="M152.9,146.3c0.2,1.2,0,2.4-0.6,3.4c-0.7,1.2-0.3,2.7,0.9,3.4c1.2,0.7,2.7,0.3,3.4-0.9
			c1.1-2.2,1.5-4.8,1.1-7.3c-0.4-1.3-1.7-2.1-3.1-1.8C153.4,143.6,152.6,145,152.9,146.3L152.9,146.3z"/>
		<path class="st1" d="M151.9,147.1c0.3,2.2,0.1,4.4-0.6,6.5c-1,3.1,3.8,4.4,4.8,1.3c0.9-2.5,1.1-5.2,0.8-7.8c0-1.4-1.1-2.5-2.5-2.5
			C153.1,144.6,151.9,145.8,151.9,147.1L151.9,147.1z"/>
		<path class="st1" d="M104.6,147.6c3.2,0,3.2-5,0-5S101.4,147.6,104.6,147.6z"/>
		<path class="st1" d="M102.7,146c0.4,1.3,0.5,2.7,0.5,4.1c0,1.4,1.1,2.5,2.5,2.5s2.5-1.1,2.5-2.5c0-1.8-0.2-3.7-0.6-5.4
			C106.7,141.6,101.9,142.9,102.7,146z"/>
		<path class="st1" d="M103.9,145.6v5.4c0,3.2,5,3.2,5,0v-5.3C108.9,142.5,103.9,142.5,103.9,145.6L103.9,145.6z"/>
		<path class="st1" d="M103.8,160.4c0.3,5.9,0.8,11.7,1.7,17.5c0.5,3.2,5.3,1.8,4.8-1.3c-0.8-5.4-1.3-10.8-1.5-16.2
			C108.6,157.2,103.6,157.2,103.8,160.4z"/>
		<path class="st1" d="M105,169c0.6,1.7,1,3.5,1.2,5.3c0,1.4,1.1,2.5,2.5,2.5c1.4,0,2.5-1.1,2.5-2.5c-0.3-2.2-0.7-4.5-1.4-6.6
			C108.8,164.6,104,165.9,105,169z"/>
		<path class="st1" d="M85.7,162.4c-0.6,2.9-0.7,5.8-0.4,8.7c0,1.4,1.1,2.5,2.5,2.5c1.4,0,2.5-1.1,2.5-2.5c-0.3-2.4-0.2-4.9,0.3-7.4
			C91.2,160.6,86.4,159.2,85.7,162.4L85.7,162.4z"/>
		<path class="st1" d="M68.8,157l-4.4,11.9c-1.1,3,3.7,4.3,4.8,1.3l4.4-11.8C74.8,155.4,69.9,154.1,68.8,157L68.8,157z"/>
		<path class="st1" d="M67.3,166.9c-1,3.2-1.8,6.4-2.3,9.8c-0.3,1.3,0.4,2.7,1.8,3.1c1.3,0.3,2.7-0.4,3.1-1.7
			c0.5-3.3,1.2-6.6,2.3-9.8C73.1,165.2,68.2,163.9,67.3,166.9L67.3,166.9z"/>
		<path class="st1" d="M67.9,162.4l-0.9,4.7c-0.3,1.3,0.4,2.7,1.8,3.1c1.3,0.4,2.7-0.4,3.1-1.8l0.9-4.7c0.3-1.3-0.4-2.7-1.7-3.1
			C69.7,160.3,68.3,161.1,67.9,162.4L67.9,162.4z"/>
		<path class="st1" d="M130,176.1v0.9c0,3.2,4.9,3.2,5,0l0.1-2.6l-4.9,0.7c0.6,1.5,1.2,3.1,1.6,4.7c0.9,3.1,5.7,1.8,4.8-1.3
			c-0.4-1.6-1-3.2-1.6-4.7c-0.4-1.2-1.5-1.9-2.7-1.8c-1.2,0.2-2.2,1.2-2.2,2.5L130,177h5v-0.9C135,172.9,130,172.9,130,176.1
			L130,176.1z"/>
		<path class="st1" d="M132.4,179.7v0.8h5c0.2-4-0.3-7.9-3.8-10.4c-1.6-1.2-3.7,0.4-3.8,2.2c-0.1,2.2,0.2,4.3,1.1,6.3
			c0.7,1.8,3.5,2.7,4.6,0.6c0.7-1.4,0.9-3,0.6-4.5c-0.6-3.2-5.4-1.8-4.8,1.3c0.1,0.2,0,0.5-0.1,0.6l4.6,0.6c-0.7-1.6-1-3.3-0.9-5
			l-3.8,2.2c1.8,1.3,1.4,4.3,1.3,6.1c-0.2,3.2,4.8,3.2,5,0v-0.8C137.6,176.4,132.6,176.4,132.4,179.7L132.4,179.7z"/>
		<path class="st1" d="M61.8,192.9c5.5,1.3,8.5,2.2,9.2,2.6l0.8-0.2c1.7,1,3,3.3,4,7v2.2c-0.8,0.5-1.5,1.1-2,1.9
			c-1.9,0.4-3.8,0.6-5.7,0.6c-0.7-0.5-1.1-1.9-1.3-4.3c-0.1-1.2-0.4-1.8-0.8-1.9h-0.1c-1.3,2.3-2.6,6.5-3.9,12.6l0.1,0.6v0.4h-0.2
			c-0.6,8.1-0.5,13.7,0.1,16.8l1,3.3l-0.2,0.2h-0.2l1,2.6l0.3,0.1c2.1-5.1,3.2-8.9,3.5-11.3h0.2l0.8,3.4c2.2,3.1,3.2,6.1,2.9,9
			c-0.9,1.9-1.5,2.8-1.8,2.8c-0.2,0-0.3-0.3-0.2-0.9H69l-0.1,1l0.3,0.5c-0.1,0.4-0.6,0.8-1.4,1.1l-0.8-0.3c-0.1,0.4-0.6,0.7-1.5,0.9
			l-0.2-0.2H64l-0.4-0.4l-1.8-0.2l0.1-0.4l1.2,0.1c0-0.2-0.6-0.4-1.7-0.5l-0.9-0.3c-1.3-0.1-2.6-2.4-3.9-6.7l0.4-0.3
			c-0.8-2.5-1.3-5-1.5-7.5l-0.2,0.2H55l0.1,1.8v0.2H55c-0.4-1.4-0.5-2.9-0.5-4.4l0.4,0.1l0.2,1.8h0.2l0.1-0.6l-0.4-1.8l-0.2,0.2
			l-0.4-0.1l0.1-1.2l0.4,0.1l0.1-1.1h-0.2v0.6l-0.4-0.1v-5.8l0.2,0.1l-0.1-0.3l0.4-3.6c1.2-9.8,3.4-16.6,6.7-20.4L61.8,192.9z
			 M54.9,223.9l-0.1,0.4H55l0.1-0.4H54.9z M56.1,219.7l-0.1,0.4h0.2l0.1-0.4H56.1z M58.8,211.3l-0.4,0.7l-0.3,2.6l-0.2-0.1l-0.2-0.2
			h-0.2l-0.4,1.9l0.2,0.6l-0.3,0.2h-0.1l0.3,2.2h-0.2l0.2,0.2l-0.1,0.2c-0.2,0.7-0.4,0.9-0.6,0.9c0.1,5.9,0.5,10,1.2,12.3
			c0.3,0,0.4,0.2,0.3,0.6h0.4l-0.6-3.1l0.2-0.1H58l0.1,0.5l0.2,0.1v-0.6c-0.7-4.1-1-6.8-0.8-8h0.4v2l0.4,0.1l-0.2-3.8l0.1-0.6
			l0.4-0.5c0-1.9-0.1-2.9-0.3-2.9l0.3-1l0.1-0.4l-0.3-1.5l0.2-0.1l-0.1-1.1l0.1-0.7l0.5-0.6L58.8,211.3z M57.2,235.3v0.2l0.6,1.9H58
			v-0.3l-0.6-1.8H57.2z M58,224.9v0.2l0.1,0.6h0.2v-0.1l-0.1-0.6L58,224.9z M58.3,231.2l-0.1,0.6h0.3v-0.5L58.3,231.2z M58.4,226
			v0.9h0.2l0.1-0.2l-0.2-0.5L58.4,226z M58.6,239c0.4,1.1,0.8,1.6,1.1,1.7l0.1-0.3C59.6,239.7,59.2,239.2,58.6,239L58.6,239z
			 M59.3,216.2l-0.3,1.3c0.3,0.1,0.4,0.7,0.4,1.9h-0.2v1.2h0.3l0.6-2.3c-0.3,0-0.5-0.7-0.6-2L59.3,216.2z M59.1,221.5v2.3l0.2,0.1
			v-2.5L59.1,221.5z M59.3,225.2v0.4l0.1,0.7h0.2V226l-0.1-0.9L59.3,225.2z M60,229.8l-0.1,0.2l0.2,0.6h0.2v-0.2l-0.1-0.6H60z
			 M61.4,240.8v0.2l0.5,0.3h0.2v-0.2l-0.5-0.2L61.4,240.8z"/>
		<path class="st1" d="M82,204.6h0.7c1,0.1,1.8,0.8,2,1.8l-0.6,1.9l0.4,2.8l-0.1,1.1l0.3,0.5l-0.6,6.1l0.2,0.9l-0.2,0.2l-0.1,0.2
			l0.2,1.8l-0.1,1.5l0.1,1l-0.2,0.2l0.2,2.4l-0.5,3.8h-0.3l-0.1-1.1c-0.3,0-0.5,0.3-0.5,1h-0.3v-0.6l-0.1-2.4h-0.2l-0.7,2.4l0.3,2.8
			l-0.2,0.2v0.2l0.2,1.5l-0.3,0.3v0.3H82l1.1-0.6l0.2,0.2v-0.7h0.3l0.1,1l-0.4,0.1v0.5c-0.2,1.3-0.6,1.9-1.4,1.9h-0.6
			c0-0.3-0.2-0.6-0.4-0.8l0.5-1c-0.5-0.3-1-0.7-1.2-1.3l-0.2-4.3l0.2-0.9v-3.8l-0.1-0.6l0.1-0.2l-0.1-1.1v-0.6h0.3v0.3h0.2l-0.1-1.5
			v-0.5l0.2-0.7l-0.3-0.1l0.4-1.4v-3.5l-0.2-0.2h-0.2l0.2-2.4l0.1-2.2L81,209l-0.2-0.2v-0.2c0.1-0.5,0.3-1,0.7-1.5l0.2-2.2L82,204.6
			z M80.4,223.2v0.6h0.2v-0.6H80.4z M82,213.1l-0.2,0.2l0.2,0.2v2.2h0.2l0.2-0.7l-0.2-0.2l0.1-0.2l0.2-1v-0.2L82,213.1z M82.1,224.7
			l-0.1,1.4h0.2l0.1-1.4H82.1z M82.1,216v0.6h0.2V216L82.1,216z M82.2,216.8v0.5h0.2v-0.5H82.2z M82.6,224.2l-0.1,1.3h0.2l0.2-0.5
			l-0.2-0.8H82.6z M82.5,226.1v0.6l0.2,0.1v-0.6L82.5,226.1z M82.7,227v0.3h0.2V227L82.7,227z M83,221.7l-0.2,2.3l0.2,0.1h0.2
			l0.1-2.4L83,221.7z M83.4,225l-0.1,0.3h0.2L83.4,225L83.4,225z M83.3,225.7v0.3h0.2v-0.3L83.3,225.7z M83.4,227.9v1.1h0.1l0.1-1.1
			L83.4,227.9z M85.6,207.2h0.2c0.3,0.1,0.5,1.8,0.5,5.3c-0.2,0-0.4,0.2-0.4,0.5c-0.1,0.6,0.3,1.3,0.8,1.6c-0.2,3-0.5,6-1.1,9
			l0.2,0.7l-0.2,0.5c0.2,0.1,0.3,0.9,0.3,2.6l-0.2,3.6l0.2,0.2v0.2l-0.2,0.6v0.3l0.2,0.6l-0.4,1.7h-0.2v-1.4l-0.2-2.7l0.2-0.2v-0.2
			c-0.4-1.5-0.6-3.1-0.7-4.6l0.2-0.2v-0.2l-0.2-0.5l0.2-1.8l0.1-1.1l-0.3-0.5v-0.6l0.2-1.5l-0.2-0.2l0.2-0.7l0.3-8.1l0.2-1.4
			l-0.1-0.5C85.2,207.7,85.4,207.2,85.6,207.2L85.6,207.2z"/>
		<path class="st1" d="M102,200.2c3.8,0.3,7.5,1.3,10.9,2.9c2.6,1.4,4.8,3.6,6,6.4c0.7,0,1,1.1,1,3.4c-1,1.8-1.7,2.7-2.2,2.6h-0.2
			l-1.7-0.3c-2.2,1.8-4.9,2.9-7.7,3.1c-0.4-0.1-0.8,0.1-0.9,0.5c0,0.1,0,0.1,0,0.2l2.2,4.2c0.4,1.2,0.9,2.2,1.7,3.2
			c0,0.4,0.2,0.7,0.5,1l-0.4,0.4c0,0.2,0.3,0.4,1,0.7v0.4L112,229v0.1c0.2,0.1,0.5,0.5,0.8,1.2c0.4,0.1,0.5,0.3,0.5,0.6h0.2v-0.5
			h0.2c0.4,0.1,0.5,0.5,0.5,1v0.6l0.7,0.2l0.2-0.1h0.3v0.8c0.8,1.3,1.1,2.8,1.1,4.3l-0.2,0.2l-0.1-0.1c0,1.1,0.1,2.1,0.5,3.1
			l-0.2,0.2h-0.2l-0.7-0.7v0.1l0.3,0.8l-0.2,0.2v0.2l0.2,0.2v0.2l-0.2,0.5h-0.4c-0.9-0.7-2-2.7-3.1-6c-0.5,0-0.9-0.3-1.1-1l-0.8,0.1
			l-0.5-0.6v-0.2l0.2-0.2c0.1-2-1.8-6.1-5.6-12.2c-0.3,0-0.4-0.3-0.4-0.8l-0.5-0.6h0.2c-0.2-0.7-0.4-1-0.7-1h-0.3v0.3h0.3l-0.1,2.7
			c-0.1,0.8,0,1.7,0.4,2.4l0.2,9.1l-0.4,3.4h-0.2c-0.2-0.8-0.3-1.6-0.2-2.4l-0.4,0.4l-0.1,2.1c0,0.1-0.3,0.3-0.8,0.5
			c0,0.5-0.2,0.8-0.5,0.8l-0.6-0.6l-0.5,0.2l-0.2-0.2l-0.2,0.8c-1.3-0.1-1.9-0.3-1.9-0.7v-0.3l0.4-0.5l-0.6-1.8l0.2-0.1l-0.4-0.4
			l0.2-0.2V235l-0.2-2.3l0.5-0.1l0.1-0.2l-0.2-1l0.2-0.2l-0.4-3.3l0.1-1.8l-0.4-0.1v-0.3l0.4-0.4l-0.1-3.9l0.3-2.3l-0.2,0.1h-0.2
			l-0.1-0.2v-0.3l0.4-0.3l-0.3-2.4l0.3-0.6l-0.5-1.1l0.4-0.4h-0.2l0.4-0.5l-0.2-0.2l0.1-1l0.6-0.8v-0.2h-0.2v0.4h-0.4v-2.9l0.1-1.2
			l-0.1-1.2l0.7-0.5l0.1-2.1l-0.1-0.9l0.4-0.3l0.1-1.6c0-0.2-0.2-0.3-0.5-0.3l-0.2-0.2v-0.2l0.2-0.2l1.3,0.1l1.4,0.6l0.5-0.1
			l0.2,0.2L102,200.2z M97.7,228.2v0.3h0.2v-0.3H97.7z M99.7,224.4l-1.2,1.3l-0.2,3.6v2.9c0.4,0,0.6-0.6,0.8-1.8h0.2l0.2,0.2h0.2
			l-0.1-2.1l0.4-3.2h0.4v-0.8l-0.2-0.1v0.6h-0.4l0.1-0.7H99.7z M99.5,231.1l-0.1,0.8h0.2v-0.8H99.5z M100.3,227.3l-0.1,0.8h0.2v-0.8
			H100.3z M100.3,226.7v0.4h0.1l0.1-0.4H100.3z M100.4,228.3l-0.1,1.3l0.2,0.1l0.1-1.4H100.4z M100.3,229.8v3.5l0.3-0.4l-0.1-3.1
			L100.3,229.8z M101.7,201.9v0.2h0.2l0.4-0.3v-0.2h-0.2L101.7,201.9z M102.1,226.6l-0.1,1.2h0.2l0.1-1.2H102.1z M102.1,229.8
			L102,231v3.1h0.6l-0.3,0.8h0.4v-2.1l0.1-1.7c-0.4,0-0.6-0.1-0.6-0.4l0.2-0.1l-0.1-0.8L102.1,229.8z M102.1,201.1l0.2,0.2l0.4,0.1
			v-0.6h-0.2L102.1,201.1z M102.1,228l-0.1,1.5h0.2l0.1-1.5H102.1z M102.7,205.8v0.4h0.1L102.7,205.8L102.7,205.8z M104.8,204.8
			l-0.2,0.2l-0.2,0.1c-0.3,0-0.5,0.3-0.6,1h-0.2l0.2,0.5l-0.4,4.3l-0.2,2.6h0.2l0.8-7.8l0.2-0.2h0.2l0.2,0.6l-0.6,3.2l0.2,0.2
			l-0.7,4.6h0.6v-0.1l-0.2-0.2c0.2,0,0.4-1.5,0.8-4.6l-0.1-0.2l-0.2-1.2l0.5-1.7c0-0.3-0.2-0.5-0.5-0.6v-0.3h0.8V205L104.8,204.8z
			 M103.6,215.5v0.2l0.4,0.4l0.2-0.2l0.1,0.1l0.5,0.2l0.2-0.2l0.1-0.2L103.6,215.5z M105.8,205.2v0.3c-0.1,2.7-0.5,5.4-1.1,8
			l0.3,0.4v0.2h-0.3l-0.1,0.2h0.2c5.4,0.1,8.2-0.3,8.3-0.9h-0.2l-1.2,0.1l0.1-0.4c2.3-0.2,3.4-1.1,3.5-2.5c0-0.9-0.5-1.7-1.2-2.3
			c0.1-0.4-1.2-1-3.8-1.9c0-0.6-1.1-1-3.3-1.1L105.8,205.2z M105.1,215.8v0.2l0.8,0.4l1.2,0.1v-0.2l-1.7-0.5L105.1,215.8z
			 M108,218.4l0.4,0.1v0.3H108L108,218.4z M115.2,217l0.2,0.2v0.2l-1.9,0.3v-0.4L115.2,217z M117.3,211.5c-0.1,1-0.3,1.5-0.7,1.5
			l-0.1-0.2h-0.2l-0.2,0.6h0.4l1.1-0.5C117.6,212,117.5,211.5,117.3,211.5L117.3,211.5z M116.4,214.9v0.2l0.8-0.1l-0.3-0.4h-0.2
			L116.4,214.9z M118.9,209.6v0.2l0.1,0.6h0.2v-0.2l-0.1-0.5L118.9,209.6z M119.1,210.5v0.4h0.2v-0.4H119.1z M119.3,211l-0.1,1.2
			l0.4,0.4v-0.4l-0.1-1.2H119.3z"/>
		<path class="st1" d="M132.1,198.6c4.7,1.1,7.3,1.8,7.8,2.3l0.7-0.2c1.5,0.8,2.6,2.8,3.5,6v1.9c-0.7,0.4-1.3,1-1.7,1.6
			c-1.6,0.3-3.2,0.5-4.8,0.5c-0.6-0.4-1-1.6-1.1-3.6c-0.1-1-0.4-1.6-0.7-1.6h-0.1c-1.2,2-2.3,5.6-3.4,10.8l0.1,0.5v0.4h-0.2
			c-0.5,7-0.5,11.7,0.1,14.3l0.8,2.8l-0.2,0.2h-0.2l0.8,2.3l0.3,0.1c1.8-4.4,2.8-7.6,3-9.7h0.2l0.7,2.9c1.7,2.2,2.6,4.9,2.5,7.7
			c-0.8,1.6-1.3,2.4-1.6,2.4c-0.2,0-0.2-0.2-0.2-0.7h-0.2l-0.1,0.8l0.3,0.4c-0.1,0.4-0.5,0.7-1.2,0.9l-0.6-0.3
			c-0.1,0.4-0.5,0.6-1.3,0.7l-0.2-0.2H134l-0.4-0.4l-1.6-0.2l0.1-0.4l1,0.1c0-0.2-0.5-0.3-1.5-0.4l-0.7-0.3c-1.1-0.1-2.2-2-3.3-5.7
			l0.4-0.3c-0.7-2.1-1.1-4.3-1.3-6.4l-0.2,0.2h-0.2l0.1,1.5v0.2h-0.2c-0.3-1.2-0.5-2.5-0.5-3.7l0.4,0.1l0.2,1.5h0.2l0.1-0.5
			l-0.4-1.5l-0.2,0.2l-0.4-0.1l0.1-1l0.4,0.1l0.1-0.9h-0.2v0.5l-0.4-0.1v-5l0.2,0.1l-0.1-0.3l0.4-3.1c1-8.4,2.9-14.2,5.7-17.4
			L132.1,198.6z M126.2,225.1l-0.1,0.4h0.2l0.1-0.4H126.2z M127.3,221.5l-0.1,0.4h0.2l0.1-0.4H127.3z M129.5,214.3l-0.4,0.6
			l-0.3,2.3l-0.2-0.1l-0.2-0.2h-0.2l-0.4,1.6l0.2,0.5l-0.3,0.2h-0.1l0.3,1.9h-0.2l0.2,0.2l-0.1,0.2c-0.2,0.5-0.4,0.8-0.6,0.7
			c0.1,5,0.4,8.5,1,10.5c0.2,0,0.3,0.2,0.3,0.5h0.4l-0.6-2.6l0.2-0.1h0.2l0.1,0.4l0.2,0.1v-0.5c-0.5-2.2-0.7-4.5-0.7-6.8h0.4v1.7
			l0.4,0.1l-0.2-3.3l0.1-0.5l0.4-0.4c0-1.6-0.1-2.4-0.3-2.4l0.3-0.8l0.1-0.4l-0.3-1.3l0.2-0.1l-0.1-0.9l0.1-0.6l0.5-0.5L129.5,214.3
			z M128.2,234.8v0.2l0.6,1.6h0.2v-0.3l-0.6-1.5L128.2,234.8z M128.9,225.9v0.2l0.1,0.5h0.2v-0.1L129,226L128.9,225.9z M129.1,231.3
			l-0.1,0.5h0.2v-0.4L129.1,231.3z M129.1,226.9v0.7h0.2l0.1-0.2l-0.2-0.4L129.1,226.9z M129.3,237.9c0.4,0.9,0.7,1.4,0.9,1.4
			l0.1-0.3C130.2,238.6,129.8,238.2,129.3,237.9L129.3,237.9z M129.9,218.5l-0.3,1.2c0.2,0.1,0.4,0.6,0.4,1.6h-0.2v1h0.3l0.6-2
			c-0.2,0-0.4-0.6-0.6-1.7L129.9,218.5z M129.8,223v2l0.2,0.1V223H129.8z M129.9,226.1v0.4l0.1,0.6h0.2v-0.3l-0.1-0.7H129.9z
			 M130.5,230.1l-0.1,0.2l0.2,0.5h0.2v-0.2l-0.1-0.5H130.5z M131.7,239.6v0.2l0.5,0.3h0.2v-0.2l-0.5-0.2L131.7,239.6z"/>
		<path class="st1" d="M167.5,198.6L167.5,198.6l0.5,0.5l-0.1,0.1v0.1l0.1,0.1h0.1l0.4-0.3l0.2,0.4c0.4-0.3,0.9-0.4,1.4-0.4l0.1,0.4
			h0.2l0.7-0.1c0.1,0.4,0.3,0.7,0.7,0.8l0.1-0.1c-0.1,0.4,0.2,0.6,0.7,0.8v0.3l-0.4,0.6l0.1,0.4l-0.4,0.7l-0.1,1.1l-0.2,0.8
			l-0.2-0.1l0.1-0.6h-0.1l-0.4,1.4l0.1-0.1h0.1l0.1,0.6c-0.5,2.4-0.9,5.6-1.4,9.4l0.1,5.1l-0.1,0.4l-0.5,2.1h-0.3l0.1-0.4l0.1-2.2
			h-0.1l-0.5,2.4l0.3,0.3c-0.3,1.8-0.7,3.6-1.1,5.4c0.1,0.4,0.1,0.8,0.1,1.1l0.1,0.1l0.2-1.2l-0.1-0.1v-0.1l0.1-0.4l0.3,0.1
			l-0.1,1.4l0.2,0.1l-0.8,5.2l0.1,0.7c-0.4,1.3-1,2.6-1.7,3.8c0,0.5-0.4,0.8-1.2,0.9c-0.1,0.6-0.3,0.8-0.4,0.8l-1.2-0.3v0.2
			c-0.3,0.4-0.7,0.7-1.1,0.9l-0.1-0.4h-0.1c-0.4,0.5-1,0.7-1.7,0.7c-1.2-0.2-2.6-1.5-4.3-3.9c-2.8-3.3-4.2-5.9-4.1-7.8
			c-0.5-1.8-0.8-3.7-0.9-5.6h0.1c-0.3-1.2-0.5-2.3-0.6-3.6v-1.2l-0.2-0.3l0.1-1.1l-0.1-2.1l0.1-0.4l-0.1-0.9h0.1l-0.1-0.4l0.4-9.1
			l0.4-2.7l-0.1-0.8c0.7,0.1,1.1-0.6,1.2-2.1l1-0.1c0.8,0.1,1.5,0.5,2,1.1l0.8,0.4c-0.1,0.3,0.1,0.5,0.4,0.5l0.1,0.1h0.1l-0.1,0.1
			v0.2l0.1-0.1l0.5,0.1c0.5,0.1,0.7,0.3,0.7,0.5v0.4c0,0.2-0.3,0.3-0.8,0.4l-0.5,2.3l0.2,0.3c-0.2,0-0.5,1.2-0.8,3.9l0.1,0.8
			l-0.4,0.8l0.1,1.7l-0.4,2.1l0.2,0.6l-0.1,0.1v0.1c0.3,0.9,0.5,1.8,0.4,2.8l0.3,1.8l0,0.5c-0.3-0.1-0.4-0.5-0.3-1.1h-0.1l-0.1,1.6
			c0.1,0.7,0.3,1.4,0.6,2v0.1h0.1l-0.1-2.5h0.2c0.2,1.6,0.5,3.2,1,4.8v0.4h-0.1c-0.2,0-0.4-0.7-0.6-2l-0.1-0.1l-0.3-0.1v0.1
			c0.2,2.4,0.6,4.7,1.2,7c0.6,1.7,1.5,3.2,2.6,4.6h0.4c-0.6-1.4-1.1-2.8-1.3-4.3c0.6,1.2,1.1,2.4,1.5,3.6h0.2
			c0.3-2.5,1.1-7.1,2.6-13.9l-0.1-0.5c0.3-1.8,0.5-2.7,0.7-2.7l-0.1-1.2c0.4-0.9,0.6-1.8,0.6-2.7h-0.2l0.1-0.8l-0.1-0.9l0.2-0.8
			l-0.1-0.1v-0.1c0.3-1,0.5-1.4,0.7-1.4l0.3,0.3c0-0.4,0.2-0.6,0.4-0.5l0.1-1.8l0.1,0.1l0.1,0.3v0.1l-0.4,2.8l0.2,0.6
			c-0.1,0.8-0.3,1.5-0.8,2.1l0.1,0.1v0.1l-0.2,0.4l0.1,0.9H165l-0.1-0.1l-0.1-0.1l-0.2,1.1l0.1,0.8l-0.1,0.1h-0.1v0.8l-0.2,1.3
			l0.1,0.1l-0.2,1.1l-0.1,1.6v0.9l-0.1,0.5v3l-0.1,0.1v0.1c0.2,0.9,0.2,1.9,0,2.9h0.1l0.1-2h0.1l-0.1-0.1v-0.1l0.1-0.1l-0.1-0.1
			l0.1-2l0.2,0.1v0.2c-0.1,0.6,0,1.2,0.2,1.8l-0.3,2.6h0.1l0.1,0.1h0.1l-0.1-1.2l0.3,0.1l0.1-1.5l0.3,0.1v0.1l-0.1,2l0.4-0.2
			l0.3-6.9l0.2-0.8c0.2,0,0.3,1.1,0.1,3.4h0.1l0.1-1h0.2v1.7l0.3-0.3l0.1-0.8h0.3l0.1-0.8h-0.1l-0.1,0.4l-0.2-0.1l0.2-1v-0.3
			l0.3,0.1l0.1-0.9l-0.1-0.6l0.1-0.4v-2l0.6-2.3l-0.1-0.6l0.4-3.2h0.3l-0.1,1.7c-0.1,0.5-0.1,1.1,0.1,1.6l-0.2,1.4v1.1h0.1l0.4-3.3
			V216l0.1-0.5l-0.1-0.6c0.3-1.3,0.7-3.9,1.1-7.9l-0.1-0.5l0.3-0.4l-0.3-1.1h-0.1l-0.1,1h-0.1l-0.2-0.3l0.1-0.4v-0.8l0.1-1l-0.4-0.2
			c-0.2,0.9-0.3,1.3-0.4,1.3l0.1,0.1l-0.2,1.4l-0.1,1.4l-0.3,0.4v3.3h0.1l0.3-1.7h0.2l-0.1,0.1l-0.1,1.1c0.3,0,0.4-0.4,0.4-1.1
			l0.1-1.4h0.2l-0.1,2.1l-0.1,0.1l0.1,0.7c-0.2,0.9-0.3,1.3-0.5,1.3H169l0.1-0.4H169l-0.1,1.1l-0.3-0.1l0.1-1.4l-0.2-0.1l-0.1,0.1
			l-0.4,2v0.1h0.1v-0.2h0.3l-0.6,3.5l-0.3-0.1l0.1-0.2h-0.1l-0.2,0.5h-0.2v-0.4l0.4-1.3l0.1-1.2h-0.1l-0.6,2.3l-0.3-0.1l1-8l0.2-0.4
			l-0.1-0.1h-0.1l0.2-1.7l0.1-1.1h-0.1l-0.4,2.3H167v-1.2h-0.1l-0.1,1.6h-0.1l-0.1-0.1h-0.1c-0.1,0.7-0.2,1-0.4,1
			c0-0.2-0.1-0.3-0.3-0.3l0.1-0.8h0.2l0.1-0.8l-0.2-0.4l0.8-3.9l-0.4-0.4c-0.1,0.5-0.2,0.7-0.3,0.7l0.1,0.8l-0.6,1.9l0.4,0.1l-0.4,1
			c0.2,0,0.2,0.2,0.2,0.4l-0.3,1.3l0.1,1.4l-0.6,0.2l-0.1,0.9l-0.2-0.1l0.2-1.4h0.3l0.1-0.8l-0.4-1.5v-0.3l0.3-0.4V206l-0.2-0.4
			l0.3-0.2c-0.2-1.3-0.2-2.6,0-3.9c0.4,0.1,0.8-0.5,1.1-1.6c0.8,0,1.2-0.1,1.3-0.3L167.5,198.6z M150.9,218.3l-0.1,0.3h0.1
			L150.9,218.3L150.9,218.3z M151,220.6l-0.1,1v1.2l-0.1,0.1c0.3,0.2,0.5,1.5,0.8,3.9c0.2,0,0.4,1.3,0.6,3.9
			c0.2,0.1,0.4,0.6,0.4,1.4l-0.1,0.1v0.1c-0.1,0.2,0.2,0.4,0.7,0.8l0.3,0.8l-0.1,0.4h0.1l0.8,0.7V235c-1.9-5.2-2.7-8.7-2.5-10.5
			l-0.4-3.9L151,220.6z M150.9,219.8v0.4l0.1,0.1v-0.4L150.9,219.8z M152.4,225.7v0.3h0.1v-0.3H152.4z M153.4,224l-0.1,0.5l0.2,3.2
			h-0.2L153,226l-0.1-0.1l-0.1,0.6l0.4,1.7H153c-0.1,0-0.3-0.7-0.4-1.9h-0.1l0.6,3.3l0.1,0.1v-0.1l-0.1-0.6v-0.1h0.1
			c0.2,0.1,0.2,0.2,0.2,0.5h0.2l-0.1-0.8v-0.1h0.4l0.2,1.8l-0.1,0.1l-0.2-0.1l-0.3-0.1v1.1l-0.1,0.4l0.1-0.1h0.2l0.3,1h0.2v-0.1
			l-0.2-0.8h0.3l0.3,1.2l-0.1,0.1h-0.1l0.2,0.8h-0.3l-0.1-1H154v0.1l0.4,1.8l0.1,0.1v-0.3l-0.1-0.4h0.2c0.2,0.1,0.2,0.2,0.2,0.4
			c0.2-0.2,0.5-0.3,0.8-0.4l-0.7-2.7l0.2-0.4c-0.1-1.6-0.6-3.1-1.4-4.4l-0.3-2.5L153.4,224z M152.6,202.1l0.8,0.5v-0.9
			C152.8,201.8,152.5,201.9,152.6,202.1L152.6,202.1z M153.1,230.9L153.1,230.9L153.1,230.9l0.2-0.5
			C153.1,230.5,153.1,230.6,153.1,230.9L153.1,230.9z M154.8,203.5l-0.1,0.7h0.1V203.5L154.8,203.5z M154.9,213.1l-0.1,1.3h0.1
			V213.1L154.9,213.1z M154.8,215.7v0.4h0.1v-0.4H154.8z M154.8,212l0.1,0.8h0.1V212L154.8,212z M155.1,222.1v0.5l0.1,0.1l0.2-0.6
			L155.1,222.1z M155.1,223v0.2h0.1l0.1-0.2H155.1z M155.2,223.5v0.3l0.1,0.1l0.1-0.3L155.2,223.5z M155.3,219.8h0.3v-0.3
			L155.3,219.8z M155.5,218.7l-0.1,0.3h0.1L155.5,218.7L155.5,218.7z M155.6,225.3v0.3h0.1l0.1-0.3H155.6z M155.6,226.6v0.4h0.1
			l0.1-0.4L155.6,226.6z M155.8,236.2v0.1c0.3,0.8,1,1.4,1.8,1.7V238l-0.1-0.8h-0.1l-0.1,0.4l-0.5-0.1l0.1-0.1l0.1-0.1v-0.1
			l-0.1-0.1l0.3-0.3l-0.1-0.1h-0.3v0.3l-0.2-0.1l-0.5-0.5L155.8,236.2z M156.1,231.1c0.1,0.8,0.2,1.2,0.4,1.3v-0.1l-0.1-1.4
			L156.1,231.1z M156.3,229.7l-0.1,0.4l0.1,0.1L156.3,229.7L156.3,229.7z M156.3,235.2v0.3l0.4,0.4v-0.3c-0.3,0-0.4-0.1-0.3-0.3
			L156.3,235.2z M156.4,232.5l-0.1,0.1c0.2,0.9,0.7,1.8,1.4,2.4h0.1l-1-1.3C156.9,232.9,156.7,232.5,156.4,232.5L156.4,232.5z
			 M157.5,238.9L157.5,238.9l0.3,0.1v-0.1H157.5z M157.6,228.6L157.6,228.6c0.3,0.1,0.5,0.6,0.6,1.7l-0.1,0.1h-0.2L157.6,228.6z
			 M157.7,239.2v0.1l0.8,0.6v-0.1c0-0.2-0.2-0.4-0.7-0.5L157.7,239.2z M162.5,229.9v0.3h0.1V230L162.5,229.9z M165,238l-0.2,0.6
			l0.1,0.1l0.1,0.1V238L165,238z M165,227.1h0.2l-0.1,1.1l-0.2-0.1L165,227.1z M165.4,233.1l-0.1,0.6l0.1,0.1h0.1v-0.1l-0.1-0.6
			H165.4z M165.8,230.3l-0.3,1.8v0.1h0.1l0.1-0.8l0.1-1.1L165.8,230.3z M166.1,227.1l-0.1,1.3l0.1,0.1l0.1-1.4H166.1z M166.3,229.9
			v0.4h0.1l0.1-0.4L166.3,229.9z M166.7,227.7l-0.1,0.5h0.1l0.1-0.5H166.7z M167.1,202.5c0,0.1,0.1,0.3,0.4,0.3l0.1,0.1v0.1
			l-0.1,0.1l0.1,0.1l0.5,0.1V203C168.1,202.7,167.7,202.5,167.1,202.5L167.1,202.5z M167.6,213.7l-0.1,0.2h0.1L167.6,213.7
			L167.6,213.7z M168.3,207.1l-0.4,2.3l-0.1,2.5h0.1l0.4-2.2l0.1-1.1l0.2-0.9l-0.1-0.6L168.3,207.1z M168.6,203.1l-0.2,1l0.1,0.1
			v0.1l-0.2,0.6l0.2,0.8h0.1l0.4-1.6l0.1-1.1L168.6,203.1z M168.5,220.3v0.6l0.3-0.3v-0.2L168.5,220.3z M171,210.6l0.2,0.1l0.1,0.4
			l-1.1,7.4H170l0.1-0.9l-0.1-1.3c0-0.9,0.2-1.7,0.6-2.5l0.1-1.5L171,210.6z M171.4,206.8l0.2,0.1v0.5l-0.2,1.1l0.2,0.3l-0.1,0.1
			h-0.3l-0.1-0.7l0.3-1.3V206.8z"/>
		<path class="st1" d="M184.1,189.5l0.6,0.1l1.3-0.2c0.7-0.1,1.5,0.4,2.5,1.5c0.1-0.5,0.3-0.8,0.6-0.8l0.2-0.1l0.2,0.2l0.2-0.2h0.2
			l0.6,0.2V190c-0.1-0.3,0.1-0.4,0.5-0.4s1.1,0.7,2.4,2.1l0.2-0.2h0.4l1.3,4.6c0.9-0.1,1.6,1.8,2.1,5.8h-0.4v-0.4h-0.4v0.8l0.2,0.2
			v0.2l-1.8,1.4l-0.2,0.2h-0.2l-0.7-0.1c0,0.2-0.5,0.4-1.4,0.6c-2.3,0.1-3.4-0.6-3.5-2.1c-0.3-1.8-0.8-3.6-1.4-5.3h-0.2l-0.2,0.2
			H187l-0.2-0.2l-0.1,2.1l0.1,1.3c0.2,5,1.5,8.7,4,11.1c-1.3-2.3-2-3.6-2-4.1h0.4c1.2,2.5,2.6,4.9,4.3,7.1l2.6,5l1.1,3.2l-0.2,1.2
			c0.7-0.1,1,0.3,1.1,1.1c0,0.7-0.2,1.4-0.5,2.1l0.9,3.6c-0.6,2.7-1.3,4.4-2.2,5.1h-0.2v0.1c-0.6,0-1.7,0.8-3.4,2.4
			c-1.4,0.9-2.9,1.6-4.5,1.9H187v-0.6h0.4v-0.2l-2,0.5l-0.2-0.2l-0.2,0.2v0.2c-1.2,0.1-3-0.7-5.1-2.3c-0.9-2.4-1.5-4.9-1.8-7.5V230
			c-0.2-3,0.1-5.9,0.7-8.8h0.4v0.7c0.8,5.4,1.9,9,3.2,10.9c0.7,1.1,1.6,2.1,2.8,2.8v0.2h0.2c4.1-1.6,6.1-3.8,6-6.7l-0.2-0.8l0.1-0.8
			l-0.2-1.5l0.3-0.4v-0.2l-0.2-1.4H191v0.4h-0.4l-0.4-2.2l0.5-0.2c-2.1-4.2-3.3-6.3-3.8-6.3v0.8h-0.4l-4.1-6.1
			c-0.8-1.4-1.4-2.8-2-4.3c-0.6-2.4-0.9-4.8-1-7.3v-0.2c-0.2-4,0.7-6.9,2.8-8.7L184.1,189.5z M185.9,239.2v0.2l1.4-0.1l0.4-0.4v-0.2
			L185.9,239.2z M187.2,237.9l0.4,0.4l0.8-0.1l-0.2-0.2v-0.4l3.2-1.4c-0.3,0-0.4-0.2-0.5-0.6h-0.2
			C190.1,235.6,188.9,236.4,187.2,237.9L187.2,237.9z M188.1,238.9v0.2h0.7l0.2-0.3h0.2l0.4,0.4c0-0.3,0.3-0.5,0.8-0.6l-0.1-0.2
			h-0.1l-0.8,0.2l-0.2-0.1H189L188.1,238.9z M190.4,216.5v0.2c1.5,2.9,2.4,6.1,2.6,9.3h-0.2l0.2,0.2l0.1,1l-0.3,3.6
			c0.3,0,0.4,0.2,0.4,0.6c0.5,0,0.7-1.5,0.7-4.4l-0.3-0.6l0.2-0.2l0.2-0.1c-0.6-1.7-0.9-3.4-1-5.1v-0.8c-1-2.5-1.7-3.7-2.2-3.7
			L190.4,216.5z M190.6,222.1v0.4l0.3,1.1h0.2l-0.1-0.9l-0.2-0.6L190.6,222.1z M191.3,233.5l-0.4,0.8h0.2l0.4-0.6v-0.2L191.3,233.5z
			 M191,190.6v0.2h0.8v-0.2H191z M193.3,233.8l-1.8,1.6h0.2l1.8-1.6H193.3z M191.6,221.4v0.4h0.2v-0.4H191.6z M191.6,226v0.6h0.2
			l0.2-0.7L191.6,226z M192.6,231c-0.1,0.8-0.4,1.6-0.9,2.3l0.1,0.2c0.3,0,0.6-0.8,1-2.3V231H192.6z M192.4,217.2v0.2
			c0.4,0.6,0.7,1.3,0.7,2h0.2l0.1-0.7C193.2,217.8,192.8,217.3,192.4,217.2L192.4,217.2z M193.4,219.2l0.1,1.6l0.6,5.1h0.2l-0.1-4
			h0.3v0.4c0.2,1,0.8,1.9,1.6,2.6v-0.2l-0.6-1.5l0.1-0.8l-0.2,0.2H195l-1.1-3.4L193.4,219.2z M194.8,225.7v1.3h0.2v-1.2L194.8,225.7
			z M195,220.6v0.9h0.2v-1L195,220.6z M195.2,221.7v0.4h0.2v-0.4H195.2z M195.8,233.1l-0.1,0.8v0.2h0.2l0.3-1L195.8,233.1z
			 M195.8,197.2l0.1,0.8h0.2l-0.1-0.8H195.8z M196.1,198.2v0.4h0.2v-0.4H196.1z M196.6,230l-0.3,2.5c0.3,0,0.5-0.5,0.5-1.6V230
			L196.6,230z M196.6,229.5v0.3h0.2v-0.3H196.6z"/>
		<path class="st1" d="M85.3,224.9v-2.1c0-1.2-4.6-2.3-4.9-1.1c-0.3,1.2-0.5,2.4-0.5,3.6l4.8,0.9c-0.1-0.3-0.1-0.6-0.1-0.9
			c0-1.3-3.9-2-4.7-1.3c-0.6,0.4-0.5,0.9-0.2,1.5c0.4,0.6,0.7,1.4,0.6,2.2c-0.1,1.3,4.3,2.1,4.9,1.1l0.1-0.1
			c0.4-0.6-4.1-2.4-4.9-1.1l-0.1,0.1l4.9,1.1c0.1-0.6,0-1.2-0.3-1.8c-0.2-0.4-0.9-1.1-0.5-1.5l-4.7-1.3c0,0.5,0.1,0.9,0.2,1.4
			c0.3,1,4.8,1.9,4.8,0.9c0-1.2,0.2-2.4,0.5-3.6l-4.9-1.1v2.1C80.4,225.2,85.3,225.8,85.3,224.9z"/>
		<path class="st1" d="M167.4,204.8c-1.4,2.6-1.7,6-2.2,8.9s4.4,3.5,4.9,0.9c0.2-1.4,0.5-2.8,0.8-4.2c0.2-1.3,0.5-2.5,0.9-3.7
			C173.1,204,168.6,202.5,167.4,204.8L167.4,204.8z"/>
		<path class="st1" d="M167.2,203.9c-0.1,3.6-0.4,7.2-0.9,10.7l4.9-0.4V214c-0.4-1.9-5.3-1-4.9,0.8v0.2c0.4,1.8,4.7,1.1,4.9-0.4
			c0.5-3.8,0.8-7.7,0.9-11.5C172.2,201.4,167.3,201.9,167.2,203.9L167.2,203.9z"/>
		<path class="st1" d="M166.6,204.5c-0.5,1-0.7,2.2-0.7,3.3c0.1,1.3,0.9,2.4,2.1,2.8c0.6,0.3,1.4,0,1.7-0.6c0.1-0.2,0.2-0.5,0.1-0.8
			c0-0.6-0.1,0.4,0-0.2c0-0.2,0-0.3,0.1-0.5s0.1-0.3,0.1-0.5c0.1-0.4-0.1,0.2,0.1-0.2c0.4-1.1,0-2.4-0.9-3.1
			C168.7,204.2,167.1,203.4,166.6,204.5L166.6,204.5z"/>
		<path class="st1" d="M165.4,206l-0.4,3.4c0,0.4,0.6,0.7,0.8,0.8c0.6,0.2,1.2,0.3,1.8,0.2c0.9-0.1,2.2-0.5,2.3-1.6l0.4-3.4
			c0-0.4-0.6-0.7-0.8-0.8c-0.6-0.2-1.2-0.3-1.8-0.2C166.8,204.6,165.5,204.9,165.4,206z"/>
		<path class="st1" d="M167.4,214.1c-0.2,2.5-1.6,4.7-1.6,7.3l2.5-0.4c-0.2-1.4-0.2-2.8,0.2-4.2c0.2-0.7-2.3-0.5-2.4,0.1
			c-0.4,1.4-0.4,3-0.2,4.4c0.1,0.7,2.4,0.3,2.5-0.4c0.1-2.5,1.5-4.8,1.6-7.3C169.8,213.1,167.4,213.3,167.4,214.1L167.4,214.1z"/>
		<path class="st1" d="M166.5,215v0.3c0,1.4,2.5,1.3,2.5-0.1v-0.3C169,213.4,166.5,213.5,166.5,215z"/>
		<path class="st1" d="M168.4,215.7h0.2l-0.9-0.1l0.2,0.1l-0.8-0.5c0.1,0.1-0.1,1-0.2,1.2l-0.2,1.4l-0.5,2.7c-0.2,1,2.2,1.8,2.3,0.9
			c0.4-1.8,0.7-3.6,0.9-5.4c-0.1-1.1-1.1-1.9-2.2-1.8c-0.1,0-0.1,0-0.2,0C165.7,214.5,167.5,216,168.4,215.7L168.4,215.7z"/>
		<path class="st1" d="M168.5,215.3c-0.8,2-1.5,4.1-1.9,6.3c-0.2,1,2,2.2,2.2,1.1c0.4-2.1,1-4.2,1.9-6.3
			C171.1,215.5,169,214.2,168.5,215.3z"/>
		<path class="st1" d="M166.6,218.3c-0.5,2.8-1.3,5.6-2.1,8.3c-0.2,0.5,1.9,1.6,1.8,1.7c0.9-2.7,1.6-5.5,2.1-8.3
			C168.6,219.4,166.6,218.5,166.6,218.3z"/>
		<path class="st1" d="M163.8,225.1c-0.2,1.6-0.2,3.2-0.1,4.8c0,1,2.3,1.9,2.3,0.5c-0.1-1.4,0-2.9,0.1-4.3
			C166.2,225,163.9,223.9,163.8,225.1L163.8,225.1z"/>
		<path class="st1" d="M163.5,224.9v6.4c0.1,0.5,0.3,1,0.6,1.4c0.1,0.1,0.7,0.9,0.7,0.6v-6.4c-0.1-0.5-0.3-1-0.6-1.4
			C164.2,225.4,163.5,224.6,163.5,224.9z"/>
		<path class="st1" d="M164.8,218.1c-0.5,2.6-0.8,5.2-1,7.8c0,0.5,2.3,1,2.3,0.9c0.2-2.6,0.5-5.2,1-7.8
			C167.2,218.5,164.8,217.9,164.8,218.1z"/>
		<path class="st1" d="M167,219.2c0.4-1.9,0.8-3.7,1.1-5.6c0.2-1.1-1.6-2.6-1.8-1.1c-0.3,1.9-0.7,3.8-1.1,5.6
			C164.9,219.2,166.7,220.7,167,219.2z"/>
		<path class="st1" d="M166.9,211.1l-2.3,11.3c-0.1,0.7,2.2,1.6,2.3,1.1l2.3-11.3C169.3,211.5,167,210.6,166.9,211.1z"/>
		<path class="st1" d="M190.7,218c1.2,1.7,2.1,3.6,2.5,5.7c0.3,1,2.8,0.9,2.4-0.3c-0.5-2.2-1.4-4.3-2.8-6.1
			C192.2,216.5,189.8,217,190.7,218L190.7,218z"/>
		<path class="st1" d="M191.6,215.9L191.6,215.9c0.2-0.2,0.3-0.6,0.1-0.9c-0.3-0.3-0.7-0.5-1.1-0.5c-0.5,0.1-1.3,0.3-1.4,1
			s0.7,1.4,1.1,2c0.5,0.8,0.9,1.6,1.3,2.4c0.5,1,2.8,0.2,2.3-1c-0.3-0.7-0.7-1.4-1.1-2c-0.4-0.6-0.9-1.2-1.2-1.8l0.1,0.5v-0.1
			l-1.4,1h0.1l-1-0.4v0.1l0.1-0.9l0,0c-1,1.2,1.3,1.8,2,0.9L191.6,215.9z"/>
		<path class="st1" d="M89.3,51.9c6.9,0.2,13.9-0.4,20.7-1.6c0.3,0,0.2-0.5-0.1-0.4c-6.8,1.2-13.7,1.7-20.5,1.6
			c-0.1,0-0.2,0.1-0.2,0.2C89.1,51.8,89.2,51.9,89.3,51.9L89.3,51.9z"/>
		<path class="st1" d="M75.1,51.7c-6.8,1.4-13.7,2.2-20.6,2.3c-0.1,0-0.2,0.1-0.2,0.2c0,0.1,0.1,0.2,0.2,0.2
			c7-0.1,13.9-0.9,20.7-2.3C75.5,52.1,75.4,51.7,75.1,51.7z"/>
		<path class="st1" d="M76.1,50.3c-6.8,0.2-13.6-0.4-20.3-1.7c-0.3-0.1-0.4,0.4-0.1,0.4c6.7,1.3,13.6,1.9,20.4,1.7
			c0.1,0,0.2-0.1,0.2-0.2C76.4,50.4,76.3,50.3,76.1,50.3L76.1,50.3z"/>
		<path class="st1" d="M115.1,107.6c0.5,0.8,0.8,1.7,0.8,2.6c0.5,3.7-0.3,7.6-1.1,11.2c-0.1,0.4,1.2,0.2,1.3-0.2
			c0.8-3.6,1.6-7.6,1.1-11.3c0-1-0.3-1.9-0.9-2.7C116,106.9,114.8,107.3,115.1,107.6L115.1,107.6z"/>
	</g>
</g>
</svg>
