<svg xmlns="http://www.w3.org/2000/svg" viewBox="0 0 377.91 508.84"><defs><style>.cls-1{fill:#df2127;}.cls-2{fill:none;}</style></defs><title>Fichier 4</title><g id="Calque_2" data-name="Calque 2"><g id="Calque_2-2" data-name="Calque 2"><path class="cls-1" d="M97,264.43l1.12,1.11.56-.56,1.12.28-1.4,1.39v1.67l1.68.56c.18-2,.56-3.06,1.12-3.06,1.12.19,1.58,1,1.4,2.51l-1.4,6.13H100v-.28l.84-2.23q-.84-2.23-1.68-2.51l-2.51,10.3v4.46l1.68-1.11h.56v1.11l-.56.56.56.56-.28.56-1.12,5.57v1.39h.56q.56-6.4,5.59-12.53l.56.56.28-2.51h1.12l.56,4.46-2,9.47.28,1.95-.84,2-.28,2.78.28,2.23-2.51,11.14h.28l.56.83-9.22,43.16-1.4,13.09a4.83,4.83,0,0,1-3.63,4.46q-.84,0-2.24,4.73L85,378l-1.4-.28q-.28,2.23-5.87,2.79H76.57q-10.34-1.11-18.72-47.34-1.4-.27-2,2.51H54.77l.28-2.79h-.56l-.56,5.29h.56l.28-1.39h.84v.56l-.84,2.51-2.51-.83q-2.8,10.31-3.63,10.3l.28,1.95h-.56l.28,3.34h.28L50.3,346l1.12.28v2.23H52v-1.11h1.12l-.56,6.68-.84,2.51H50.58l.28-3.34H50.3l-.84,1.67.56.56-.84,3.62H48.06l.28-2.79h-.56v1.11l-.56-.28-.56-.56h-.56q-.84,7-3.07,7l.56.56-.28,2.23-1.12,3.06L40,368.58l-1.68.28v-1.67h-.56q-.28,3.62-1.68,3.62H34.93l-1.68-1.11-.56-.28L31,370.53q-14-1.39-19.84-43.72Q7.54,311.5,2.51,271.95L0,268.88.28,268q1.4-2.78,5.59-2.23H7l4.19,1.67,2.24-.56q6.14,4.46,5.87,8.35a223.15,223.15,0,0,1,4.47,32q.56.28,1.12,3.9l2.79-.28v.56q-1.12,8.92,3.35,21.72l1.4-.28v.56l1.4,7.8h1.12l.28-2.79,1.12.28v1.67h.56l3.35-18.38H39.12l5-23.67-.56-.56.28-.28q1.11-5.57,2.79-7l-.28-3.34a9,9,0,0,1,7.55-2.51l-.56-.56.28-1.67h.56l2,1.39,1.68-.56q3.63.84,3.35,3.06l1.12.28.28-1.11,1.68.28q.84,0,2.24,4.46,1.68.28,1.12,5.57,1.11.28,1.68,4.46l.56.28.56-.56.56,5L70.42,307l.56,3.34-.56.56L71.54,312l-.28,3.34-1.12-.28.28-3.62H69.3L69,314.28l.28,8.08-.84,2.23.56.56-1.12.84.28,7.24h.56V332.1l.56.28q2.79,0,3.91,15l.56.56v.56h.56l.28-3.9a13.65,13.65,0,0,0-1.4-8.08l.84-2.23q-2-.27-1.68-5l.56-.56v-.56L72.66,326l1.12.28q.84,0,2.24,11.14h.56v-.56l1.4-9.19h1.12v.56q-.84,8.64-2.24,11.14l.28,3.06q1.68,0,3.07-9.19h.56l-.56-.56,3.35-16.15v-3.06l2-5.29-.56-.56V307q.84-3.34,1.68-3.34l-.28-3.62V299q.84-6.4,2.24-8.63L88.3,287l3.35-12.81c-.93,0-1.4-.74-1.4-2.23q2.52-6.4,5-6.13l.28.56Zm-88,41.49-.28,2.23q0,4.18,1.12,4.46l.28-.56-.56-6.13Zm2.24,10.58-.28,3.9.56-.56H12L11.74,321h.56l.28-.56-.84-3.9Zm2.24,11.14Q15.36,353,24,364.12l3.63,1.67v-.56l.84-1.67q-4.76-2.23-14-37Zm4.75-43.16-.56.56v.56l1.4,2.23v1.11l-.56.56q2.51,6.41,2.24,8.91h.56v-1.67L21,290.33q-1.68-.27-1.68-5.29l-.56-.56ZM26,322.35l-.28,1.11h.56l.28-1.11Zm1.68,11.14-.28.56.84,8.91-.56.28q2.79.28,2.24,5.29h.56l.56-4.46-1.4-2.23.56-.56a21.25,21.25,0,0,1-2-7.8Zm10.9-10.86h1.12L38.28,329v.56H37.17V329Zm2-3.06-.28,1.95h.56l.28-1.95Zm.84-3.34L41.08,319h.56l.28-2.79Zm2-8.35L42.48,312h.84l.28-1.11h.56l-.56-.56v-1.11l.56-.28.28-.56-.56-.56Zm9.22-3.06-1.12,3.34.28,3.06-.28,3.34-.56.28.56.84-.28.56-1.4,4.18V326h.56q.56-5.85,2.24-5.85l-.56-.56V319l1.68-4.73-.56-9.47ZM50,339.62l-.28,1.11h.56l.28-1.11Zm4.75-16.43-.56,2.51-.28,3.9h.56v-2.23h1.12l-.56,4.46.56.28.84-2.79-.56-6.13Zm9.78-34.25-.28,1.67.56.28.28-1.67Zm3.63,44.83-.28,1.11h.56l.28-1.11Zm.56-29-.28,2.78H69l.28-2.78Zm-.28,42.61V348h1.12v-.56Zm1.12-10.86-.28,2.23q-.28,1.67,1.4,3.9l-.84.56v.56q2.23,7,2,9.47l-.84,2,.84,2.23,1.68-.28V356q.56-5.29-2.51-16.71l-.28-2.51Zm-.28,12v.56l.56,1.67h.56v-.56l-.56-1.39ZM71,321.8l1.12.28.56,3.34V326H72.1q-1.4-.84-1.12-3.62Zm.56,38.43-.28,1.67h1.12v-.56Zm4.75-13.09-.84,6.41,1.12.28.28-6.68ZM87.19,353l-.28,2.78h.56l.28-2.51Zm3.35-12.81-.84,8.91h.56V348h.56l.28-7.52Zm.56-50.68v1.67h.56v-1.67ZM91.66,329l-.28,2.23h.56l.28-2.23Zm2.24-11.42-1.68,5.85-.56,5h.56l2.24-9.19v-1.67Zm.28-41.49-2.24,10.58v1.67l.56.28L95.85,277l-.56-.83ZM97,271.39l-.28,1.11.56.28.28-1.11Zm3.35,43.44L100,316.5l.56.28.28-1.67Z"/><path class="cls-1" d="M128.77,298.58h1.46q3.29.18,4.57,4L133.52,307l.91,6.37-.18,2.37.73,1.09-1.28,13.66.37,2-.37.36-.18.36.37,4-.18,3.46.18,2.19-.37.36.55,5.28L133,357h-.73l-.18-2.55q-1.1,0-1.1,2.18h-.73V355.2l-.18-5.46h-.37L128.22,355l.73,6.37-.37.36v.36l.55,3.28-.73.73v.73h.37l2.56-1.46.37.36v-1.64h.73l.18,2.19-.91.18v1.09q-.55,4.37-3.11,4.19h-1.46a2.63,2.63,0,0,0-.91-1.82l1.1-2.19a5.82,5.82,0,0,1-2.74-2.91l-.37-9.65.37-2v-8.56l-.18-1.46.18-.36-.18-2.55v-1.46h.73v.73h.37l-.18-3.46V335l.37-1.64-.73-.18.91-3.09v-7.83l-.37-.36h-.37l.55-5.46.18-4.92.55-3.1L126,308v-.36a6.78,6.78,0,0,1,1.46-3.28l.37-4.92Zm-3.65,41.69v1.46h.37v-1.46Zm3.65-22.58-.37.36.37.36-.18,4.92h.37l.37-1.64-.37-.36.18-.36.37-2.19v-.36Zm.18,26-.18,3.1h.37l.18-3.1Zm0-19.66v1.46h.37v-1.46Zm.18,1.82V327h.37v-1.09Zm.91,16.75-.18,2.91h.37l.55-1.09-.37-1.82Zm-.18,4.19v1.46l.37.18V347Zm.37,2v.73h.37v-.73ZM131,337l-.55,5.1.37.18h.37l.18-5.28Zm.91,7.47-.18.73h.37v-.73Zm-.18,1.46v.73h.37v-.73Zm.18,4.92v2.55h.18l.18-2.55Zm4.93-46.43h.37q1.1.18,1.1,11.83-.73,0-.91,1.09a3.9,3.9,0,0,0,1.83,3.64,152.63,152.63,0,0,1-2.38,20.21l.37,1.64-.37,1.09q.73.18.73,5.83l-.55,8,.37.55v.36l-.55,1.28v.73l.37,1.46-.91,3.82h-.55v-3.1l-.55-6,.55-.36v-.36q-.73-1.64-1.46-10.38l.37-.36V345l-.37-1.09.55-4,.18-2.37-.73-1.09V335l.55-3.28-.37-.36.37-1.64.73-18.21.37-3.1-.18-1.09Q136.07,304.41,136.8,304.41Z"/><path class="cls-1" d="M165.55,275.1q11.94,0,14,4.35,2.29.92,2.3,2.52-.23,6-1.38,6l-1.38-1.14-.23,3.89.23.46-.69,9.15v.92h-.69v-2.06l-.46-3.2.69-3.2c-.46,0-.69-1.07-.69-3.2H177l-1.61,16,.46,2.06-.46.46,1.15,7.55h-.23l.23.46v6h-.69v-2.75h-.46v2.06l.46,13.5-.46.46.46,2.75v6.87q0,3.89,1.15,4.12h.23l.69-.92-.23-3.89h.69l.46,4.35h.23v-2.06H180c0,1.68.23,2.52.69,2.52l1.84,2.29-.46.46v1.14q1.6,0,3.22,2.06l3.44.46L189,355h.46l2.3.46v1.14l-4.59.69h-.46l-3-1.15-1.15,1.15-1.38-.69H180v.69h1.61v.46l-.46.46v.46l.46.69-2.53.92v1.6h1.61q-.23,1.6-3,1.6v2.29H178l3.21-.69,6.43,1.14.23-.46,2.07.46h1.38l1.61-.46,1.38.46h1.15v1.15h-.23l-3.21.46q-10.33-.91-10.33-1.6l-.46.46h-2.76l-2.53.69v.46q3.9.69,4.59,1.6h2.07v1.14h-4.13v-1.14h-2.07v.46c.92,0,1.76.76,2.53,2.29h.69v.92H177l-4.36.46-1.38-.46-1.61,1.14q-1.84,0-3.22-4.81v-1.6l.23-.46v-.69a11.47,11.47,0,0,1-3.44-8l.46-3.66-.46-3.2.46-9.61-.46-11.67.92-29.75.69-3.2v-6.86l.46-.69-.46-.46.46-3.66v-3.2l-.92-1.15-.23,3.89h-.92Q163.26,275.1,165.55,275.1Zm-1.15,85.14v1.14l.92,1.14H166l.46-2.75h-.92Zm1.15-71.86L166,290h.46v-1.6Zm2.07-3.66-.46,2.75v2.06l.69,1.15.46-5.26-.46-.69Zm.69,23.34.23,1.83-.69,17.39.69,4.81v6.41a8.12,8.12,0,0,1-.92,3.66l.23,6.86,2.3-.46-.46-.46.46-2.75V331.63l-.46-4.81.46-3.66v-2.29h.69l-.23-2.52V314l-.92-1.14V314H169l.46-.46-.46-.69q.46-15.33,1.84-22.2Q169.92,290.67,168.31,308.06Zm.23-20.6.46.46h.46v-1.6Zm0,2.06v1.15H169v-1.15Zm2.07-1.6v1.6h.23l.46-2.75Zm1.38-1.14-.23,4.35v.46H172l.69-3.2-.23-1.6Zm1.61,29.29v2.29h.23v-2.29Zm.23,6.41v3.2h.46v-3.2Zm2.07,1.14h.69l.46,1.6-.46.46,1.15,8h.69v.69l-.69,4.81.23,4.12h-.69Zm3.67-38.22v.92H180v-.92Zm17,70,.46.69v.46l-3.44,1.15-.46-.46v-.69Zm4.82-4.12q9.87.46,15.16,2.06v.46q-.23.92-5.74,3.89-3,6.87-10.33,6.86h-1.61c0-.76-.54-1.14-1.61-1.14v-.92l3.9-1.14v-.46h-.69v-1.14h.69c0-.76-.77-1.45-2.3-2.06v-.46q0-1.14,2.3-1.15v-.69h-3v-.92h2.3l1.38.46,1.15-.46v-.69l-1.61-.46Z"/><path class="cls-1" d="M235.12,244.94h2.72q9.31,0,11.12,5.89,1,0,2.07,2.82v.77l-.52,1.54H251q17.84,0,28.71,8.2l2.85,5.64h.52c0-1.37.17-2,.51-2a37.12,37.12,0,0,0,4.11,7.94l.51,5.13a7.67,7.67,0,0,1-1.29,4.1v1.79l-.51,6.66h-1v1.54h1l.51-2.56h.77q-.52,11.53-2.31,11.53v-.51l.51-3.59-.51-1.54h-.26q0,3.33-4.63,13.33h1.29v.51q-10.29,24.35-12.09,25.12l-.51-.26-5.92,10.25v.51h.51q0-2.31,3.13-4.1l1.3-1.28,1.56.51L279.72,320q2.87,0,2.87-1.79l3.4-12.56h1v2.56q-1.4,1-2.57,10.51l-6.14,14.61h-1.06v-.51l3.86-11q-.77,0-5.14,12.3l-6.69,12.56q-13.89,18.2-15.95,18.2l1-1.28h-.51l-4.38,3.84h-.24l1.54-2.56h-.51q0,1-7.72,6.15,0,3.59-1.54,3.84-.77,0-.77-1.54a29.78,29.78,0,0,0-7.51,9.48l-6.38,4.61-1.29.51v-.51q5.91-11.27,5.92-15.38-2.31-28.19-2.31-44.34l1.29-1.28v-4.1l.51-30q1.28-1.79,1.29-9.23l-.77-1v-5.89h.51c.51,0,.77.43.77,1.28l-.51,3.59,1-.77q.25-16.66,2.31-16.66l.77.77h.51l1-4.1v-.51l-1-.77-1.29.51-.51-.51q-2.31,10.51-2.31,14.1v1.79h-.77v-.51Q233.14,244.94,235.12,244.94Zm-1.39,92.77v5.89H234v-5.89Zm.26,6.66v7.94h.39l.64-2.56V349l-.51-4.61Zm.51,10.51v3.59H235v-3.59ZM235,360v.77l.26,5.89h.51a1.15,1.15,0,0,1,1.31-1.28l1.29-2.82q-3.12-1-3.11-2.56Zm1-42.54-.26,6.66c.51,0,.77,1.37.77,4.1h.51v-4.61l-.26-6.15Zm1,12.56v1.28h.26V330Zm3.09-68.17-.51,3.08v9.48l-.77,9,.51,1.54-.51,1.28.51.51-2.06,20.76q1.28,3.08,2.06,3.08V299.27l.26-14.35h.77v2.56l.51-.51h1v2.82h.51q0-4.35,3.34-10.25l-.26-4.61H245c0,1.54-.6,2.31-1.8,2.31v3.59l-.77.77-.51-1.28.51-.51v-.26L242,279v-.51l1-6.41-.51-.51v-.26l.51-2.82v-1.79L240.92,268l-.51-.26,1-5.64-.51-.26Zm-2.31,85.34v2.56h.51v-2.56Zm1-12.3v1.54h.51v-1.54Zm.77-6.15v4.87h.51v-4.87Zm3.6,7.18L243,339l.26,2.31q-1.8,0-3.09,2.82h-.51L242,357.7h.51v-2.82l-.51-2.56.51-1.54-.51-.51v-.51l.51-1L242,345.4l.51-2.31h.77v1.28l-.26,1.54.26,1.28v6.92h.51v-18.2Zm-3.09,1.28v3.33h.26V337.2Zm0,3.59v1.54h.26v-1.54Zm1.8-68.17h.51l-.51,3.08h-1v-2.05Zm1.29,0,.51,3.08h.51l.77-3.59v-.77h-.51Zm6.94-3.07.51,5.64v1.54l-.51,1.79.51.51v.51l-.77,3.84.26,5.13v1.28l-.26,5.13.26.26v.51a26.81,26.81,0,0,0-1.54,7.69l.51.51-.51,3.07v4.61h-1v-3.33a193.07,193.07,0,0,1,1.54-22.81c-.69,0-1,.43-1,1.28l-.51,2.56h-.51l.51.51v1.79h-1v-7.18h-.26c0,.86-.38,1.28-1.14,1.28l-.57-.26v-.51l.57-1.79q-1.14,0-1.43,5.38.77,0,1.29,4.36l-.51.51,1.29,1-.26,3.08a98.82,98.82,0,0,1,1.54,18.2v3.07l-.51,2.82q1,2.05,1,7.95V330l.51-.51h.51v-.77h-.51l.51-9.23v-5.38h.77v16.4l.51,1.79-.51,1.79.51,11.28h-.51c-.51,0-.77-.42-.77-1.28l.51-1.79-.51-1.54.51-.26-.51-10h-.51l-.51,9,.51,3.59-.51,5.64h-1v-4.61h-.29l-1,6.15.51,3.33h.48q25.75-33.83,25.75-71l-.26-1.54q0-12-6.61-15.63-4.33-2.31-12.71-2.31h-.25Q250.94,263.14,250.18,269.54Zm-4.37,0v.26h.48l.26-1.79Q245.81,268,245.81,269.54Zm.77,12v1.79h.51v-1.79Zm.51-1.28v.77h.51v-.77Zm.51-1.79v1.28h.51v-1.28Zm.26,76.88v.77l.51-.51h.51l-1,4.36h1.29q6.17-8.71,6.69-8.71l.51.51v.51l-1.29,1.28c0,.68.43,1,1.29,1L253.27,359h.51l4.12-5.89h-.51l-.51.51v-.51l5.4-5.89v-.51l-.51.51h-.26l-.51-1.28,2.31-5.38v-1h-.51q0,2.56-3.09,4.87l-.51-.26h-.51l.51-.51v-1.28l-.51.51h-.77v-.51l1.29-3.59h-.51q-1.29.52-4.37,7.69Zm18.77-9-.77,2.31q.51,0,1.29-2.31Zm4.89-22.3L270,327.46v.26h.51l1.29-3.08v-.51Zm5.14-33.06q-2.83,5.64-2.83,7.18l-2.57,14.1h.51q2.05,0,3.6-9.48h.51l-.51-3.59q1.79-2.56,1.8-7.69v-.51Zm-1.8,26.65-.51,1.54v.26h.51l.51-1.28v-.51Zm1.29-9.48v1.54h.51v-1.54Zm.51-45.62v.51l2.31,2.31v-.51q-.77,0-1.54-1.79l-.26-.51Zm.51,42v1h.26v-1Zm2.31-8.2-1.29,4.61v2.31h.51l1.8-4.61v-1.28Zm.26-2.56v1.28h.51v-1.28Zm.51-14.86v.77h.51V279Zm1.8,7.69V288h1v-1.28Zm0,4.36v1.28h.51a7.3,7.3,0,0,1,1.29-3.84h-.51C282.5,288.85,282.07,289.7,282.07,291.07Zm1.29.51a5.84,5.84,0,0,1-1.29,3.33l.51,1.28h.51l.77-1v-3.59ZM283.1,297v2.31l.51-1.79V297Zm0,3.33v1.54h.26V300.3Zm2.31-4.61V298h.51v-2.31Zm.51-20.5V279h.51v-3.84ZM289,298.25l.51,1.54q-.26,3.59-1.29,3.59h-.77v-.51Q288.5,298.25,289,298.25Zm0-10.76h1V289l.51,1.79q-.52,4.1-1.54,4.1h-.26l.26-3.33-.26-.51v-.26L289,289Z"/><path class="cls-1" d="M13.88,287.05a47.83,47.83,0,0,1,2.89,10.35c.23,1.4,4.84,1.91,4.91.32a17,17,0,0,0-.45-5.78,24.71,24.71,0,0,1-1.36-6.22L15,285.4a37.72,37.72,0,0,1,2,7.81c.21,1.42,4.91,1.88,4.91.32v-4.16l-5-.66c0,1.9,0,3.8-.11,5.7s4.85,2.32,5,.66c.12-1.9.16-3.79.11-5.7s-5-2.28-5-.66v4.16l4.91.32a37.72,37.72,0,0,0-2-7.81c-.46-1.23-5-2-4.91-.32a19.46,19.46,0,0,0,1,5.62,15.87,15.87,0,0,1,.85,6.38l4.91.32A47.83,47.83,0,0,0,18.75,287c-.62-1.54-5.54-1.65-4.87,0Z"/><path class="cls-1" d="M6.88,306.66c-.1,3.67,1.6,7.54,2.61,11,.8,2.76,5.54,1.33,4.79-1.23l-1.39-4.79c-.47-1.6-1.26-3.43-1.21-5.12.09-3-4.73-2.55-4.81.11Z"/><path class="cls-1" d="M7.71,307.19a12,12,0,0,0,1.46,5.74c.63,1.17,4.91-1.4,4.2-2.71A10.63,10.63,0,0,1,12.05,305c0-1.35-4.34.69-4.34,2.17Z"/><path class="cls-1" d="M10.83,314.67a15.58,15.58,0,0,0,.56,6.35c.45,1.5,4.59,2.37,4.91.43l.08-.48c.32-1.95-4.61-2.77-4.93-.82l-.08.48,4.91.43a13.43,13.43,0,0,1-.51-5.56c.23-2-4.71-2.76-4.93-.82Z"/><path class="cls-1" d="M10.94,318.73v2c0,2.68,4.94,3.23,4.94.34v-2c0-2.68-4.94-3.23-4.94-.34Z"/><path class="cls-1" d="M10.36,319.68A12.85,12.85,0,0,0,11.46,323c.36.73,2.2-.28,2.59-.52s2.09-1.26,1.71-2a12.85,12.85,0,0,1-1.11-3.29c-.15-.79-4.6,1-4.31,2.54Z"/><path class="cls-1" d="M10.51,285a22.62,22.62,0,0,0,4.57,15.1c1.92,2.53,6.27,0,4.32-2.52A18.34,18.34,0,0,1,15.51,285c.19-3.21-4.81-3.2-5,0Z"/><path class="cls-1" d="M12.46,285a45.74,45.74,0,0,0,4.27,16.63c1.36,2.91,5.67.38,4.32-2.52A39,39,0,0,1,17.46,285c-.2-3.2-5.2-3.22-5,0Z"/><path class="cls-1" d="M13.42,285.24A125.47,125.47,0,0,1,19,303.55c.7,3.14,5.52,1.81,4.82-1.33a125.47,125.47,0,0,0-5.55-18.31c-1.15-3-6-1.68-4.82,1.33Z"/><path class="cls-2" d="M174.84,143.64l0,0h-.08ZM97.69,48.46c-1.55.84-3.38.56-5.2.23a33.67,33.67,0,0,1-9.59-3.13c-1.1-.57-2.29-1.24-2.53-2.68a8.66,8.66,0,0,1-.06-.9l.34,0s0-.09,0-.13a2.59,2.59,0,0,1,.85,0c1.87.63,3.69,1.46,5.61,1.93,3.46.85,7,1.48,10.45,2.23.78.17,1.87,0,1.76,1.29A4.41,4.41,0,0,1,97.69,48.46Zm11.91.8h0l0,0Zm10.34,84.66A22.7,22.7,0,0,1,118,128c-.15-.82,1.3-1.36,1.45-.54a21.44,21.44,0,0,0,1.81,5.58C121.65,133.86,120.26,134.57,119.94,133.92Zm4.59.31a25.72,25.72,0,0,1-2.79-8.31c-.13-.82,1.32-1.34,1.45-.54a24.75,24.75,0,0,0,2.68,8C126.26,134.12,124.87,134.85,124.53,134.23Zm3.59-2.9a20.2,20.2,0,0,1-2.34-4.5c-.34-.89,1.06-1.59,1.33-.86a20.2,20.2,0,0,0,2.34,4.5C129.92,131.14,128.54,131.94,128.11,131.33Zm-4.84-9.39a25.29,25.29,0,0,0,4.5-3,2.12,2.12,0,0,1,.69-.43c-.12.08-.24.18-.36.27A24.73,24.73,0,0,1,123.27,121.94ZM184.4,55.23a2.43,2.43,0,0,1,.53-.24,47.23,47.23,0,0,0,5.53-1.93A57.15,57.15,0,0,0,196,50c4-2.45,7.86-5,11.82-7.43a1.53,1.53,0,0,1,.23-.1l.1-.06a6.8,6.8,0,0,1,2-.44c-1,4.21-3.94,6.47-7.08,8.51-2.15,1.39-4.4,2.65-6.61,4-.85.5-1.73,1-2.61,1.38a41.75,41.75,0,0,1-8.13,2.91,1.88,1.88,0,0,1-2.38-1.42A1.63,1.63,0,0,1,184.4,55.23ZM127,77.52c2.25-.36,3.06-.1,3.12,1.1a.8.8,0,0,1-.34.5v0a1.46,1.46,0,0,1-.94,1.06c-1.43.23-2.21-.73-2.18-2.49l.34-.06C127,77.62,127,77.57,127,77.52Zm5.77-1.27a1.72,1.72,0,0,1-2.18-1.92c2.25-.36,3.06-.1,3.12,1.1C133.72,75.72,133.15,76.21,132.77,76.26Zm65.3-50.2c-.7.23-1.39.5-2.11.69-2.44.63-4.9,1.19-7.32,1.88-1.26.36-2.45,1-3.7,1.37-1.49.49-3,.82-4.52,1.37-.25.09-.48.2-.72.31-.76.38-1.5.82-2.27,1.18l-.16.07-.18.09c-1.5.7-3,1.42-4.54,2a5.72,5.72,0,0,0-.58.26c-.76.42-1.45.94-2.23,1.31l-.17.07-.17.09a20.94,20.94,0,0,1-2.36.79,3.93,3.93,0,0,1,2.16-2.6,4.17,4.17,0,0,1,.48-.23c2.88-1.15,5.64-2.58,8.51-3.74s6.07-2.39,9.19-3.3,6.61-1.56,9.92-2.29a3.46,3.46,0,0,1,1.06.1l0,.43-.34.12ZM167.32,49.45l-.65,2.49-2-2,.11-.06-.11-.11.17-.09c-.89.08-1.83.15-2.76.29-.19,0-.45.43-.46.67s0,.35,0,.49c0,1-.13,1.07-1.37,1.1a4.43,4.43,0,0,1,.1,1c0,.95-.41,1.42-1.73,1.84s-2.68,1.4-4.36,1.21c-.69-.08-1.48.66-2.42,1.13-.81-.54-1.82-1.17-2.77-1.86-.07,0-.08-.25-.07-.44s0-.45.07-.47c.42-.13.55-.32.56-.61a2.88,2.88,0,0,0,0-.31,1.45,1.45,0,0,1,0-.5.87.87,0,0,1,.75-.88l0,.18,0,0L150,53.69a3.27,3.27,0,0,0,1.08-1.88,1.59,1.59,0,0,0-.73-1.39l.17,0a1.89,1.89,0,0,0-.17-.15l2-.18c.33-.14,1-.39,1.6-.68,2.52-1.21,5.3-1.15,8-1.68a4.16,4.16,0,0,1,.63-.17c.74,0,1.62-.71,2.13.49.09.21.65.37.93.3,1.07-.27,1.38.56,1.71,1l0,.12ZM197.9,14.14v0h0Zm-2-1.58h0c-.22,0-.48,0-.71,0,.23,0,.48,0,.71,0C195.76,12.29,195.76,12.29,195.89,12.56ZM191,19.65c2.39-.8,4.87-1.35,7.3-2,.67-.19,2.31.78,1.25,1.15-1.23.43-2.58.52-3.85.86s-2.63.8-3.92,1.27c-2.07.75-4.14,1.5-6.19,2.32-2.7,1.08-5.39,2.18-8.05,3.34q-4.46,1.93-8.86,4c-1.19.56-2.32,1.26-3.47,1.91s-2.2.91-3.26-.4a4.75,4.75,0,0,1,.87-.69C167.9,29,173,26.45,178.2,24.25,182.36,22.5,186.67,21.09,191,19.65ZM158.08,8.77a5.93,5.93,0,0,1,3.08-2.66l-.27.75.11,0,.09,0v0h.05L164.26,5a3,3,0,0,1-3.11,1.83l0,0h0L161,8l-.61-.54c-.52.67-1,1.35-1.58,2-.1.12-.4.07-.61.11C158.13,9.3,158,9,158.08,8.77Zm-1.25.72q0,.37,0,.75c0-.25,0-.5,0-.75Zm.25.63-.24.12h0Zm-8.85,15.79a99.12,99.12,0,0,1,25-19c1.39-.74,3,.56,1.23,1.5a94.8,94.8,0,0,0-23.85,18.18C149.81,27.47,147,27.2,148.23,25.92Zm-35,31.76h0l0,.06h0Zm-2.66,13.37a2.17,2.17,0,0,1,.38-.65l1-1a5,5,0,0,1,1.17.81,12.35,12.35,0,0,0,1.21,1.39c.54.47,1.23.77,1.75,1.26,1.21,1.15,1.54,1.28,2.91.25,2.4-1.82,4.68-3.79,7.09-5.6A8.14,8.14,0,0,1,129,66.24c.35-.09,1,.56,1.35,1a1.72,1.72,0,0,1,.35,1.13c-.06,1.11-1.12,1.27-1.82,1.79-2,1.5-3.94,3-5.88,4.59a20.75,20.75,0,0,0-1.56,1.5c-.52.24-1.1.31-1.28.62-.58,1-1.48.65-2.09.4a15.39,15.39,0,0,1-2.64-1.71c-1.07-.73-2.12-1.49-3.2-2.2-.67-.45-1.36-.85-2-1.25L110,72Zm-3.18,4.2.29-.2c.29.23.56.63.88.68,1.26.17,1.53,1.13,1.79,2.08.16.58-.08,1-.51,1.08a.9.9,0,0,1-1,.09c-.73-.29-1.41-.69-2.21-1.1.77-.74-1-1.32-.08-2.13l.77-.53Zm-4.65-2.35a.87.87,0,0,1,.35.35c-.06-.67,0-.93.36-.94.12-.25.49-.19,1.41,0l-.06.15c1.31-.06,1.84.29,1.89,1.24,0,.28-.56.77-.94.82a1.68,1.68,0,0,1-2.09-1.2l-.56-.07h0A.87.87,0,0,0,102.75,72.91ZM104.19,80c-.5.4-2-.07-2.33-.68-.61-1.13-.29-2.12.64-3.29l.11.14.22-.3c.62.77,1.18,1.42,1.7,2.1s.72,1.27,0,1.86a.68.68,0,0,1-.29.12Zm1.06,10.76c-.1-.17-.18-.35-.25-.53a8.23,8.23,0,0,1-.63-3.47v-.06c0-.12,0-.24,0-.35a10,10,0,0,1,.26-1.81s1.09-.45,2.19-.79a6.91,6.91,0,0,1,1.24-.41c.35-.06,1.79-.52,3.88-.85a19.91,19.91,0,0,1,5.75-1l.21.05h0c2.21.55,4.08,1,5.69,1.54.79.25,1.51.51,2.19.79l.47.19.37.18.25.12.39.19,0,.19-.1.42c-.06.23-.13.49-.21.79l-.18.59-.13.41c-.17.52-.39,1.07-.64,1.65a15.33,15.33,0,0,1-2.15,3.64c-2.66,3.24-1-8.79-1-8.79l.74.13c0-.05,0-.1,0-.15a3.31,3.31,0,0,0-1.13-.07c-.19.13-.38.93-.7.4a1.7,1.7,0,0,0-.89-.69s.38.77-.13.69a3.59,3.59,0,0,1-1.35-.55c-.15.25-.58.69-1,.55a1.34,1.34,0,0,1-.79-.69s-.06-.29-.77.32-1-.1-1.47-.32,0,.65-.72.69a1.81,1.81,0,0,1-1.32-.69.51.51,0,0,1-.38.69c-.57.11-1.13-.67-1.47-.53s.23.71-.62.7a1.43,1.43,0,0,1-1.2-.55s.18.3-.69.54a1.34,1.34,0,0,1-.1.17c-1.34,1.84,0,8.56,0,8.56l.3,1A6.15,6.15,0,0,1,105.25,90.72Zm6.38,26.07a4.4,4.4,0,0,0-.52,0l-.13,0a1.81,1.81,0,0,1,.46-.19Zm-1.26,18.66a33.87,33.87,0,0,1-.53-8.52c0-.63,1.49-1,1.44-.28a32.83,32.83,0,0,0,.54,8.25C111.95,135.55,110.5,136.09,110.38,135.45Zm-1.43-13a1.9,1.9,0,0,1-2-1.39,1,1,0,0,1,.59-.9h.11a.45.45,0,0,1,.22-.13,13.22,13.22,0,0,1,1.92.14,34.29,34.29,0,0,0,4.48,0c2-.22,4-.62,6-1a19.39,19.39,0,0,0,3-.89,26,26,0,0,0,4.84-2.53l.36-.22a.67.67,0,0,1,1,.13,1.21,1.21,0,0,1,.18,1.12,7,7,0,0,1-3.62,3c-.37.17-.75.32-1.13.46a36.33,36.33,0,0,1-8.16,1.86c-1.51.21-3,.48-4.15.67C111.07,122.62,110,122.51,108.94,122.45ZM115.82,136c-.32-2.67-2.6-5.38-.82-7.94.31-.45,1.73-.55,1.15.28-1.34,1.93.88,5.13,1.12,7.11C117.35,136.13,115.89,136.6,115.82,136Z"/><path class="cls-2" d="M147.33,206c-.52.83-1,1.64-1.57,2.4a28.86,28.86,0,0,1-1.8,2.34q5.64.2,11.23.61a81.45,81.45,0,0,0-7.42-6.06Z"/><path class="cls-2" d="M125.37,203.33l.2.25.13.16c-.13,1.19-.29,2.39-.5,3.58s-.47,2.22-.77,3.31q3.6-.1,7.22-.11c-1.71-1.76-3.88-4.29-6.27-7.27Z"/><path class="cls-2" d="M96.6,80.44l-.26,0c-5.35.48-10.7.88-16.06,1.24l-.59,0q-5.51.36-11,.64c0,.53.05,1.07.09,1.6q13.87-1.95,27.81-3.38Z"/><path class="cls-2" d="M169.44,252.39c.14.09.26.2.4.29,0-.08,0-.17.07-.26l-.39-.23C169.5,252.26,169.47,252.32,169.44,252.39Z"/><path class="cls-2" d="M84.78,79.22q5.9-.43,11.79-1a2,2,0,0,1,.45,0c.06-.3.13-.61.19-.91a4.55,4.55,0,0,1-1.21.35q-13.75,0-27.48-.58,0,1.53,0,3.07,7-.35,13.89-.83Z"/><path class="cls-2" d="M178.64,158.78c.14.09-.39.43-1,.7L170,171.92h0c0,.05-7.23,10.71-13.63,20.32.08.21.14.42.22.63l.1-.14A71.66,71.66,0,0,1,161,211.79a70.63,70.63,0,0,1,.26,7.72,72.68,72.68,0,0,1-3.57,20.73c.43.35.45.91-.53,1.33-2.81,1.21-5.66,2.35-8.43,3.63-1.88.86-5.47,2-3.8,5.33,1.35,1.56,5.07,1.56,6.67,1.49,2.14-.09,3.68-1.12,5.81-.62a8.15,8.15,0,0,1,1.61.72l1.09.62q3.24,2.18,6.32-3.09c-.75-1.24,1.9-2,2.67-1.21a13.29,13.29,0,0,0,5.61,3.68c.94.31,4.23,1.21,5.11.56,1.37-1,1.1-2.48.24-3.92a27.13,27.13,0,0,0-3.64-4,24.68,24.68,0,0,1-4.05-4.94,15.65,15.65,0,0,1-2.4-6.36,57.33,57.33,0,0,1-.2-13.92,98.73,98.73,0,0,1,3.66-17.86c3.16-10.78,7.92-20.87,12.38-31.14,4.19-9.66,7.3-20.28,3.64-30.38l-1.55,2.53c-2.07,3.45-4.07,6.94-6.2,10.36-1,1.65-2.09,3.27-3.16,4.89l-.32.53Z"/><path class="cls-2" d="M151.31,199.84l-.4.61-1.75,2.67a94.44,94.44,0,0,1,8.38,6.73,71.15,71.15,0,0,0-3.25-14.51Z"/><path class="cls-2" d="M92.22,247.78c4.89,3.16,8.28,0,12.93.56a7.33,7.33,0,0,1,2,.62c4,1.57,2.47,1.54,8.23,0a8.38,8.38,0,0,1,3.46-.52c.49,0,.83.56,1.29.6,9.69,1,6.53-3.17,4.69-6.58-3.6-6.67-7.54-13.6-6.28-21.46.12-.74.28-1.47.45-2.2.78-3.24,2-6.39,2.7-9.65a53.82,53.82,0,0,0,1.13-9.18c-6.69-8.68-14.29-19.71-18-27l-.18-.33c-4.43,12.76-3.11,26.1-2.32,39.4.16,2.75.3,5.51.37,8.25q0,.85,0,1.71c.05,5.38.8,15.23-3.06,19.54a6.64,6.64,0,0,1-3.41,2c-1.17.3-2.47-.08-3.57.19-2.22.56-2.66,1.55-2.12,2.6A7.25,7.25,0,0,0,92.22,247.78Z"/><path class="cls-2" d="M274.57,195.3c.55.57,2.53,2.84,3.06,3.28,1.75,1.42,3.53,2.82,5.41,4.07a19.72,19.72,0,0,0,4.56,2.45c3,1,6.07.54,9-.33a30.4,30.4,0,0,0,5.87-2.13,16.41,16.41,0,0,0,6.37-6.73c2.48-4.39,5.32-8.59,6.37-13.64.47-2.25,1.23-4.45,1.58-6.71.67-4.27,1.16-8.57,1.67-12.86a19.19,19.19,0,0,0-3.07-12.81c-.5-.8-1.12-1.53-1.69-2.29l-.3.16a4.11,4.11,0,0,0,0,.92c.46,2,1,3.89,1.4,5.86a41.57,41.57,0,0,1,1,7.3,35.76,35.76,0,0,1-.93,7.7,26.15,26.15,0,0,1-4.47,10.23c-1.72,2.28-1.63,2.13-5.34,6.69a15.44,15.44,0,0,1-9,5.39c-8.83,1.69-22.08-9.26-23-9.94-1.61-1.15-3.3-2.19-5-3.2-.39-.23-2.17-.85-2.59-1.16l-.21.26c.14.52,5.21,13.11,5.25,13.87A45.75,45.75,0,0,1,274.57,195.3Zm-5.15-9.56,0-.17.17.11Z"/><path class="cls-1" d="M166.41,249.65l2.67-1.21C168.31,247.65,165.65,248.42,166.41,249.65Z"/><path class="cls-1" d="M169.53,252.19a4.33,4.33,0,0,0-.45-3.75l-2.67,1.21A17.86,17.86,0,0,0,169.53,252.19Z"/><path class="cls-1" d="M157.54,209.86a94.44,94.44,0,0,0-8.38-6.73l-1.38,2.15a81.45,81.45,0,0,1,7.42,6.06l2.5.18C157.64,211,157.6,210.41,157.54,209.86Z"/><path class="cls-1" d="M157.7,211.52l1.49.11c-.44-.43-.88-.87-1.33-1.29,0-.07,0-.14,0-.21l-.29-.28C157.6,210.41,157.64,211,157.7,211.52Z"/><path class="cls-1" d="M187.51,197c-1.35-.06-3,1.94-1,2a48.22,48.22,0,0,1,7,.81c.69-.46,1.84-.61,2.28,0,.14.19.25.39.38.59,11.63,2.95,20.76,10.25,28.1,20a81.9,81.9,0,0,1-2.6-7.86A49.56,49.56,0,0,0,187.51,197Z"/><path class="cls-1" d="M233.14,228q.46.73.89,1.47l.12,0C233.81,229,233.47,228.49,233.14,228Z"/><path class="cls-1" d="M231.17,225.19q.46.59.89,1.19c-1.7-2.52-3.43-5-5.15-7.4.11.28.21.56.31.84.34.87-1.76,1.62-2.61,1.1q1.58,2.14,3.05,4.42c.66,1,1.36,2.06,2.07,3.11l.21,0a32.5,32.5,0,0,0-2.14-3.12C225.82,222.83,230,223.73,231.17,225.19Z"/><path class="cls-1" d="M193.52,199.86q1.35.26,2.66.59c-.13-.2-.24-.39-.38-.59C195.36,199.25,194.21,199.4,193.52,199.86Z"/><path class="cls-1" d="M224.32,220.59a.67.67,0,0,0,.29.33l-.33-.45Z"/><path class="cls-1" d="M226.91,219a89.66,89.66,0,0,1-5.42-36.61c.08-1.25-2.84-.71-2.91.33a91.93,91.93,0,0,0,3.11,29.92,54.44,54.44,0,0,1,4.78,5.74Z"/><path class="cls-1" d="M227.22,219.82c-.11-.28-.21-.56-.31-.84l-.44-.61a54.44,54.44,0,0,0-4.78-5.74,81.9,81.9,0,0,0,2.6,7.86l.33.45C225.46,221.43,227.56,220.68,227.22,219.82Z"/><path class="cls-1" d="M154.29,195.34a71.15,71.15,0,0,1,3.25,14.51l.29.28a71.15,71.15,0,0,0-3.22-14.3l2-3c-.08-.21-.14-.42-.22-.63Z"/><path class="cls-1" d="M169.39,248.93a13.29,13.29,0,0,0,5.61,3.68c.94.31,4.23,1.21,5.11.56,1.53-1.13,1-2.82-.07-4.41.86,1.44,1.13,2.91-.24,3.92-.88.65-4.17-.25-5.11-.56a13.29,13.29,0,0,1-5.61-3.68,4.33,4.33,0,0,1,.45,3.75l.39.23A4.33,4.33,0,0,0,169.39,248.93Z"/><path class="cls-1" d="M189.43,140.2c3.66,10.1.56,20.72-3.64,30.38-4.46,10.27-9.22,20.37-12.38,31.14a98.73,98.73,0,0,0-3.66,17.86,57.33,57.33,0,0,0,.2,13.92,15.65,15.65,0,0,0,2.4,6.36,15.62,15.62,0,0,1-2.08-5.87,57.33,57.33,0,0,1-.2-13.92c.24-2.42.61-4.83,1.06-7.22.69-3.63,1.59-7.19,2.6-10.64,3.16-10.78,7.92-20.87,12.38-31.14,4.19-9.66,7.3-20.28,3.64-30.38l1.87-3c-.09-.19-.17-.39-.26-.58Z"/><path class="cls-1" d="M166.41,249.65q-3.08,5.27-6.32,3.09l-1.09-.62a8.15,8.15,0,0,0-1.61-.72c-2.12-.5-3.66.53-5.81.62-1.61.07-5.33.07-6.67-1.49l0,.11c1,1.95,5.21,1.94,6.94,1.87,2.14-.09,3.68-1.12,5.81-.62a8.15,8.15,0,0,1,1.61.72l1.09.62q3.24,2.18,6.32-3.09a17.7,17.7,0,0,0,2.72,2.25c0-.07.06-.13.08-.2A17.86,17.86,0,0,1,166.41,249.65Z"/><path class="cls-1" d="M102.75,170.26a.8.8,0,0,1,.31-.32l-.3-.51a.82.82,0,0,0-.33.34C96.69,183.47,98.14,198,99,212.42l.28-.1C98.42,198.1,97.08,183.77,102.75,170.26Z"/><path class="cls-1" d="M125.25,203.09q-1-1.25-2-2.59l-.44-.57a53.82,53.82,0,0,1-1.13,9.18c-.7,3.26-1.92,6.41-2.7,9.65-.17.73-.34,1.46-.45,2.2-1.26,7.86,2.68,14.79,6.28,21.46,1.84,3.41,5,7.55-4.69,6.58-.45,0-.8-.58-1.29-.6a8.38,8.38,0,0,0-3.46.52c-5.75,1.57-4.2,1.6-8.23,0a7.33,7.33,0,0,0-2-.62c-4.64-.55-8,2.6-12.93-.56a7.25,7.25,0,0,1-1.76-1.52,6,6,0,0,0,2.07,2c4.89,3.16,8.28,0,12.93.56a7.33,7.33,0,0,1,2,.62c4,1.57,2.47,1.54,8.23,0a8.38,8.38,0,0,1,3.46-.52c.49,0,.83.56,1.29.6,9.69,1,6.53-3.17,4.69-6.58-3.6-6.67-7.54-13.6-6.28-21.46.12-.74.28-1.47.45-2.2.69-2.87,1.7-5.66,2.42-8.52.09-.38.2-.75.28-1.13a53.82,53.82,0,0,0,1.13-9.18l.44.57c.62.81,1.24,1.58,1.84,2.34v-.08Z"/><polygon class="cls-1" points="88.55 160.13 88.61 160.11 88.56 160.07 88.55 160.13"/><path class="cls-1" d="M110,78a.88.88,0,0,1-.17.91c.43-.09.67-.5.51-1.08-.26-.94-.54-1.91-1.79-2.08-.32,0-.59-.44-.88-.68l-.29.2c.28.24.54.6.84.64C109.49,76.06,109.77,77,110,78Z"/><path class="cls-1" d="M109.6,49.26l0,0,0,0Z"/><path class="cls-1" d="M102.48,69.3l-1.31,2c-.11.26-.21.54-.31.81l2-2.93-.48-.29-.15.28Z"/><path class="cls-1" d="M160.47,177.46l.21-.33-.24,0Z"/><path class="cls-1" d="M104.53,72.48l.28,0,.06-.15c-.92-.2-1.29-.25-1.41,0a5.31,5.31,0,0,1,1.07.16Z"/><path class="cls-1" d="M98.43,81.85l.24-.35-.1-.1h-.08C98.47,81.56,98.44,81.71,98.43,81.85Z"/><path class="cls-1" d="M202.76,50.61c-2.15,1.39-4.4,2.65-6.61,4-.75.44-1.51.84-2.28,1.22.89-.42,1.76-.88,2.61-1.38,2.21-1.3,4.46-2.56,6.61-4,3.14-2,6.07-4.29,7.08-8.51a6.8,6.8,0,0,0-2,.44l-.1.06a11.63,11.63,0,0,1,1.82-.34C208.83,46.31,205.9,48.57,202.76,50.61Z"/><path class="cls-1" d="M190.14,53.21l.31-.15A47.23,47.23,0,0,1,184.93,55a2.43,2.43,0,0,0-.53.24l.19-.08A46.93,46.93,0,0,0,190.14,53.21Z"/><path class="cls-1" d="M161.91,32.07c1.06,1.31,2.14,1,3.26.4s2.27-1.36,3.47-1.91q4.4-2.05,8.86-4c2.67-1.15,5.36-2.26,8.05-3.34,2-.82,4.12-1.57,6.19-2.32,1.29-.47,2.6-.91,3.92-1.27s2.62-.43,3.85-.86c1.06-.37-.57-1.34-1.25-1.15-2.44.67-4.91,1.22-7.3,2-4.29,1.44-8.6,2.85-12.76,4.6C173,26.45,167.9,29,162.78,31.38A4.75,4.75,0,0,0,161.91,32.07Z"/><path class="cls-1" d="M165.61,48.33c-.28.07-.85-.1-.93-.3-.51-1.19-1.39-.51-2.13-.49a4.16,4.16,0,0,0-.63.17c-2.66.53-5.44.47-8,1.68-.62.3-1.27.54-1.6.68l-2,.18a1.89,1.89,0,0,1,.17.15l1.82-.17c.33-.14,1-.39,1.6-.68,2.52-1.21,5.3-1.15,8-1.68a4.16,4.16,0,0,1,.63-.17c.74,0,1.62-.71,2.13.49.09.21.65.37.93.3,1-.26,1.36.5,1.68.91l0-.12C167,48.89,166.68,48.07,165.61,48.33Z"/><path class="cls-1" d="M161.61,51.15c0-.14,0-.3,0-.49v0C161.6,50.86,161.61,51,161.61,51.15Z"/><path class="cls-1" d="M160.34,53.21a4.43,4.43,0,0,0-.1-1h0A5.43,5.43,0,0,1,160.34,53.21Z"/><path class="cls-1" d="M164.82,49.69l-.17.09.11.11.45-.23Z"/><path class="cls-1" d="M149.62,54c0,.29-.14.48-.56.61,0,0-.08.26-.07.47,0-.15,0-.29.07-.3C149.55,54.63,149.66,54.39,149.62,54Z"/><path class="cls-1" d="M150.26,52.48l0-.18a.87.87,0,0,0-.75.88A.87.87,0,0,1,150.26,52.48Z"/><path class="cls-1" d="M151.1,51.82A3.27,3.27,0,0,1,150,53.69l0,.22A3.12,3.12,0,0,0,151.1,51.82Z"/><path class="cls-1" d="M113.95,120.3c2-.22,4-.62,6-1a19.52,19.52,0,0,0,3.31-1,19.39,19.39,0,0,1-3,.89c-2,.42-4,.82-6,1a34.29,34.29,0,0,1-4.48,0,13.22,13.22,0,0,0-1.92-.14.45.45,0,0,0-.22.13c.58,0,1.2.13,1.81.15A34.28,34.28,0,0,0,113.95,120.3Z"/><path class="cls-1" d="M129.1,115.75a1.21,1.21,0,0,1,.18,1.12,7,7,0,0,1-3.62,3l-.8.33c.38-.14.76-.29,1.13-.46a7,7,0,0,0,3.62-3,1.21,1.21,0,0,0-.18-1.12.67.67,0,0,0-1-.13A.59.59,0,0,1,129.1,115.75Z"/><path class="cls-1" d="M97.56,46c-3.48-.75-7-1.38-10.45-2.23-1.91-.47-3.73-1.29-5.61-1.93a2.59,2.59,0,0,0-.85,0s0,.09,0,.13a1.2,1.2,0,0,1,.51,0c1.87.63,3.69,1.46,5.61,1.93,3.46.85,7,1.48,10.45,2.23.78.17,1.87,0,1.76,1.29a4.5,4.5,0,0,1-1.29,1.05,4.41,4.41,0,0,0,1.62-1.21C99.43,45.91,98.33,46.12,97.56,46Z"/><path class="cls-1" d="M198.37,25.47a3.46,3.46,0,0,0-1.06-.1c-3.32.73-6.67,1.35-9.92,2.29s-6.17,2.09-9.19,3.3-5.64,2.59-8.51,3.74a4.17,4.17,0,0,0-.48.23l.14-.06c2.88-1.15,5.64-2.58,8.51-3.74s6.07-2.39,9.19-3.3,6.61-1.56,9.92-2.29a3.46,3.46,0,0,1,1.06.1l0,.38.34-.12Z"/><path class="cls-1" d="M177.43,32.85c.77-.36,1.51-.8,2.27-1.18-.82.39-1.61.86-2.42,1.25Z"/><path class="cls-1" d="M169.75,36.56c.78-.38,1.47-.89,2.23-1.31-.84.41-1.58,1-2.4,1.38Z"/><path class="cls-1" d="M104.54,77.93c-.52-.69-1.08-1.34-1.7-2.1l-.22.3c.57.7,1.1,1.33,1.59,2s.7,1.24,0,1.82a.68.68,0,0,0,.29-.12C105.26,79.21,105,78.54,104.54,77.93Z"/><path class="cls-1" d="M133,81.74a1.1,1.1,0,0,0,.33-.16h-.17A.62.62,0,0,1,133,81.74Z"/><path class="cls-1" d="M132.56,79.42c0,.1.06.19.09.29l.39,0c-.05-.16-.11-.32-.15-.47-.2-.71-1.47-1.39-1.71-.9A1.79,1.79,0,0,1,132.56,79.42Z"/><path class="cls-1" d="M129.78,79.13a.8.8,0,0,0,.34-.5c-.06-1.2-.87-1.46-3.12-1.1,0,.05,0,.1,0,.15C129,77.32,129.72,77.69,129.78,79.13Z"/><path class="cls-1" d="M111.63,51c-1-.61-2.13-.52-3.16-.83l.82-.75c-1.4-.14-2.81-.35-4.22-.41,1.41.06,2.81.27,4.22.41l0,0h.16l.11-.1h0c-1.84-1.11-3.87-1.06-5.81-1.54a2.57,2.57,0,0,0-.46-.16c-.54,0-1.18-.65-1.56.44a.68.68,0,0,1-.68.28c-.78-.24-1,.51-1.25.87l.47,2.28,1.48-1.83-.41-.26c.73.09,1.52.15,2.3.3.14,0,.34.43.34.64,0,1.37,0,1.4,1,1.43-.25,1.5-.07,2.07,1.17,2.56,1,.41,2,1.28,3.19,1.11a1.23,1.23,0,0,1,.82.34l2-2.86A2.6,2.6,0,0,1,111.63,51Zm-4.13,2.54a3.43,3.43,0,0,1-.76.32c-.09,0-.47-.53-.41-.64a1.2,1.2,0,0,1,.7-.57.81.81,0,0,1,.38-.18c.25,0,.54.28,1.05.59C108.05,53.23,107.76,53.4,107.5,53.51Z"/><path class="cls-1" d="M113.09,54.77a.39.39,0,0,0,0-.21l-.3.43Z"/><path class="cls-1" d="M112.18,52l.13.71.29-.4A.83.83,0,0,0,112.18,52Z"/><path class="cls-1" d="M109.7,49.42l-.17-.1-.11.1Z"/><path class="cls-1" d="M107,52.62h0c.25,0,.54.28,1.05.59l-.64.32c.26-.12.55-.28,1-.49-.51-.3-.8-.61-1.05-.59A.81.81,0,0,0,107,52.62Z"/><path class="cls-1" d="M130.59,74.33a1.72,1.72,0,0,0,2.18,1.92c.38,0,1-.54.94-.82C133.66,74.24,132.84,74,130.59,74.33Z"/><path class="cls-1" d="M104.27,73.19l-.07.19-.53-.06a1.68,1.68,0,0,0,2.09,1.2c.38,0,1-.54.94-.82,0-.95-.57-1.3-1.89-1.24l-.28.75Z"/><path class="cls-1" d="M104.27,73.19l.26,0,.28-.75-.28,0Z"/><path class="cls-1" d="M124.49,143.17c.28,1.6-.28,3.37,0,5a129.9,129.9,0,0,0,21.67,52.3l1.57-2.52a1.22,1.22,0,0,0-.2-.52A130,130,0,0,1,124.49,143.17Z"/><path class="cls-1" d="M133.8,193c-1.92-5.45-3.82-10.92-5.62-16.41-1.71-5.23-3.36-10.5-4.77-15.82-.62-2.34-1.19-4.69-1.66-7.07-.22-1.15-.66-6.47-.81-3.75.31,7.42,2,14.48,4.14,21.74s4.54,14.32,7,21.41c2,5.67,3.58,12,6.37,17.5l1.33,0,.8-1.25a1.19,1.19,0,0,0-.08-.22C137.23,204.31,135.71,198.42,133.8,193Z"/><path class="cls-1" d="M120.92,149.62c0-.75,0-1.56,0-2.3C120.9,148.09,120.9,148.86,120.92,149.62Z"/><path class="cls-1" d="M120.9,147.33c0-.51,0-1,0-1.52C120.89,146.22,120.89,146.75,120.9,147.33Z"/><path class="cls-1" d="M120.91,150.61c0-.27,0-.5,0-.68s0-.2,0-.31C120.92,150,120.92,150.3,120.91,150.61Z"/><path class="cls-1" d="M132.49,202.83c-3.62-8.49-7.51-16.93-10.74-25.58-3.71-9.91-5-19.86-4.76-30.44,0-1.13,0-2.27,0-3.41,0-.23,0-1.78,0-.89-.18,8.82-.4,17.79,1.08,26.52,1.89,11.14,6.84,21.75,11.52,32.14l3,3.8A4,4,0,0,0,132.49,202.83Z"/><path class="cls-1" d="M97.7,82.58l-.32.46-.09-1.5-.91.1-.11.6c-.82,4.77,1.33,7.83,3.36,11.93,3.15,6.38,5.1,13.53,6.85,20.4a.55.55,0,0,0,.38.37c-.8-1.58-1.27-3.66-.32-5.16,0-.56-.07-1.08-.11-1.54-.07-.87-.14-1.88-.21-2.94a99.68,99.68,0,0,0-3.5-9.67c-1.27-3-3.32-5.71-4.14-8.8l-.6.94c-.27-.86-.52-1.69-.73-2.54-.16-.63.05-.93,1-1.36,0-.07,0-.13,0-.2,0-.58.1-1.19.17-1.82l-.71,1Z"/><path class="cls-1" d="M112.31,52.68l-.17.24a4.37,4.37,0,0,0,.28.38Z"/><path class="cls-1" d="M100.86,72.07l-.18.27-.16-.1-.17.26-.38-.24c.23-.79.13-1.71,1.19-2.12l.2-.11c.26-.16.41-.7.61-1.05l.2.12a3,3,0,0,1,.14-.28l0,0c1.9-3.39,4.83-6.22,7.19-9.27,1.16-1.5,2.24-3,3.32-4.59-.62.55-1.25,1.06-1.77,1.49-.34-.21-.65-.48-.94-.7-.92,1.3-1.85,2.59-2.84,3.86-2.56,3.26-5.69,6.28-7.53,10a26.36,26.36,0,0,0-1.26,3.1l2.1,0C100.68,72.54,100.77,72.31,100.86,72.07Z"/><path class="cls-1" d="M97.22,77.37c-.07.3-.13.61-.19.91,1.33.18.89,1.85-.43,2.16l0,.19,2.07-.22A44.69,44.69,0,0,1,99.87,75l-2.05,0q-.22.8-.41,1.61h.51C98.76,76.6,98,77,97.22,77.37Z"/><path class="cls-1" d="M112.71,53.09c-.09.54-.07.82.38,1a1,1,0,0,1,.05.47c.76-1.09,1.53-2.18,2.33-3.25l0-.12,0,.12A46,46,0,0,1,119,47a97.49,97.49,0,0,1,16.68-13.84c1.22-.81-.6-1.38-1.4-.85A101.27,101.27,0,0,0,117.74,46a54.71,54.71,0,0,0-5.14,6.33A1.09,1.09,0,0,1,112.71,53.09Z"/><path class="cls-1" d="M102.16,69.11h0l.15-.28,0,0A3,3,0,0,0,102.16,69.11Z"/><path class="cls-1" d="M100.52,72.24l.16.1.18-.27c.1-.27.2-.55.31-.81Z"/><path class="cls-1" d="M101.36,70l-.2.11.14-.06S101.33,70.06,101.36,70Z"/><path class="cls-1" d="M98.13,81.45l.21.22-.63.91,0,.29.71-1c0-.15,0-.3.06-.44Z"/><path class="cls-1" d="M112.84,55l.3-.43a1,1,0,0,0-.05-.47c-.45-.17-.46-.46-.38-1a1.09,1.09,0,0,0-.11-.81l-.29.4.11.61a4.37,4.37,0,0,1-.28-.38l-2,2.86c.29.21.6.49.94.7C111.59,56,112.22,55.53,112.84,55Z"/><path class="cls-1" d="M266.17,205.11l0,0v0Z"/><path class="cls-1" d="M266,218.39c.1-.38.21-.77.31-1.15a12.93,12.93,0,0,0-.08-2.6c.06-1.88.26-3.76.24-5.64a7.66,7.66,0,0,0-.32-2.76C266,209.35,265.89,213.61,266,218.39Z"/><path class="cls-1" d="M102.2,79.12a2.59,2.59,0,0,1,.41-3L102.5,76c-.93,1.17-1.25,2.16-.64,3.29.33.61,1.83,1.08,2.33.68l0,0A2.31,2.31,0,0,1,102.2,79.12Z"/><path class="cls-1" d="M104.2,78.1c-.48-.64-1-1.26-1.59-2a2.59,2.59,0,0,0-.41,3,2.31,2.31,0,0,0,2,.8C104.9,79.34,104.65,78.69,104.2,78.1Z"/><path class="cls-1" d="M92.83,48.53a33.67,33.67,0,0,1-9.59-3.13c-1.1-.57-2.29-1.24-2.53-2.68a6.2,6.2,0,0,1-.06-.77l-.34,0a8.66,8.66,0,0,0,.06.9c.25,1.44,1.44,2.11,2.53,2.68a33.67,33.67,0,0,0,9.59,3.13c1.81.33,3.64.62,5.2-.23A8.47,8.47,0,0,1,92.83,48.53Z"/><path class="cls-1" d="M97.22,46.12c-3.48-.75-7-1.38-10.45-2.23C84.86,43.42,83,42.6,81.16,42a1.2,1.2,0,0,0-.51,0,6.2,6.2,0,0,0,.06.77c.25,1.44,1.44,2.11,2.53,2.68a33.67,33.67,0,0,0,9.59,3.13,8.47,8.47,0,0,0,4.86-.06A4.5,4.5,0,0,0,99,47.41C99.09,46.07,98,46.29,97.22,46.12Z"/><path class="cls-1" d="M185.73,58.68a41.75,41.75,0,0,0,8.13-2.91,42.13,42.13,0,0,1-7.8,2.74,1.88,1.88,0,0,1-2.38-1.42,1.62,1.62,0,0,1,.72-1.87,1.63,1.63,0,0,0-1.05,2A1.88,1.88,0,0,0,185.73,58.68Z"/><path class="cls-1" d="M196.3,49.81c3.93-2.42,7.79-4.94,11.72-7.37a1.53,1.53,0,0,0-.23.1c-4,2.44-7.86,5-11.82,7.43a57.15,57.15,0,0,1-5.51,3.08h0A54.88,54.88,0,0,0,196.3,49.81Z"/><path class="cls-1" d="M183.69,57.1a1.88,1.88,0,0,0,2.38,1.42,42.13,42.13,0,0,0,7.8-2.74c.77-.38,1.53-.78,2.28-1.22,2.21-1.3,4.46-2.56,6.61-4,3.14-2,6.07-4.29,7.08-8.51a11.63,11.63,0,0,0-1.82.34c-3.93,2.42-7.79,4.94-11.72,7.37A54.88,54.88,0,0,1,190.48,53h0l-.31.15a46.93,46.93,0,0,1-5.55,1.94l-.19.08A1.62,1.62,0,0,0,183.69,57.1Z"/><path class="cls-1" d="M103.61,73.11l-.18,0a1.71,1.71,0,0,1,0-.78c-.41,0-.42.26-.36.94l.56.07C103.64,73.25,103.62,73.18,103.61,73.11Z"/><path class="cls-1" d="M103.44,73.09l.18,0a2.89,2.89,0,0,1,0-.51c.36-.06.66-.09,1-.12h0a5.31,5.31,0,0,0-1.07-.16A1.71,1.71,0,0,0,103.44,73.09Z"/><path class="cls-1" d="M104.27,73.19l-.66-.08c0,.07,0,.14,0,.21l.53.06Z"/><path class="cls-1" d="M104.53,72.48c-.29,0-.59.06-1,.12a2.89,2.89,0,0,0,0,.51l.66.08Z"/><path class="cls-1" d="M169.21,34.92a3.93,3.93,0,0,0-2.16,2.6,20.94,20.94,0,0,0,2.36-.79l.17-.09c-.61.27-1.29.43-2.19.72A4.11,4.11,0,0,1,169.21,34.92Z"/><path class="cls-1" d="M189,28.45c-1.26.36-2.45,1-3.7,1.37-1.49.49-3,.82-4.52,1.37a10.84,10.84,0,0,0-1.06.48c.24-.11.48-.22.72-.31,1.47-.55,3-.88,4.52-1.37,1.25-.41,2.44-1,3.7-1.37,2.42-.68,4.88-1.24,7.32-1.88.71-.19,1.41-.45,2.11-.69v0c-.59.2-1.17.41-1.77.57C193.86,27.21,191.4,27.77,189,28.45Z"/><path class="cls-1" d="M172,35.25a5.72,5.72,0,0,1,.58-.26c1.55-.56,3-1.28,4.54-2l.18-.09c-1.44.67-2.89,1.36-4.38,1.9A6.36,6.36,0,0,0,172,35.25Z"/><path class="cls-1" d="M197,25.52c-3.32.73-6.67,1.35-9.92,2.29s-6.17,2.09-9.19,3.3-5.64,2.59-8.51,3.74l-.14.06a4.11,4.11,0,0,0-1.82,2.43c.9-.3,1.58-.46,2.19-.72.82-.42,1.56-1,2.4-1.38a6.36,6.36,0,0,1,.92-.42c1.5-.54,2.94-1.23,4.38-1.9.82-.4,1.61-.87,2.42-1.25a10.84,10.84,0,0,1,1.06-.48c1.47-.55,3-.88,4.52-1.37,1.25-.41,2.44-1,3.7-1.37,2.42-.68,4.88-1.24,7.32-1.88.6-.16,1.18-.37,1.77-.57l0-.38A3.46,3.46,0,0,0,197,25.52Z"/><path class="cls-1" d="M106.67,77.87c.8.4,1.49.8,2.21,1.1a.9.9,0,0,0,1-.09,1.11,1.11,0,0,1-.64-.07c-.73-.29-1.41-.69-2.21-1.1.77-.74-1-1.32-.08-2.13l.47-.32,0,0-.77.53C105.68,76.55,107.44,77.14,106.67,77.87Z"/><path class="cls-1" d="M107,77.71c.8.4,1.49.8,2.21,1.1a1.11,1.11,0,0,0,.64.07A.88.88,0,0,0,110,78c-.26-.94-.54-1.91-1.79-2.08-.3,0-.56-.4-.84-.64l-.47.32C106,76.39,107.77,77,107,77.71Z"/><path class="cls-1" d="M112.55,51.94l.23-.31a2.75,2.75,0,0,0-1.06-1,1.61,1.61,0,0,0-.09.3A2.83,2.83,0,0,1,112.55,51.94Z"/><path class="cls-1" d="M109.3,49.39c-1.41-.14-2.81-.35-4.22-.41,1.41.06,2.81.27,4.22.41l-.82.75c1,.31,2.2.22,3.16.83a1.61,1.61,0,0,1,.09-.3,17.07,17.07,0,0,0-2.91-.7l.61-.55h-.16Z"/><path class="cls-1" d="M162.06,49.82c-.19,0-.47.46-.46.7v.14c0-.24.27-.65.46-.67.93-.14,1.87-.21,2.76-.29l.38-.2C164.2,49.59,163.12,49.66,162.06,49.82Z"/><path class="cls-1" d="M160.21,52.09c0,.06,0,.11,0,.16,1.24,0,1.4-.07,1.37-1.1C161.62,52,161.41,52.06,160.21,52.09Z"/><path class="cls-1" d="M158.61,54.88c-1.42.45-2.68,1.4-4.36,1.21-.69-.08-1.48.66-2.42,1.13-.81-.54-1.82-1.17-2.77-1.86,0,0-.06-.15-.07-.28,0,.18,0,.39.07.44,1,.7,2,1.33,2.77,1.86.94-.47,1.73-1.21,2.42-1.13,1.68.19,2.94-.76,4.36-1.21s1.76-.89,1.73-1.84C160.31,54,159.85,54.49,158.61,54.88Z"/><path class="cls-1" d="M150,53.69l.28-1.23,0,0L150,53.75Z"/><path class="cls-1" d="M149.56,53.19a1.45,1.45,0,0,0,0,.5,2.88,2.88,0,0,1,0,.31,2,2,0,0,0,0-.48A1.52,1.52,0,0,1,149.56,53.19Z"/><path class="cls-1" d="M150.37,50.43a1.59,1.59,0,0,1,.73,1.39,1.57,1.57,0,0,0-.56-1.4Z"/><path class="cls-1" d="M164.75,49.89l-.11.06,2,2,.65-2.49,0,0-.62,2.37Z"/><path class="cls-1" d="M165.61,48.5c-.28.07-.85-.1-.93-.3-.51-1.19-1.39-.51-2.13-.49a4.16,4.16,0,0,0-.63.17c-2.66.53-5.44.47-8,1.68-.62.3-1.27.54-1.6.68l-1.82.17a1.57,1.57,0,0,1,.56,1.4A3.12,3.12,0,0,1,150,53.91l0-.22,0,.05.29-1.27a.87.87,0,0,0-.71.7,1.52,1.52,0,0,0,0,.34,2,2,0,0,1,0,.48c0,.39-.07.62-.56.78,0,0-.06.15-.07.3s0,.24.07.28c1,.7,2,1.33,2.77,1.86.94-.47,1.73-1.21,2.42-1.13,1.68.19,2.94-.76,4.36-1.21,1.24-.4,1.71-.83,1.73-1.68a5.43,5.43,0,0,0-.13-1h0c0-.06,0-.1,0-.16,1.2,0,1.4-.07,1.4-.94,0-.14,0-.29,0-.46v-.16c0-.24.27-.67.46-.7,1.07-.16,2.15-.23,3.14-.33l-.38.2.38,0-.45.23,1.91,1.89.62-2.37C167,49,166.65,48.24,165.61,48.5Z"/><path class="cls-1" d="M128.84,80.22a1.46,1.46,0,0,0,.94-1.06v0a1.31,1.31,0,0,1-.6.31A1.7,1.7,0,0,1,127,77.67l-.34.06C126.63,79.49,127.41,80.46,128.84,80.22Z"/><path class="cls-1" d="M129.18,79.44a1.31,1.31,0,0,0,.6-.31c-.06-1.45-.81-1.81-2.77-1.46A1.7,1.7,0,0,0,129.18,79.44Z"/><path class="cls-1" d="M124.87,120.23A37.81,37.81,0,0,1,117,122c-1.51.21-3,.48-4.15.67-1.48-.13-2.55-.24-3.62-.3a1.9,1.9,0,0,1-2-1.39,1,1,0,0,1,.36-.77h-.11a1,1,0,0,0-.59.9,1.9,1.9,0,0,0,2,1.39c1.07.06,2.13.17,3.62.3,1.14-.18,2.64-.45,4.15-.67A36.33,36.33,0,0,0,124.87,120.23Z"/><path class="cls-1" d="M128.47,118.56a2.12,2.12,0,0,0-.69.43,25.29,25.29,0,0,1-4.5,3,24.73,24.73,0,0,0,4.84-3.11C128.23,118.74,128.35,118.64,128.47,118.56Z"/><path class="cls-1" d="M109.28,122.32c1.07.06,2.13.17,3.62.3,1.14-.18,2.64-.45,4.15-.67a37.81,37.81,0,0,0,7.82-1.73l.8-.33a7,7,0,0,0,3.62-3,1.21,1.21,0,0,0-.18-1.12.59.59,0,0,0-.63-.26l-.36.22a26,26,0,0,1-4.84,2.53,19.52,19.52,0,0,1-3.31,1c-2,.42-4,.82-6,1a34.28,34.28,0,0,1-4.48,0c-.61,0-1.23-.19-1.81-.15a1,1,0,0,0-.36.77A1.9,1.9,0,0,0,109.28,122.32Z"/><path class="cls-1" d="M131.71,81.5l-.58,0c.26.22.52.4.68.55a2.07,2.07,0,0,0,1.16-.27,3.14,3.14,0,0,1-.83.11C132,81.75,131.88,81.63,131.71,81.5Z"/><path class="cls-1" d="M131.18,78.35h0a.32.32,0,0,0-.34.16,4.19,4.19,0,0,0-.43,1.58,2.74,2.74,0,0,1,.34-.2A4.25,4.25,0,0,1,131.18,78.35Z"/><path class="cls-1" d="M131.71,81.5c.17.13.33.25.43.35a3.14,3.14,0,0,0,.83-.11.62.62,0,0,0,.16-.17Z"/><path class="cls-1" d="M130.76,79.9a2,2,0,0,1,1-.24l.92.05c0-.1-.07-.19-.09-.29a1.79,1.79,0,0,0-1.37-1.07h0A4.25,4.25,0,0,0,130.76,79.9Z"/><path class="cls-1" d="M177.61,159.48l-.08,0c-.81,1.24-1.61,2.48-2.39,3.73-1.77,2.86-3.45,5.78-5.16,8.68h0Z"/><path class="cls-1" d="M178.53,158l-.34.52h0Z"/><path class="cls-1" d="M189.43,140.19l-1.23,2-.32.53,1.55-2.53Z"/><path class="cls-1" d="M194.86,131.35q-1.75,2.86-3.51,5.7h0Z"/><path class="cls-1" d="M191.36,137.07h0l-1.92,3.14h0Z"/><path class="cls-1" d="M113.24,57.68h0l0,.07h0Z"/><path class="cls-1" d="M174.84,143.64l-.06,0h.08Z"/><path class="cls-1" d="M103.1,73.25h0a.87.87,0,0,0-.35-.35A.87.87,0,0,1,103.1,73.25Z"/><path class="cls-1" d="M104.55,172.62l.18.33c3.76,7.28,11.35,18.31,18,27,0-.3,0-.6,0-.9-3.44-5.31-6.8-10.57-10.24-15.76-2.65-4-5.35-8-8-11.94l-.24.68.3.54Z"/><path class="cls-1" d="M100.93,166l-.17.13,0,.29q.95,1.3,2,3a2.07,2.07,0,0,1,.34-.18Z"/><path class="cls-1" d="M103.08,169.92c.39.64.79,1.35,1.19,2.09l.24-.68-1.41-2.08a2.07,2.07,0,0,0-.34.18l.3.51Z"/><path class="cls-1" d="M123.21,200.51l.52,0-.94-1.45c0,.3,0,.6,0,.9Z"/><path class="cls-1" d="M130.32,208.4c-1.65-1.72-3.21-3.52-4.92-5.42,0,.09,0,.18,0,.27,2.39,3,4.57,5.51,6.27,7.27h.79C131.73,209.82,131,209.12,130.32,208.4Z"/><path class="cls-1" d="M125.25,203.09l.13.16c0-.09,0-.18,0-.27l-.2-.22C125.22,202.87,125.24,203,125.25,203.09Z"/><path class="cls-1" d="M151.34,199.56c-.16.3-.3.6-.43.9l.4-.61Z"/><path class="cls-1" d="M147.1,204.77l-1.81,3.36.46.26c.53-.76,1.05-1.57,1.57-2.4l.17-.92Z"/><path class="cls-1" d="M147.56,204.76l-.39-.11-.07.12.4.3Z"/><path class="cls-1" d="M187.88,142.73,178.53,158c1.07-1.62,2.13-3.24,3.16-4.89C183.81,149.67,185.81,146.18,187.88,142.73Z"/><path class="cls-1" d="M98.21,173.56l0,0,0,0Z"/><path class="cls-1" d="M266,234a3.37,3.37,0,0,1,1.42.5,98.37,98.37,0,0,1-1.48-16.1C265.64,219.67,265.74,227.8,266,234Z"/><path class="cls-1" d="M97.26,85.23c.21.84.46,1.68.73,2.54l.6-.94a10,10,0,0,1-.34-3C97.31,84.3,97.1,84.6,97.26,85.23Z"/><path class="cls-1" d="M101.89,69.66l-.09.17c-.22.45-.43.93-.63,1.43l1.31-2-.3-.18-.15.28A2.34,2.34,0,0,1,101.89,69.66Z"/><path class="cls-1" d="M101.15,70.15c-1.06.4-1,1.33-1.19,2.12l.38.24.17-.26-.22-.14C100.5,71.41,100.44,70.61,101.15,70.15Z"/><path class="cls-1" d="M101.89,69.66a2.34,2.34,0,0,0,.14-.26l.13-.29L102,69c-.2.35-.35.89-.61,1.05a1.93,1.93,0,0,1,.27-.11A.55.55,0,0,0,101.89,69.66Z"/><path class="cls-1" d="M102.18,69.12h0l-.13.29Z"/><path class="cls-1" d="M101.8,69.84l.09-.17a.55.55,0,0,1-.27.27,1.93,1.93,0,0,0-.27.11s0,0-.07.05l-.14.06c-.71.46-.65,1.26-.85,2l.22.14.65-1C101.38,70.77,101.59,70.29,101.8,69.84Z"/><path class="cls-1" d="M97.7,82.58l-.06-1.08-.34,0,.09,1.5Z"/><path class="cls-1" d="M97.7,82.58l.63-.91-.21-.22-.49.05Z"/><path class="cls-1" d="M141.51,18.3c-.37-1,.51-2.47,2.08-3.43l0-.06c-1.94,1-3,2.8-2.36,3.9Z"/><path class="cls-1" d="M141.51,18.3l2.08-3.43C142,15.83,141.14,17.28,141.51,18.3Z"/><path class="cls-1" d="M110.58,71.06l.38-.65A2.17,2.17,0,0,0,110.58,71.06Z"/><path class="cls-1" d="M106.68,53a1.37,1.37,0,0,1,.36-.41,1.2,1.2,0,0,0-.7.57c-.06.12.32.66.41.64a3.43,3.43,0,0,0,.76-.32,2.35,2.35,0,0,1-.42.15C107,53.69,106.61,53.14,106.68,53Z"/><path class="cls-1" d="M107.09,52.6h0a1.37,1.37,0,0,0-.36.41c-.06.12.32.66.41.64a2.35,2.35,0,0,0,.42-.15l.64-.32C107.63,52.89,107.34,52.58,107.09,52.6Z"/><path class="cls-1" d="M269.41,185.74l.19-.06-.17-.11Z"/><path class="cls-1" d="M311.51,145.86a6.17,6.17,0,0,1-.65-1c-1.82-4-4.7-7.24-7.57-10.48a32.15,32.15,0,0,1-6.44-10.74,24.61,24.61,0,0,1-1.54-7.29l-.34-1a23.19,23.19,0,0,0,1.55,8.4A32.15,32.15,0,0,0,303,134.58c2.87,3.25,5.76,6.48,7.57,10.48a7,7,0,0,0,.68,1l.32-.12Z"/><path class="cls-1" d="M188.6,39.25l1.74,2.82a6.31,6.31,0,0,0-.08-.84l-1.12-1.81A1.94,1.94,0,0,0,188.6,39.25Z"/><path class="cls-1" d="M189.14,39.42l1.12,1.81A2.19,2.19,0,0,0,189.14,39.42Z"/><path class="cls-1" d="M112.19,73.36c1.08.72,2.13,1.47,3.2,2.2A15.39,15.39,0,0,0,118,77.27c.61.25,1.51.59,2.09-.4.18-.31.76-.38,1.28-.62a20.75,20.75,0,0,1,1.56-1.5c1.94-1.56,3.89-3.1,5.88-4.59.7-.53,1.76-.69,1.82-1.79a1.72,1.72,0,0,0-.35-1.13c-.37-.42-1-1.08-1.35-1a8.14,8.14,0,0,0-2.86,1.31c-2.41,1.81-4.69,3.78-7.09,5.6-1.37,1-1.69.9-2.91-.25-.52-.49-1.21-.79-1.75-1.26a12.35,12.35,0,0,1-1.21-1.39,5,5,0,0,0-1.17-.81l-1,1-.38.65c-.12.28-.25.63-.4,1.05C110.83,72.51,111.52,72.91,112.19,73.36Z"/><path class="cls-1" d="M110.58,71.06,110,72l.16.09C110.32,71.69,110.45,71.33,110.58,71.06Z"/><path class="cls-1" d="M147.33,206l.45-.71-.28-.21Z"/><path class="cls-1" d="M132.49,207.81c-.94-2.21-1.93-4.42-2.93-6.65l-3.86-5a60.81,60.81,0,0,1-.3,6.77c1.7,1.89,3.27,3.7,4.92,5.42.69.72,1.41,1.42,2.13,2.12h.41c1.4,0,2.79,0,4.19,0-1.15-1.4-2.75-3.4-4.49-5.6A5.55,5.55,0,0,0,132.49,207.81Z"/><path class="cls-1" d="M145.3,208.13l1.81-3.36-.41-.31c-1.2-.88,1.45-2.09,2.28-1.48l.19.14,1.75-2.67c.13-.3.27-.6.43-.9l0,.28,3-4.5q-.48-1.44-1-2.86c-.46-1.2,2.42-2,2.9-.77.07.18.13.36.19.54,6.4-9.61,13.59-20.27,13.63-20.32,1.71-2.9,3.39-5.81,5.16-8.68.78-1.26,1.58-2.5,2.39-3.73-.61.25-1.31.41-1.63.22-.88-.54-1.73-1.11-2.6-1.67q-.92,1.43-1.86,2.85c-.47.71-7.23,11.13-7.35,10.76-.11.15-1.43,2.26-3.41,5.45l.46,0,.89-.89h0c0-.09,0-.21,0-.32,0,.1,0,.23,0,.32h0l-.89.89.16,0c0,.22.16.48.08.65a16.17,16.17,0,0,1-1.13,2c-.1.15-.49.1-.75.14l1-1.79c0-.23,0-.47-.06-.73-3.31,5.32-8.34,13.41-12.74,20.48.22,1.3-.88,3.53-.2,4.46-.47-.64-.92-1.29-1.37-1.94-2.23,3.57-4.21,6.73-5.58,8.89a2.65,2.65,0,0,1,.08,1.28l3.3.11a28.86,28.86,0,0,0,1.8-2.34Zm17.07-32h0Z"/><path class="cls-1" d="M68.55,75.52a42.3,42.3,0,0,1,1.7-8.69A89.05,89.05,0,0,1,73,58.09c1.67-4.48,3.47-8.92,5.31-13.33a39.26,39.26,0,0,1,6.38-10.88c.44-.51.94-1,1.42-1.44a30.7,30.7,0,0,0,2.83,3.48,32.67,32.67,0,0,0,12.8,7.56,5.38,5.38,0,0,0,2,.4,5.53,5.53,0,0,0,2.79-.78c.55-.44.55-1.55.78-2.3-2.15-.31-4.05-.44-5.87-.88C97.87,39.05,95,36.92,92,35a40.5,40.5,0,0,1-3.6-2.92,12.46,12.46,0,0,0-1.16-.74c2.51-3.67,8.16-7.74,13.24-10.84-1.57-.9-2.92-2.69-.07-1.5.5.21,1,.43,1.48.65,2.36-1.39,4.52-2.54,6.06-3.27A67.9,67.9,0,0,1,123,11.71c0,.12,1.35,2.89,3.06,3.34A44.71,44.71,0,0,1,131,17.18c1.84.74,3.74,1.34,5.61,2a3.64,3.64,0,0,1,1,.51c1.24,1,1.83,2.55,3.35,4,1.26-.26,8.49-8.69,8.74-9a34.69,34.69,0,0,1,2.73-3h0A22,22,0,0,1,155,9.05S161.5,5,167.62,4a11.43,11.43,0,0,1,1.21-.23c3.89-.46,7.78-.74,11.62.38,2.17.63,4.34,1.23,6.5,1.87,9.95,4.08,14.88,10.75,17.45,13.81A55.14,55.14,0,0,1,209,27c.25.42.84,1.19-.33,1.41l1.14,3.31C208,33.26,206.11,35,204,36.44c-3,2-6.09,3.79-9.16,5.64a11.34,11.34,0,0,1-2.4,1.22c-1.09.34-.53,1.43-1.17,2.22-.26-1.83-.42-3.44-.72-5a3.1,3.1,0,0,0-4.08-2.08c-1.41.62-2.92,1-4.26,1.76a6.4,6.4,0,0,0-1.81,2c-1.41,2-2.75,4-4.15,6a4.69,4.69,0,0,1-.9.76l-.2,3.56.54.11.6-1.46c2.36.76,3-1.38,4.11-2.76,1.4-1.77,2.63-3.68,4.09-5.39A9.85,9.85,0,0,1,187,41.39c.35.86.75,1.7,1,2.58a3.77,3.77,0,0,1-.7,3.88c-.18.2-.24.8-.1.92a1.83,1.83,0,0,0,1.23.55,3.33,3.33,0,0,0,2.91-2.53c.08-.3.19-.6.37-1.13,1.05,2.15,2.5,1.08,3.67.51a49.31,49.31,0,0,0,10.12-6.64c1.68-1.42,3.44-2.74,5.17-4.1a6.57,6.57,0,0,1,.86-.49l.63,2.3h-.1c.16.42.34.83.48,1.25,0,.14,0,.34,0,.45,1.71,2.63,1.62,5.68,2,8.6.47,4.08.67,8.2,1.09,12.29.74,7-.43,13.8-2.27,20.55a130.35,130.35,0,0,1-6.73,19.14c-1.26,2.81-2.64,5.57-4.06,8.31q-1.52,2.93-3.06,5.84c.95.12,1.89.25,2.84.36,2,.22.45,2.29-1,2.13-1-.11-2-.25-3-.37q-1.32,2.47-2.65,4.94l3.49.58c.75.12-1.72,1.21-2.39,1.1l-1.86-.31c-1.08,1.92-2.26,3.78-3.35,5.69-.42.75-.67,1.59-1.06,2.36s-.75,1.2-1.11,1.81c-1.43,2.43-2.81,4.9-4.3,7.29-.85,1.37-2,2.58-2.83,3.93-.66,1-1,2.2-1.71,3.21-1.17,1.8-2.48,3.51-3.66,5.31-.42.64-.54,1.46-.95,2.11s-1,1.55-1.46,2.32c1.21.8,2.43,1.58,3.66,2.36l.34-.52,9.35-15.25.32-.53,1.23-2a26.55,26.55,0,0,0-1.09-2.61c-.51-1,2.34-1.92,2.9-.77l.11.24q1.76-2.85,3.51-5.7c.82-1.34,1.61-2.7,2.42-4.05a40.37,40.37,0,0,0,2.47-4.15c.54-1.21,1.69-2,1.88-3.48.11-.84,1-1.56,1.45-2.37,1.52-2.63,3.38-5.08,4.18-8.08.05-.19.36-.3.47-.49.22-.39.38-.82.57-1.23a2.6,2.6,0,0,1,.21-.3l.18,1.28.53-2.07a2.7,2.7,0,0,1,.6,1.29,41.19,41.19,0,0,0,3.8,11c1,1.9,1.88,3.86,2.91,5.73,1.86,3.37,3.59,6.84,5.74,10a106.3,106.3,0,0,1,7,12.53c1.28,2.59,2.5,5.22,3.89,7.75,1.16,2.12,2.53,4.13,3.81,6.18a61.71,61.71,0,0,0,3.49,5.46c2.19,2.8,15.86,15,17.22,15.86.84.54,1.78.93,2.67,1.39l.06-.15c-2.51-2.06-17.38-16.76-18.77-18.58-.21-.27-.77-1.2-.9-1.37-4.34-5.72-7.26-12.24-10.69-18.73a8.21,8.21,0,0,1,1.07.7c1.08,1,2.14,2,3.18,3.06,1.83,1.83,3.68,3.63,5.43,5.53,1.06,1.14,5.23,4.66,5.94,5.43,1.48,1.62,3,3.19,4.43,4.85a62.34,62.34,0,0,1,5.81,7.09,126.56,126.56,0,0,1,6.22,11.49,31.85,31.85,0,0,1,3.24,9.22c.27,1.76.33,3.56.47,5.34s.28,3.35.31,5c0,.65,0,1.54,0,2.6l0,0,0,0c0,.35,0,.73,0,1.12a7.66,7.66,0,0,1,.32,2.76c0,1.88-.19,3.76-.24,5.64a12.93,12.93,0,0,1,.08,2.6c-.1.38-.21.77-.31,1.15a98.37,98.37,0,0,0,1.48,16.1,3.94,3.94,0,0,1,2,2.22c.28-2.49.54-5,.56-5.26.09,0,.2-5.47.35-5.67.53-.67.37-27.88.42-28.13l.66-.59c1.84,1.85,3.48,3.92,5.81,5.31a61.52,61.52,0,0,1,5.31,3.64c3.42,2.56,7.36,3.1,11.41,2.81a30,30,0,0,0,10.6-3c3.09-1.45,14.52-8.44,18.15-39.2,1.46-7.68-.67-14.29-5.59-20.23-1.53-1.85-10-14.19-11.61-16.39A51.44,51.44,0,0,1,299,117.35c-1.13-2.94-1.24-6-1.45-9-.1-1.46-.43-3.46,1.82-4.1.19-.06.31-.36.48-.51q1.31-1.18,2.64-2.35c.12-.1,3.62-7.09,3.61-9.61,0-.22.3-.43.47-.67l-.25-.34a2.29,2.29,0,0,0,1.46-2.68l-1,.17L306,90c-1.32-2.75-4.24-3.39-6.37-1.56l-4.88,4.21-.37-.32a11.78,11.78,0,0,1,.52-1.24c1.34-2.41,3.58-3.9,5.7-5.51.15-.12.53-.19.6-.11.56.66.83,0,1.13-.25,1.75-1.66,1.67-1.1,2.55.45a1.34,1.34,0,0,0,.22.24,5.54,5.54,0,0,0,1.54-.26c.4-.19,1-.77,1-1a27.19,27.19,0,0,0-1.37-3c-1.34.51-.34-.74-.75-1-1.34.16-2.87,0-4,.57a37.88,37.88,0,0,0-6.22,4,16.32,16.32,0,0,0-3.41,3.7,11,11,0,0,0-1.71,7.82c.34,2.57,1.65,9,1.76,9.6a2.69,2.69,0,0,1-.09,1.35,16.15,16.15,0,0,0-1.06,7.84,37.46,37.46,0,0,0,2.15,9.32,39.11,39.11,0,0,0,7.36,12,49.13,49.13,0,0,1,9,14.32,26.26,26.26,0,0,1,2,9.21,30.89,30.89,0,0,1-.79,8.14c-3.44,17.07-13.67,19.49-16.28,19.4a26.14,26.14,0,0,1-6-1.12,30,30,0,0,1-9.72-5c-1.44-1.06-4.31-2.92-5.59-3.84l-.19-.15c-2.4-1.74-4.79-3.49-7.74-4.28a8,8,0,0,0-2.38,0c-.27-.21-.63-.37-.79-.65a52.11,52.11,0,0,0-7.48-9.81c-1.51-1.56-3-3.18-4.46-4.75q-1.26-1.32-2.56-2.6c-2.62-2.56-14.84-14.67-16.81-17-1.65-1.93-12.81-15.9-15.9-29.57-.46-2.62-2.59-10-2.28-10.72,6.85-10.55,7.72-30.48,7.77-31.35a42.4,42.4,0,0,0,.05-4.3c-.1-.74-.34-3.39-.4-4-.26-2.42-.69-4.82-.9-7.24a60.27,60.27,0,0,0-2.4-13.17c-1-3.24-1.85-6.56-3.15-9.68a46.33,46.33,0,0,0-4.5-8.49,59,59,0,0,0-6.18-7.1,56,56,0,0,0-5.82-5.46C192,4.08,186,2.9,180.35.89A27.6,27.6,0,0,0,174.78,0c-2.84,0-10.4.32-17,3.45a44,44,0,0,0-10,6.36c-1.22,1-2.36,2.11-3.56,3.19-.07-.05-3.15,3.1-4.46,4.52-1.81-1.94-3.15-4.32-5.08-5.46s-6.13-2.35-10.2-2.87c-10.07-1.21-20,3.45-22.17,4.65-1.57.85-3,1.87-4.57,2.79-.4.24-8.43,5.84-10.68,8.23-.72.43-7.62,9.5-11.61,16.12-1,2.26-2,4.51-2.88,6.79-1.17,2.95-2.32,5.91-3.35,8.91C68.5,58.78,68.1,61,67.38,63a61.3,61.3,0,0,0-2.46,8.23,40.38,40.38,0,0,0-.21,4.49l3.82.2C68.55,75.8,68.54,75.66,68.55,75.52ZM190.25,41.24a6.31,6.31,0,0,1,.08.84l-1.74-2.82a1.94,1.94,0,0,1,.54.17l-.2-.33c1.11.17,1.69,1.05,1.74,2.82ZM302.77,90.89c0,.06,0,.12,0,.18-.19,1.92-1.25,3.2-2.25,4.69l-.32.48C299.85,93.78,301.15,92.4,302.77,90.89Zm8.45,55.18a7,7,0,0,1-.68-1c-1.82-4-4.7-7.24-7.57-10.48a32.15,32.15,0,0,1-6.44-10.74,23.19,23.19,0,0,1-1.55-8.4l.34,1c0-.37,0-.74,0-1.11.42,1.19.87,2.37,1.24,3.58,1.39,4.6,3.92,8.62,6.55,12.57s5.52,8.07,8.22,12.15a7,7,0,0,1,.56,2.21l-.32.12,0,0,0,.09Zm-45.8,31.45c.42.31,2.21.93,2.59,1.16,1.7,1,3.39,2.05,5,3.2,1,.68,14.21,11.63,23,9.94a15.44,15.44,0,0,0,9-5.39c3.7-4.55,3.62-4.41,5.34-6.69a26.15,26.15,0,0,0,4.47-10.23,35.76,35.76,0,0,0,.93-7.7,41.57,41.57,0,0,0-1-7.3c-.36-2-.94-3.9-1.4-5.86a4.11,4.11,0,0,1,0-.92l.3-.16c.57.76,1.18,1.49,1.69,2.29a19.19,19.19,0,0,1,3.07,12.81c-.51,4.29-1,8.59-1.67,12.86-.35,2.26-1.11,4.46-1.58,6.71-1.06,5.05-3.9,9.26-6.37,13.64a16.41,16.41,0,0,1-6.37,6.73,30.4,30.4,0,0,1-5.87,2.13c-3,.87-6,1.33-9,.33a19.72,19.72,0,0,1-4.56-2.45c-1.87-1.25-3.66-2.64-5.41-4.07-.53-.43-2.51-2.71-3.06-3.28a45.75,45.75,0,0,0-4.12-3.65c0-.76-5.11-13.34-5.25-13.87ZM143.63,14.8l0,.06c.12-.08.24-.16.37-.23l-2.36,3.9a1.3,1.3,0,0,1-.09-.24l-.24.4C140.61,17.6,141.69,15.83,143.63,14.8Zm-19.19-3c3.52,1.63,7.8,1.54,10.72,4.5l-.27.48-.18-.12-.16.28A20.33,20.33,0,0,0,132,15.42c-.89-.38-1.91-.44-2.83-.77a13.69,13.69,0,0,1-5-2.67c.34.16.69.3,1,.43A8.17,8.17,0,0,1,124.44,11.82Z"/><path class="cls-1" d="M300.49,95.76c-.16-2.08.88-3.37,2.25-4.69,0-.06,0-.12,0-.18-1.62,1.51-2.91,2.89-2.59,5.35Z"/><path class="cls-1" d="M96.28,155.45C89.4,145.69,82,134.15,77.57,124c-.57.1-1.14.21-1.72.3-2,.3-1.4-2,.23-2.23l.64-.11c-.16-.41-.33-.82-.48-1.23l-2.06.64c-.68.21-1.12.15-1.31,0l.12.3c4.25,14.5,14.08,27.29,21.27,36.38l0-.06C95,157.16,95.62,156.3,96.28,155.45Z"/><path class="cls-1" d="M73.88,120.29l2-.63C74,113.3,69,88.46,69,88.26q0-.8-.08-1.59c0-.57-.07-1.14-.1-1.72l-3.57.5c.1,1.63.16,3.08.14,3.77C65.31,91,66.78,105,67,105.75c.26,1,4.71,12.56,5.81,15.38C72.79,120.86,73.13,120.52,73.88,120.29Z"/><path class="cls-1" d="M68.53,77.14l-3.81-.19c0,.46,0,.85,0,1.11,0,.44.08,1.29.15,2.34l3.67-.19Q68.51,78.67,68.53,77.14Z"/><path class="cls-1" d="M68.66,82.4,65,82.59c0,.64.09,1.29.13,1.93L68.75,84C68.72,83.47,68.69,82.94,68.66,82.4Z"/><path class="cls-1" d="M100.93,166l2.18,3.21c.92-.37,2.4-.41,2.2.06-.28.67-.54,1.35-.79,2,2.7,4,5.39,7.94,8,11.94,3.44,5.19,6.8,10.44,10.24,15.76q.06-2.27,0-4.55c0-.36.43-.65,1-.84-.94-1.23-1.58-2.07-1.73-2.29-3.43-5-6.79-10.09-10.3-15.06-1.93-2.73-7.73-10.06-14.23-19.19l-.54.69a3.74,3.74,0,0,1-2.41.58c1.83,2.32,3.5,4.4,4.83,6.19h0c.47.56,1,1.18,1.48,1.88l0-.29Z"/><path class="cls-1" d="M156.16,191.71c-.48-1.25-3.36-.43-2.9.77q.55,1.42,1,2.86l2.06-3.1C156.28,192.07,156.22,191.88,156.16,191.71Z"/><path class="cls-1" d="M191.24,136.81c-.56-1.15-3.41-.27-2.9.77a26.55,26.55,0,0,1,1.09,2.61l1.92-3.14Z"/><path class="cls-1" d="M146.69,204.46l.41.31.07-.12.39.11-.06.31.28.21,1.38-2.15L149,203C148.14,202.37,145.49,203.58,146.69,204.46Z"/><path class="cls-1" d="M103.1,169.25l1.41,2.08c.25-.68.51-1.35.79-2C105.5,168.84,104,168.88,103.1,169.25Z"/><path class="cls-1" d="M123.21,200.51q1,1.34,2,2.59c0-.11,0-.22-.05-.34l.2.22a60.81,60.81,0,0,0,.3-6.77l-2-2.57c-.54.19-1,.48-1,.84q.1,2.28,0,4.55l.94,1.45Z"/><path class="cls-1" d="M141.6,18.54l2.36-3.9c-.13.07-.25.15-.37.23l-2.08,3.43A1.3,1.3,0,0,0,141.6,18.54Z"/><path class="cls-1" d="M160.53,178.19l-1,1.79c.26,0,.65,0,.75-.14a16.17,16.17,0,0,0,1.13-2c.08-.16,0-.43-.08-.65l-.16,0-.18.18h0l.18-.18-.46,0-.21.33C160.49,177.72,160.51,178,160.53,178.19Z"/><path class="cls-1" d="M188.93,39.09l.2.33a2.19,2.19,0,0,1,1.12,1.81l.41.67C190.62,40.14,190,39.26,188.93,39.09Z"/><path class="cls-1" d="M147.53,202.39c-.68-.93.43-3.17.2-4.46l-1.57,2.52C146.61,201.1,147.06,201.75,147.53,202.39Z"/><path class="cls-1" d="M140.66,210.63a2.65,2.65,0,0,0-.08-1.28l-.8,1.25Z"/><path class="cls-1" d="M132.55,205l-3-3.8c1,2.22,2,4.44,2.93,6.65A5.55,5.55,0,0,1,132.55,205Z"/><path class="cls-1" d="M162,176c0,.1,0,.23,0,.32h0C162,176.18,162,176.06,162,176Z"/><path class="cls-1" d="M162,176.27l-.89.89h0Z"/><path class="cls-1" d="M161,177.34h0l.18-.18h0l-.18.18Z"/><path class="cls-1" d="M111.28,126.65c0-.75-1.41-.35-1.44.28a33.87,33.87,0,0,0,.53,8.52c.12.65,1.57.11,1.45-.54A32.83,32.83,0,0,1,111.28,126.65Z"/><path class="cls-1" d="M117.26,135.43c-.24-2-2.46-5.18-1.12-7.11.58-.83-.84-.73-1.15-.28-1.78,2.56.5,5.27.82,7.94C115.89,136.6,117.35,136.13,117.26,135.43Z"/><path class="cls-1" d="M119.46,127.5c-.15-.81-1.6-.28-1.45.54a22.7,22.7,0,0,0,1.92,5.88c.32.65,1.72-.07,1.34-.84A21.44,21.44,0,0,1,119.46,127.5Z"/><path class="cls-1" d="M123.19,125.37c-.13-.8-1.58-.28-1.45.54a25.72,25.72,0,0,0,2.79,8.31c.34.62,1.73-.11,1.34-.84A24.75,24.75,0,0,1,123.19,125.37Z"/><path class="cls-1" d="M127.1,126c-.27-.73-1.67,0-1.33.86a20.2,20.2,0,0,0,2.34,4.5c.43.61,1.8-.19,1.33-.86A20.2,20.2,0,0,1,127.1,126Z"/><path class="cls-1" d="M111,116.77l.13,0a4.4,4.4,0,0,1,.52,0l-.18-.21A1.81,1.81,0,0,0,111,116.77Z"/><path class="cls-1" d="M119.37,81.92a1.57,1.57,0,0,1-1.47-.43h0A1.57,1.57,0,0,0,119.37,81.92Z"/><path class="cls-1" d="M119.37,83c-.06,0,0,.08,0,.14C119.44,83,119.46,83,119.37,83Z"/><path class="cls-1" d="M108.88,92.61s-1.34-6.72,0-8.56a1.34,1.34,0,0,0,.1-.17c.88-.25.69-.54.69-.54a1.43,1.43,0,0,0,1.2.55c.85,0,.28-.56.62-.7s.89.64,1.47.53a.51.51,0,0,0,.38-.69,1.81,1.81,0,0,0,1.32.69c.75,0,.21-.91.72-.69s.77.93,1.47.32.77-.32.77-.32a1.34,1.34,0,0,0,.79.69c.41.14.84-.3,1-.55-.06-.06-.07-.11,0-.14s.08,0,0,.14a3.59,3.59,0,0,0,1.35.55c.51.08.13-.69.13-.69a1.7,1.7,0,0,1,.89.69c.32.53.51-.27.7-.4a3.31,3.31,0,0,1,1.13.07c0,.05,0,.1,0,.15l-.74-.13s-1.68,12,1,8.79A15.33,15.33,0,0,0,126,88.54c.25-.58.46-1.14.64-1.65l.13-.41.18-.59c.09-.3.16-.56.21-.79l.1-.42,0-.19-.39-.19-.25-.12-.37-.18-.47-.19c-.68-.28-1.41-.54-2.19-.79-1.61-.51-3.48-1-5.69-1.54a1.57,1.57,0,0,0,1.47.43,1.57,1.57,0,0,1-1.47-.43l-.21-.05a19.91,19.91,0,0,0-5.75,1c-2.09.33-3.52.79-3.88.85a6.91,6.91,0,0,0-1.24.41c-1.1.34-2.19.79-2.19.79a10,10,0,0,0-.26,1.81c0,.11,0,.23,0,.35v.06a8.23,8.23,0,0,0,.63,3.47c.08.18.16.36.25.53a6.15,6.15,0,0,0,3.93,2.9Z"/><path class="cls-1" d="M107.08,115.34,107,115l-.15,0Z"/><path class="cls-1" d="M106.87,114.94l.15,0c-.26-1.67-.37-3.59-.47-5.21C105.6,111.28,106.07,113.36,106.87,114.94Z"/><path class="cls-1" d="M122.24,115a4.08,4.08,0,0,0,3.13-1.07c3.33-3.31-.91-10.2-.91-10.2s-.18-.72,0,2.13-1,7.12-1.28,6.61a2.2,2.2,0,0,1-2.45-.07c-.36-.24-.62,1-.87.94a2.25,2.25,0,0,0-2,.07l-.79-.32c-.79-.32-.48.3-.79.8s-.54-.52-.91-1-1.16.7-1.16.7a14,14,0,0,1-1.59-1.35,24.08,24.08,0,0,1-1.67-2.75c-.83-1.49-1.63-3-1.63-3h0c.07,2,.15,4.35.39,6.4,0,.15,0,.29.06.43a6,6,0,0,0,1.46,2.15,1.68,1.68,0,0,0,2,0c0-.06,0-.12,0-.19l.37-.08s0-.08,0-.12l.66-.14Z"/><path class="cls-1" d="M150.62,26.62A94.8,94.8,0,0,1,174.47,8.44c1.74-.93.16-2.24-1.23-1.5a99.12,99.12,0,0,0-25,19C147,27.2,149.81,27.47,150.62,26.62Z"/><path class="cls-1" d="M118.56,32c.72.65,5.29,2.21,3.6.68a74.91,74.91,0,0,0-20.31-13l-1.41.85a4.8,4.8,0,0,0,.54.27A60.82,60.82,0,0,1,118.56,32Z"/><path class="cls-1" d="M100.38,19c-2.85-1.19-1.51.59.07,1.5l1.41-.85C101.36,19.46,100.87,19.23,100.38,19Z"/><path class="cls-1" d="M133.65,74.36A162,162,0,0,0,169,71.27c1.3-.26,2.59-1.75.49-1.33a158.47,158.47,0,0,1-33.61,3l-1.6.09C133.24,73.38,132,74.32,133.65,74.36Z"/><path class="cls-1" d="M134.48,79.24a2.5,2.5,0,0,0-1.34.5q10.16.65,20.33,1,12.8-.49,25.54-2c1.34-.16,2.35-1.78.4-1.54A301.22,301.22,0,0,1,134.48,79.24Z"/><path class="cls-1" d="M134.23,73.06l1.53-.09h-1A1.88,1.88,0,0,0,134.23,73.06Z"/><path class="cls-1" d="M100.59,72.79l-2.1,0c-.25.73-.47,1.47-.67,2.22l2.05,0Q100.2,73.87,100.59,72.79Z"/><path class="cls-1" d="M97.22,77.37c.06-.26.12-.51.18-.77q-14.44,0-28.86-.66c0,.4,0,.8,0,1.2q13.73.59,27.48.58A4.55,4.55,0,0,0,97.22,77.37Z"/><path class="cls-1" d="M64.72,75.74c-1.44-.07-2.87-.14-4.31-.22-.59,0-3.28,1-1.9,1.11,2.07.12,4.14.22,6.2.32C64.72,76.58,64.72,76.17,64.72,75.74Z"/><path class="cls-1" d="M97.91,76.6H97.4c-.06.26-.12.51-.18.77C98,77,98.76,76.6,97.91,76.6Z"/><path class="cls-1" d="M68.54,75.94l-3.82-.2c0,.43,0,.84,0,1.21l3.81.19C68.53,76.74,68.53,76.34,68.54,75.94Z"/><path class="cls-1" d="M97,78.28c-.15.73-.3,1.45-.43,2.16C97.92,80.13,98.35,78.46,97,78.28Z"/><path class="cls-1" d="M68.57,80.2l-3.67.19c0,.67.1,1.42.15,2.2l3.61-.19C68.62,81.67,68.59,80.94,68.57,80.2Z"/><path class="cls-1" d="M96.56,80.63Q82.63,82.07,68.75,84l.05.94Q82.56,83,96.39,81.63C96.44,81.3,96.5,81,96.56,80.63Z"/><path class="cls-1" d="M98.57,81.4l1-.1c.74-.07,3.15-1.3,1.27-1.12l-2.19.23c-.05.31-.09.61-.13.92Z"/><path class="cls-1" d="M56.24,85.86c-1.14.18-2.6,1.34-.55,1q4.77-.75,9.55-1.43,0-.46-.06-.93C62.2,85,59.21,85.39,56.24,85.86Z"/><path class="cls-1" d="M98.49,81.41h.08l-.07-.07Z"/><path class="cls-1" d="M96.39,81.63l.91-.1,0-.64.3,0,0,0v-.16l.3,0,.61.64c0-.3.08-.61.13-.92l-2.07.22C96.5,81,96.44,81.3,96.39,81.63Z"/><path class="cls-1" d="M98.49,81.41v-.08l-.61-.64-.3,0v.16l.53.56Z"/><path class="cls-1" d="M97.6,80.89l0,0-.3,0,0,.64.34,0Z"/><path class="cls-1" d="M98.13,81.45l-.53-.56,0,.61Z"/><path class="cls-1" d="M68.75,84l-3.57.51q0,.47.06.93l3.57-.5Z"/><path class="cls-1" d="M133.59,81a.63.63,0,0,1-.25.75q20.31,2.41,40.73,3.54c1.18.06,3.14-1.61,1.19-1.71q-10.55-.57-21.07-1.5Q143.89,81.88,133.59,81Z"/><path class="cls-1" d="M130.48,80.64a1.6,1.6,0,0,1-.07-.54c-.72.5-1,1.26.22,1.34l.49,0A2,2,0,0,1,130.48,80.64Z"/><path class="cls-1" d="M133.15,79.74H133l0,.06Z"/><path class="cls-1" d="M133.51,80.82h-.12l-.28,0a.82.82,0,0,1,0,.78h.17A.63.63,0,0,0,133.51,80.82Z"/><path class="cls-1" d="M132.77,80.06a2,2,0,0,1,.3-.27l0-.06-.39,0C132.69,79.83,132.72,79.95,132.77,80.06Z"/><path class="cls-1" d="M130.82,80.48a1.64,1.64,0,0,1-.06-.58,2.74,2.74,0,0,0-.34.2,1.6,1.6,0,0,0,.07.54,2,2,0,0,0,.65.83l.58,0A2.42,2.42,0,0,1,130.82,80.48Z"/><path class="cls-1" d="M132.77,80.06c0-.12-.08-.23-.12-.35l-.92-.05a2,2,0,0,0-1,.24,1.64,1.64,0,0,0,.06.58,2.42,2.42,0,0,0,.89,1l1.42.08a.82.82,0,0,0,0-.78C132.46,80.71,132.47,80.39,132.77,80.06Z"/><path class="cls-1" d="M133.07,79.8a4.61,4.61,0,0,0,.28.65,1.9,1.9,0,0,1,.16.37q10.32.27,20.63-.13-10.5-.3-21-1Z"/><path class="cls-1" d="M133,80.61c0,.07.06.12.08.19l.28,0h.12a1.9,1.9,0,0,0-.16-.37,4.61,4.61,0,0,1-.28-.65,2,2,0,0,0-.3.27A4.46,4.46,0,0,0,133,80.61Z"/><path class="cls-1" d="M132.77,80.06c-.29.33-.3.65.33.73,0-.06,0-.12-.08-.19A4.46,4.46,0,0,1,132.77,80.06Z"/><path class="cls-1" d="M149.61,103.74a211.77,211.77,0,0,0,48.76,12.05l1.12-2.11a209,209,0,0,1-48.21-11.91C150,101.3,147.89,103.09,149.61,103.74Z"/><path class="cls-1" d="M201.33,116.17c1.44.16,2.95-1.91,1-2.13-.95-.1-1.89-.24-2.84-.36l-1.12,2.11C199.36,115.92,200.34,116.06,201.33,116.17Z"/><path class="cls-1" d="M147.79,108.13c14.55,8.14,30.89,11.25,47.17,14l.43-.76.33-.61c-15.61-2.64-31.23-5.77-45.19-13.58C149.81,106.76,147.46,107.95,147.79,108.13Z"/><path class="cls-1" d="M195,122.11l1.86.31c.67.11,3.14-1,2.39-1.1l-3.49-.58-.33.61Z"/><path class="cls-1" d="M104.32,143.39a112.24,112.24,0,0,1-8,12.06l1.18,1.66a114.06,114.06,0,0,0,9.73-14.22C107.41,142.5,104.75,142.65,104.32,143.39Z"/><path class="cls-1" d="M94.51,158.38l-.25-.32C94.15,158.23,94.27,158.33,94.51,158.38Z"/><path class="cls-1" d="M96.92,157.8l.54-.69-1.18-1.66c-.65.86-1.31,1.71-2,2.55l0,.06.25.32A3.74,3.74,0,0,0,96.92,157.8Z"/><path class="cls-1" d="M178.64,158.78l-.43-.28-.6,1C178.25,159.21,178.78,158.87,178.64,158.78Z"/><path class="cls-1" d="M148.51,134.28c-.47-.49-3.1.57-2.74.95a152.51,152.51,0,0,0,27.53,22.84l1.23-1.92A152.49,152.49,0,0,1,148.51,134.28Z"/><path class="cls-1" d="M177.61,159.48l.6-1h0l-.67,1Z"/><path class="cls-1" d="M175.9,159.73c.32.2,1,0,1.63-.22l.67-1c-1.23-.77-2.46-1.55-3.66-2.36l-1.23,1.92C174.17,158.62,175,159.19,175.9,159.73Z"/><path class="cls-1" d="M72.87,121.37l-.09-.24A.28.28,0,0,0,72.87,121.37Z"/><path class="cls-1" d="M99.19,111.39c.7-.7-2.1-.44-2.65.12-2.59,2.59-7.89,3.76-11.28,5-3.1,1.13-6.23,2.17-9.37,3.15.13.43.24.78.34,1l0,.05c4.22-1.32,8.41-2.74,12.55-4.31C92.27,115.1,96.5,114.08,99.19,111.39Z"/><path class="cls-1" d="M74.18,121.38l2.06-.64,0-.05c-.1-.25-.21-.6-.34-1l-2,.63c-.75.23-1.09.57-1.11.84l.09.24C73.06,121.54,73.49,121.59,74.18,121.38Z"/><path class="cls-1" d="M99.87,113.54A64.87,64.87,0,0,1,76.72,122q.4,1,.85,2a68.53,68.53,0,0,0,23.61-8.66C102.86,114.35,101.33,112.66,99.87,113.54Z"/><path class="cls-1" d="M76.08,122.08c-1.63.25-2.18,2.52-.23,2.23.58-.09,1.15-.2,1.72-.3q-.45-1-.85-2Z"/><path class="cls-1" d="M232.06,226.38l1.08,1.61C232.79,227.44,232.43,226.9,232.06,226.38Z"/><path class="cls-1" d="M268.94,240.69c-.09-.31-.17-.63-.26-.94l-2.33-.82c-.12-1.28-.23-3-.32-4.94-.45,0-.78.15-.83.63l-1.69,13.69q2.1,1.27,4.19,2.57.86-6.92,1.72-13.84a1.12,1.12,0,0,0,0-.32c-.13,1.12-.25,2.25-.36,3.16Z"/><path class="cls-1" d="M234,229.46l-4.08-1q.87,1.44,1.6,2.94,2.26,1,4.51,2.09A39,39,0,0,0,234,229.46Z"/><path class="cls-1" d="M232.06,226.38q-.43-.6-.89-1.19c-1.13-1.46-5.35-2.36-3.36.2a32.5,32.5,0,0,1,2.14,3.12l4.08,1q-.43-.74-.89-1.47Z"/><path class="cls-1" d="M266.35,238.93l2.33.82c-.49-1.71-.89-3.47-1.22-5.26A3.37,3.37,0,0,0,266,234C266.12,235.91,266.23,237.64,266.35,238.93Z"/><path class="cls-1" d="M267.45,234.49c.33,1.78.74,3.55,1.22,5.26l.36.13c.11-.92.24-2,.36-3.16A3.94,3.94,0,0,0,267.45,234.49Z"/><path class="cls-1" d="M269,239.88l-.36-.13c.09.31.17.63.26.94Z"/><path class="cls-1" d="M148.7,245.2c2.77-1.28,5.63-2.42,8.43-3.63,1-.42,1-1,.53-1.33a72.68,72.68,0,0,0,3.57-20.73,70.63,70.63,0,0,0-.26-7.72,71.66,71.66,0,0,0-4.31-19.06l-.1.14A71.23,71.23,0,0,1,160.92,219a72.68,72.68,0,0,1-3.57,20.73c.43.35.45.91-.53,1.33-2.81,1.21-5.66,2.35-8.43,3.63-1.9.87-5.55,2-3.75,5.43a2.09,2.09,0,0,0,.27.38C143.24,247.22,146.83,246.07,148.7,245.2Z"/><path class="cls-1" d="M137,210.56c.73.88,1.28,1.53,1.56,1.82a5.18,5.18,0,0,0,.44-.64c-.21-.38-.4-.78-.6-1.16Z"/><path class="cls-1" d="M180,248.76a23.85,23.85,0,0,0-4-4.44,25.77,25.77,0,0,1-3.73-4.45,24.68,24.68,0,0,0,4.05,4.94A27.13,27.13,0,0,1,180,248.76Z"/><path class="cls-1" d="M92.58,243.66c1.09-.28,2.39.1,3.57-.19a6.64,6.64,0,0,0,3.41-2c3.86-4.32,3.11-14.16,3.06-19.54q0-.85,0-1.71c-.06-2.75-.2-5.5-.37-8.25-.79-13.3-2.11-26.64,2.32-39.4l-.3-.55c-5.38,15.42-2.33,31.68-2,47.71q0,.85,0,1.71c.05,5.38.8,15.23-3.06,19.54a6.64,6.64,0,0,1-3.41,2c-1.17.3-2.47-.08-3.57.19-2.56.65-2.76,1.87-1.81,3.09C89.92,245.21,90.36,244.22,92.58,243.66Z"/><path class="cls-1" d="M157.15,240.4c.07-.21.13-.43.2-.64a1.79,1.79,0,0,0-1.75-.16c-.35.15-.76.31-1.19.46l0,.06C153.87,241.66,156.76,241.55,157.15,240.4Z"/><path class="cls-1" d="M155.19,211.34c.55.51,1.09,1,1.61,1.57a1.29,1.29,0,0,0,1,.26c0-.55-.1-1.1-.15-1.64Z"/><path class="cls-1" d="M159.49,211.74c-.53-.56-1.1-1.08-1.66-1.6,0,.07,0,.14,0,.21.45.42.89.85,1.33,1.29l-1.49-.11c.05.55.12,1.09.15,1.64C158.87,213.07,160.08,212.35,159.49,211.74Z"/><path class="cls-1" d="M157.35,239.75A72.68,72.68,0,0,0,160.92,219a71.23,71.23,0,0,0-4.35-26.14l-2,3a71.15,71.15,0,0,1,3.22,14.3c.56.52,1.12,1,1.66,1.6s-.61,1.33-1.64,1.43c.13,1.9.18,3.81.15,5.72a69.91,69.91,0,0,1-3.59,21.18c.43-.16.84-.31,1.19-.46A1.79,1.79,0,0,1,157.35,239.75Z"/><path class="cls-1" d="M186.12,171.08c-4.46,10.27-9.22,20.37-12.38,31.14-1,3.44-1.91,7-2.6,10.64-.45,2.39-.82,4.8-1.06,7.22a57.33,57.33,0,0,0,.2,13.92,15.62,15.62,0,0,0,2.08,5.87,25.77,25.77,0,0,0,3.73,4.45,23.85,23.85,0,0,1,4,4.44c1.09,1.59,1.6,3.28.07,4.41-.88.65-4.17-.25-5.11-.56a13.29,13.29,0,0,1-5.61-3.68,4.33,4.33,0,0,1,.52,3.5,14.9,14.9,0,0,0,8.09,2.24c3.68-.07,6.23-1.54,5.24-5.72-1.26-5.31-7.9-7.8-9.72-13.16-1.63-4.83-1.51-10.57-.89-16,.24-2.11.55-4.17.87-6.1,2.37-14.54,8.39-27.93,14.33-41.3,4.87-11,8.94-23.23,3.78-34.75l-1.87,3C193.42,150.79,190.31,161.41,186.12,171.08Z"/><path class="cls-1" d="M160.41,253.23l-1.09-.62a8.15,8.15,0,0,0-1.61-.72c-2.12-.5-3.66.53-5.81.62-1.73.07-5.91.07-6.94-1.87l0-.11a2.09,2.09,0,0,1-.27-.38c-1.8-3.39,1.86-4.56,3.75-5.43,2.77-1.28,5.63-2.42,8.43-3.63,1-.42,1-1,.53-1.33-.07.21-.13.43-.2.64-.39,1.16-3.27,1.26-2.76-.28l0-.06c-4.14,1.53-11.49,3.5-13,7.53-1.73,4.61,4.41,6.37,7.76,6.42,1.53,0,2.87-.39,4.37-.48,3.29-.19,3.8.79,6.34,1.75a9,9,0,0,0,5.73.44,5.92,5.92,0,0,0,3.82-3.34,17.7,17.7,0,0,1-2.72-2.25Q163.64,255.41,160.41,253.23Z"/><path class="cls-1" d="M99.36,220a96.6,96.6,0,0,1-.18,9.68c-.25,3.35-.1,10.43-3.82,11.81-2.2.81-7.74-.56-8.72,2.88-1.27,4.46,7.15,6.38,10.11,6.39,3.29,0,5.71-.72,9.13.08,2.46.57,4.19,1.26,6.74.7,1.39-.31,3.15-1.7,4.39-1.64,2,.11,3.64,1.73,5.9,1.65,3.21-.12,7.29-2,6.69-5.83-.63-4-4.38-8.25-6-12-2-4.54-2.95-9.11-2.06-14.06.06-.34.14-.67.21-1,.85-4,2.41-7.81,3.14-11.84.21-1.16.37-2.33.49-3.5-.6-.76-1.22-1.53-1.84-2.34l-.44-.57a53.82,53.82,0,0,1-1.13,9.18c-.08.38-.19.75-.28,1.13-.71,2.86-1.73,5.66-2.42,8.52-.17.73-.34,1.46-.45,2.2-1.26,7.86,2.68,14.79,6.28,21.46,1.84,3.41,5,7.55-4.69,6.58-.45,0-.8-.58-1.29-.6a8.38,8.38,0,0,0-3.46.52c-5.75,1.57-4.2,1.6-8.23,0a7.33,7.33,0,0,0-2-.62c-4.64-.55-8,2.6-12.93-.56a6,6,0,0,1-2.07-2c-1-1.22-.76-2.44,1.81-3.09,1.09-.28,2.39.1,3.57-.19a6.64,6.64,0,0,0,3.41-2c3.86-4.32,3.11-14.16,3.06-19.54q0-.85,0-1.71c-.35-16-3.4-32.29,2-47.71-.4-.75-.8-1.46-1.2-2.13a.8.8,0,0,0-.31.32c-5.67,13.52-4.33,27.84-3.46,42.06l-.28.1c.08,1.39.16,2.78.23,4.17Q99.32,218.31,99.36,220Z"/><path class="cls-1" d="M139,211.74l.74-1.14-1.33,0C138.65,211,138.84,211.36,139,211.74Z"/><path class="cls-1" d="M140.5,214.11a1.2,1.2,0,0,1-.15-.4l-.07,0C140.35,213.86,140.42,214,140.5,214.11Z"/><path class="cls-1" d="M104.57,172.55l-.3-.54,0,.05.3.55Z"/><path class="cls-1" d="M103.08,169.92l0,0c.39.67.79,1.37,1.2,2.13l0-.05C103.87,171.27,103.47,170.56,103.08,169.92Z"/><path class="cls-1" d="M132.45,210.52h-.79c.58.6,1.11,1.11,1.57,1.51a9.71,9.71,0,0,0,2.79,1.79c-.25-.21-.5-.43-.74-.65Q133.84,211.87,132.45,210.52Z"/><path class="cls-1" d="M138.6,212.38c-.28-.29-.83-.93-1.56-1.82-1.4,0-2.79,0-4.19,0h-.41q1.39,1.35,2.82,2.66c.24.22.49.44.74.65a5.25,5.25,0,0,0,4.26-.08c-.43-.65-.84-1.32-1.23-2A5.18,5.18,0,0,1,138.6,212.38Z"/><path class="cls-1" d="M140.35,213.71a11.22,11.22,0,0,0,3.62-3l-3.3-.11A10.86,10.86,0,0,0,140.35,213.71Z"/><path class="cls-1" d="M140.66,210.63l-.88,0-.74,1.14c.38.69.8,1.35,1.23,2l.07,0A10.86,10.86,0,0,1,140.66,210.63Z"/><path class="cls-1" d="M177.19,348.67s-2.23,7.32,7.65,6.54,15,1.26,15.77.06,4.05,3,0,5.62-4.25,6-9.75,6-15.77-3.69-19.89-2.27S177.19,348.67,177.19,348.67Z"/><path class="cls-1" d="M20.54,321.91l1.93,4.44c.22.5,2,.51,2.46.55a13,13,0,0,0,2.52-.1l-1.93-4.44c-.22-.5-2-.51-2.46-.55a13,13,0,0,0-2.52.1Z"/><path class="cls-1" d="M21.47,333.66c.07,2.83,2.12,5.53,3.11,8.12a72.57,72.57,0,0,0,3.22,7.75c.84,1.61,5.44.58,4.76-1.3-.83-2.26-2.45-4-3.4-6.2-.77-1.8-1.26-3.35-2.79-4.67-1.06-.92-4.22-.48-4.43,1.19-.36,3,1.93,5.71,3.38,8.13,1.06,1.77,5.82.35,4.59-1.7-1-1.62-3.32-4.48-3.08-6.44l-4.43,1.19c1.31,1.14,1.58,2.83,2.28,4.33.82,1.78,2.27,3.21,2.95,5.06l4.76-1.3a80.71,80.71,0,0,1-3.28-7.93c-.9-2.28-2.67-4.67-2.73-7.13-.05-2.09-5-1.35-4.92.89Z"/><path class="cls-1" d="M40.19,308.25l-.15.43,4.33.39a1.79,1.79,0,0,1-.07-1.13c.14-1.43-4.67-1.18-4.92.19-.36,2-1.13,3.84-1.47,5.83a25.55,25.55,0,0,0-.21,6.89c.16,1.62,5.13,1.13,5-.51a25,25,0,0,1,.07-6c.3-2.11,1.12-4,1.5-6.1l-4.92.19a1.79,1.79,0,0,0,.07,1.13c.34,1.49,3.45,1,4.33.39s1.07-.7,1.32-1.59c.49-1.74-4.43-1.63-4.86-.13Z"/><path class="cls-1" d="M40.54,322.88a5,5,0,0,1,.62-2.53c.16-.29,0-1-.12-1.22a7.49,7.49,0,0,0-.78-1.76c-.17-.27-1.18-1.9-1.56-1.18a6.36,6.36,0,0,0-.71,3.13,6,6,0,0,0,1.28,3.18c.24.31,1.3,1.48,1.27.38Z"/><path class="cls-1" d="M42.33,319.3c-.22-1.29.89-3,1.35-4.21l1.56-4c.9-2.34-3.5-4.7-4.38-2.42L38.78,314c-.61,1.58-1.44,3.12-1.15,4.85.39,2.32,5.18,3.27,4.69.43Z"/><path class="cls-1" d="M235.8,265.67l-7.49,34.66c-.68,3.14,4.14,4.48,4.82,1.33L240.62,267c.68-3.14-4.14-4.48-4.82-1.33Z"/><path class="cls-1" d="M240.44,273.78,237.89,299c-.32,3.2,4.68,3.18,5,0l2.55-25.26c.32-3.2-4.68-3.18-5,0Z"/><path class="cls-1" d="M236,275.55c-1.87,4.74-2,9.79-2.32,14.82l-1.16,17.29c-.22,3.21,4.79,3.2,5,0l1-15.37c.35-5.21.33-10.49,2.27-15.41,1.18-3-3.65-4.29-4.82-1.33Z"/><path class="cls-1" d="M234.3,276.42a143.66,143.66,0,0,1-3.45,36.5c-.71,3.13,4.11,4.47,4.82,1.33a149.11,149.11,0,0,0,3.63-37.83c-.1-3.21-5.11-3.22-5,0Z"/><path class="cls-1" d="M236.28,265.79V282.4c0,3.22,5,3.22,5,0V265.79c0-3.22-5-3.22-5,0Z"/><path class="cls-1" d="M238.67,265.12l.57,14.7c.1,2.66,3.2,3.16,4.66,1.26A14.13,14.13,0,0,0,246.1,268a2.53,2.53,0,0,0-4.57-.6l-2.3,3.61,4.57,1.93c.78-4.37-.18-11-4.53-13.45-3.93-2.24-7.59,1.77-6.79,5.65.64,3.15,5.46,1.82,4.82-1.33q-1.41.16.45,1.35a5.93,5.93,0,0,1,.81,1.66,8.59,8.59,0,0,1,.42,4.78,2.51,2.51,0,0,0,4.57,1.93l2.3-3.61-4.57-.6a9.55,9.55,0,0,1-1.7,9.27l4.66,1.26-.57-14.7c-.12-3.21-5.12-3.22-5,0Z"/><path class="cls-1" d="M232.21,339.53a61.35,61.35,0,0,0,2,16.37c.73,2.83,4.74,2.07,4.91-.66.21-3.24.26-6.47.16-9.72s-5.1-3.22-5,0,0,6.48-.16,9.72l4.91-.66a56.12,56.12,0,0,1-1.79-15c0-3.22-5-3.22-5,0Z"/><path class="cls-1" d="M234.8,341.92q-.74-1-.38.41l-.07,1.27c0,1.48-.16,3-.25,4.44l-.46,8.24,4.91-.66a74.67,74.67,0,0,0-3.77-12.29,2.51,2.51,0,0,0-4.91.66l-.31,2.32h5l0-2.12c.06-3.22-4.94-3.22-5,0l0,2.12c-.06,3.31,4.59,3.09,5,0l.31-2.32-4.91.66a74.67,74.67,0,0,1,3.77,12.29c.62,2.87,4.76,2,4.91-.66.25-4.43.59-8.88.74-13.31.08-2.6-.51-5.08-3.26-5.86-3.1-.88-4.42,3.94-1.33,4.82Z"/><path class="cls-1" d="M238.25,340.88a55,55,0,0,1,.67,12.43h5l0-3.15c0-3.22-5-3.22-5,0l0,3.15c0,3.24,4.82,3.2,5,0a60.83,60.83,0,0,0-.85-13.76c-.55-3.16-5.37-1.82-4.82,1.33Z"/><path class="cls-1" d="M238.83,341.54a69.73,69.73,0,0,1-1.15,19.08l4.91.66a122.46,122.46,0,0,0-1.75-26.92c-.53-3-4.61-1.88-4.91.66l-.92,7.84c-.38,3.19,4.63,3.16,5,0l.92-7.84-4.91.66a116.46,116.46,0,0,1,1.57,25.59c-.13,2.78,4.35,3.45,4.91.66a74.75,74.75,0,0,0,1.33-20.41c-.24-3.19-5.24-3.22-5,0Z"/><path class="cls-1" d="M278.27,289.06a16.17,16.17,0,0,1-1.56,10.06c-1.45,2.87,2.87,5.4,4.32,2.52a21.93,21.93,0,0,0,2.06-13.91c-.54-3.17-5.36-1.82-4.82,1.33Z"/><path class="cls-1" d="M276.16,291.72a33.49,33.49,0,0,1-1.56,15.35c-1,3.05,3.78,4.36,4.82,1.33a36.77,36.77,0,0,0,1.74-16.68c-.4-3.15-5.4-3.19-5,0Z"/><path class="cls-1" d="M166.78,289.55c3.22,0,3.22-5,0-5s-3.22,5,0,5Z"/><path class="cls-1" d="M165.5,288.25a34.93,34.93,0,0,1,1.14,10.08c-.1,3.22,4.9,3.22,5,0a39.87,39.87,0,0,0-1.32-11.41c-.82-3.11-5.65-1.79-4.82,1.33Z"/><path class="cls-1" d="M168.28,288.38v12c0,3.22,5,3.22,5,0v-12c0-3.22-5-3.22-5,0Z"/><path class="cls-1" d="M168,321.61a386.89,386.89,0,0,0,3.68,38.53c.46,3.17,5.28,1.82,4.82-1.33a373.56,373.56,0,0,1-3.5-37.2c-.14-3.2-5.14-3.22-5,0Z"/><path class="cls-1" d="M170.67,340.1a73,73,0,0,1,2.81,12.73c.39,3.15,5.4,3.19,5,0a80.19,80.19,0,0,0-3-14.06c-1-3.06-5.78-1.75-4.82,1.33Z"/><path class="cls-1" d="M127.31,326.83a62,62,0,0,0-.9,18.67c.33,3.17,5.34,3.2,5,0a57.58,57.58,0,0,1,.72-17.34c.62-3.14-4.2-4.49-4.82-1.33Z"/><path class="cls-1" d="M89.32,314.81l-9.93,26.6c-1.13,3,3.7,4.32,4.82,1.33l9.93-26.6c1.13-3-3.7-4.32-4.82-1.33Z"/><path class="cls-1" d="M85.81,336.91a132.94,132.94,0,0,0-5.1,21.93c-.46,3.15,4.36,4.51,4.82,1.33a132.94,132.94,0,0,1,5.1-21.93c1-3.07-3.83-4.38-4.82-1.33Z"/><path class="cls-1" d="M87.21,326.95l-2.12,10.61c-.63,3.14,4.19,4.49,4.82,1.33L92,328.27c.63-3.14-4.19-4.49-4.82-1.33Z"/><path class="cls-1" d="M226.94,356.81l0,2.12c0,3.22,4.93,3.22,5,0L232,353l-4.91.66a91.89,91.89,0,0,1,3.66,10.53c.87,3.09,5.69,1.78,4.82-1.33A91.89,91.89,0,0,0,232,352.32c-1-2.47-4.85-2.36-4.91.66l-.13,5.94h5l0-2.12c0-3.22-5-3.22-5,0Z"/><path class="cls-1" d="M232.28,364.78l-.11,1.83h5c.38-7.81-.1-15.77-6.92-20.76-1.63-1.19-3.68.45-3.76,2.16a30.15,30.15,0,0,0,2.3,13.29c.74,1.77,3.51,2.74,4.57.6a11.51,11.51,0,0,0,1.06-7.72c-.58-3.16-5.4-1.82-4.82,1.33a5,5,0,0,1-.56,3.87l4.57.6a26.9,26.9,0,0,1-2.12-12l-3.76,2.16c5.13,3.75,4.71,10.8,4.44,16.44-.16,3.22,4.81,3.2,5,0l.11-1.83c.19-3.21-4.81-3.2-5,0Z"/><path class="cls-1" d="M70.5,394.61q18.44,4.29,20.59,6l1.91-.48q5.74,3.34,9.09,15.74v5q-1.44.48-4.55,4.29-9.82,1.67-12.68,1.43Q82.48,424.9,82,417q-.48-4.05-1.91-4.29h-.24Q75.3,420.6,71,441.11l.24,1.43v1h-.48q-1.92,27.43.23,37.68l2.15,7.39-.48.48h-.48l2.15,6,.72.24q7.18-17.41,7.9-25.52h.48l1.91,7.63q7.41,10.5,6.46,20.27-3.11,6.44-4.07,6.2c-.48,0-.64-.63-.48-1.91h-.48l-.24,2.15.72,1.19q-.48,1.43-3.11,2.38l-1.68-.72q-.24,1.43-3.35,1.91l-.48-.48H75.53l-1-1-4.07-.48.24-1,2.63.24q0-.72-3.85-1.19l-1.94-.72q-4.37-.47-8.75-15l1-.72a79.63,79.63,0,0,1-3.4-16.93l-.49.48h-.49l.24,4.05v.48h-.44A42.44,42.44,0,0,1,54,466.87l1,.24.44,4.05H56l.24-1.43-1-4.05-.49.48-1-.24.24-2.62,1,.24.24-2.38h-.48v1.43l-1-.24V449.22l.48.24-.24-.72,1-8.11q3.88-33.14,15-45.79ZM55,464.24l-.24,1h.48l.24-1Zm2.87-9.54-.24,1h.48l.24-1Zm6-18.84-1,1.67-.72,6-.48-.24-.48-.48H60.7l-1,4.29.48,1.43-.72.48h-.24l.72,5H59.5l.48.48-.24.48q-.72,2.15-1.44,1.91.24,19.8,2.63,27.66,1,0,.72,1.43h1L61.18,479l.48-.24h.48l.24,1.19.48.24v-1.43Q60.46,465,60.94,460.9h1v4.53l1,.24-.48-8.59.24-1.43,1-1.19q0-6.44-.72-6.44l.72-2.15.24-1-.72-3.34.48-.24L63.33,439l.24-1.67,1.2-1.43Zm-3.61,53.9v.48l1.44,4.29h.48v-.72l-1.44-4.05ZM62,466.39v.48l.24,1.43h.48v-.24l-.24-1.43Zm.72,14.07-.24,1.43h.59V480.7Zm.12-11.69v1.91h.48l.24-.48L63.09,469Zm.48,29.1q1.44,3.58,2.39,3.82L66,501C65.8,499.86,64.92,498.82,63.33,497.87Zm1.68-51-.72,3.1q1,.24,1,4.29h-.48v2.62h.72l1.44-5.25q-1,0-1.44-4.53Zm-.48,11.92V464l.48.24v-5.49Zm.48,8.11v1l.24,1.67h.48v-.72l-.24-1.91Zm1.44,10.49-.24.48.48,1.43h.48v-.48l-.24-1.43Zm3.11,24.8v.48l1.2.72h.48v-.48L70,502.4Z"/><path class="cls-1" d="M116,420.85h1.46q3.29.18,4.57,4l-1.28,4.37.91,6.37-.18,2.37.73,1.09-1.28,13.65.37,2-.37.36-.18.36.37,4-.18,3.46.18,2.18-.37.36.55,5.28-1.1,8.56h-.73l-.18-2.55q-1.1,0-1.1,2.18h-.73v-1.46l-.18-5.46h-.37l-1.46,5.28.73,6.37-.37.36v.36l.55,3.28-.73.73v.73H116l2.56-1.46.37.36v-1.64h.73l.18,2.18-.91.18v1.09q-.55,4.37-3.11,4.19h-1.46a2.63,2.63,0,0,0-.91-1.82l1.1-2.18a5.82,5.82,0,0,1-2.74-2.91l-.37-9.65.37-2v-8.56l-.18-1.46.18-.36-.18-2.55v-1.46h.73v.73h.37l-.18-3.46v-1.09l.37-1.64-.73-.18.91-3.1v-7.83l-.37-.36h-.37l.55-5.46.18-4.92.55-3.1-.37-.36V430a6.78,6.78,0,0,1,1.46-3.28l.37-4.92Zm-3.65,41.69V464h.37v-1.46ZM116,440l-.37.36.37.36-.18,4.92h.37l.37-1.64-.37-.36.18-.36.37-2.18v-.36Zm.18,26-.18,3.1h.37l.18-3.1Zm0-19.66v1.46h.37v-1.46Zm.18,1.82v1.09h.37v-1.09Zm.91,16.75-.18,2.91h.37l.55-1.09-.37-1.82Zm-.18,4.19v1.46l.37.18v-1.46Zm.37,2v.73h.37v-.73Zm.73-11.83-.55,5.1.37.18h.37l.18-5.28Zm.91,7.46-.18.73h.37v-.73Zm-.18,1.46v.73h.37v-.73Zm.18,4.92v2.55h.18l.18-2.55ZM124,426.67h.37q1.1.18,1.1,11.83-.73,0-.91,1.09a3.9,3.9,0,0,0,1.83,3.64A152.63,152.63,0,0,1,124,463.45l.37,1.64-.37,1.09q.73.18.73,5.83l-.55,8,.37.55v.36L124,482.2v.73l.37,1.46-.91,3.82h-.55v-3.1l-.55-6,.55-.36v-.36q-.73-1.64-1.46-10.38l.37-.36v-.36l-.37-1.09.55-4,.18-2.37-.73-1.09v-1.46L122,454l-.37-.36L122,452l.73-18.21.37-3.1-.18-1.09Q123.31,426.68,124,426.67Z"/><path class="cls-1" d="M160.77,410.84q10.34.42,24.49,6.52,8.65,4.42,13.51,14.3,2.32,0,2.32,7.57-3.38,6.1-4.85,5.89h-.42l-3.8-.63q-8.66,6.73-17.31,6.94a1.69,1.69,0,0,0-2.11,1.68l4.85,9.47q0,1.47,3.8,7.15A3.74,3.74,0,0,0,182.3,472l-.84.84c0,.42.77.91,2.32,1.47v.84l-.42.42v.21q.84.21,1.69,2.73c.84.14,1.19.56,1.06,1.26h.42v-1.05h.42c.84.28,1.19,1.05,1.06,2.31v1.26l1.48.42.42-.21h.63v1.89a19.17,19.17,0,0,1,2.53,9.68l-.42.42-.21-.21a18.42,18.42,0,0,0,1.06,6.94l-.42.42h-.42l-1.48-1.47v.21l.63,1.89-.42.42v.42l.42.42V504l-.42,1.05h-.84q-3.17-2.52-7-13.46-1.69,0-2.53-2.31l-1.9.21-1.06-1.26v-.42l.42-.42q.42-6.73-12.66-27.34-.85,0-.84-1.89l-1.06-1.26h.42c-.42-1.54-.92-2.31-1.48-2.31h-.63v.63h.63l-.21,6.1q-.21,4,.84,5.47l.42,20.4-.84,7.57h-.42a15.92,15.92,0,0,1-.42-5.47l-.84.84-.21,4.63c0,.28-.56.63-1.69,1.05,0,1.12-.35,1.68-1.06,1.68l-1.27-1.26-1.06.42-.42-.42-.42,1.89q-4.22-.42-4.22-1.47V496l.84-1.05-1.27-4,.42-.21-.84-.84.42-.42v-.42l-.42-5,1.06-.21.21-.42-.42-2.31.42-.42-1.06-7.36.21-4-.84-.21v-.63l.84-.84-.21-8.83.63-5.26-.42.21h-.42l-.21-.42v-.63l.84-.63-.63-5.47.63-1.26-1.06-2.52.84-.84h-.42l.84-1.05-.42-.42.21-2.31,1.27-1.89v-.42h-.42v.84h-.84v-6.52l.21-2.73-.21-2.74,1.48-1.05.21-4.63-.21-1.89.84-.63.21-3.58c0-.42-.35-.63-1.06-.63l-.42-.42v-.42l.42-.42,3,.21,3.17,1.26,1.06-.21.42.42Zm-9.71,63.1v.63h.42v-.63Zm4.58-8.62L153,468.26l-.42,8.2V483q1.27,0,1.69-4h.49l.49.42h.49l-.21-4.63.84-7.15h.84v-1.89l-.42-.21v1.26h-.89l.22-1.47Zm-.36,15.15-.21,1.68h.42v-1.68Zm1.69-8.62-.21,1.89h.42v-1.89Zm0-1.26v.84h.21l.21-.84Zm.21,3.58L157,477.1l.42.21.21-3.16Zm-.21,3.37v7.78l.63-.84-.21-6.94Zm3.17-62.68v.42h.42l.84-.63v-.42H161Zm.84,55.32-.21,2.73h.42l.21-2.73Zm0,7.36-.21,2.52V487H162l-.63,1.89h.84v-4.63l.21-3.79c-.84,0-1.27-.28-1.27-.84l.42-.21-.21-1.89Zm0-64.58.42.42.84.21v-1.26h-.42Zm.21,60.37-.21,3.37h.42l.21-3.37Zm1.27-49.85v.84h.21v-.84Zm4.64-2.31-.42.42-.42.21q-1.06,0-1.27,2.31h-.42l.42,1.05-.84,9.68-.42,5.89h.42l1.69-17.46.42-.42h.42l.42,1.26-1.27,7.15.42.42L164.78,442H166v-.21l-.42-.42q.63,0,1.69-10.31l-.21-.42-.42-2.73,1.06-3.79a1.17,1.17,0,0,0-1.06-1.26v-.63h1.9v-.42Zm-2.53,24.19v.42l.84.84.42-.42.21.21,1.06.42.42-.42.21-.42ZM169.42,422v.63a86.08,86.08,0,0,1-2.53,17.88l.63.84v.42h-.63l-.21.42h.42q18.36.21,18.57-2.1h-.42l-2.74.21.21-.84q7.6-.84,7.81-5.68.21-2.31-2.74-5,.21-1.26-8.44-4.21,0-2.1-7.39-2.52Zm-1.48,24v.42l1.9.84,2.74.21V447l-3.8-1.05Zm6.33,5.68.84.21v.63h-.84Zm16.25-2.94.42.42v.42l-4.22.63v-.84Zm4.64-12.41q-.43,3.37-1.48,3.37l-.21-.42h-.42l-.42,1.26h.84l2.53-1.05Q195.8,436.29,195.17,436.29Zm-1.9,7.57v.42l1.69-.21-.63-.84h-.42Zm5.49-12v.42l.21,1.26h.42v-.42l-.21-1.05Zm.63,2.1v.84h.42V434Zm.42,1.05-.21,2.73.84.84v-.84l-.21-2.73Z"/><path class="cls-1" d="M228.43,407.41q15.76,3.67,17.61,5.1l1.64-.41q4.91,2.86,7.78,13.46v4.28q-1.23.41-3.89,3.67-8.39,1.43-10.84,1.22-2-1.42-2.46-8.16c-.27-2.31-.82-3.53-1.64-3.67h-.21q-3.89,6.73-7.57,24.26l.21,1.22v.82h-.41q-1.64,23.45.2,32.22l1.84,6.32-.41.41h-.41l1.84,5.1.61.2q6.14-14.88,6.75-21.82h.41l1.64,6.52q6.34,9,5.52,17.33-2.66,5.5-3.48,5.3c-.41,0-.55-.54-.41-1.63h-.41l-.21,1.84.61,1q-.41,1.22-2.66,2l-1.43-.61q-.21,1.22-2.86,1.63l-.41-.41h-2.66l-.82-.82-3.48-.41.2-.82,2.25.2q0-.61-3.29-1l-1.66-.61q-3.74-.41-7.48-12.85l.83-.61a68.08,68.08,0,0,1-2.91-14.48l-.42.41h-.42l.2,3.47v.41h-.38a36.29,36.29,0,0,1-1.05-8.36l.85.2.38,3.47H216l.2-1.22-.83-3.47-.42.41-.84-.2.2-2.24.82.2.2-2h-.41v1.22l-.82-.2V454.1l.41.2-.2-.61.83-6.93q3.32-28.34,12.86-39.15Zm-13.29,59.54-.2.82h.41l.2-.82Zm2.46-8.16-.2.82h.41l.2-.82Zm5.12-16.11-.82,1.43-.61,5.1-.41-.2-.41-.41h-.41l-.82,3.67.41,1.22-.61.41h-.2l.61,4.28H219l.41.41-.2.41q-.61,1.83-1.23,1.63.2,16.93,2.25,23.65.82,0,.61,1.22h.82l-1.23-5.91.41-.2h.41l.2,1,.41.2v-1.22q-2-11.82-1.64-15.29h.82V468l.82.2-.41-7.34.2-1.22.82-1q0-5.51-.61-5.51l.61-1.84.2-.82-.61-2.85.41-.2-.2-2,.2-1.43,1-1.22Zm-3.08,46.08v.41l1.23,3.67h.41v-.61L220,488.76Zm1.55-20v.41l.2,1.22h.41v-.2l-.2-1.22Zm.61,12-.2,1.22h.51v-1Zm.1-10v1.63h.41l.2-.41-.41-1Zm.41,24.88q1.23,3.06,2,3.26l.2-.61A4.06,4.06,0,0,0,222.3,495.69Zm1.43-43.63-.61,2.65q.82.21.82,3.67h-.41v2.24h.61l1.23-4.49q-.82,0-1.23-3.87Zm-.41,10.19v4.49l.41.2v-4.69Zm.41,6.93V470l.2,1.43h.41v-.61l-.2-1.63Zm1.23,9-.2.41.41,1.22h.41v-.41l-.2-1.22Zm2.66,21.2v.41l1,.61h.41V500l-1-.41Z"/><path class="cls-1" d="M307.89,407.41h.17l.85,1.19-.34.17v.34l.17.34h.34l1-.68.51.85a5.26,5.26,0,0,1,3.06-.85l.17,1h.51l1.53-.17a2.58,2.58,0,0,0,1.53,1.87l.34-.17q-.17,1.19,1.53,1.7v.68l-1,1.36.34,1-1,1.53-.34,2.54-.51,1.7-.51-.17.17-1.36h-.34l-.85,3.22.17-.17h.34l.17,1.36q-1.53,8.14-3.06,21.19l.17,11.36-.17,1L311.64,463H311l.17-1,.17-4.92H311l-1.19,5.42.68.68a108.25,108.25,0,0,1-2.55,12.21,6.05,6.05,0,0,1,.17,2.54l.34.17.51-2.71-.17-.34v-.34l.34-1,.68.17-.34,3.22.51.17-1.7,11.7.17,1.53q-.17,1.36-3.74,8.48,0,1.53-2.72,2c-.34,1.25-.68,1.86-1,1.86l-2.72-.68v.34a4.92,4.92,0,0,1-2.55,2l-.17-1h-.17a4.36,4.36,0,0,1-3.74,1.53q-3.91-.51-9.7-8.82-9.53-11.19-9.19-17.46-2.21-9-2-12.55H271q-.68-1.53-1.36-8v-2.71l-.51-.68.17-2.37-.34-4.75.34-1-.34-2h.17l-.17-.85,1-20.34.85-6.1-.17-1.7q2.21.34,2.72-4.75l2.21-.34a6.54,6.54,0,0,1,4.59,2.54L282,414c-.11.68.23,1.08,1,1.19l.17.34h.34l-.34.34v.51l.34-.17,1.19.17q1.7.34,1.53,1.19v1q0,.51-1.87,1l-1.19,5.26.51.68q-.68-.17-1.87,8.65l.17,1.86-.85,1.86.34,3.9-.85,4.75.51,1.36-.34.34v.17a13.61,13.61,0,0,1,.85,6.27l.68,4.07-.17,1.19q-.85-.34-.68-2.37h-.34l-.34,3.56a15.71,15.71,0,0,0,1.36,4.58v.17h.34l-.34-5.6h.51A68.94,68.94,0,0,0,284.93,471v1h-.34q-.51-.17-1.36-4.58l-.17-.34-.68-.17v.34q-.17,2.21,2.72,15.77a39.79,39.79,0,0,0,5.78,10.34h.85a37.55,37.55,0,0,1-2.89-9.66,50.55,50.55,0,0,1,3.4,8.14h.51q.85-8.48,5.78-31.19l-.17-1.19q.85-6.1,1.53-6.1l-.34-2.71q.85-1,1.36-6.1h-.51l.17-1.7-.17-2,.51-1.7-.34-.34v-.34q.85-3.22,1.53-3.05l.68.68q.17-1.35.85-1.19l.34-4.07.34.17.34.68V432l-.85,6.27.51,1.36q-.85,4.07-1.7,4.75l.34.34V445l-.51,1,.17,2h-.34l-.17-.34-.34-.17-.51,2.37.17,1.7-.34.17h-.17v1.7l-.51,2.88.34.34-.51,2.37-.34,3.56v2l-.34,1.19v6.78l-.34.34v.17q.51,1,0,6.44h.34l.34-4.58h.34l-.34-.34v-.34l.34-.34-.17-.34.34-4.58.51.17v.51a7.79,7.79,0,0,0,.51,4.07l-.68,5.93h.17l.17.34h.34l-.34-2.71.68.17.17-3.39.68.17v.34l-.17,4.58.85-.51.68-15.6.51-1.86q.68,0,.34,7.63h.34l.17-2.2h.51v3.73l.68-.68.17-1.86h.68l.17-1.7h-.34l-.17,1-.51-.17.51-2.2v-.68l.68.17.17-2-.17-1.36.34-1v-4.58l1.36-5.26-.17-1.36,1-7.12H311l-.34,3.73a6.92,6.92,0,0,0,.17,3.56l-.51,3.05v2.37h.34l1-7.29v-.68l.34-1.19-.17-1.36q1-4.23,2.55-17.63l-.17-1.19.68-.85-.68-2.37h-.34l-.17,2.2h-.34l-.51-.68.34-1v-1.7l.17-2.2-.85-.51q-.51,2.88-.85,2.88l.17.34-.51,3.22-.34,3.05-.68.85v7.46h.34l.68-3.9h.51l-.17.34-.34,2.54q.85,0,1-2.54l.34-3.22h.51l-.34,4.75-.34.34.34,1.53q-.51,3.05-1.19,2.88h-.17l.17-1h-.34l-.17,2.37-.68-.17.34-3.22-.51-.17-.17.34-1,4.58v.34h.34V441h.68l-1.36,7.8-.68-.17.17-.51h-.17l-.51,1.19H307v-1l.85-2.88.17-2.71h-.17l-1.36,5.26-.68-.17,2.21-18,.51-1-.34-.34h-.17l.51-3.73.17-2.54h-.17l-1,5.09h-.68v-2.71h-.34l-.34,3.56h-.34l-.17-.34h-.34q-.17,2.38-.85,2.2c.11-.45-.11-.68-.68-.68l.17-1.7h.51l.17-1.86-.51-.85,1.7-8.65-.85-.85q-.17,1.7-.68,1.53l.17,1.69-1.36,4.24,1,.17-.85,2.2q.51,0,.51,1l-.68,2.88.17,3.05-1.36.51-.17,2-.51-.17.51-3.22h.68l.17-1.86-.85-3.39v-.68l.68-1V424l-.51-1,.68-.51q-.51-.85,0-8.82,1.36.17,2.55-3.56,2.72-.17,2.89-.68Zm-37.26,44.25-.17.68h.34v-.68Zm.34,5.09-.17,2.2v2.71l-.34.34q.85.68,1.7,8.82.51,0,1.36,8.82.68.34,1,3.05l-.34.34v.34q-.17.51,1.53,1.86l.68,1.7-.34,1h.17l1.7,1.53v-.34q-6.3-17.63-5.61-23.56l-1-8.81Zm-.17-1.7v.85l.34.17v-1ZM274,468.1v.68h.34v-.68Zm2.21-3.73-.34,1.19.51,7.12h-.51l-.51-3.73-.34-.17-.16,1.36.84,3.73h-.34q-.5-.17-1-4.24h-.32l1.31,7.46.34.17v-.34l-.17-1.36v-.34h.34q.51.17.51,1.19h.51l-.17-1.7v-.34h.85l.51,4.07-.34.34-.38-.34-.64-.17v2.37l-.34,1,.34-.34h.38l.77,2.2h.38v-.34l-.51-1.7h.68l.68,2.71-.34.34h-.34l.51,1.7h-.68L278,484h-.34v.34l1,4.07.34.17v-.68l-.19-1h.36q.51.17.51,1a3,3,0,0,1,1.7-.85l-1.53-6.1.51-1q-1.19-7.63-3.06-10l-.68-5.59Zm-1.87-49.16,1.7,1.19v-2Q274.38,414.53,274.38,415.2ZM275.57,480l-.17.17h.34l.34-1.19Q275.57,478.95,275.57,480Zm3.74-61.54-.17,1.53h.17l.17-1.53Zm.34,21.36-.34,2.88h.34l.17-2.88Zm-.34,5.93v1h.34v-1Zm.17-8.31.17,1.7H280v-1.7Zm.51,22.72v1.19l.17.17.51-1.36Zm.17,2v.51h.17l.17-.51Zm.17,1.19V464l.17.17.17-.68Zm.17-8.48h.68v-.68Zm.34-2.37-.17.68H281v-.68Zm.34,14.75v.68h.17l.17-.68Zm0,2.88v1h.17l.17-1Zm.34,21.7v.34a7.19,7.19,0,0,0,4.08,3.9v-.34l-.34-1.7h-.34l-.17.85-1.19-.17.17-.34.34-.17v-.34l-.34-.34.68-.68-.17-.34h-.68v.68l-.51-.17-1.19-1.19Zm.85-11.53q.34,2.71.85,2.88v-.34l-.17-3.05Zm.34-3.05-.17,1,.34.17v-1Zm0,12.38v.68l1,.85v-.68c-.57-.11-.8-.34-.68-.68Zm.34-6.27-.17.34q1.36,4.24,3.06,5.42h.34l-2.21-2.88Q284.08,483.53,283.06,483.35Zm2.38,14.41v.17h.68v-.17Zm.17-23.06h.17q.85.17,1.19,3.73l-.17.34h-.51Zm.34,23.9V499l1.87,1.36V500c.11-.45-.4-.85-1.53-1.19Zm10.72-21v.68H297v-.51Zm5.78,18.31-.51,1.36.34.34.17.17.17-1.7Zm-.17-24.58h.51l-.17,2.37-.51-.17Zm.85,13.39-.17,1.36.34.34h.34v-.34l-.17-1.36Zm.85-6.27-.68,4.07v.34h.34l.34-1.7.34-2.54Zm.85-7.12-.17,2.88.34.17.17-3.05Zm.34,6.27v1h.17l.17-.85Zm.85-5.09-.17,1.19h.34l.17-1.19Zm1-56.45c0,.34.28.57.85.68l.17.34v.34l-.17.34.17.34,1.19.17v-1Q309.26,416.22,307,416.05Zm1,25.09-.17.51h.34v-.51Zm1.53-14.92-1,5.26-.17,5.59h.17l.85-4.92.17-2.54.51-2-.17-1.36Zm.85-8.82-.51,2.2.34.34v.34l-.51,1.36.51,1.7h.17l1-3.56.17-2.37Zm-.34,38.48v1.36l.68-.68v-.51Zm5.61-21.7.51.17.17,1L314,452h-.51l.17-2-.34-2.88q.34-4.58,1.36-5.59l.34-3.39Zm1-8.48.51.17v1.19l-.51,2.37.51.68-.34.34h-.68l-.17-1.53.68-2.88Z"/><path class="cls-1" d="M345.28,386.87l1.39.23,3-.46q2.31-.23,5.55,3.46.23-1.84,1.39-1.85l.46-.23.46.46L358,388h.46l1.39.46V388c-.16-.61.23-.92,1.16-.92q.92,0,5.32,4.61l.46-.46h.93l3,10.38q3-.23,4.63,12.91h-.93v-.92h-.93v1.85l.46.46v.46L370,419.62l-.46.46h-.46l-1.62-.23q0,.69-3.24,1.38-7.64.23-7.87-4.61-.23-3.46-3.24-12h-.46l-.46.46h-.46l-.46-.46-.23,4.61.23,3q.69,16.84,9,24.91-4.4-7.61-4.4-9.22h.93a77.34,77.34,0,0,0,9.72,15.91l5.78,11.3,2.55,7.15-.46,2.77q2.31-.23,2.55,2.54-.23,3.46-1.16,4.61l2.08,8.07q-1.85,9.23-4.86,11.53h-.46V492q-1.85,0-7.64,5.3-3.24,2.54-10.18,4.15H352V500.1h.93v-.46l-4.4,1.15-.46-.46-.46.46v.46q-4.16.23-11.57-5.07a60.83,60.83,0,0,1-3.93-16.84V478a75.05,75.05,0,0,1,1.62-19.83h.93v1.61q2.78,18.22,7.17,24.45a17.23,17.23,0,0,0,6.25,6.23v.46h.46q13.88-5.3,13.42-15l-.46-1.85.23-1.85-.46-3.46.69-.92v-.46l-.46-3.23H361V465h-.93l-.93-4.84,1.16-.46q-6.94-14.3-8.56-14.07v1.85h-.93l-9.26-13.61q-4.16-8.3-4.4-9.69a79,79,0,0,1-2.31-16.37v-.46q-.69-13.6,6.25-19.6Zm3.93,111.62v.46l3.24-.23.93-.92v-.46Zm3-2.77.93.92,1.85-.23-.46-.46V495l7.17-3.23q-.93,0-1.16-1.38h-.46Q358,490.41,352.22,495.72Zm2.08,2.08v.46h1.62l.46-.69h.46l.93.92q0-1.15,1.85-1.38l-.23-.46h-.23l-1.85.46-.46-.23h-.46Zm5.09-50.27V448a54.57,54.57,0,0,1,5.79,21h-.46l.46.46.23,2.31-.69,8.07c.61,0,.93.46.93,1.38q1.62,0,1.62-9.92l-.69-1.38.46-.46.46-.23a40.21,40.21,0,0,1-2.31-11.53v-1.84q-3.47-8.3-4.86-8.3Zm.46,12.68v.92l.69,2.54H361l-.23-2.08-.46-1.38Zm1.62,25.6-.93,1.84H361l.93-1.38v-.46Zm-.69-96.4v.46h1.85v-.46Zm5.09,97.09-3.93,3.69h.46l3.93-3.69Zm-3.7-27.9v.92h.46v-.92Zm0,10.38v1.38h.46l.46-1.38Zm2.08,11.3q0,1.62-2.08,5.07l.23.46q.92,0,2.31-5.07v-.46ZM364,449.13v.46a9.54,9.54,0,0,1,1.62,4.38h.46l.23-1.61Q365.18,449.37,364,449.13Zm2.31,4.38.23,3.69L368,468.74h.46l-.23-9h.69v.92q.23,2.54,3.47,5.77V466L371,462.51l.23-1.85-.46.46h-.93l-2.55-7.61Zm3,14.76V471h.46v-2.77Zm.46-11.53v2.08h.46v-2.31Zm.46,2.54v.92h.46v-.92Zm1.39,25.6-.23,1.85v.46h.46l.69-2.31Zm0-80.71.23,1.84h.46l-.23-1.84Zm.69,2.31v.92h.46v-.92Zm.93,71.49-.69,5.53q1.16,0,1.16-3.69V478Zm0-1.15v.69h.46v-.69Z"/><path class="cls-1" d="M120.29,464.47l0-4.72c0-.89-4.53.09-4.8,1.06a32.63,32.63,0,0,0-1.19,8.31l4.83-1.28a8.47,8.47,0,0,1-.33-2.57c0-1.16-4.21.49-4.6.81-1.2,1-1,1.94-.29,3.18a8.39,8.39,0,0,1,1.37,5.15c-.08,1,4.38-.37,4.8-1.06l.14-.24c.46-.75-1.72-.51-1.93-.47-.87.14-2.33.47-2.84,1.31l-.14.24,4.8-1.06a7.49,7.49,0,0,0-.62-3.92c-.42-.88-2.12-2.49-.92-3.48l-4.6.81a8.47,8.47,0,0,0,.33,2.57c.3,1.07,4.82-.12,4.83-1.28a30.83,30.83,0,0,1,1.12-7.87l-4.8,1.06,0,4.72c0,.76,4.82.11,4.83-1.28Z"/><path class="cls-1" d="M310.32,422.93c-2.89,5.62-3.52,13.1-4.51,19.28-.39,2.43,4.56,2.13,4.9,0,.92-5.77,1.46-13.16,4.16-18.4,1.25-2.43-3.59-2.76-4.55-.89Z"/><path class="cls-1" d="M311.36,417.19q-.48,12.54-2.05,25l3.14,1.86-.1-.49c-.36-1.82-3.74-4.5-3.11-1.31l.1.49c.24,1.18,2.77,4.76,3.14,1.86q1.58-12.45,2.05-25c.06-1.63-3.07-5.21-3.18-2.4Z"/><path class="cls-1" d="M307.56,423.92a12.65,12.65,0,0,0-1.07,5.27c0,.68,4.92,1,4.92.88a12.65,12.65,0,0,1,1.07-5.27c.09-.21-2.22-.68-2.41-.71s-2.34-.55-2.51-.18Z"/><path class="cls-1" d="M306.4,423.77l-.88,7.75c-.09.77,4.74.5,4.91-1l.88-7.75c.09-.77-4.74-.5-4.91,1Z"/><path class="cls-1" d="M309.28,441.78c-.36,5.67-3.56,10.65-3.7,16.36l2.46-.42a23.28,23.28,0,0,1,.42-9.55c.18-.7-2.26-.5-2.42.15a24.2,24.2,0,0,0-.46,9.81c.1.66,2.45.28,2.46-.42.14-5.7,3.34-10.7,3.7-16.36,0-.54-2.42-.36-2.46.42Z"/><path class="cls-1" d="M307.36,444.1v.7c0,1.45,2.5,1.31,2.5-.14V444c0-1.45-2.5-1.31-2.5.14Z"/><path class="cls-1" d="M309.22,444.87c-1.08.24-1.2,4.65-1.41,5.86l-1,6.14c-.16,1,2.19,1.75,2.33.9.63-3.81,1.88-8,1.94-11.82a2.51,2.51,0,0,0-3.14-2.62c-1.41.31.44,1.73,1.3,1.54Z"/><path class="cls-1" d="M311.68,445.55a72.31,72.31,0,0,0-4.23,14.06c-.19,1,2,2.24,2.17,1.12a72.31,72.31,0,0,1,4.23-14.06c.38-.91-1.72-2.22-2.17-1.12Z"/><path class="cls-1" d="M307.13,452.63a169.4,169.4,0,0,1-4.75,18.64c-.16.51,1.87,1.59,1.84,1.7A169.4,169.4,0,0,0,309,454.32c.12-.59-1.87-1.5-1.84-1.7Z"/><path class="cls-1" d="M301.13,467.42a73.62,73.62,0,0,0-.3,10.42c0,1,2.31,1.88,2.26.51a70.3,70.3,0,0,1,.29-10c.11-1.05-2.13-2.15-2.25-1Z"/><path class="cls-1" d="M299.88,467.61V482c0,.69,1.31,1.93,1.31,2v-14.4c0-.69-1.31-1.93-1.31-2Z"/><path class="cls-1" d="M303.41,451.7a176,176,0,0,0-2.14,17.52c0,.52,2.33,1,2.34.88a176,176,0,0,1,2.14-17.52c.08-.45-2.31-1.07-2.34-.88Z"/><path class="cls-1" d="M305.69,453q1.41-6.29,2.44-12.65c.17-1.06-1.58-2.59-1.82-1.09q-1,6.36-2.44,12.65c-.24,1.05,1.49,2.58,1.82,1.09Z"/><path class="cls-1" d="M308.09,436.1l-5.15,25.32c-.15.72,2.16,1.56,2.26,1.08l5.15-25.32c.15-.72-2.16-1.56-2.26-1.08Z"/><path class="cls-1" d="M361.44,450.58c3.17,3.73,4.54,8.33,5.84,13,.28,1,2.76.86,2.43-.3-1.34-4.77-2.8-9.52-6.07-13.36-.65-.76-3.05-.31-2.2.69Z"/><path class="cls-1" d="M360.87,445.68l.07-.08a.76.76,0,0,0,.12-.93,1.28,1.28,0,0,0-1.23-.54c-.54.06-1.28.3-1.36,1-.17,1.32,1.58,2.87,2.25,3.93a45.74,45.74,0,0,1,2.92,5.43c.48,1,2.8.21,2.25-1a46.22,46.22,0,0,0-2.41-4.6q-.67-1.11-1.41-2.18c-.17-.25-1.18-1.35-1.14-1.62l-1.36,1,.14,0-1-.43.1.12.12-.93-.07.08c-1,1.19,1.25,1.78,2,.88Z"/><path class="cls-1" d="M132.36,77.76a235.44,235.44,0,0,0,46.43-3.55c.63-.11.36-1.08-.27-1a234,234,0,0,1-46.17,3.51.5.5,0,0,0,0,1Z"/><path class="cls-1" d="M100.39,77.39A251.22,251.22,0,0,1,54,82.48a.5.5,0,0,0,0,1,252.67,252.67,0,0,0,46.62-5.13c.63-.13.36-1.09-.27-1Z"/><path class="cls-1" d="M102.75,74.14A206.83,206.83,0,0,1,57.2,70.3c-.63-.12-.9.84-.27,1a208.09,208.09,0,0,0,45.82,3.87.5.5,0,0,0,0-1Z"/><path class="cls-1" d="M190.26,202.93c1.3,1.39,1.59,4,1.82,5.78,1.12,8.29-.69,17-2.47,25-.2.88,2.69.43,2.88-.43,1.81-8.16,3.62-17,2.49-25.39-.26-1.91-.61-4.56-2-6.06-.59-.64-3.33.4-2.71,1.07Z"/></g></g></svg>