<svg xmlns="http://www.w3.org/2000/svg" viewBox="0 0 233.47 161.24"><defs><style>.cls-1{fill:#fff;}.cls-2{fill:none;}.cls-3{fill:#df2127;}</style></defs><title>Fichier 5</title><g id="Calque_2" data-name="Calque 2"><g id="Calque_2-2" data-name="Calque 2"><path class="cls-1" d="M203.87,107.53c3.28-10.63,12.19-17.59,21-17.12l8.56-27.71L30.43,0,21.94,27.51C30.21,31.73,34.12,43,30.69,54s-13,18.17-22.2,17L0,98.54l203,62.7,8.56-27.71C204,128.93,200.59,118.16,203.87,107.53Z"/><path class="cls-2" d="M113.26,84.29h0ZM98.12,46.69a2.59,2.59,0,0,1-1.67-.43,11.14,11.14,0,0,1-2.73-1.92,1.31,1.31,0,0,1-.54-1.1,2.87,2.87,0,0,1,.07-.29l.11,0v0a.86.86,0,0,1,.27.08c.53.38,1,.82,1.59,1.15,1,.6,2.06,1.15,3.09,1.72.23.13.6.17.43.58A1.46,1.46,0,0,1,98.12,46.69Zm3.69,1.41h0Zm-5,27.78a7.51,7.51,0,0,1,0-2c0-.28.54-.3.51,0a7.09,7.09,0,0,0,0,1.94C97.39,76,96.88,76.12,96.84,75.88Zm1.42.54a8.51,8.51,0,0,1-.07-2.9c0-.27.55-.3.51,0a8.19,8.19,0,0,0,.07,2.8C98.83,76.56,98.31,76.65,98.27,76.42Zm1.42-.57a6.68,6.68,0,0,1-.3-1.65c0-.31.49-.4.51-.14a6.68,6.68,0,0,0,.3,1.65C100.27,76,99.76,76.09,99.68,75.85Zm-.62-3.44a8.37,8.37,0,0,0,1.71-.5.7.7,0,0,1,.26-.07l-.14.05A8.18,8.18,0,0,1,99.06,72.41Zm25.82-15.16.19,0a15.62,15.62,0,0,0,1.94-.07,18.91,18.91,0,0,0,2-.44c1.49-.39,3-.81,4.46-1.2h.12a2.25,2.25,0,0,1,.69.06,4.64,4.64,0,0,1-3.07,2c-.82.23-1.65.41-2.47.61-.32.08-.64.14-1,.18a13.81,13.81,0,0,1-2.86.13.62.62,0,0,1-.62-.68A.54.54,0,0,1,124.88,57.26Zm-20.32,1.47c.75.11,1,.27.88.65,0,0-.08.09-.16.13h0a.48.48,0,0,1-.4.24c-.47-.06-.63-.45-.45-1h.11Zm1.95.16a.57.57,0,0,1-.5-.82c.75.11,1,.27.88.65C106.86,58.81,106.63,58.91,106.51,58.89ZM132,49.36c-.24,0-.49,0-.73,0-.83,0-1.66-.1-2.5-.12-.43,0-.87.06-1.3.07s-1,0-1.56,0l-.26,0c-.28,0-.55.11-.83.15h-.12c-.54.07-1.08.16-1.63.18l-.21,0c-.28.06-.55.16-.83.2h-.12a6.93,6.93,0,0,1-.82,0,1.3,1.3,0,0,1,.93-.61l.17,0c1-.08,2-.27,3.06-.35s2.15-.17,3.23-.15,2.24.15,3.36.24a1.15,1.15,0,0,1,.32.14l0,.14H132Zm-12,4.41-.45.72-.45-.83h0l0,0h.06c-.29-.06-.59-.13-.9-.18-.06,0-.18.09-.21.17l0,.16c-.09.33-.14.33-.54.21a1.47,1.47,0,0,1-.06.31c-.08.3-.27.41-.73.41a3.32,3.32,0,0,1-1.5,0c-.21-.09-.53.07-.87.12-.21-.25-.46-.55-.7-.86,0,0,0-.09,0-.15s.05-.14.07-.14.21,0,.24-.14a1,1,0,0,0,0-.1.48.48,0,0,1,0-.16.29.29,0,0,1,.32-.21l0,.05h0l-.21.36a1.08,1.08,0,0,0,.52-.49.53.53,0,0,0-.09-.51h.05l0-.06.65.14.57-.06a10.59,10.59,0,0,1,2.68.24,1.38,1.38,0,0,1,.21,0c.24.06.58-.07.63.36,0,.07.17.18.27.19.36,0,.38.31.45.47l0,0Zm13.1-8.19h0Zm-.48-.7h0l-.22-.08.22.08C132.65,44.78,132.65,44.78,132.66,44.88Zm-2.25,1.76c.83,0,1.67,0,2.51.07.23,0,.66.47.28.49s-.87-.09-1.3-.1-.91,0-1.36,0c-.73,0-1.46.07-2.18.13-1,.08-1.92.17-2.87.27s-2.13.25-3.19.4c-.43.06-.86.17-1.28.27s-.78.07-1-.44a1.57,1.57,0,0,1,.34-.13c1.86-.26,3.71-.57,5.57-.76C127.42,46.71,128.92,46.68,130.41,46.64ZM121.07,40a2,2,0,0,1,1.23-.54l-.16.21,0,0h.05l1.16-.28a1,1,0,0,1-1.16.28h0l-.15.35-.14-.23c-.23.16-.46.33-.69.48,0,0-.13,0-.2,0S121,40.06,121.07,40Zm-.46.11-.07.24.07-.24Zm0,.22h0Zm-4.33,4.13A32.79,32.79,0,0,1,126,40.9c.51-.1.89.47.24.59A31.36,31.36,0,0,0,117,44.93C116.64,45.12,115.78,44.76,116.29,44.47Zm-14.15,6.64h0v0h0Zm-2.14,4a.72.72,0,0,1,.18-.17l.42-.2a1.64,1.64,0,0,1,.29.37,4.09,4.09,0,0,0,.25.56c.12.2.31.36.43.57.27.48.36.55.89.36.94-.34,1.85-.74,2.78-1.08a2.69,2.69,0,0,1,1-.14c.12,0,.25.27.33.44a.57.57,0,0,1,0,.39c-.13.34-.48.29-.75.39-.77.28-1.54.58-2.31.88a6.87,6.87,0,0,0-.64.32c-.19,0-.38,0-.46.07-.28.26-.53.06-.7-.08a5.09,5.09,0,0,1-.67-.8c-.27-.33-.53-.68-.8-1s-.35-.4-.51-.59l0,0Zm-1.41,1,.11,0c.07.1.12.25.21.3.38.18.37.51.36.83s-.12.3-.26.29a.3.3,0,0,1-.32-.07c-.2-.16-.38-.36-.59-.56.31-.16-.18-.51.18-.68l.29-.09Zm-1.24-1.19a.29.29,0,0,1,.08.14c0-.22.07-.3.2-.26s.17,0,.44.14l0,0c.42.11.55.27.48.58,0,.09-.25.19-.38.17-.38-.07-.56-.28-.55-.58l-.17-.08h0A.29.29,0,0,0,97.34,54.91Zm-.23,2.37c-.2.08-.63-.22-.67-.44-.08-.42.11-.7.52-1l0,.05.1-.07c.12.3.24.56.33.83s.11.47-.18.59h-.12Zm-.71,3.51c0-.06,0-.13,0-.19a2.72,2.72,0,0,1,.14-1.16v0l0-.11a3.31,3.31,0,0,1,.26-.55s.39,0,.77,0a2.28,2.28,0,0,1,.43,0c.12,0,.62,0,1.31.11a6.59,6.59,0,0,1,1.92.24l.06,0h0c.65.39,1.19.72,1.65,1,.22.16.43.31.62.46l.13.11.1.09.07.06.1.1,0,.06-.07.12-.14.23-.11.17-.08.12c-.11.15-.23.3-.36.46a5.07,5.07,0,0,1-1,.94c-1.16.77.55-2.87.55-2.87l.22.11,0,0a1.1,1.1,0,0,0-.35-.13c-.07,0-.21.26-.26.06a.56.56,0,0,0-.22-.31s0,.28-.11.21a1.19,1.19,0,0,1-.38-.31c-.07.06-.25.16-.36.08a.44.44,0,0,1-.18-.3s0-.1-.27,0-.29-.13-.43-.24-.05.21-.29.15a.6.6,0,0,1-.35-.35s0,.2-.19.18-.29-.32-.41-.31,0,.25-.26.16a.47.47,0,0,1-.33-.29s0,.11-.27.1l0,0c-.6.45-.83,2.71-.83,2.71v.35A2,2,0,0,1,96.4,60.79Zm-.52,8.86-.16-.07h.12Zm-2.21,5.78a11.21,11.21,0,0,1,.66-2.75c.07-.2.57-.18.48.05a10.86,10.86,0,0,0-.63,2.66C94.16,75.62,93.65,75.65,93.67,75.43Zm.81-4.25a.63.63,0,0,1-.49-.63.34.34,0,0,1,.27-.23h0l.08,0a4.37,4.37,0,0,1,.59.23,11.34,11.34,0,0,0,1.42.43c.66.13,1.34.19,2,.26a6.42,6.42,0,0,0,1,0,8.6,8.6,0,0,0,1.78-.33l.13,0c.12,0,.24,0,.29.14a.4.4,0,0,1-.05.37,2.32,2.32,0,0,1-1.44.6l-.4,0A12,12,0,0,1,97,71.82l-1.38-.19C95.14,71.44,94.82,71.3,94.48,71.18Zm.86,4.94c.16-.88-.3-2,.51-2.59.14-.11.6,0,.34.2-.61.48-.22,1.71-.34,2.36C95.81,76.33,95.31,76.33,95.34,76.13Z"/><path class="cls-2" d="M98.5,101.33c-.25.21-.49.42-.73.61a9.55,9.55,0,0,1-.8.57q1.76.61,3.49,1.28a27,27,0,0,0-1.76-2.64Z"/><path class="cls-2" d="M91.82,98.36l0,.1,0,.06c-.16.37-.32.73-.51,1.08s-.36.66-.56,1l2.3.67c-.37-.72-.81-1.74-1.28-2.91Z"/><path class="cls-2" d="M94.66,56.7h-.08c-1.74-.37-3.47-.76-5.2-1.17l-.19,0-3.55-.87-.13.52q4.58.73,9.12,1.63Z"/><path class="cls-2" d="M91,55.16q1.91.44,3.82.85l.14,0,.15-.27a1.5,1.5,0,0,1-.42,0q-4.35-1.33-8.64-2.86-.15.48-.29,1,2.23.57,4.47,1.09Z"/><path class="cls-2" d="M113,89.45s-.16.1-.39.12L109,92.76h0s-3.33,2.69-6.28,5.1c0,.07,0,.15,0,.22l0,0a23.71,23.71,0,0,1-.49,6.45,23.37,23.37,0,0,1-.67,2.47,24,24,0,0,1-3.14,6.21c.1.15.05.33-.3.37-1,.11-2,.19-3,.33-.68.09-1.92.11-1.72,1.32.28.62,1.45,1,2,1.12.69.18,1.27,0,1.9.37a2.7,2.7,0,0,1,.44.38l.28.3q.81,1,2.3-.36c-.12-.46.8-.45,1-.12a4.4,4.4,0,0,0,1.41,1.71c.27.19,1.22.79,1.56.67.53-.19.59-.68.46-1.22a9,9,0,0,0-.77-1.6,8.17,8.17,0,0,1-.8-2,5.18,5.18,0,0,1-.14-2.24,19,19,0,0,1,1.29-4.42,32.67,32.67,0,0,1,2.89-5.29,89,89,0,0,1,6.94-8.65c2.27-2.65,4.28-5.7,4.1-9.26l-.74.65c-1,.89-2,1.8-3,2.67-.48.42-1,.83-1.47,1.24l-.15.14Z"/><path class="cls-2" d="M100.36,99.78l-.19.15-.81.67a31.25,31.25,0,0,1,2,2.94,23.54,23.54,0,0,0,.38-4.91Z"/><path class="cls-2" d="M77,109.19c1.24,1.48,2.62.81,4,1.43a2.42,2.42,0,0,1,.56.39c1.12.89.63.73,2.6.79a2.77,2.77,0,0,1,1.14.17c.15.06.21.26.35.32,3,1.25,2.37-.37,2.12-1.62-.49-2.46-1.06-5,.1-7.4.11-.22.23-.44.36-.65.56-.95,1.25-1.83,1.79-2.79A17.81,17.81,0,0,0,91.32,97a69.68,69.68,0,0,1-3.08-10.29l0-.12c-2.64,3.61-3.52,8-4.56,12.23-.22.89-.44,1.77-.69,2.65l-.16.54c-.51,1.71-1.23,4.89-2.87,5.88a2.2,2.2,0,0,1-1.27.29c-.4,0-.77-.27-1.15-.29-.76,0-1,.23-.92.62A2.4,2.4,0,0,0,77,109.19Z"/><path class="cls-2" d="M139.78,110.32c.12.23.52,1.15.65,1.33.41.62.84,1.23,1.32,1.81a6.52,6.52,0,0,0,1.2,1.22,5,5,0,0,0,2.89.77,10.06,10.06,0,0,0,2.06-.1,5.43,5.43,0,0,0,2.67-1.51,16,16,0,0,0,3.34-3.7c.37-.67.82-1.29,1.15-2,.63-1.29,1.2-2.6,1.78-3.9a6.35,6.35,0,0,0,.28-4.35c-.08-.3-.21-.59-.31-.89l-.11,0a1.36,1.36,0,0,0-.09.29c0,.66,0,1.33-.13,2a13.75,13.75,0,0,1-.41,2.4,11.83,11.83,0,0,1-1,2.34,8.65,8.65,0,0,1-2.41,2.8c-.76.55-.72.52-2.34,1.6a5.11,5.11,0,0,1-3.38.83c-3-.32-6.08-5.07-6.32-5.38-.4-.52-.83-1-1.27-1.5-.1-.11-.6-.48-.71-.62l-.09.06c0,.18.37,4.65.31,4.9A15.14,15.14,0,0,1,139.78,110.32Zm-.7-3.52,0-.05,0,0Z"/><path class="cls-3" d="M101.36,103.55a31.25,31.25,0,0,0-2-2.94l-.65.54a27,27,0,0,1,1.76,2.64l.77.3C101.28,103.91,101.32,103.73,101.36,103.55Z"/><path class="cls-3" d="M101.24,104.09l.46.18-.3-.54v-.07l-.06-.12C101.32,103.73,101.28,103.91,101.24,104.09Z"/><path class="cls-3" d="M112.08,102.41c-.42-.15-1.13.32-.52.54a16,16,0,0,1,2.15.94c.26-.08.64,0,.72.22,0,.07,0,.15.06.22a16.79,16.79,0,0,1,6.94,9.06,27.1,27.1,0,0,1-.06-2.74A16.4,16.4,0,0,0,112.08,102.41Z"/><path class="cls-3" d="M123.5,116.63q.08.28.14.55l0,0C123.62,117,123.56,116.82,123.5,116.63Z"/><path class="cls-3" d="M123.15,115.55q.09.23.16.46c-.29-1-.6-1.92-.91-2.84,0,.1,0,.2,0,.3,0,.31-.72.34-.93.1q.29.83.54,1.69c.11.39.23.78.35,1.19l.06,0a10.75,10.75,0,0,0-.37-1.19C121.69,114.29,122.93,115,123.15,115.55Z"/><path class="cls-3" d="M113.71,103.88q.4.21.79.44c0-.07,0-.15-.06-.22C114.35,103.87,114,103.8,113.71,103.88Z"/><path class="cls-3" d="M121.43,113.43a.22.22,0,0,0,.06.13l-.06-.17Z"/><path class="cls-3" d="M122.41,113.18a29.66,29.66,0,0,1,1.84-12.11c.15-.39-.83-.5-1-.18a30.42,30.42,0,0,0-1.93,9.77,18,18,0,0,1,1,2.28Z"/><path class="cls-3" d="M122.42,113.47c0-.1,0-.2,0-.3l-.08-.24a18,18,0,0,0-1-2.28,27.1,27.1,0,0,0,.06,2.74l.06.17C121.71,113.81,122.45,113.78,122.42,113.47Z"/><path class="cls-3" d="M101.74,98.64a23.54,23.54,0,0,1-.38,4.91l.06.12a23.54,23.54,0,0,0,.37-4.84l.91-.74c0-.07,0-.15,0-.22Z"/><path class="cls-3" d="M118.21,84.62c.18,3.55-1.84,6.61-4.1,9.26a89,89,0,0,0-6.94,8.65,32.67,32.67,0,0,0-2.89,5.29,19,19,0,0,0-1.29,4.42,5.18,5.18,0,0,0,.14,2.24,5.17,5.17,0,0,1-.09-2.06,19,19,0,0,1,1.29-4.42c.31-.74.66-1.47,1-2.18.57-1.08,1.2-2.12,1.86-3.11a89,89,0,0,1,6.94-8.65c2.27-2.65,4.28-5.7,4.1-9.26l.89-.78c0-.07,0-.14,0-.21Z"/><path class="cls-3" d="M87.88,85.7a.26.26,0,0,1,.13-.07l0-.19a.27.27,0,0,0-.14.08c-3.15,3.77-4.1,8.51-5.23,13.15h.1C83.8,94.08,84.77,89.42,87.88,85.7Z"/><path class="cls-3" d="M91.8,98.27l-.39-1L91.32,97a17.81,17.81,0,0,1-1.25,2.79c-.54,1-1.23,1.84-1.79,2.79-.13.21-.25.43-.36.65-1.16,2.36-.59,4.94-.1,7.4.25,1.26.85,2.87-2.12,1.62-.14-.06-.2-.26-.35-.32a2.77,2.77,0,0,0-1.14-.17c-2-.06-1.48.1-2.6-.79a2.42,2.42,0,0,0-.56-.39c-1.42-.63-2.8,0-4-1.43a2.4,2.4,0,0,1-.41-.65,2,2,0,0,0,.46.84c1.24,1.48,2.62.81,4,1.43a2.42,2.42,0,0,1,.56.39c1.12.89.63.73,2.6.79a2.77,2.77,0,0,1,1.14.17c.15.06.21.26.35.32,3,1.25,2.37-.37,2.12-1.62-.49-2.46-1.06-5,.1-7.4.11-.22.23-.44.36-.65.5-.84,1.09-1.62,1.59-2.46l.2-.33a17.81,17.81,0,0,0,1.25-2.79l.08.22.35.92v0Z"/><polygon class="cls-3" points="84.37 81.12 84.39 81.12 84.38 81.1 84.37 81.12"/><path class="cls-3" d="M99.15,57.22a.29.29,0,0,1-.14.27c.14,0,.26-.09.26-.29s0-.65-.36-.83c-.1,0-.14-.2-.21-.3l-.11,0c.06.1.11.24.2.28C99.17,56.56,99.16,56.9,99.15,57.22Z"/><path class="cls-3" d="M101.81,48.1h0Z"/><path class="cls-3" d="M97.61,53.75l-.6.49-.18.22.9-.74-.12-.14-.07.07Z"/><path class="cls-3" d="M105.43,93.59l.1-.09-.07,0Z"/><path class="cls-3" d="M97.94,55,98,55l0,0c-.27-.15-.38-.2-.44-.14a1.76,1.76,0,0,1,.32.16Z"/><path class="cls-3" d="M95.1,57.32l.11-.09,0,0h0Z"/><path class="cls-3" d="M131.14,57.58c-.82.23-1.65.41-2.47.61-.28.07-.56.12-.84.16.32,0,.64-.11,1-.18.83-.2,1.66-.38,2.47-.61a4.64,4.64,0,0,0,3.07-2,2.25,2.25,0,0,0-.69-.06h0a3.85,3.85,0,0,1,.61.07A4.64,4.64,0,0,1,131.14,57.58Z"/><path class="cls-3" d="M126.89,57.18l.11,0a15.62,15.62,0,0,1-1.94.07l-.19,0h.07A15.53,15.53,0,0,0,126.89,57.18Z"/><path class="cls-3" d="M120,47.75c.21.52.58.54,1,.44s.85-.21,1.28-.27q1.59-.22,3.19-.4c1-.11,1.91-.19,2.87-.27.73-.06,1.45-.1,2.18-.13.45,0,.91,0,1.36,0s.87.12,1.3.1-.05-.48-.28-.49c-.84,0-1.67-.09-2.51-.07-1.5,0-3,.06-4.48.21-1.86.19-3.71.49-5.57.76A1.57,1.57,0,0,0,120,47.75Z"/><path class="cls-3" d="M119.61,53.25c-.1,0-.26-.11-.27-.19,0-.43-.39-.3-.63-.36a1.38,1.38,0,0,0-.21,0,10.59,10.59,0,0,0-2.68-.24l-.57.06-.65-.14,0,.06.59.12.57-.06a10.59,10.59,0,0,1,2.68.24,1.38,1.38,0,0,1,.21,0c.24.06.58-.07.63.36,0,.07.17.18.27.19.35,0,.38.29.44.45l0,0C120,53.56,120,53.27,119.61,53.25Z"/><path class="cls-3" d="M118.07,53.75l0-.16h0Z"/><path class="cls-3" d="M117.47,54.28a1.47,1.47,0,0,0,.06-.31h0A1.8,1.8,0,0,1,117.47,54.28Z"/><path class="cls-3" d="M119.23,53.6h-.06l0,0,.16,0Z"/><path class="cls-3" d="M114,53.49c0,.09-.09.14-.24.14s-.05.07-.07.14,0-.09.05-.09C113.92,53.68,114,53.61,114,53.49Z"/><path class="cls-3" d="M114.35,53.07l0-.05a.29.29,0,0,0-.32.21A.29.29,0,0,1,114.35,53.07Z"/><path class="cls-3" d="M114.68,52.94a1.08,1.08,0,0,1-.52.49l0,.06A1,1,0,0,0,114.68,52.94Z"/><path class="cls-3" d="M96.27,71c.66.13,1.34.19,2,.26a6.46,6.46,0,0,0,1.15,0,6.42,6.42,0,0,1-1,0c-.67-.06-1.34-.13-2-.26A11.34,11.34,0,0,1,95,70.55a4.37,4.37,0,0,0-.59-.23l-.08,0c.19,0,.37.16.56.22A11.34,11.34,0,0,0,96.27,71Z"/><path class="cls-3" d="M101.51,71a.4.4,0,0,1-.05.37A2.32,2.32,0,0,1,100,72l-.28,0,.4,0a2.32,2.32,0,0,0,1.44-.6.4.4,0,0,0,.05-.37c-.06-.15-.17-.16-.29-.14A.19.19,0,0,1,101.51,71Z"/><path class="cls-3" d="M98.32,45.88c-1-.58-2.08-1.12-3.09-1.72-.56-.33-1.05-.77-1.59-1.15a.86.86,0,0,0-.27-.08v0a.4.4,0,0,1,.16.06c.53.38,1,.82,1.59,1.15,1,.6,2.06,1.15,3.09,1.72.23.13.6.17.43.58a1.49,1.49,0,0,1-.51.21,1.46,1.46,0,0,0,.63-.23C98.91,46.05,98.55,46,98.32,45.88Z"/><path class="cls-3" d="M132.19,49.2a1.15,1.15,0,0,0-.32-.14c-1.12-.09-2.24-.22-3.36-.24s-2.15.06-3.23.15-2,.27-3.06.35l-.17,0h.05c1-.08,2-.27,3.06-.35s2.15-.17,3.23-.15,2.24.15,3.36.24a1.15,1.15,0,0,1,.32.14l0,.12h.12Z"/><path class="cls-3" d="M124.85,49.5c.28,0,.55-.11.83-.15-.3,0-.59.11-.89.16Z"/><path class="cls-3" d="M122.06,49.93c.28,0,.55-.14.83-.2-.3,0-.59.15-.89.2Z"/><path class="cls-3" d="M97.42,56.68c-.1-.27-.21-.53-.33-.83l-.1.07c.11.28.22.53.31.78s.1.46-.16.58h.1C97.52,57.15,97.5,56.91,97.42,56.68Z"/><path class="cls-3" d="M106,60.64l.12,0-.05,0Z"/><path class="cls-3" d="M106.13,59.87s0,.07,0,.1l.12,0c0-.06,0-.11,0-.16,0-.24-.33-.58-.45-.45A.59.59,0,0,1,106.13,59.87Z"/><path class="cls-3" d="M105.28,59.51c.08,0,.14-.08.16-.13.1-.39-.13-.55-.88-.65v0C105.2,58.86,105.4,59,105.28,59.51Z"/><path class="cls-3" d="M102.28,48.84c-.24-.29-.62-.37-.92-.57l.33-.16c-.43-.18-.85-.38-1.29-.54.44.15.86.36,1.29.54h0l0,0,0,0h0a6.4,6.4,0,0,0-1.69-1.05S100,47,100,47s-.31-.32-.54,0a.23.23,0,0,1-.24,0c-.22-.15-.37.06-.48.15l-.07.77.64-.43-.1-.12c.22.1.47.19.7.32,0,0,.07.17,0,.24-.15.43-.15.44.18.55-.23.45-.22.65.12.92s.49.6.9.66a.41.41,0,0,1,.23.19l.92-.71A.86.86,0,0,1,102.28,48.84Zm-1.55.4a1.13,1.13,0,0,1-.27,0s-.1-.21-.07-.24a.4.4,0,0,1,.28-.11.27.27,0,0,1,.14,0c.08,0,.14.14.28.29Z"/><path class="cls-3" d="M102.37,50.18a.13.13,0,0,0,0-.06l-.14.11Z"/><path class="cls-3" d="M102.36,49.21l0,.24.13-.1A.27.27,0,0,0,102.36,49.21Z"/><path class="cls-3" d="M101.82,48.16l0,0,0,0Z"/><path class="cls-3" d="M100.67,48.91h0c.08,0,.14.14.28.29l-.23,0,.35-.06c-.13-.15-.19-.27-.28-.29A.27.27,0,0,0,100.67,48.91Z"/><path class="cls-3" d="M106,58.07a.57.57,0,0,0,.5.82c.12,0,.35-.08.38-.17C107,58.34,106.75,58.17,106,58.07Z"/><path class="cls-3" d="M97.79,55.15l0,.05-.16-.07c0,.3.17.52.55.58.12,0,.35-.08.38-.17.08-.3-.05-.47-.48-.58l-.16.21Z"/><path class="cls-3" d="M97.79,55.15l.08,0L98,55l-.09,0Z"/><path class="cls-3" d="M97.39,79.25c-.07.53-.42,1-.48,1.58a43,43,0,0,0,1.77,18.65l.74-.64a.4.4,0,0,0,0-.18A43,43,0,0,1,97.39,79.25Z"/><path class="cls-3" d="M95.49,95.9c-.08-1.91-.15-3.82-.18-5.74s0-3.65,0-5.47c0-.8.08-1.6.16-2.4,0-.39.42-2.11.11-1.26a29.58,29.58,0,0,0-.8,7.28c0,2.48,0,5,.13,7.45a46.13,46.13,0,0,0,.31,6.15l.42.14.37-.32a.39.39,0,0,0,0-.08A22.74,22.74,0,0,1,95.49,95.9Z"/><path class="cls-3" d="M95.63,80.94l.22-.73C95.77,80.45,95.7,80.7,95.63,80.94Z"/><path class="cls-3" d="M95.85,80.21c0-.16.09-.32.15-.48C96,79.86,95.9,80,95.85,80.21Z"/><path class="cls-3" d="M95.53,81.25l.08-.21,0-.1Z"/><path class="cls-3" d="M94.12,98.89c-.32-3-.73-6.08-.91-9.13a26.55,26.55,0,0,1,1.45-10.09c.12-.36.23-.72.33-1.08,0-.07.17-.57.08-.29a46.93,46.93,0,0,0-2.24,8.49c-.49,3.7.05,7.54.52,11.28l.58,1.49A1.32,1.32,0,0,0,94.12,98.89Z"/><path class="cls-3" d="M94.8,57.48l-.14.11.12-.48-.3-.06-.09.18c-.72,1.43-.34,2.6-.1,4.1a34.56,34.56,0,0,1,.18,7.12.18.18,0,0,0,.08.16,1.8,1.8,0,0,1,.4-1.66l.12-.5c.06-.28.14-.61.22-1a33,33,0,0,0-.17-3.4,22.82,22.82,0,0,1-.45-3.18l-.28.24c0-.3,0-.59,0-.87s.11-.29.45-.33l0-.06c.07-.18.15-.37.23-.56l-.32.25Z"/><path class="cls-3" d="M102.33,49.44l-.08.06a1.45,1.45,0,0,0,.05.15Z"/><path class="cls-3" d="M96.83,54.46l-.08.07,0,0-.08.07-.1-.11c.15-.23.21-.53.58-.55h.07c.1,0,.2-.18.3-.27l.05.06.07-.08h0a26.55,26.55,0,0,1,3.17-2.23c.51-.36,1-.75,1.5-1.13l-.71.3c-.09-.1-.16-.22-.23-.31-.42.32-.84.64-1.27.94a19.94,19.94,0,0,0-3.36,2.44,8.72,8.72,0,0,0-.7.86l.66.21Z"/><path class="cls-3" d="M95.16,55.78l-.15.27c.4.19.1.67-.35.64l0,.06.68.13a14.79,14.79,0,0,1,.92-1.59l-.65-.21-.29.47.16.05C95.72,55.69,95.45,55.76,95.16,55.78Z"/><path class="cls-3" d="M102.42,49.61c-.08.16-.1.25,0,.35a.32.32,0,0,1,0,.15c.35-.27.7-.54,1.05-.8l0,0,0,0a15.21,15.21,0,0,1,1.55-1,32.26,32.26,0,0,1,6.62-2.76c.47-.14-.05-.49-.36-.4a33.5,33.5,0,0,0-6.57,2.71,18.1,18.1,0,0,0-2.24,1.5A.36.36,0,0,1,102.42,49.61Z"/><path class="cls-3" d="M97.52,53.65h0l.07-.07h0Z"/><path class="cls-3" d="M96.7,54.48l0,0,.08-.07.18-.22Z"/><path class="cls-3" d="M97.18,53.87h0Z"/><path class="cls-3" d="M95,57.16l0,.09-.29.23,0,.09.32-.25.06-.13Z"/><path class="cls-3" d="M102.27,50.22l.14-.11a.32.32,0,0,0,0-.15c-.13-.1-.1-.19,0-.35a.36.36,0,0,0,0-.27l-.13.1,0,.2a1.45,1.45,0,0,1-.05-.15l-.92.71c.07.1.14.21.23.31Z"/><path class="cls-3" d="M136.17,112.61h0v0Z"/><path class="cls-3" d="M134.82,116.79l.21-.33a4.28,4.28,0,0,0,.23-.83c.2-.59.45-1.16.63-1.76a2.53,2.53,0,0,0,.17-.9C135.72,113.93,135.26,115.27,134.82,116.79Z"/><path class="cls-3" d="M96.56,56.82a.86.86,0,0,1,.42-.91l0-.05c-.41.28-.61.56-.52,1,0,.22.47.52.67.44h0A.76.76,0,0,1,96.56,56.82Z"/><path class="cls-3" d="M97.3,56.69c-.09-.25-.2-.5-.31-.78a.86.86,0,0,0-.42.91.76.76,0,0,0,.57.45C97.4,57.15,97.38,56.92,97.3,56.69Z"/><path class="cls-3" d="M96.57,46.24a11.14,11.14,0,0,1-2.73-1.92,1.31,1.31,0,0,1-.54-1.1,2.05,2.05,0,0,1,.06-.25l-.11,0a2.87,2.87,0,0,0-.07.29,1.31,1.31,0,0,0,.54,1.1,11.14,11.14,0,0,0,2.73,1.92,2.59,2.59,0,0,0,1.67.43A2.8,2.8,0,0,1,96.57,46.24Z"/><path class="cls-3" d="M98.2,45.9c-1-.58-2.08-1.12-3.09-1.72-.56-.33-1.05-.77-1.59-1.15a.4.4,0,0,0-.16-.06,2.05,2.05,0,0,0-.06.25,1.31,1.31,0,0,0,.54,1.1,11.14,11.14,0,0,0,2.73,1.92,2.8,2.8,0,0,0,1.54.45,1.49,1.49,0,0,0,.51-.21C98.79,46.07,98.43,46,98.2,45.9Z"/><path class="cls-3" d="M125,58.48a13.81,13.81,0,0,0,2.86-.13,13.94,13.94,0,0,1-2.73.11.62.62,0,0,1-.62-.68.54.54,0,0,1,.41-.52.54.54,0,0,0-.53.54A.62.62,0,0,0,125,58.48Z"/><path class="cls-3" d="M129.17,56.7c1.48-.39,2.95-.81,4.42-1.19h-.08c-1.49.39-3,.81-4.46,1.2a18.91,18.91,0,0,1-2,.44h0A18.16,18.16,0,0,0,129.17,56.7Z"/><path class="cls-3" d="M124.47,57.78a.62.62,0,0,0,.62.68,13.94,13.94,0,0,0,2.73-.11c.28,0,.56-.1.84-.16.83-.2,1.66-.38,2.47-.61a4.64,4.64,0,0,0,3.07-2,3.85,3.85,0,0,0-.61-.07c-1.48.38-2.95.81-4.42,1.19a18.16,18.16,0,0,1-2.16.46h0l-.11,0a15.53,15.53,0,0,1-1.94.07h-.07A.54.54,0,0,0,124.47,57.78Z"/><path class="cls-3" d="M97.59,55.06l-.05,0a.57.57,0,0,1,.08-.24c-.13,0-.16,0-.2.26l.17.08S97.59,55.08,97.59,55.06Z"/><path class="cls-3" d="M97.54,55l.05,0a1,1,0,0,1,0-.16l.31.06h0a1.71,1.71,0,0,0-.32-.16A.57.57,0,0,0,97.54,55Z"/><path class="cls-3" d="M97.79,55.15l-.2-.09s0,0,0,.07l.16.07Z"/><path class="cls-3" d="M97.94,55l-.31-.06a1,1,0,0,0,0,.16l.2.09Z"/><path class="cls-3" d="M122.05,49.36a1.3,1.3,0,0,0-.93.61,6.93,6.93,0,0,0,.82,0H122c-.22,0-.45,0-.76,0A1.36,1.36,0,0,1,122.05,49.36Z"/><path class="cls-3" d="M128.93,49.23c-.43,0-.87.06-1.3.07s-1,0-1.56,0l-.38,0,.26,0c.52,0,1,0,1.56,0s.87-.08,1.3-.07c.83,0,1.66.08,2.5.12.24,0,.49,0,.73,0v0c-.2,0-.41,0-.61,0C130.6,49.32,129.76,49.25,128.93,49.23Z"/><path class="cls-3" d="M122.89,49.73l.21,0c.54,0,1.09-.11,1.63-.18h.06c-.52.07-1,.15-1.57.17A2.1,2.1,0,0,0,122.89,49.73Z"/><path class="cls-3" d="M131.75,49.09c-1.12-.09-2.24-.22-3.36-.24s-2.15.06-3.23.15-2,.27-3.06.35h-.05a1.36,1.36,0,0,0-.81.59c.31,0,.55,0,.76,0s.59-.16.89-.2a2.1,2.1,0,0,1,.33,0c.53,0,1-.1,1.57-.17.3,0,.59-.12.89-.16l.38,0c.52,0,1,0,1.56,0s.87-.08,1.3-.07c.83,0,1.66.08,2.5.12.2,0,.41,0,.61,0l0-.12A1.15,1.15,0,0,0,131.75,49.09Z"/><path class="cls-3" d="M98.1,56.86c.21.21.39.4.59.56a.3.3,0,0,0,.32.07.37.37,0,0,1-.2-.09c-.2-.16-.38-.36-.59-.56.31-.16-.18-.51.18-.68l.18-.06v0l-.29.09C97.91,56.35,98.41,56.71,98.1,56.86Z"/><path class="cls-3" d="M98.22,56.84c.21.21.39.4.59.56a.37.37,0,0,0,.2.09.29.29,0,0,0,.14-.27c0-.32,0-.65-.36-.83-.09,0-.14-.18-.2-.28l-.18.06C98,56.33,98.53,56.69,98.22,56.84Z"/><path class="cls-3" d="M102.48,49.23l.1-.08a.91.91,0,0,0-.24-.41l-.06.09A.94.94,0,0,1,102.48,49.23Z"/><path class="cls-3" d="M101.7,48.11c-.43-.18-.85-.38-1.29-.54.44.15.86.36,1.29.54l-.33.16c.29.2.68.28.92.57l.06-.09a5.65,5.65,0,0,0-.85-.5l.25-.12,0,0Z"/><path class="cls-3" d="M118.34,53.38c-.06,0-.19.1-.21.18v0c0-.08.15-.18.21-.17.31,0,.61.11.9.18l.14,0C119,53.51,118.69,53.43,118.34,53.38Z"/><path class="cls-3" d="M117.54,53.91V54c.4.11.45.11.54-.21C118,54,117.92,54,117.54,53.91Z"/><path class="cls-3" d="M116.76,54.64a3.32,3.32,0,0,1-1.5,0c-.21-.09-.53.07-.87.12-.21-.25-.46-.55-.7-.86,0,0,0-.05,0-.09s0,.12,0,.15c.23.31.49.61.7.86.34-.06.66-.21.87-.12a3.32,3.32,0,0,0,1.5,0c.46,0,.64-.11.73-.41C117.38,54.54,117.19,54.64,116.76,54.64Z"/><path class="cls-3" d="M114.16,53.43l.21-.36h0l-.21.37Z"/><path class="cls-3" d="M114.06,53.22a.48.48,0,0,0,0,.16,1,1,0,0,1,0,.1.66.66,0,0,0,0-.15A.5.5,0,0,1,114.06,53.22Z"/><path class="cls-3" d="M114.59,52.43a.53.53,0,0,1,.09.51.52.52,0,0,0,0-.5Z"/><path class="cls-3" d="M119.19,53.66h0l.45.83.45-.72v0l-.43.69Z"/><path class="cls-3" d="M119.59,53.3c-.1,0-.26-.11-.27-.19,0-.43-.39-.3-.63-.36a1.38,1.38,0,0,0-.21,0,10.59,10.59,0,0,0-2.68-.24l-.57.06-.59-.12a.52.52,0,0,1,0,.5,1,1,0,0,1-.56.55l0-.06h0l.21-.37a.29.29,0,0,0-.29.15.5.5,0,0,0,0,.11.66.66,0,0,1,0,.15c0,.13-.08.19-.25.19,0,0,0,0-.05.09s0,.08,0,.09c.23.31.49.61.7.86.34-.06.66-.21.87-.12a3.32,3.32,0,0,0,1.5,0c.43,0,.62-.1.71-.36a1.8,1.8,0,0,0,.05-.32h0v-.05c.38.11.45.11.53-.16l0-.15h0v0c0-.08.15-.19.21-.18.35.05.7.14,1,.2l-.14,0,.12,0-.16,0,.42.78.43-.69C120,53.59,119.95,53.32,119.59,53.3Z"/><path class="cls-3" d="M104.88,59.76a.48.48,0,0,0,.4-.24h0a.43.43,0,0,1-.22,0,.56.56,0,0,1-.51-.77h-.11C104.25,59.32,104.41,59.7,104.88,59.76Z"/><path class="cls-3" d="M105.06,59.55a.43.43,0,0,0,.22,0c.12-.46-.08-.65-.73-.73A.56.56,0,0,0,105.06,59.55Z"/><path class="cls-3" d="M99.74,72a12.51,12.51,0,0,1-2.64-.21l-1.38-.19c-.46-.18-.78-.32-1.11-.45a.63.63,0,0,1-.49-.63c0-.07.1-.17.19-.21h0a.34.34,0,0,0-.27.23.63.63,0,0,0,.49.63c.33.12.66.26,1.11.45l1.38.19A12,12,0,0,0,99.74,72Z"/><path class="cls-3" d="M101,71.85a.7.7,0,0,0-.26.07,8.37,8.37,0,0,1-1.71.5,8.18,8.18,0,0,0,1.83-.51Z"/><path class="cls-3" d="M94.6,71.17c.33.12.66.26,1.11.45l1.38.19a12.51,12.51,0,0,0,2.64.21l.28,0a2.32,2.32,0,0,0,1.44-.6.4.4,0,0,0,.05-.37.19.19,0,0,0-.17-.14l-.13,0a8.6,8.6,0,0,1-1.78.33,6.46,6.46,0,0,1-1.15,0c-.67-.06-1.34-.13-2-.26a11.34,11.34,0,0,1-1.42-.43c-.19-.06-.37-.18-.56-.22s-.19.14-.19.21A.63.63,0,0,0,94.6,71.17Z"/><path class="cls-3" d="M105.66,60.44l-.18-.07c.06.09.13.18.16.24a.68.68,0,0,0,.39,0,1,1,0,0,1-.27,0Z"/><path class="cls-3" d="M105.8,59.4h0a.11.11,0,0,0-.12,0,1.39,1.39,0,0,0-.29.46l.13,0A1.41,1.41,0,0,1,105.8,59.4Z"/><path class="cls-3" d="M105.66,60.44l.1.15a1,1,0,0,0,.27,0l.07,0Z"/><path class="cls-3" d="M105.52,59.84a.65.65,0,0,1,.33,0l.29.11s0-.07,0-.1a.59.59,0,0,0-.33-.47h0A1.41,1.41,0,0,0,105.52,59.84Z"/><path class="cls-3" d="M112.6,89.57h0c-.38.31-.75.63-1.12.95-.84.73-1.65,1.49-2.48,2.24h0Z"/><path class="cls-3" d="M113,89.18l-.16.13h0Z"/><path class="cls-3" d="M118.21,84.62l-.58.51-.15.14.74-.65Z"/><path class="cls-3" d="M120.79,82.35l-1.67,1.46h0Z"/><path class="cls-3" d="M119.13,83.82h0l-.91.81h0Z"/><path class="cls-3" d="M102.14,51.12h0v0h0Z"/><path class="cls-3" d="M113.26,84.29h0Z"/><path class="cls-3" d="M97.42,55.05h0a.29.29,0,0,0-.08-.14A.29.29,0,0,1,97.42,55.05Z"/><path class="cls-3" d="M88.22,86.62l0,.12A69.68,69.68,0,0,0,91.32,97l.1-.28c-.57-2-1.12-4-1.71-6-.45-1.52-.92-3-1.38-4.56l-.14.19,0,.2Z"/><path class="cls-3" d="M87.71,84.19l-.07,0,0,.1c.12.34.23.71.33,1.13l.13,0Z"/><path class="cls-3" d="M88,85.62c.06.24.12.51.17.78l.14-.19-.24-.8-.13,0,0,.19Z"/><path class="cls-3" d="M91.41,97.25l.17,0-.16-.55-.1.28Z"/><path class="cls-3" d="M92.89,100.44c-.36-.7-.67-1.43-1-2.19l0,.08c.47,1.17.91,2.19,1.28,2.91l.25.08C93.2,101,93,100.74,92.89,100.44Z"/><path class="cls-3" d="M91.8,98.27l0,.06,0-.08,0-.09S91.81,98.23,91.8,98.27Z"/><path class="cls-3" d="M100.4,99.69l-.22.24.19-.15Z"/><path class="cls-3" d="M98.55,100.92l-.9.89.12.13c.24-.19.49-.39.73-.61l.14-.27Z"/><path class="cls-3" d="M98.69,101l-.11-.07,0,0,.1.13Z"/><path class="cls-3" d="M117.48,85.27,113,89.18c.49-.41,1-.82,1.47-1.24C115.51,87.07,116.49,86.16,117.48,85.27Z"/><path class="cls-3" d="M86.12,86.3h0v0Z"/><path class="cls-3" d="M133.32,121.72a1.12,1.12,0,0,1,.4.3,32.55,32.55,0,0,1,1.1-5.23A41.42,41.42,0,0,0,133.32,121.72Z"/><path class="cls-3" d="M94.41,58.27c0,.29,0,.58,0,.87l.28-.24a3.3,3.3,0,0,1,.18-1C94.51,58,94.42,58.06,94.41,58.27Z"/><path class="cls-3" d="M97.39,53.8l0,0-.34.39.6-.49-.08-.09-.07.07Z"/><path class="cls-3" d="M97.1,53.88c-.38,0-.43.33-.58.55l.1.11.08-.07-.06-.06C96.78,54.22,96.84,54,97.1,53.88Z"/><path class="cls-3" d="M97.39,53.8l.07-.07.07-.08-.05-.06c-.1.09-.2.25-.3.27h.1A.18.18,0,0,0,97.39,53.8Z"/><path class="cls-3" d="M97.53,53.66h0l-.07.08Z"/><path class="cls-3" d="M97.34,53.85l0,0a.18.18,0,0,1-.11.06H97.1c-.27.08-.33.34-.46.53l.06.06.3-.25Z"/><path class="cls-3" d="M94.8,57.48l.08-.35-.11,0-.12.48Z"/><path class="cls-3" d="M94.8,57.48l.29-.23,0-.09-.16,0Z"/><path class="cls-3" d="M114.91,41.41c0-.36.4-.73,1-.88l0,0c-.71.14-1.23.59-1.13,1Z"/><path class="cls-3" d="M114.91,41.41l1-.88C115.31,40.68,114.89,41.05,114.91,41.41Z"/><path class="cls-3" d="M100,55.09l.18-.17A.72.72,0,0,0,100,55.09Z"/><path class="cls-3" d="M100.51,49a.45.45,0,0,1,.15-.09.4.4,0,0,0-.28.11s0,.24.07.24a1.13,1.13,0,0,0,.27,0h-.15S100.48,49,100.51,49Z"/><path class="cls-3" d="M100.69,48.91h0a.45.45,0,0,0-.15.09s0,.24.07.24h.15l.23,0C100.83,49.05,100.77,48.93,100.69,48.91Z"/><path class="cls-3" d="M139.08,106.8h.07l0,0Z"/><path class="cls-3" d="M156.27,98.28a2,2,0,0,1-.11-.37,14.27,14.27,0,0,0-1.38-4.05,10.64,10.64,0,0,1-1-4,8.14,8.14,0,0,1,.22-2.46c0-.11,0-.22,0-.33a7.67,7.67,0,0,0-.33,2.81,10.64,10.64,0,0,0,1,4A14.27,14.27,0,0,1,156,97.93a2.3,2.3,0,0,0,.12.39h.11Z"/><path class="cls-3" d="M127.76,52.61l.27,1.06a2.09,2.09,0,0,0,.06-.27l-.18-.68A.64.64,0,0,0,127.76,52.61Z"/><path class="cls-3" d="M127.92,52.72l.18.68A.73.73,0,0,0,127.92,52.72Z"/><path class="cls-3" d="M100.28,56c.27.33.53.67.8,1a5.09,5.09,0,0,0,.67.8c.17.14.42.33.7.08.09-.08.28,0,.46-.07a6.87,6.87,0,0,1,.64-.32c.76-.3,1.53-.6,2.31-.88.27-.1.62,0,.75-.39a.57.57,0,0,0,0-.39c-.08-.17-.21-.44-.33-.44a2.69,2.69,0,0,0-1,.14c-.94.34-1.85.74-2.78,1.08-.53.19-.62.12-.89-.36-.12-.2-.31-.37-.43-.57a4.09,4.09,0,0,1-.25-.56,1.64,1.64,0,0,0-.29-.37l-.42.2-.18.17-.23.29C99.94,55.57,100.11,55.77,100.28,56Z"/><path class="cls-3" d="M100,55.09l-.27.25,0,0Z"/><path class="cls-3" d="M98.5,101.33l.21-.18-.07-.09Z"/><path class="cls-3" d="M93.63,100.47c-.08-.79-.18-1.59-.28-2.39l-.74-1.94a20.12,20.12,0,0,1-.75,2.11c.35.76.67,1.49,1,2.19.15.3.31.59.47.88l.13,0,1.32.42c-.23-.55-.54-1.34-.88-2.21A1.84,1.84,0,0,0,93.63,100.47Z"/><path class="cls-3" d="M97.65,101.81l.9-.89-.1-.14c-.29-.39.66-.52.87-.24l0,.06.81-.67.22-.24,0,.09,1.38-1.13q0-.5,0-1c0-.43,1-.4,1,0,0,.06,0,.13,0,.19,3-2.42,6.27-5.09,6.28-5.1.82-.75,1.64-1.51,2.48-2.24.37-.32.74-.64,1.12-.95-.22,0-.45,0-.54-.09l-.66-.78-.86.72c-.22.18-3.37,2.82-3.37,2.69l-1.61,1.39.14.06.37-.2h0l0-.1,0,.1h0l-.37.2,0,0c0,.07,0,.17,0,.21a5.35,5.35,0,0,1-.55.52s-.17,0-.25,0l.5-.46.05-.24-6,5.24c-.06.43-.62,1-.5,1.39-.09-.25-.16-.5-.25-.75L96,101.74a.88.88,0,0,1-.1.41l1,.35a9.55,9.55,0,0,0,.8-.57Zm8.51-8.47h0Z"/><path class="cls-3" d="M86.27,52.41a14,14,0,0,1,1.38-2.58,29.46,29.46,0,0,1,1.72-2.49c1-1.25,2-2.48,3-3.7a13,13,0,0,1,3.08-2.82c.19-.12.39-.21.59-.32a10.16,10.16,0,0,0,.56,1.37,10.81,10.81,0,0,0,3.31,3.64,1.78,1.78,0,0,0,.58.32,1.83,1.83,0,0,0,1,0c.22-.08.32-.44.47-.65-.65-.31-1.24-.53-1.77-.85a10.88,10.88,0,0,1-2.51-2.46,13.4,13.4,0,0,1-.85-1.27,4.12,4.12,0,0,0-.29-.35,15.68,15.68,0,0,1,5.24-2.14c-.41-.44-.66-1.13.12-.48l.41.35c.88-.21,1.68-.36,2.23-.45a22.46,22.46,0,0,1,5.23,0s.15,1,.64,1.35A14.79,14.79,0,0,1,111.68,40c.51.41,1.05.79,1.58,1.18a1.2,1.2,0,0,1,.28.26c.3.44.33,1,.67,1.58a22.72,22.72,0,0,0,3.64-2,11.48,11.48,0,0,1,1.16-.68h0a7.28,7.28,0,0,1,1.06-.58,13.26,13.26,0,0,1,4.48-.36l.41,0a9.57,9.57,0,0,1,3.64,1.25L130.47,42A14.06,14.06,0,0,1,134.65,48a18.24,18.24,0,0,1,.76,2.72c0,.16.15.46-.24.41l0,1.16c-.73.3-1.49.67-2.3.92-1.13.35-2.29.61-3.44.89a3.75,3.75,0,0,1-.88.15c-.38,0-.31.4-.59.59.1-.6.2-1.13.26-1.66a1,1,0,0,0-1.09-1.05c-.5.06-1,0-1.52.14a2.12,2.12,0,0,0-.76.45c-.64.49-1.26,1-1.89,1.48a1.55,1.55,0,0,1-.36.15l-.41,1.11.16.09.33-.4c.67.47,1.09-.14,1.57-.47s1.19-.91,1.82-1.31a3.26,3.26,0,0,1,.92-.26c0,.31.07.61.07.92a1.25,1.25,0,0,1-.6,1.16c-.08,0-.15.23-.12.28s.21.28.33.29a1.1,1.1,0,0,0,1.17-.52l.23-.32c.12.78.69.59,1.11.52a16.31,16.31,0,0,0,3.85-1.11c.67-.28,1.35-.53,2-.79a2.17,2.17,0,0,1,.32-.07l0,.79h0c0,.15,0,.3,0,.44s0,.1,0,.14a6.19,6.19,0,0,1-.22,2.91c-.25,1.34-.59,2.66-.85,4A18.37,18.37,0,0,1,131.59,68a43.13,43.13,0,0,1-4,5.4c-.67.77-1.38,1.51-2.09,2.23L124,77.21l.86.39c.6.26-.08.77-.52.58l-.9-.41-1.32,1.3,1,.52c.22.11-.66.22-.86.12l-.56-.28c-.53.5-1.08,1-1.61,1.47-.21.19-.37.44-.56.64s-.35.31-.53.46c-.69.63-1.36,1.28-2.07,1.89-.4.35-.87.63-1.28,1s-.55.59-.85.85c-.54.46-1.13.87-1.67,1.32-.19.16-.31.41-.5.58l-.69.59c.3.37.61.74.93,1.1l.16-.13,4.44-3.91.15-.14.58-.51a8.78,8.78,0,0,0-.09-.93c-.06-.38.93-.38,1,0v.09l1.67-1.46,1.16-1a13.36,13.36,0,0,0,1.18-1.07c.29-.33.73-.48.93-.92.12-.25.46-.4.69-.61a11.44,11.44,0,0,0,2.11-2.15c0-.06.14-.06.2-.11s.2-.22.3-.33l.09-.08-.07.42.37-.6a.89.89,0,0,1,.06.47,13.63,13.63,0,0,0,.14,3.83c.13.7.22,1.4.36,2.1.26,1.25.47,2.51.84,3.73a35.17,35.17,0,0,1,1,4.64c.15.94.28,1.89.48,2.83.16.78.4,1.55.6,2.32a20.42,20.42,0,0,0,.57,2.07,70.63,70.63,0,0,0,3.9,6.69c.21.25.47.47.71.7l0,0c-.59-.89-3.87-7-4.13-7.7,0-.11-.13-.46-.15-.52a43.84,43.84,0,0,1-1.56-7,2.72,2.72,0,0,1,.27.32c.24.42.48.85.71,1.28.4.76.81,1.51,1.18,2.28.22.46,1.2,2,1.35,2.3.31.65.64,1.3.93,2a20.62,20.62,0,0,1,1.15,2.81,41.87,41.87,0,0,1,.85,4.24,10.54,10.54,0,0,1,.13,3.23c-.09.58-.24,1.16-.37,1.73s-.24,1.09-.39,1.62c-.05.21-.14.49-.25.82h0L136,113a2.53,2.53,0,0,1-.17.9c-.18.6-.42,1.17-.63,1.76a4.28,4.28,0,0,1-.23.83l-.21.33a32.55,32.55,0,0,0-1.1,5.23,1.31,1.31,0,0,1,.4.89c.33-.76.66-1.53.69-1.61s.59-1.71.66-1.76c.23-.16,2.83-8.78,2.87-8.86l.27-.12a10.23,10.23,0,0,0,1.32,2.24,20.35,20.35,0,0,1,1.32,1.67,5.39,5.39,0,0,0,3.34,2,9.93,9.93,0,0,0,3.64.08c1.12-.16,5.41-1.26,9.55-10.63A7.75,7.75,0,0,0,158,99c-.3-.73-1.77-5.46-2.08-6.31a17,17,0,0,1-.81-4.63,10.05,10.05,0,0,1,.42-3c.11-.47.2-1.14,1-1.12.07,0,.13-.08.2-.12l1.06-.49a11.76,11.76,0,0,0,2.08-2.69c0-.07.14-.11.21-.16l0-.13a.76.76,0,0,0,.72-.71l-.34,0-.41.49A1.31,1.31,0,0,0,158.11,79l-2,.86-.09-.14a3.9,3.9,0,0,1,.29-.34,6.3,6.3,0,0,1,2.34-1.19c.06,0,.19,0,.2,0,.11.26.26.09.38,0,.71-.35.63-.19.76.39a.44.44,0,0,0,0,.1,1.83,1.83,0,0,0,.51.07c.15,0,.4-.14.4-.21a9,9,0,0,0-.14-1.08c-.47,0,0-.27-.14-.38a4.19,4.19,0,0,0-1.33-.21,12.53,12.53,0,0,0-2.36.67,5.4,5.4,0,0,0-1.44.84,3.64,3.64,0,0,0-1.3,2.31c-.14.85-.35,3-.38,3.21a.89.89,0,0,1-.16.42,5.34,5.34,0,0,0-1.1,2.38,12.39,12.39,0,0,0-.23,3.16,12.94,12.94,0,0,0,1.16,4.52A16.26,16.26,0,0,1,155,99.79a8.69,8.69,0,0,1-.26,3.11,10.22,10.22,0,0,1-1,2.5c-2.75,5.06-6.22,4.84-7,4.55a8.65,8.65,0,0,1-1.8-.94,9.94,9.94,0,0,1-2.59-2.52c-.35-.48-1.08-1.34-1.39-1.76l0-.06a7.94,7.94,0,0,0-2-2.11,2.63,2.63,0,0,0-.75-.23,1,1,0,0,1-.19-.28,17.24,17.24,0,0,0-1.41-3.83c-.33-.64-.63-1.29-.95-1.94q-.27-.54-.56-1.07c-.58-1.06-3.27-6.08-3.67-7-.33-.77-2.5-6.27-2.15-10.9a35.37,35.37,0,0,1,.32-3.61c3.19-2.67,5.41-8.89,5.5-9.16a14,14,0,0,0,.43-1.35c0-.25.22-1.11.26-1.3.15-.79.25-1.59.42-2.38a19.94,19.94,0,0,0,.52-4.4c0-1.12.05-2.25-.05-3.37a15.33,15.33,0,0,0-.6-3.12,19.52,19.52,0,0,0-1.26-2.84,18.53,18.53,0,0,0-1.31-2.29c-1.16-1.67-2.94-2.63-4.53-3.81a9.13,9.13,0,0,0-1.68-.82,13.87,13.87,0,0,0-5.72-.56,14.57,14.57,0,0,0-3.77,1c-.48.2-1,.44-1.44.66,0,0-1.3.67-1.85,1a9.65,9.65,0,0,0-1.08-2.22,10.42,10.42,0,0,0-2.95-1.9,13.72,13.72,0,0,0-7.46-.68c-.58.12-1.14.3-1.72.44A33.9,33.9,0,0,0,97,38.2a41.93,41.93,0,0,0-5.24,4c-.53.62-1.06,1.23-1.57,1.87-.66.82-1.31,1.64-1.93,2.49-.43.58-.77,1.23-1.19,1.82a20.28,20.28,0,0,0-1.58,2.36,13.36,13.36,0,0,0-.5,1.4l1.19.43Zm41.82,1a2.09,2.09,0,0,1-.06.27l-.27-1.06a.64.64,0,0,1,.15.11l0-.12c.33.16.43.5.27,1.06ZM158.85,80l0,.05a3.33,3.33,0,0,1-1.17,1.26l-.15.12C157.65,80.67,158.19,80.36,158.85,80Zm-2.69,18.27a2.3,2.3,0,0,1-.12-.39,14.27,14.27,0,0,0-1.38-4.05,10.64,10.64,0,0,1-1-4A7.67,7.67,0,0,1,154,87c0,.11,0,.22,0,.33,0-.12.07-.24.11-.35,0,.42,0,.84,0,1.25a16,16,0,0,0,.85,4.61c.46,1.55,1,3.09,1.42,4.64a2.32,2.32,0,0,1,0,.75h-.11v0Zm-17.54,5.5c.1.14.61.51.71.62.44.49.87,1,1.27,1.5.24.31,3.36,5.06,6.32,5.38a5.11,5.11,0,0,0,3.38-.83c1.61-1.08,1.57-1,2.34-1.6a8.65,8.65,0,0,0,2.41-2.8,11.83,11.83,0,0,0,1-2.34,13.75,13.75,0,0,0,.41-2.4c.08-.66.08-1.33.13-2a1.36,1.36,0,0,1,.09-.29l.11,0c.1.3.23.59.31.89a6.35,6.35,0,0,1-.28,4.35c-.58,1.31-1.15,2.62-1.78,3.9-.33.68-.78,1.3-1.15,2a16,16,0,0,1-3.34,3.7,5.43,5.43,0,0,1-2.67,1.51,10.06,10.06,0,0,1-2.06.1,5,5,0,0,1-2.89-.77,6.52,6.52,0,0,1-1.2-1.22c-.47-.58-.9-1.19-1.32-1.81-.13-.19-.53-1.1-.65-1.33a15.14,15.14,0,0,0-.95-1.56c.06-.24-.32-4.72-.31-4.9Zm-22.7-63.3,0,0,.14,0-1.13,1a.43.43,0,0,1,0-.08l-.12.1C114.69,41.1,115.21,40.64,115.92,40.51Zm-5.78-2.81c1,.86,2.32,1.25,3,2.47l-.13.13,0-.05-.08.07a6.73,6.73,0,0,0-.66-.74c-.24-.21-.56-.33-.82-.52A4.53,4.53,0,0,1,110,37.72l.29.24A2.7,2.7,0,0,1,110.14,37.7Z"/><path class="cls-3" d="M157.66,81.36a1.85,1.85,0,0,1,1.17-1.26l0-.05c-.66.32-1.2.63-1.34,1.44Z"/><path class="cls-3" d="M87.27,80.39a63.62,63.62,0,0,1-2.86-11.76l-.57-.07c-.65-.1-.25-.76.29-.68l.21,0c0-.15,0-.29,0-.44h-.71c-.24,0-.37-.06-.41-.13v.11c-.07,5,1.8,10,3.19,13.57h0Z"/><path class="cls-3" d="M83.61,67.09h.69c0-2.19.85-10.53.87-10.6L85.3,56l.14-.55-1.18-.19c-.13.53-.25,1-.32,1.2-.2.57-1.09,5.14-1.1,5.38s.27,4.43.34,5.43C83.2,67.16,83.35,67.09,83.61,67.09Z"/><path class="cls-3" d="M86.11,52.92l-1.19-.43-.1.35c0,.14-.1.42-.18.75l1.18.3Q86,53.41,86.11,52.92Z"/><path class="cls-3" d="M85.64,54.6l-1.16-.29-.15.62,1.18.18Z"/><path class="cls-3" d="M87.71,84.19l.38,1.23c.33,0,.8.1.69.23l-.45.56c.47,1.52.93,3,1.38,4.56.58,2,1.14,4,1.71,6q.24-.71.43-1.44c0-.11.2-.16.39-.17-.18-.48-.3-.81-.32-.89-.6-1.92-1.17-3.85-1.79-5.76-.35-1.05-1.47-3.93-2.64-7.45l-.24.17a1.24,1.24,0,0,1-.82-.05c.35.91.68,1.73.93,2.43h0q.14.33.28.74l0-.1Z"/><path class="cls-3" d="M102.68,97.67c0-.44-1-.46-1,0s0,.67,0,1l1-.78C102.69,97.8,102.69,97.74,102.68,97.67Z"/><path class="cls-3" d="M119.11,83.72c-.07-.42-1.05-.42-1,0a8.78,8.78,0,0,1,.09.93l.91-.81Z"/><path class="cls-3" d="M98.45,100.79l.1.14,0,0,.11.07,0,.09.07.09.65-.54,0-.06C99.11,100.27,98.15,100.39,98.45,100.79Z"/><path class="cls-3" d="M88.09,85.41l.24.8.45-.56C88.88,85.52,88.41,85.39,88.09,85.41Z"/><path class="cls-3" d="M91.41,97.25l.39,1s0-.07,0-.11l0,.09a20.12,20.12,0,0,0,.75-2.11l-.38-1c-.19,0-.36.06-.39.17q-.19.73-.43,1.44l.16.55Z"/><path class="cls-3" d="M114.91,41.49l1.13-1-.14,0-1,.88A.43.43,0,0,0,114.91,41.49Z"/><path class="cls-3" d="M105.38,93.82l-.5.46c.09,0,.21.07.25,0a5.35,5.35,0,0,0,.55-.52s0-.14,0-.21l0,0-.07,0h0l.07,0-.14-.06-.1.09Z"/><path class="cls-3" d="M127.88,52.6l0,.12a.73.73,0,0,1,.18.68l.07.25C128.32,53.09,128.22,52.76,127.88,52.6Z"/><path class="cls-3" d="M98.92,100.21c-.12-.36.44-1,.5-1.39l-.74.64C98.75,99.72,98.83,100,98.92,100.21Z"/><path class="cls-3" d="M95.94,102.15a.88.88,0,0,0,.1-.41l-.37.32Z"/><path class="cls-3" d="M93.93,99.57l-.58-1.49c.1.8.2,1.6.28,2.39A1.84,1.84,0,0,1,93.93,99.57Z"/><path class="cls-3" d="M106.06,93.26l0,.1h0Z"/><path class="cls-3" d="M106,93.36l-.37.2h0Z"/><path class="cls-3" d="M105.6,93.6h0l.07,0h0l-.07,0Z"/><path class="cls-3" d="M94.82,72.74c.09-.23-.41-.25-.48-.05a11.21,11.21,0,0,0-.66,2.75c0,.22.49.19.51,0A10.86,10.86,0,0,1,94.82,72.74Z"/><path class="cls-3" d="M95.85,76.09c.12-.65-.27-1.88.34-2.36.26-.21-.19-.31-.34-.2-.81.64-.35,1.71-.51,2.59C95.31,76.33,95.81,76.33,95.85,76.09Z"/><path class="cls-3" d="M97.32,73.8c0-.27-.48-.24-.51,0a7.51,7.51,0,0,0,0,2c0,.24.55.15.5-.14A7.09,7.09,0,0,1,97.32,73.8Z"/><path class="cls-3" d="M98.7,73.49c0-.27-.47-.24-.51,0a8.51,8.51,0,0,0,.07,2.9c0,.23.56.13.5-.13A8.19,8.19,0,0,1,98.7,73.49Z"/><path class="cls-3" d="M99.88,74.06c0-.26-.52-.17-.51.14a6.68,6.68,0,0,0,.3,1.65c.08.23.59.11.51-.14A6.68,6.68,0,0,1,99.88,74.06Z"/><path class="cls-3" d="M95.68,69.58h0l.16.07,0-.08Z"/><path class="cls-3" d="M101.72,59.38a.52.52,0,0,1-.42-.28h0A.52.52,0,0,0,101.72,59.38Z"/><path class="cls-3" d="M101.61,59.72s0,0,0,0S101.65,59.72,101.61,59.72Z"/><path class="cls-3" d="M97.36,61.74s.23-2.26.83-2.71l0,0c.3,0,.27-.1.27-.1a.47.47,0,0,0,.33.29c.27.08.14-.15.26-.16s.22.29.41.31.19-.18.19-.18a.6.6,0,0,0,.35.35c.24.06.15-.27.29-.15s.15.37.43.24.27,0,.27,0a.44.44,0,0,0,.18.3c.11.08.29,0,.36-.08s0,0,0,0,0,0,0,0a1.19,1.19,0,0,0,.38.31c.15.08.11-.21.11-.21a.56.56,0,0,1,.22.31c0,.2.19,0,.26-.06a1.1,1.1,0,0,1,.35.13l0,0-.22-.11s-1.7,3.64-.55,2.87a5.07,5.07,0,0,0,1-.94c.13-.16.26-.31.36-.46l.08-.12.11-.17.14-.23.07-.12,0-.06-.1-.1-.07-.06-.1-.09-.13-.11c-.19-.15-.39-.31-.62-.46-.46-.32-1-.65-1.65-1a.52.52,0,0,0,.42.28.52.52,0,0,1-.42-.28l-.06,0a6.59,6.59,0,0,0-1.92-.24c-.69-.1-1.19-.09-1.31-.11a2.28,2.28,0,0,0-.43,0c-.38,0-.77,0-.77,0a3.31,3.31,0,0,0-.26.55l0,.11v0a2.72,2.72,0,0,0-.14,1.16c0,.06,0,.13,0,.19a2,2,0,0,0,1,1.3Z"/><path class="cls-3" d="M94.59,68.75v-.12l0,0Z"/><path class="cls-3" d="M94.56,68.6l0,0c.08-.55.23-1.17.36-1.69A1.8,1.8,0,0,0,94.56,68.6Z"/><path class="cls-3" d="M99.42,70.11a1.35,1.35,0,0,0,1.09,0c1.38-.72.7-3.31.7-3.31s0-.24-.22.67-1,2.15-1,2a.73.73,0,0,1-.77-.26c-.09-.11-.3.27-.37.21a.74.74,0,0,0-.65-.18L97.93,69c-.22-.18-.18,0-.33.18s-.12-.22-.19-.42-.43.11-.43.11a4.64,4.64,0,0,1-.37-.58,8,8,0,0,1-.26-1c-.12-.55-.22-1.11-.22-1.11h0c-.17.64-.38,1.39-.5,2.06l0,.14a2,2,0,0,0,.25.82.55.55,0,0,0,.64.18s0,0,0-.06h.12s0,0,0,0l.22,0Z"/><path class="cls-3" d="M117,44.93a31.36,31.36,0,0,1,9.31-3.43c.64-.13.27-.69-.24-.59a32.79,32.79,0,0,0-9.75,3.57C115.78,44.76,116.64,45.12,117,44.93Z"/><path class="cls-3" d="M106.31,43.52c.16.28,1.46,1.21,1.07.56a24.78,24.78,0,0,0-5.16-6.1l-.53.13.14.14A20.12,20.12,0,0,1,106.31,43.52Z"/><path class="cls-3" d="M101.83,37.64c-.79-.65-.53,0-.12.48l.53-.13Z"/><path class="cls-3" d="M107,58.37a53.59,53.59,0,0,0,11.48,2.46c.44,0,1-.3.28-.37a52.43,52.43,0,0,1-10.92-2.31L107.3,58C106.94,58,106.45,58.2,107,58.37Z"/><path class="cls-3" d="M106.76,60a.83.83,0,0,0-.47,0q3.15,1.19,6.34,2.28,4.1,1.09,8.28,1.84c.44.08.92-.33.28-.45A99.66,99.66,0,0,1,106.76,60Z"/><path class="cls-3" d="M107.28,58l.49.12-.3-.1A.62.62,0,0,0,107.28,58Z"/><path class="cls-3" d="M96.67,54.66,96,54.45c-.15.21-.29.42-.43.64l.65.21Q96.44,55,96.67,54.66Z"/><path class="cls-3" d="M95.16,55.78l.13-.22q-4.57-1.4-9.06-3l-.12.38q4.29,1.52,8.64,2.86A1.5,1.5,0,0,0,95.16,55.78Z"/><path class="cls-3" d="M85,52.11l-1.34-.49c-.18-.07-1.14,0-.71.17l1.93.7Z"/><path class="cls-3" d="M95.45,55.61l-.16-.05-.13.22C95.45,55.76,95.72,55.69,95.45,55.61Z"/><path class="cls-3" d="M86.23,52.54,85,52.11l-.12.38,1.19.43Z"/><path class="cls-3" d="M95,56.05l-.35.64C95.11,56.73,95.41,56.24,95,56.05Z"/><path class="cls-3" d="M85.82,53.9l-1.18-.3-.17.71,1.16.29Z"/><path class="cls-3" d="M94.63,56.75q-4.55-.9-9.12-1.63l-.07.3q4.54.73,9,1.63Z"/><path class="cls-3" d="M95.19,57.19l.32.06c.24,0,1.12-.11.51-.23l-.72-.14-.13.28Z"/><path class="cls-3" d="M81.37,54.49c-.38-.05-1,.17-.27.27l3.16.48.07-.3Z"/><path class="cls-3" d="M95.17,57.19h0l0,0Z"/><path class="cls-3" d="M94.48,57.05l.3.06.05-.21h.1v0H95l.13.26.13-.28-.68-.13Z"/><path class="cls-3" d="M95.17,57.19v0L95,56.9h-.1v.05l.11.23Z"/><path class="cls-3" d="M94.94,56.94v0h-.1l-.05.21.11,0Z"/><path class="cls-3" d="M95,57.16l-.11-.23,0,.2Z"/><path class="cls-3" d="M85.51,55.12l-1.18-.18-.07.3,1.18.19Z"/><path class="cls-3" d="M106.31,60.48a.21.21,0,0,1-.15.21q6.19,2.74,12.54,5.08c.37.13,1.15-.2.54-.43q-3.28-1.21-6.52-2.52Q109.48,61.75,106.31,60.48Z"/><path class="cls-3" d="M105.36,60.05a.53.53,0,0,1,0-.18c-.28.09-.45.3-.06.44l.15.06A.65.65,0,0,1,105.36,60.05Z"/><path class="cls-3" d="M106.29,60h0s0,0,0,0Z"/><path class="cls-3" d="M106.3,60.4h0l-.09,0a.27.27,0,0,1-.07.25l.05,0A.21.21,0,0,0,106.3,60.4Z"/><path class="cls-3" d="M106.14,60.09l.12-.06s0,0,0,0l-.12,0S106.14,60.05,106.14,60.09Z"/><path class="cls-3" d="M105.48,60a.54.54,0,0,1,0-.19l-.13,0a.53.53,0,0,0,0,.18.65.65,0,0,0,.12.32l.18.07A.8.8,0,0,1,105.48,60Z"/><path class="cls-3" d="M106.14,60.09s0-.08,0-.12l-.29-.11a.65.65,0,0,0-.33,0,.54.54,0,0,0,0,.19.8.8,0,0,0,.18.41l.44.16a.27.27,0,0,0,.07-.25C106,60.27,106,60.17,106.14,60.09Z"/><path class="cls-3" d="M106.26,60a1.53,1.53,0,0,0,0,.23.63.63,0,0,1,0,.13q3.24,1.09,6.54,2-3.29-1.12-6.54-2.34Z"/><path class="cls-3" d="M106.16,60.29s0,0,0,.07l.09,0h0a.63.63,0,0,0,0-.13,1.53,1.53,0,0,1,0-.23l-.12.06A1.48,1.48,0,0,0,106.16,60.29Z"/><path class="cls-3" d="M106.14,60.09c-.12.08-.16.17,0,.26,0,0,0,0,0-.07A1.48,1.48,0,0,1,106.14,60.09Z"/><path class="cls-3" d="M109.16,69.22a70.07,70.07,0,0,0,14.25,8.55l.56-.56a69.14,69.14,0,0,1-14.09-8.45C109.53,68.49,108.68,68.85,109.16,69.22Z"/><path class="cls-3" d="M124.31,78.18c.44.19,1.12-.32.52-.58l-.86-.39-.56.56Z"/><path class="cls-3" d="M108.16,70.43c3.81,4,8.68,6.56,13.56,9l.21-.2.16-.16c-4.68-2.35-9.32-4.86-13-8.69C108.93,70.19,108.08,70.34,108.16,70.43Z"/><path class="cls-3" d="M121.72,79.43l.56.28c.2.1,1.09,0,.86-.12l-1-.52-.16.16Z"/><path class="cls-3" d="M91,77.35a37.14,37.14,0,0,1-3.72,3l.21.64a37.74,37.74,0,0,0,4.46-3.55C92,77.37,91.19,77.16,91,77.35Z"/><path class="cls-3" d="M86.43,81.14l0-.13C86.33,81.06,86.35,81.1,86.43,81.14Z"/><path class="cls-3" d="M87.24,81.19l.24-.17-.21-.64-.88.61h0l0,.13A1.24,1.24,0,0,0,87.24,81.19Z"/><path class="cls-3" d="M113,89.45l-.11-.13-.28.25C112.83,89.55,113,89.49,113,89.45Z"/><path class="cls-3" d="M105.85,78.77c-.1-.2-1-.12-1,0a50.46,50.46,0,0,0,6.49,9.9l.57-.49A50.45,50.45,0,0,1,105.85,78.77Z"/><path class="cls-3" d="M112.6,89.57l.28-.25h0l-.31.26Z"/><path class="cls-3" d="M112,89.48c.08.09.32.11.54.09l.31-.26c-.31-.36-.63-.73-.93-1.1l-.57.49Z"/><path class="cls-3" d="M83.18,67.33v-.08A.09.09,0,0,0,83.18,67.33Z"/><path class="cls-3" d="M92.47,66.74c.29-.15-.62-.34-.85-.22-1.07.57-2.86.42-4.05.48s-2.18.08-3.27.09c0,.15,0,.27,0,.36v0c1.46,0,2.93,0,4.39-.14A9.46,9.46,0,0,0,92.47,66.74Z"/><path class="cls-3" d="M83.59,67.47h.71v0c0-.09,0-.21,0-.36h-.69c-.26,0-.4.07-.43.16v.08C83.22,67.4,83.36,67.46,83.59,67.47Z"/><path class="cls-3" d="M92.48,67.48a21.46,21.46,0,0,1-8.14.42q0,.36.07.73a22.67,22.67,0,0,0,8.31-.44C93.35,68,93,67.35,92.48,67.48Z"/><path class="cls-3" d="M84.13,67.87c-.54-.08-.94.59-.29.68l.57.07q0-.37-.07-.73Z"/><path class="cls-3" d="M123.32,116l.18.61C123.44,116.42,123.38,116.22,123.32,116Z"/><path class="cls-3" d="M133.59,124.13c0-.11,0-.22,0-.32l-.66-.49c.09-.42.22-1,.38-1.59a.23.23,0,0,0-.32.12L131.13,126l1.07,1.22,1.89-4.21a.37.37,0,0,0,0-.1l-.42,1Z"/><path class="cls-3" d="M123.64,117.18l-1.2-.7q.14.54.22,1.09l1.22,1.1A12.89,12.89,0,0,0,123.64,117.18Z"/><path class="cls-3" d="M123.32,116q-.08-.23-.16-.46c-.22-.57-1.46-1.27-1.08-.26a10.75,10.75,0,0,1,.37,1.19l1.2.7q-.06-.28-.14-.55Z"/><path class="cls-3" d="M132.94,123.32l.66.49c0-.59.06-1.19.12-1.78a1.12,1.12,0,0,0-.4-.3C133.16,122.34,133,122.9,132.94,123.32Z"/><path class="cls-3" d="M133.72,122c-.07.6-.11,1.19-.12,1.78l.1.08.42-1A1.31,1.31,0,0,0,133.72,122Z"/><path class="cls-3" d="M133.7,123.88l-.1-.08c0,.11,0,.22,0,.32Z"/><path class="cls-3" d="M95.13,113.87c1-.13,2-.22,3-.33.35,0,.4-.22.3-.37a24,24,0,0,0,3.14-6.21,23.37,23.37,0,0,0,.67-2.47,23.71,23.71,0,0,0,.49-6.45l0,0a23.57,23.57,0,0,1-1.17,8.69A24,24,0,0,1,98.39,113c.1.15.05.33-.3.37-1,.11-2,.19-3,.33-.68.09-2,.1-1.71,1.35a.69.69,0,0,0,0,.15C93.2,114,94.45,114,95.13,113.87Z"/><path class="cls-3" d="M94.81,101.78c.14.35.26.61.32.73l.2-.16c0-.14-.05-.28-.08-.43Z"/><path class="cls-3" d="M104.69,118a7.89,7.89,0,0,0-.82-1.79,8.53,8.53,0,0,1-.75-1.77,8.17,8.17,0,0,0,.8,2A9,9,0,0,1,104.69,118Z"/><path class="cls-3" d="M77.53,107.92c.37,0,.75.27,1.15.29a2.2,2.2,0,0,0,1.27-.29c1.64-1,2.36-4.18,2.87-5.88l.16-.54c.25-.87.47-1.76.69-2.65,1-4.28,1.92-8.63,4.56-12.23l0-.2c-3.2,4.36-3.82,9.79-5.26,14.9l-.16.54c-.51,1.71-1.23,4.89-2.87,5.88a2.2,2.2,0,0,1-1.27.29c-.4,0-.77-.27-1.15-.29-.87,0-1.06.32-.87.8C76.53,108.16,76.77,107.89,77.53,107.92Z"/><path class="cls-3" d="M98.26,113.17l.13-.18a.59.59,0,0,0-.54-.22l-.42,0v0C97.11,113.25,98,113.5,98.26,113.17Z"/><path class="cls-3" d="M100.47,103.79c.12.22.25.43.36.65a.43.43,0,0,0,.3.18c0-.18.07-.36.11-.53Z"/><path class="cls-3" d="M101.79,104.33c-.12-.23-.24-.45-.37-.67v.07l.3.54-.46-.18c0,.18-.07.36-.11.53C101.47,104.69,101.92,104.58,101.79,104.33Z"/><path class="cls-3" d="M98.39,113a24,24,0,0,0,3.14-6.21,23.57,23.57,0,0,0,1.17-8.69l-.91.74a23.54,23.54,0,0,1-.37,4.84c.13.22.25.44.37.67s-.32.36-.66.29c-.14.61-.31,1.22-.51,1.82a23.13,23.13,0,0,1-3.19,6.35l.42,0A.59.59,0,0,1,98.39,113Z"/><path class="cls-3" d="M114.16,94.06a89,89,0,0,0-6.94,8.65c-.65,1-1.29,2-1.86,3.11-.38.71-.73,1.44-1,2.18a19,19,0,0,0-1.29,4.42,5.17,5.17,0,0,0,.09,2.06,8.53,8.53,0,0,0,.75,1.77,7.89,7.89,0,0,1,.82,1.79c.19.61.19,1.19-.41,1.4-.34.12-1.3-.48-1.56-.67a4.4,4.4,0,0,1-1.41-1.71,1.43,1.43,0,0,1-.17,1.16,4.93,4.93,0,0,0,2.34,1.49c1.17.34,2.12.12,2.21-1.3.12-1.8-1.74-3.24-1.79-5.11a12.52,12.52,0,0,1,1.27-5.14c.28-.64.58-1.27.87-1.85,2.16-4.37,5.37-8,8.55-11.67,2.61-3,5.09-6.48,4.58-10.62l-.89.78C118.44,88.36,116.43,91.41,114.16,94.06Z"/><path class="cls-3" d="M98,117.54l-.28-.3a2.7,2.7,0,0,0-.44-.38c-.62-.36-1.21-.19-1.9-.37s-1.88-.55-2-1.27v0a.69.69,0,0,1,0-.15c-.24-1.25,1-1.26,1.71-1.35,1-.13,2-.22,3-.33.35,0,.4-.22.3-.37l-.13.18c-.23.33-1.16.08-.84-.36v0c-1.46.08-4,0-4.84,1.12-1,1.29.78,2.44,1.83,2.78.48.16.95.16,1.43.27,1.06.26,1.12.62,1.84,1.17a3,3,0,0,0,1.77.7,2,2,0,0,0,1.53-.68,5.86,5.86,0,0,1-.64-1Q98.86,118.55,98,117.54Z"/><path class="cls-3" d="M82,101.11a32,32,0,0,1-1,3c-.4,1-1,3.29-2.36,3.36-.77,0-2.39-.93-3,.06-.84,1.29,1.64,2.71,2.58,3a11.82,11.82,0,0,1,2.88.91,4.52,4.52,0,0,0,2.06.88c.47,0,1.16-.23,1.55-.09.62.23,1,.9,1.7,1.09,1,.27,2.5.07,2.68-1.19s-.58-3-.73-4.38a7.93,7.93,0,0,1,.71-4.65l.16-.3c.66-1.18,1.52-2.24,2.14-3.44.18-.35.34-.7.5-1.06l-.35-.92-.08-.22A17.81,17.81,0,0,1,90.13,100l-.2.33c-.5.84-1.1,1.62-1.59,2.46-.13.21-.25.43-.36.65-1.16,2.36-.59,4.94-.1,7.4.25,1.26.85,2.87-2.12,1.62-.14-.06-.2-.26-.35-.32a2.77,2.77,0,0,0-1.14-.17c-2-.06-1.48.1-2.6-.79a2.42,2.42,0,0,0-.56-.39c-1.42-.63-2.8,0-4-1.43a2,2,0,0,1-.46-.84c-.18-.48,0-.85.87-.8.37,0,.75.27,1.15.29a2.2,2.2,0,0,0,1.27-.29c1.64-1,2.36-4.18,2.87-5.88l.16-.54c1.45-5.1,2.06-10.54,5.26-14.9-.05-.28-.11-.54-.17-.79a.26.26,0,0,0-.13.07c-3.11,3.72-4.08,8.38-5.18,13h-.1c-.11.45-.22.9-.33,1.34S82.07,100.74,82,101.11Z"/><path class="cls-3" d="M95.32,102.35l.34-.29-.42-.14C95.27,102.06,95.29,102.21,95.32,102.35Z"/><path class="cls-3" d="M95.55,103.24a.4.4,0,0,1,0-.14h0Z"/><path class="cls-3" d="M88.23,86.6l0-.2h0l0,.2Z"/><path class="cls-3" d="M88,85.62h0c.06.25.12.51.17.79h0C88.13,86.13,88.08,85.86,88,85.62Z"/><path class="cls-3" d="M93.36,101.32l-.25-.08c.13.25.24.46.35.63a3.21,3.21,0,0,0,.71.84l-.17-.28Q93.67,101.88,93.36,101.32Z"/><path class="cls-3" d="M95.12,102.5c-.06-.12-.17-.38-.32-.73l-1.32-.42-.13,0q.31.56.63,1.12l.17.28a1.74,1.74,0,0,0,1.36.39c-.07-.25-.14-.5-.19-.75Z"/><path class="cls-3" d="M95.54,103.1a3.71,3.71,0,0,0,1.43-.59l-1-.35A3.59,3.59,0,0,0,95.54,103.1Z"/><path class="cls-3" d="M95.94,102.15l-.28-.09-.34.29c.05.26.12.51.19.75h0A3.59,3.59,0,0,1,95.94,102.15Z"/><path class="cls-3" d="M106.23,59.33a77.9,77.9,0,0,0,15,3.39c.21,0,.22-.3,0-.33A77.43,77.43,0,0,1,106.33,59a.17.17,0,0,0-.1.32Z"/><path class="cls-3" d="M96.16,56.1A83.12,83.12,0,0,1,81,53.2a.17.17,0,0,0-.1.32,83.6,83.6,0,0,0,15.24,2.91c.21,0,.22-.31,0-.33Z"/><path class="cls-3" d="M97.22,55.3a68.43,68.43,0,0,1-14-5.64c-.19-.1-.37.18-.18.28a68.85,68.85,0,0,0,14.11,5.68c.2.06.3-.26.1-.32Z"/><path class="cls-3" d="M112.38,104.54a3.68,3.68,0,0,1,0,2,24.18,24.18,0,0,1-3.22,7.68c-.15.26.81.4,1,.14a24.53,24.53,0,0,0,3.26-7.79,3.78,3.78,0,0,0,0-2.11c-.13-.26-1.09-.2-1,.07Z"/></g></g></svg>